M48
; DRILL file {KiCad (5.1.9)-1} date 06/10/21 15:01:47
; FORMAT={-:-/ absolute / inch / decimal}
; #@! TF.CreationDate,2021-06-10T15:01:47-04:00
; #@! TF.GenerationSoftware,Kicad,Pcbnew,(5.1.9)-1
; #@! TF.FileFunction,Plated,1,2,PTH
FMAT,2
INCH
T1C0.0157
T2C0.0256
T3C0.0315
T4C0.0394
%
G90
G05
T1
X4.055Y-2.0525
X4.055Y-3.82
X4.075Y-2.0725
X4.075Y-3.53
X4.0775Y-2.5825
X4.097Y-2.39
X4.1009Y-3.5791
X4.1063Y-2.9362
X4.1115Y-3.2635
X4.116Y-3.23
X4.122Y-2.685
X4.13Y-2.245
X4.14Y-3.605
X4.1425Y-2.0575
X4.15Y-2.1025
X4.15Y-2.784
X4.15Y-3.244
X4.152Y-2.848
X4.155Y-2.876
X4.16Y-3.005
X4.16Y-3.055
X4.163Y-3.8
X4.1675Y-2.0275
X4.169Y-2.761
X4.17Y-3.1
X4.175Y-2.98
X4.175Y-3.03
X4.178Y-3.244
X4.187Y-3.747
X4.199Y-2.784
X4.2075Y-2.0525
X4.2102Y-3.6502
X4.216Y-2.759
X4.23Y-2.7
X4.2337Y-2.7273
X4.237Y-3.335
X4.238Y-3.438
X4.255Y-2.035
X4.2575Y-2.6275
X4.259Y-2.4625
X4.2852Y-2.675
X4.307Y-3.521
X4.322Y-2.634
X4.322Y-3.238
X4.324Y-2.718
X4.324Y-2.746
X4.324Y-2.774
X4.325Y-2.13
X4.325Y-3.045
X4.3277Y-2.8203
X4.33Y-3.572
X4.331Y-2.669
X4.352Y-2.804
X4.3625Y-2.87
X4.3785Y-2.5765
X4.3975Y-2.545
X4.4075Y-3.1245
X4.4075Y-3.2035
X4.4075Y-3.2835
X4.4075Y-3.3645
X4.4075Y-3.5025
X4.408Y-3.06
X4.42Y-2.569
X4.425Y-3.9075
X4.432Y-2.597
X4.469Y-2.65
X4.5425Y-2.75
X4.59Y-1.785
T2
X4.1575Y-3.91
X4.2075Y-3.91
X4.2575Y-3.91
X4.3075Y-3.91
X4.3575Y-3.91
T3
X3.9Y-2.0
X3.9Y-2.1
X3.9Y-2.2
X3.9Y-2.3
X3.9Y-2.4
X3.9Y-2.5
X3.9Y-2.6
X3.9Y-2.7
X3.9Y-2.8
X3.9Y-2.9
X3.9Y-3.0
X3.9Y-3.1
X3.9Y-3.2
X3.9Y-3.3
X3.9Y-3.4
X3.9Y-3.5
X3.9Y-3.6
X3.9Y-3.7
X3.9Y-3.8
X3.9Y-3.9
X3.9725Y-1.7713
X3.9725Y-1.85
X3.985Y-2.0
X3.985Y-2.1
X3.985Y-2.2
X3.985Y-2.3
X3.985Y-2.4
X3.985Y-2.5
X3.985Y-2.6
X3.985Y-2.7
X3.985Y-2.8
X3.985Y-2.9
X3.985Y-3.0
X3.985Y-3.1
X3.985Y-3.2
X3.985Y-3.3
X3.985Y-3.4
X3.985Y-3.5
X3.985Y-3.6
X3.985Y-3.7
X3.985Y-3.8
X3.985Y-3.9
X4.0512Y-1.7713
X4.0512Y-1.85
X4.13Y-1.7713
X4.13Y-1.85
X4.2087Y-1.7713
X4.2087Y-1.85
X4.2875Y-1.7713
X4.2875Y-1.85
X4.3662Y-1.7713
X4.3662Y-1.85
X4.4449Y-1.7713
X4.4449Y-1.85
X4.5Y-2.0
X4.5Y-2.1
X4.5Y-2.2
X4.5Y-2.3
X4.5Y-2.4
X4.5Y-2.5
X4.5Y-2.6
X4.5Y-2.7
X4.5Y-2.8
X4.5Y-2.9
X4.5Y-3.0
X4.5Y-3.1
X4.5Y-3.2
X4.5Y-3.3
X4.5Y-3.4
X4.5Y-3.5
X4.5Y-3.6
X4.5Y-3.7
X4.5Y-3.8
X4.5Y-3.9
X4.5237Y-1.7713
X4.5237Y-1.85
X4.585Y-2.0
X4.585Y-2.1
X4.585Y-2.2
X4.585Y-2.3
X4.585Y-2.4
X4.585Y-2.5
X4.585Y-2.6
X4.585Y-2.7
X4.585Y-2.8
X4.585Y-2.9
X4.585Y-3.0
X4.585Y-3.1
X4.585Y-3.2
X4.585Y-3.3
X4.585Y-3.4
X4.585Y-3.5
X4.585Y-3.6
X4.585Y-3.7
X4.585Y-3.8
X4.585Y-3.9
T4
X4.13Y-2.1725
X4.13Y-2.315
X4.13Y-2.4575
T0
M30
