G04 #@! TF.GenerationSoftware,KiCad,Pcbnew,(5.1.9)-1*
G04 #@! TF.CreationDate,2021-06-10T15:01:45-04:00*
G04 #@! TF.ProjectId,6526KernalSwitcherC,36353236-4b65-4726-9e61-6c5377697463,rev?*
G04 #@! TF.SameCoordinates,Original*
G04 #@! TF.FileFunction,Copper,L2,Bot*
G04 #@! TF.FilePolarity,Positive*
%FSLAX46Y46*%
G04 Gerber Fmt 4.6, Leading zero omitted, Abs format (unit mm)*
G04 Created by KiCad (PCBNEW (5.1.9)-1) date 2021-06-10 15:01:45*
%MOMM*%
%LPD*%
G01*
G04 APERTURE LIST*
G04 #@! TA.AperFunction,ComponentPad*
%ADD10O,1.600000X1.600000*%
G04 #@! TD*
G04 #@! TA.AperFunction,ComponentPad*
%ADD11R,1.600000X1.600000*%
G04 #@! TD*
G04 #@! TA.AperFunction,ComponentPad*
%ADD12R,1.000000X1.000000*%
G04 #@! TD*
G04 #@! TA.AperFunction,ComponentPad*
%ADD13O,1.000000X1.000000*%
G04 #@! TD*
G04 #@! TA.AperFunction,SMDPad,CuDef*
%ADD14R,2.400000X0.740000*%
G04 #@! TD*
G04 #@! TA.AperFunction,ComponentPad*
%ADD15R,1.700000X1.700000*%
G04 #@! TD*
G04 #@! TA.AperFunction,ComponentPad*
%ADD16R,1.350000X1.350000*%
G04 #@! TD*
G04 #@! TA.AperFunction,ComponentPad*
%ADD17O,1.350000X1.350000*%
G04 #@! TD*
G04 #@! TA.AperFunction,ViaPad*
%ADD18C,0.488800*%
G04 #@! TD*
G04 #@! TA.AperFunction,Conductor*
%ADD19C,0.880000*%
G04 #@! TD*
G04 #@! TA.AperFunction,Conductor*
%ADD20C,0.488000*%
G04 #@! TD*
G04 #@! TA.AperFunction,Conductor*
%ADD21C,0.288000*%
G04 #@! TD*
G04 #@! TA.AperFunction,Conductor*
%ADD22C,0.250000*%
G04 #@! TD*
G04 #@! TA.AperFunction,Conductor*
%ADD23C,0.239000*%
G04 #@! TD*
G04 #@! TA.AperFunction,Conductor*
%ADD24C,0.237000*%
G04 #@! TD*
G04 #@! TA.AperFunction,Conductor*
%ADD25C,0.100000*%
G04 #@! TD*
G04 APERTURE END LIST*
D10*
X114300000Y-50800000D03*
X99060000Y-99060000D03*
X114300000Y-53340000D03*
X99060000Y-96520000D03*
X114300000Y-55880000D03*
X99060000Y-93980000D03*
X114300000Y-58420000D03*
X99060000Y-91440000D03*
X114300000Y-60960000D03*
X99060000Y-88900000D03*
X114300000Y-63500000D03*
X99060000Y-86360000D03*
X114300000Y-66040000D03*
X99060000Y-83820000D03*
X114300000Y-68580000D03*
X99060000Y-81280000D03*
X114300000Y-71120000D03*
X99060000Y-78740000D03*
X114300000Y-73660000D03*
X99060000Y-76200000D03*
X114300000Y-76200000D03*
X99060000Y-73660000D03*
X114300000Y-78740000D03*
X99060000Y-71120000D03*
X114300000Y-81280000D03*
X99060000Y-68580000D03*
X114300000Y-83820000D03*
X99060000Y-66040000D03*
X114300000Y-86360000D03*
X99060000Y-63500000D03*
X114300000Y-88900000D03*
X99060000Y-60960000D03*
X114300000Y-91440000D03*
X99060000Y-58420000D03*
X114300000Y-93980000D03*
X99060000Y-55880000D03*
X114300000Y-96520000D03*
X99060000Y-53340000D03*
X114300000Y-99060000D03*
D11*
X99060000Y-50800000D03*
D12*
X105600500Y-99314000D03*
D13*
X106870500Y-99314000D03*
X108140500Y-99314000D03*
X109410500Y-99314000D03*
X110680500Y-99314000D03*
D14*
X106000000Y-96456500D03*
X109900000Y-96456500D03*
X106000000Y-95186500D03*
X109900000Y-95186500D03*
X106000000Y-93916500D03*
X109900000Y-93916500D03*
D15*
X104902000Y-58801000D03*
X104902000Y-55181500D03*
X104902000Y-62420500D03*
D11*
X101219000Y-50800000D03*
D10*
X116459000Y-99060000D03*
X101219000Y-53340000D03*
X116459000Y-96520000D03*
X101219000Y-55880000D03*
X116459000Y-93980000D03*
X101219000Y-58420000D03*
X116459000Y-91440000D03*
X101219000Y-60960000D03*
X116459000Y-88900000D03*
X101219000Y-63500000D03*
X116459000Y-86360000D03*
X101219000Y-66040000D03*
X116459000Y-83820000D03*
X101219000Y-68580000D03*
X116459000Y-81280000D03*
X101219000Y-71120000D03*
X116459000Y-78740000D03*
X101219000Y-73660000D03*
X116459000Y-76200000D03*
X101219000Y-76200000D03*
X116459000Y-73660000D03*
X101219000Y-78740000D03*
X116459000Y-71120000D03*
X101219000Y-81280000D03*
X116459000Y-68580000D03*
X101219000Y-83820000D03*
X116459000Y-66040000D03*
X101219000Y-86360000D03*
X116459000Y-63500000D03*
X101219000Y-88900000D03*
X116459000Y-60960000D03*
X101219000Y-91440000D03*
X116459000Y-58420000D03*
X101219000Y-93980000D03*
X116459000Y-55880000D03*
X101219000Y-96520000D03*
X116459000Y-53340000D03*
X101219000Y-99060000D03*
X116459000Y-50800000D03*
D16*
X100901500Y-46990000D03*
D17*
X100901500Y-44990000D03*
X102901500Y-46990000D03*
X102901500Y-44990000D03*
X104901500Y-46990000D03*
X104901500Y-44990000D03*
X106901500Y-46990000D03*
X106901500Y-44990000D03*
X108901500Y-46990000D03*
X108901500Y-44990000D03*
X110901500Y-46990000D03*
X110901500Y-44990000D03*
X112901500Y-46990000D03*
X112901500Y-44990000D03*
X114901500Y-46990000D03*
X114901500Y-44990000D03*
D18*
X109778800Y-82245200D03*
X109855000Y-77343000D03*
X108140500Y-66738500D03*
X107442000Y-68580000D03*
X108844510Y-67945000D03*
X106938201Y-92714201D03*
X108178600Y-62547500D03*
X109923492Y-71635708D03*
X108077000Y-51689000D03*
X116586000Y-45339000D03*
X112395000Y-99250500D03*
X105918000Y-78740000D03*
X115379500Y-69850000D03*
X104902000Y-57023000D03*
X110807500Y-72898000D03*
X111963200Y-77724000D03*
X111950500Y-79362300D03*
X111950500Y-81368900D03*
X111950500Y-83400900D03*
X111950500Y-85458300D03*
X111950500Y-88963500D03*
X105740200Y-96520000D03*
X105410000Y-82397600D03*
X104162039Y-90909961D03*
X106349800Y-95173800D03*
X106121200Y-82397600D03*
X105156000Y-91567000D03*
X102997000Y-97028000D03*
X104698800Y-68199000D03*
X104298750Y-74580750D03*
X109397800Y-89433400D03*
X104546400Y-82042000D03*
X107619800Y-84709000D03*
X104432100Y-82892900D03*
X103505000Y-89662000D03*
X104063800Y-60706000D03*
X105664000Y-77597000D03*
X106045000Y-75692000D03*
X110540800Y-71221600D03*
X109829600Y-70459600D03*
X109829600Y-69748400D03*
X109829600Y-69037200D03*
X106045000Y-76962000D03*
X105664000Y-76327000D03*
X109982000Y-90728800D03*
X107645200Y-87325200D03*
X103568500Y-65595500D03*
X110007400Y-67792600D03*
X111213900Y-65443100D03*
X112268000Y-65252600D03*
X113512600Y-67310000D03*
X112572800Y-65963800D03*
X111696500Y-64643000D03*
X109855000Y-54102000D03*
X109778800Y-66903600D03*
X105460800Y-72339200D03*
X102997000Y-52133500D03*
X105410000Y-70713600D03*
X105409501Y-53403999D03*
X105892600Y-70129400D03*
X105219500Y-52260500D03*
X106654600Y-70713600D03*
X105854500Y-51498500D03*
X107086400Y-70078600D03*
X106870500Y-52133500D03*
X107536201Y-69273199D03*
X105537000Y-73050400D03*
X103505000Y-52641500D03*
D19*
X99060000Y-50800000D02*
X101219000Y-50800000D01*
D20*
X107696000Y-68580000D02*
X108209510Y-68580000D01*
X108140500Y-68135500D02*
X107696000Y-68580000D01*
X108140500Y-66738500D02*
X108140500Y-68135500D01*
X107442000Y-67437000D02*
X108140500Y-66738500D01*
X107442000Y-68580000D02*
X107442000Y-67437000D01*
X108209510Y-68580000D02*
X108844510Y-67945000D01*
X107442000Y-68580000D02*
X108209510Y-68580000D01*
X109855000Y-77343000D02*
X109923492Y-77274508D01*
X109778800Y-82245200D02*
X111002990Y-83469390D01*
X111002990Y-92511790D02*
X110972600Y-92542180D01*
X111002990Y-83469390D02*
X111002990Y-92511790D01*
X110972600Y-92542180D02*
X110972600Y-93319600D01*
X110375700Y-93916500D02*
X109900000Y-93916500D01*
X110972600Y-93319600D02*
X110375700Y-93916500D01*
D21*
X109029500Y-93916500D02*
X109900000Y-93916500D01*
X106938201Y-92714201D02*
X107827201Y-92714201D01*
X107827201Y-92714201D02*
X109029500Y-93916500D01*
D20*
X108140500Y-66392867D02*
X108178600Y-66354767D01*
X108140500Y-66738500D02*
X108140500Y-66392867D01*
X108178600Y-66354767D02*
X108178600Y-63982600D01*
X108178600Y-63982600D02*
X108178600Y-62547500D01*
X101219000Y-50800000D02*
X107188000Y-50800000D01*
X108178600Y-51790600D02*
X108178600Y-62547500D01*
X107188000Y-50800000D02*
X108077000Y-51689000D01*
X108140500Y-67240990D02*
X108844510Y-67945000D01*
X108140500Y-66738500D02*
X108140500Y-67240990D01*
X108077000Y-51689000D02*
X108178600Y-51790600D01*
X112834510Y-73230332D02*
X112834510Y-98810990D01*
X111514179Y-71910001D02*
X112834510Y-73230332D01*
X109923492Y-71635708D02*
X110197785Y-71910001D01*
X110197785Y-71910001D02*
X111514179Y-71910001D01*
X112834510Y-98810990D02*
X112395000Y-99250500D01*
X112395000Y-99250500D02*
X112395000Y-99250500D01*
X109923492Y-72184294D02*
X110197785Y-71910001D01*
X109923492Y-72766008D02*
X109923492Y-72184294D01*
X109923492Y-72766008D02*
X109923492Y-71635708D01*
X109923492Y-77274508D02*
X109923492Y-72766008D01*
D19*
X99060000Y-99060000D02*
X101219000Y-99060000D01*
X102350370Y-99060000D02*
X103302870Y-98107500D01*
X101219000Y-99060000D02*
X102350370Y-99060000D01*
X110181106Y-98107500D02*
X110680500Y-98606894D01*
X110680500Y-98606894D02*
X110680500Y-99314000D01*
X110680500Y-99314000D02*
X110680500Y-98361500D01*
X110680500Y-98361500D02*
X111950500Y-97091500D01*
X110934500Y-98107500D02*
X111950500Y-97091500D01*
X109474000Y-98107500D02*
X110934500Y-98107500D01*
X109474000Y-98107500D02*
X110181106Y-98107500D01*
X107251500Y-98107500D02*
X109474000Y-98107500D01*
X103302870Y-98107500D02*
X107251500Y-98107500D01*
X107251500Y-98107500D02*
X107442000Y-98107500D01*
D20*
X109029500Y-96456500D02*
X109900000Y-96456500D01*
X107251500Y-98107500D02*
X107378500Y-98107500D01*
X107378500Y-98107500D02*
X109029500Y-96456500D01*
D19*
X111950500Y-97091500D02*
X111950500Y-88963500D01*
X111950500Y-79362300D02*
X111950500Y-73596500D01*
X111950500Y-81368900D02*
X111950500Y-79362300D01*
X111950500Y-83400900D02*
X111950500Y-81368900D01*
X111950500Y-85458300D02*
X111950500Y-83400900D01*
X111950500Y-88963500D02*
X111950500Y-85458300D01*
X111252000Y-72898000D02*
X110807500Y-72898000D01*
X111950500Y-73596500D02*
X111252000Y-72898000D01*
D22*
X105410000Y-82397600D02*
X105410000Y-82811050D01*
X105410000Y-82811050D02*
X104162039Y-84059011D01*
X104162039Y-84059011D02*
X104162039Y-90909961D01*
X104162039Y-90909961D02*
X104162039Y-90909961D01*
X106121200Y-82743233D02*
X106121200Y-82397600D01*
X105611703Y-83252730D02*
X106121200Y-82743233D01*
X105604730Y-83252730D02*
X105611703Y-83252730D01*
X105156000Y-83701460D02*
X105604730Y-83252730D01*
X105156000Y-91567000D02*
X105156000Y-83701460D01*
X103311490Y-97342490D02*
X107269012Y-97342490D01*
X102997000Y-97028000D02*
X103311490Y-97342490D01*
X109054900Y-95186500D02*
X109900000Y-95186500D01*
X107269012Y-97342490D02*
X108077000Y-96534502D01*
X108077000Y-96534502D02*
X108077000Y-96164400D01*
X108077000Y-96164400D02*
X109054900Y-95186500D01*
D21*
X106000000Y-92781568D02*
X106833568Y-91948000D01*
X106000000Y-93916500D02*
X106000000Y-92781568D01*
X106833568Y-91948000D02*
X107467400Y-91948000D01*
X107467400Y-91948000D02*
X109397800Y-90017600D01*
X109397800Y-90017600D02*
X109397800Y-89433400D01*
X109397800Y-89433400D02*
X109397800Y-89433400D01*
D22*
X107619800Y-82499200D02*
X107619800Y-84709000D01*
X107619800Y-84709000D02*
X107619800Y-84709000D01*
X104298750Y-68599050D02*
X104698800Y-68199000D01*
X104298750Y-74580750D02*
X104298750Y-68599050D01*
X106918201Y-81797601D02*
X107619800Y-82499200D01*
X104790799Y-81797601D02*
X106918201Y-81797601D01*
X104546400Y-82042000D02*
X104790799Y-81797601D01*
X103251000Y-89408000D02*
X103505000Y-89662000D01*
X103251000Y-89281000D02*
X103251000Y-89408000D01*
X104187701Y-83137299D02*
X104187701Y-83396939D01*
X103262020Y-89269980D02*
X103251000Y-89281000D01*
X103712030Y-83872610D02*
X103712029Y-85776201D01*
X103262020Y-86226210D02*
X103262020Y-89269980D01*
X104187701Y-83396939D02*
X103712030Y-83872610D01*
X104432100Y-82892900D02*
X104187701Y-83137299D01*
X103712029Y-85776201D02*
X103262020Y-86226210D01*
X104889300Y-55181500D02*
X104902000Y-55181500D01*
X103726999Y-56343801D02*
X104889300Y-55181500D01*
X104063800Y-60706000D02*
X103726999Y-60369199D01*
X103726999Y-60369199D02*
X103726999Y-56343801D01*
D19*
X114300000Y-66040000D02*
X116459000Y-66040000D01*
X99060000Y-81280000D02*
X101219000Y-81280000D01*
D22*
X105664000Y-77597000D02*
X105664000Y-77597000D01*
X101219000Y-81280000D02*
X102387400Y-80111600D01*
X102387400Y-80111600D02*
X102387400Y-78333600D01*
X103124000Y-77597000D02*
X105664000Y-77597000D01*
X102387400Y-78333600D02*
X103124000Y-77597000D01*
D19*
X99060000Y-55880000D02*
X101219000Y-55880000D01*
X99060000Y-58420000D02*
X101219000Y-58420000D01*
X99060000Y-60960000D02*
X101219000Y-60960000D01*
X99060000Y-63500000D02*
X101219000Y-63500000D01*
X99060000Y-71120000D02*
X101219000Y-71120000D01*
X99060000Y-73660000D02*
X101219000Y-73660000D01*
D22*
X101219000Y-73660000D02*
X103609170Y-76050170D01*
X103609170Y-76050170D02*
X104944864Y-76050170D01*
X105303034Y-75692000D02*
X106045000Y-75692000D01*
X104944864Y-76050170D02*
X105303034Y-75692000D01*
D19*
X114300000Y-50800000D02*
X116459000Y-50800000D01*
X114300000Y-53340000D02*
X116459000Y-53340000D01*
X99060000Y-96520000D02*
X101219000Y-96520000D01*
X114300000Y-55880000D02*
X116459000Y-55880000D01*
X99060000Y-93980000D02*
X101219000Y-93980000D01*
X114300000Y-58420000D02*
X116459000Y-58420000D01*
X99060000Y-91440000D02*
X101219000Y-91440000D01*
D22*
X109354091Y-74160127D02*
X109354482Y-74160518D01*
X107964431Y-75550569D02*
X109354482Y-74160518D01*
X102812010Y-87943400D02*
X102812010Y-86039810D01*
X107964431Y-79513360D02*
X107964431Y-75550569D01*
X106130201Y-81347590D02*
X107964431Y-79513360D01*
X102812010Y-86039810D02*
X103262020Y-85589800D01*
X102362000Y-90297000D02*
X102362000Y-88393410D01*
X103712030Y-82033656D02*
X104398095Y-81347591D01*
X102362000Y-88393410D02*
X102812010Y-87943400D01*
X101219000Y-91440000D02*
X102362000Y-90297000D01*
X103712030Y-83236200D02*
X103712030Y-82033656D01*
X104398095Y-81347591D02*
X106130201Y-81347590D01*
X103262020Y-85589800D02*
X103262020Y-83686210D01*
X103262020Y-83686210D02*
X103712030Y-83236200D01*
X110508486Y-71221600D02*
X110540800Y-71221600D01*
X109354482Y-73896082D02*
X109354091Y-73895691D01*
X109354482Y-74160518D02*
X109354482Y-73896082D01*
X110353193Y-71066307D02*
X110508486Y-71221600D01*
X109354091Y-73895691D02*
X109354091Y-71362395D01*
X109354091Y-71362395D02*
X109650179Y-71066307D01*
X109650179Y-71066307D02*
X110353193Y-71066307D01*
D19*
X114300000Y-60960000D02*
X116459000Y-60960000D01*
X99060000Y-88900000D02*
X101219000Y-88900000D01*
D22*
X109483967Y-70459600D02*
X109829600Y-70459600D01*
X108904081Y-73974509D02*
X108904082Y-71039485D01*
X108904082Y-71039485D02*
X109483967Y-70459600D01*
X102362000Y-85853410D02*
X102812010Y-85403400D01*
X105943800Y-80897581D02*
X107514421Y-79326960D01*
X102362000Y-87757000D02*
X102362000Y-85853410D01*
X102812010Y-85403400D02*
X102812010Y-83499810D01*
X101219000Y-88900000D02*
X102362000Y-87757000D01*
X103262020Y-83049800D02*
X103262021Y-81847255D01*
X103262021Y-81847255D02*
X104211695Y-80897581D01*
X104211695Y-80897581D02*
X105943800Y-80897581D01*
X107514422Y-75364168D02*
X108904081Y-73974509D01*
X102812010Y-83499810D02*
X103262020Y-83049800D01*
X107514421Y-79326960D02*
X107514422Y-75364168D01*
D19*
X114300000Y-63500000D02*
X116459000Y-63500000D01*
X99060000Y-86360000D02*
X101219000Y-86360000D01*
D22*
X109220000Y-69748400D02*
X109829600Y-69748400D01*
X108454071Y-70514329D02*
X109220000Y-69748400D01*
X102812012Y-81660854D02*
X104025295Y-80447571D01*
X102812010Y-82863400D02*
X102812012Y-81660854D01*
X104025295Y-80447571D02*
X105757401Y-80447570D01*
X107064413Y-75177767D02*
X108454071Y-73788109D01*
X102362000Y-85217000D02*
X102362000Y-83313410D01*
X101219000Y-86360000D02*
X102362000Y-85217000D01*
X105757401Y-80447570D02*
X107064411Y-79140560D01*
X107064411Y-79140560D02*
X107064411Y-75615800D01*
X107064411Y-75615800D02*
X107064413Y-75177767D01*
X102362000Y-83313410D02*
X102812010Y-82863400D01*
X108454071Y-73788109D02*
X108454071Y-70514329D01*
D19*
X99060000Y-83820000D02*
X101219000Y-83820000D01*
D22*
X102362003Y-81474453D02*
X102362000Y-82677000D01*
X108004062Y-70303938D02*
X108004061Y-73601709D01*
X108889800Y-69418200D02*
X108004062Y-70303938D01*
X108913790Y-69418200D02*
X108889800Y-69418200D01*
X109294790Y-69037200D02*
X108913790Y-69418200D01*
X106614401Y-75503599D02*
X106614401Y-78954160D01*
X102362000Y-82677000D02*
X101219000Y-83820000D01*
X109829600Y-69037200D02*
X109294790Y-69037200D01*
X106614401Y-78954160D02*
X105571000Y-79997561D01*
X108004061Y-73601709D02*
X106614404Y-74991366D01*
X106614404Y-74991366D02*
X106614401Y-75503599D01*
X105571000Y-79997561D02*
X103838895Y-79997561D01*
X103838895Y-79997561D02*
X102362003Y-81474453D01*
D19*
X114300000Y-68580000D02*
X116459000Y-68580000D01*
X114300000Y-71120000D02*
X116459000Y-71120000D01*
X99060000Y-78740000D02*
X101219000Y-78740000D01*
D22*
X103020620Y-76962000D02*
X106045000Y-76962000D01*
X102997000Y-76962000D02*
X103020620Y-76962000D01*
X101219000Y-78740000D02*
X102997000Y-76962000D01*
D19*
X114300000Y-73660000D02*
X116459000Y-73660000D01*
X99060000Y-76200000D02*
X101219000Y-76200000D01*
D22*
X101346000Y-76327000D02*
X101219000Y-76200000D01*
X105308400Y-76327000D02*
X105664000Y-76327000D01*
X102350370Y-76200000D02*
X102650550Y-76500180D01*
X101219000Y-76200000D02*
X102350370Y-76200000D01*
X102650550Y-76500180D02*
X105131264Y-76500180D01*
X105131264Y-76500180D02*
X105306422Y-76325022D01*
X105306422Y-76325022D02*
X105308400Y-76327000D01*
D19*
X114300000Y-76200000D02*
X116459000Y-76200000D01*
X114300000Y-78740000D02*
X116459000Y-78740000D01*
X114300000Y-81280000D02*
X116459000Y-81280000D01*
X99060000Y-68580000D02*
X101219000Y-68580000D01*
X114300000Y-83820000D02*
X116459000Y-83820000D01*
X99060000Y-66040000D02*
X101219000Y-66040000D01*
X114300000Y-86360000D02*
X116459000Y-86360000D01*
X114300000Y-88900000D02*
X116459000Y-88900000D01*
X114300000Y-91440000D02*
X116459000Y-91440000D01*
X114300000Y-93980000D02*
X116459000Y-93980000D01*
X114300000Y-96520000D02*
X116459000Y-96520000D01*
X99060000Y-53340000D02*
X101219000Y-53340000D01*
X114300000Y-99060000D02*
X116459000Y-99060000D01*
D22*
X107645200Y-87325200D02*
X107645200Y-87325200D01*
D21*
X108127800Y-87325200D02*
X107645200Y-87325200D01*
X109986201Y-89183601D02*
X108127800Y-87325200D01*
X109982000Y-90383167D02*
X109986201Y-90378966D01*
X109986201Y-90378966D02*
X109986201Y-89183601D01*
X109982000Y-90728800D02*
X109982000Y-90383167D01*
D22*
X104013000Y-63309500D02*
X104902000Y-62420500D01*
X103568500Y-65595500D02*
X103568500Y-63754000D01*
X103568500Y-63754000D02*
X104013000Y-63309500D01*
X110718600Y-67081400D02*
X110007400Y-67792600D01*
X110587351Y-63397009D02*
X110194489Y-63789871D01*
X110194490Y-65902814D02*
X110718600Y-66426924D01*
X110718600Y-66426924D02*
X110718600Y-67081400D01*
X110587351Y-55943500D02*
X110587351Y-63397009D01*
X110194489Y-63789871D02*
X110194490Y-65902814D01*
D23*
X110901500Y-48864500D02*
X110901500Y-46990000D01*
X110587351Y-55943500D02*
X110587351Y-49178649D01*
X110587351Y-49178649D02*
X110901500Y-48864500D01*
D22*
X111213900Y-65443100D02*
X111213900Y-65003114D01*
X111127099Y-64916313D02*
X111127099Y-64130081D01*
X111213900Y-65003114D02*
X111127099Y-64916313D01*
X111127099Y-64130081D02*
X111487371Y-63769809D01*
X111487371Y-63707719D02*
X111487371Y-55943500D01*
X111487371Y-63769809D02*
X111487371Y-63707719D01*
D23*
X111487371Y-55924029D02*
X111492871Y-55918529D01*
X111487371Y-55943500D02*
X111487371Y-55924029D01*
X111487371Y-55943500D02*
X111487371Y-52850629D01*
X111487371Y-52850629D02*
X111476371Y-52839629D01*
X112901500Y-47944594D02*
X112901500Y-46990000D01*
X112901500Y-48453074D02*
X112901500Y-47944594D01*
X111476371Y-49878203D02*
X112901500Y-48453074D01*
X111476371Y-52839629D02*
X111476371Y-49878203D01*
D22*
X112268000Y-65252600D02*
X112268000Y-64460686D01*
X112268000Y-64262000D02*
X112387391Y-64142609D01*
X112268000Y-64460686D02*
X112268000Y-64262000D01*
X112387391Y-64142609D02*
X112387391Y-55880000D01*
D23*
X114681000Y-48387000D02*
X114901500Y-48166500D01*
X114209278Y-48387000D02*
X114681000Y-48387000D01*
X112387391Y-55880000D02*
X112387391Y-50208887D01*
X114901500Y-48166500D02*
X114901500Y-46990000D01*
X112387391Y-50208887D02*
X114209278Y-48387000D01*
D22*
X113512600Y-67310000D02*
X113512600Y-66917602D01*
X113512600Y-66917602D02*
X113174999Y-66580001D01*
X112837401Y-65402901D02*
X112837401Y-64393677D01*
X113174999Y-66580001D02*
X113174999Y-65740499D01*
X113174999Y-65740499D02*
X112837401Y-65402901D01*
X112837401Y-64393677D02*
X112837401Y-55818599D01*
D23*
X112837401Y-55818599D02*
X112837401Y-50480401D01*
X112837401Y-50480401D02*
X112841599Y-50480401D01*
X112841599Y-50480401D02*
X114427000Y-48895000D01*
X114427000Y-48895000D02*
X114793853Y-48895000D01*
X115576499Y-45664999D02*
X114901500Y-44990000D01*
X115896001Y-45984501D02*
X115576499Y-45664999D01*
X115896001Y-47792852D02*
X115896001Y-45984501D01*
X114793853Y-48895000D02*
X115896001Y-47792852D01*
D22*
X112572800Y-65963800D02*
X112328401Y-66208199D01*
X110644499Y-65716413D02*
X110644499Y-63976271D01*
X112328401Y-66208199D02*
X111136285Y-66208199D01*
X111136285Y-66208199D02*
X110644499Y-65716413D01*
X110644499Y-63976271D02*
X111037361Y-63583409D01*
X111037361Y-63583409D02*
X111037361Y-55943500D01*
D23*
X111037361Y-55943500D02*
X111037361Y-49696361D01*
X111896001Y-45984501D02*
X111576499Y-45664999D01*
X111576499Y-45664999D02*
X110901500Y-44990000D01*
X111896001Y-48837721D02*
X111896001Y-45984501D01*
X111037361Y-49696361D02*
X111896001Y-48837721D01*
D22*
X111696500Y-64643000D02*
X111696500Y-64197090D01*
X111696500Y-64197090D02*
X111937381Y-63956209D01*
X111937381Y-63956209D02*
X111937381Y-55880000D01*
D23*
X111937381Y-55880000D02*
X111937381Y-52473000D01*
X111937381Y-52473000D02*
X111915381Y-52451000D01*
X113906999Y-48068427D02*
X113906999Y-45995499D01*
X113576499Y-45664999D02*
X112901500Y-44990000D01*
X111915381Y-50060045D02*
X113906999Y-48068427D01*
X113906999Y-45995499D02*
X113576499Y-45664999D01*
X111915381Y-52451000D02*
X111915381Y-50060045D01*
X109855000Y-54102000D02*
X110148341Y-53808659D01*
X109576499Y-45664999D02*
X108901500Y-44990000D01*
X109896001Y-45984501D02*
X109576499Y-45664999D01*
X109896001Y-48730319D02*
X109896001Y-45984501D01*
X110148341Y-48982659D02*
X109896001Y-48730319D01*
X110148341Y-53808659D02*
X110148341Y-48982659D01*
D22*
X109778800Y-66123534D02*
X109744481Y-66089213D01*
X109778800Y-66903600D02*
X109778800Y-66123534D01*
X109744481Y-66089213D02*
X109744480Y-63603470D01*
X109744480Y-63603470D02*
X110137341Y-63210609D01*
X110137341Y-63210609D02*
X110137341Y-55956200D01*
D23*
X109689910Y-55143747D02*
X109682130Y-55143747D01*
X109709331Y-49164502D02*
X108901500Y-48356671D01*
X110131840Y-55585677D02*
X109689910Y-55143747D01*
X108901500Y-48356671D02*
X108901500Y-47944594D01*
X110131841Y-55947759D02*
X110131840Y-55585677D01*
X110137341Y-55953259D02*
X110131841Y-55947759D01*
X110137341Y-55956200D02*
X110137341Y-55953259D01*
X109181120Y-54642737D02*
X109181120Y-53886880D01*
X108901500Y-47944594D02*
X108901500Y-46990000D01*
X109682130Y-55143747D02*
X109181120Y-54642737D01*
X109181120Y-53886880D02*
X109709331Y-53358669D01*
X109709331Y-53358669D02*
X109709331Y-49164502D01*
D22*
X103839036Y-75600160D02*
X103276400Y-75037524D01*
X104758463Y-75600161D02*
X103839036Y-75600160D01*
X103276400Y-75037524D02*
X103276400Y-73406000D01*
X105666410Y-74692214D02*
X105666410Y-73763704D01*
X104758463Y-75600161D02*
X105666410Y-74692214D01*
X105806433Y-72339200D02*
X105460800Y-72339200D01*
X106106401Y-72639168D02*
X105806433Y-72339200D01*
X106106401Y-73323713D02*
X106106401Y-72639168D01*
X105666410Y-73763704D02*
X106106401Y-73323713D01*
X103276400Y-73406000D02*
X103276400Y-69875400D01*
X103276400Y-69875400D02*
X103276400Y-67843400D01*
X103276400Y-66782524D02*
X102546990Y-66053114D01*
X103276400Y-67843400D02*
X103276400Y-66782524D01*
X102546990Y-66053114D02*
X102546990Y-64262000D01*
X102546990Y-64262000D02*
X102546990Y-56489600D01*
X102546990Y-56489600D02*
X102546990Y-52583510D01*
X102546990Y-52583510D02*
X102997000Y-52133500D01*
X102997000Y-52133500D02*
X102997000Y-52133500D01*
X105268201Y-70571801D02*
X105268201Y-67925687D01*
X105410000Y-70713600D02*
X105268201Y-70571801D01*
X105268201Y-67925687D02*
X105268201Y-64759399D01*
X105268201Y-64759399D02*
X106077001Y-63950599D01*
X106077001Y-63950599D02*
X106077001Y-63530501D01*
X106077001Y-63530501D02*
X106077001Y-62382400D01*
X106077001Y-54071499D02*
X105409501Y-53403999D01*
X106077001Y-62382400D02*
X106077001Y-54071499D01*
X105409501Y-53403999D02*
X105409002Y-53403500D01*
D23*
X105219500Y-52260500D02*
X105219500Y-52260500D01*
D22*
X106527011Y-53568011D02*
X105219500Y-52260500D01*
X105892600Y-70129400D02*
X105892600Y-64771410D01*
X106527011Y-64136999D02*
X106527011Y-53568011D01*
X105892600Y-64771410D02*
X106527011Y-64136999D01*
X106462001Y-69744978D02*
X106342610Y-69625587D01*
X106654600Y-70713600D02*
X106462001Y-70521001D01*
X106462001Y-70521001D02*
X106462001Y-69744978D01*
X106342610Y-69625587D02*
X106342610Y-65328800D01*
X106342610Y-65328800D02*
X106342610Y-64957810D01*
X106977021Y-64323399D02*
X106977021Y-63903301D01*
X106342610Y-64957810D02*
X106977021Y-64323399D01*
X106977021Y-63903301D02*
X106977021Y-62560200D01*
X106977021Y-62560200D02*
X106977021Y-54356000D01*
X106977021Y-54356000D02*
X106977020Y-53381610D01*
X106977020Y-53381610D02*
X105854500Y-52259090D01*
X105854500Y-52259090D02*
X105854500Y-51498500D01*
X105854500Y-51498500D02*
X105854500Y-51498500D01*
X107086400Y-69666112D02*
X106872599Y-69452311D01*
X107086400Y-70078600D02*
X107086400Y-69666112D01*
X106866511Y-69452311D02*
X106792620Y-69378420D01*
X106872599Y-69452311D02*
X106866511Y-69452311D01*
X106792620Y-69378420D02*
X106792620Y-65328800D01*
X106792620Y-65328800D02*
X106792620Y-65144210D01*
X107427031Y-64509799D02*
X107427031Y-64089701D01*
X106792620Y-65144210D02*
X107427031Y-64509799D01*
X107427031Y-64089701D02*
X107427031Y-62636400D01*
X107427031Y-62636400D02*
X107427031Y-54546500D01*
X107427029Y-54150529D02*
X107427029Y-52690029D01*
X107427031Y-54546500D02*
X107427031Y-54150531D01*
X107427031Y-54150531D02*
X107427029Y-54150529D01*
X107427029Y-52690029D02*
X106870500Y-52133500D01*
X106870500Y-52133500D02*
X106870500Y-52133500D01*
X107536201Y-69273199D02*
X108359025Y-69273199D01*
X108359025Y-69273199D02*
X109413911Y-68218313D01*
X109413911Y-68218313D02*
X109413911Y-67671687D01*
X109209399Y-66584001D02*
X109294472Y-66498928D01*
X109209399Y-67176913D02*
X109209399Y-66584001D01*
X109413911Y-67671687D02*
X109413911Y-67381425D01*
X109413911Y-67381425D02*
X109209399Y-67176913D01*
X109294472Y-66498928D02*
X109294471Y-63417069D01*
X109294471Y-63417069D02*
X109687331Y-63024209D01*
X109687331Y-63024209D02*
X109687331Y-56007000D01*
X109687331Y-56007000D02*
X109687331Y-55769800D01*
D23*
X109687331Y-55769800D02*
X109687331Y-55762020D01*
X109687331Y-55769800D02*
X108742110Y-54824579D01*
X106901500Y-44990000D02*
X107906999Y-45995499D01*
X107906999Y-48026499D02*
X109270321Y-49389821D01*
X107906999Y-45995499D02*
X107906999Y-48026499D01*
X109270321Y-49389821D02*
X109270321Y-53176827D01*
X108742110Y-53705037D02*
X108742110Y-54824579D01*
X109270321Y-53176827D02*
X108742110Y-53705037D01*
D22*
X103729349Y-74854063D02*
X103729349Y-73207051D01*
X105216401Y-74505813D02*
X104572063Y-75150151D01*
X104572063Y-75150151D02*
X104025437Y-75150151D01*
X104025437Y-75150151D02*
X103729349Y-74854063D01*
X105216401Y-73370999D02*
X105537000Y-73050400D01*
X105216401Y-74505813D02*
X105216401Y-73370999D01*
X103729349Y-73207051D02*
X103729349Y-67746051D01*
X103729349Y-66599063D02*
X102997000Y-65866714D01*
X103729349Y-67746051D02*
X103729349Y-66599063D01*
X102997000Y-65866714D02*
X102997000Y-64135000D01*
X102997000Y-64135000D02*
X102997000Y-56438800D01*
X102997000Y-56438800D02*
X102997000Y-53149500D01*
X102997000Y-53149500D02*
X103505000Y-52641500D01*
X103505000Y-52641500D02*
X103505000Y-52641500D01*
D24*
X112694499Y-66556414D02*
X112692176Y-66580001D01*
X112694499Y-66603587D01*
X112694499Y-66603597D01*
X112701452Y-66674194D01*
X112728928Y-66764769D01*
X112773546Y-66848244D01*
X112833591Y-66921409D01*
X112851921Y-66936452D01*
X112969357Y-67053889D01*
X112935753Y-67135016D01*
X112912700Y-67250915D01*
X112912700Y-67369085D01*
X112935753Y-67484984D01*
X112980975Y-67594159D01*
X113046627Y-67692414D01*
X113130186Y-67775973D01*
X113228441Y-67841625D01*
X113337616Y-67886847D01*
X113369239Y-67893137D01*
X113276009Y-68032665D01*
X113188905Y-68242953D01*
X113144500Y-68466193D01*
X113144500Y-68693807D01*
X113188905Y-68917047D01*
X113276009Y-69127335D01*
X113402465Y-69316588D01*
X113563412Y-69477535D01*
X113752665Y-69603991D01*
X113962953Y-69691095D01*
X114186193Y-69735500D01*
X114413807Y-69735500D01*
X114637047Y-69691095D01*
X114847335Y-69603991D01*
X115036588Y-69477535D01*
X115138623Y-69375500D01*
X115620377Y-69375500D01*
X115722412Y-69477535D01*
X115911665Y-69603991D01*
X116121953Y-69691095D01*
X116345193Y-69735500D01*
X116572807Y-69735500D01*
X116796047Y-69691095D01*
X117006335Y-69603991D01*
X117195588Y-69477535D01*
X117221501Y-69451622D01*
X117221501Y-70248378D01*
X117195588Y-70222465D01*
X117006335Y-70096009D01*
X116796047Y-70008905D01*
X116572807Y-69964500D01*
X116345193Y-69964500D01*
X116121953Y-70008905D01*
X115911665Y-70096009D01*
X115722412Y-70222465D01*
X115620377Y-70324500D01*
X115138623Y-70324500D01*
X115036588Y-70222465D01*
X114847335Y-70096009D01*
X114637047Y-70008905D01*
X114413807Y-69964500D01*
X114186193Y-69964500D01*
X113962953Y-70008905D01*
X113752665Y-70096009D01*
X113563412Y-70222465D01*
X113402465Y-70383412D01*
X113276009Y-70572665D01*
X113188905Y-70782953D01*
X113144500Y-71006193D01*
X113144500Y-71233807D01*
X113188905Y-71457047D01*
X113276009Y-71667335D01*
X113402465Y-71856588D01*
X113563412Y-72017535D01*
X113752665Y-72143991D01*
X113962953Y-72231095D01*
X114186193Y-72275500D01*
X114413807Y-72275500D01*
X114637047Y-72231095D01*
X114847335Y-72143991D01*
X115036588Y-72017535D01*
X115138623Y-71915500D01*
X115620377Y-71915500D01*
X115722412Y-72017535D01*
X115911665Y-72143991D01*
X116121953Y-72231095D01*
X116345193Y-72275500D01*
X116572807Y-72275500D01*
X116796047Y-72231095D01*
X117006335Y-72143991D01*
X117195588Y-72017535D01*
X117221501Y-71991622D01*
X117221500Y-72788377D01*
X117195588Y-72762465D01*
X117006335Y-72636009D01*
X116796047Y-72548905D01*
X116572807Y-72504500D01*
X116345193Y-72504500D01*
X116121953Y-72548905D01*
X115911665Y-72636009D01*
X115722412Y-72762465D01*
X115620377Y-72864500D01*
X115138623Y-72864500D01*
X115036588Y-72762465D01*
X114847335Y-72636009D01*
X114637047Y-72548905D01*
X114413807Y-72504500D01*
X114186193Y-72504500D01*
X113962953Y-72548905D01*
X113752665Y-72636009D01*
X113563412Y-72762465D01*
X113402465Y-72923412D01*
X113276009Y-73112665D01*
X113188905Y-73322953D01*
X113144500Y-73546193D01*
X113144500Y-73773807D01*
X113188905Y-73997047D01*
X113276009Y-74207335D01*
X113402465Y-74396588D01*
X113563412Y-74557535D01*
X113752665Y-74683991D01*
X113962953Y-74771095D01*
X114186193Y-74815500D01*
X114413807Y-74815500D01*
X114637047Y-74771095D01*
X114847335Y-74683991D01*
X115036588Y-74557535D01*
X115138623Y-74455500D01*
X115620377Y-74455500D01*
X115722412Y-74557535D01*
X115911665Y-74683991D01*
X116121953Y-74771095D01*
X116345193Y-74815500D01*
X116572807Y-74815500D01*
X116796047Y-74771095D01*
X117006335Y-74683991D01*
X117195588Y-74557535D01*
X117221500Y-74531623D01*
X117221500Y-75328377D01*
X117195588Y-75302465D01*
X117006335Y-75176009D01*
X116796047Y-75088905D01*
X116572807Y-75044500D01*
X116345193Y-75044500D01*
X116121953Y-75088905D01*
X115911665Y-75176009D01*
X115722412Y-75302465D01*
X115620377Y-75404500D01*
X115138623Y-75404500D01*
X115036588Y-75302465D01*
X114847335Y-75176009D01*
X114637047Y-75088905D01*
X114413807Y-75044500D01*
X114186193Y-75044500D01*
X113962953Y-75088905D01*
X113752665Y-75176009D01*
X113563412Y-75302465D01*
X113402465Y-75463412D01*
X113276009Y-75652665D01*
X113188905Y-75862953D01*
X113144500Y-76086193D01*
X113144500Y-76313807D01*
X113188905Y-76537047D01*
X113276009Y-76747335D01*
X113402465Y-76936588D01*
X113563412Y-77097535D01*
X113752665Y-77223991D01*
X113962953Y-77311095D01*
X114186193Y-77355500D01*
X114413807Y-77355500D01*
X114637047Y-77311095D01*
X114847335Y-77223991D01*
X115036588Y-77097535D01*
X115138623Y-76995500D01*
X115620377Y-76995500D01*
X115722412Y-77097535D01*
X115911665Y-77223991D01*
X116121953Y-77311095D01*
X116345193Y-77355500D01*
X116572807Y-77355500D01*
X116796047Y-77311095D01*
X117006335Y-77223991D01*
X117195588Y-77097535D01*
X117221500Y-77071623D01*
X117221500Y-77868377D01*
X117195588Y-77842465D01*
X117006335Y-77716009D01*
X116796047Y-77628905D01*
X116572807Y-77584500D01*
X116345193Y-77584500D01*
X116121953Y-77628905D01*
X115911665Y-77716009D01*
X115722412Y-77842465D01*
X115620377Y-77944500D01*
X115138623Y-77944500D01*
X115036588Y-77842465D01*
X114847335Y-77716009D01*
X114637047Y-77628905D01*
X114413807Y-77584500D01*
X114186193Y-77584500D01*
X113962953Y-77628905D01*
X113752665Y-77716009D01*
X113563412Y-77842465D01*
X113402465Y-78003412D01*
X113276009Y-78192665D01*
X113188905Y-78402953D01*
X113144500Y-78626193D01*
X113144500Y-78853807D01*
X113188905Y-79077047D01*
X113276009Y-79287335D01*
X113402465Y-79476588D01*
X113563412Y-79637535D01*
X113752665Y-79763991D01*
X113962953Y-79851095D01*
X114186193Y-79895500D01*
X114413807Y-79895500D01*
X114637047Y-79851095D01*
X114847335Y-79763991D01*
X115036588Y-79637535D01*
X115138623Y-79535500D01*
X115620377Y-79535500D01*
X115722412Y-79637535D01*
X115911665Y-79763991D01*
X116121953Y-79851095D01*
X116345193Y-79895500D01*
X116572807Y-79895500D01*
X116796047Y-79851095D01*
X117006335Y-79763991D01*
X117195588Y-79637535D01*
X117221500Y-79611623D01*
X117221500Y-80408377D01*
X117195588Y-80382465D01*
X117006335Y-80256009D01*
X116796047Y-80168905D01*
X116572807Y-80124500D01*
X116345193Y-80124500D01*
X116121953Y-80168905D01*
X115911665Y-80256009D01*
X115722412Y-80382465D01*
X115620377Y-80484500D01*
X115138623Y-80484500D01*
X115036588Y-80382465D01*
X114847335Y-80256009D01*
X114637047Y-80168905D01*
X114413807Y-80124500D01*
X114186193Y-80124500D01*
X113962953Y-80168905D01*
X113752665Y-80256009D01*
X113563412Y-80382465D01*
X113402465Y-80543412D01*
X113276009Y-80732665D01*
X113188905Y-80942953D01*
X113144500Y-81166193D01*
X113144500Y-81393807D01*
X113188905Y-81617047D01*
X113276009Y-81827335D01*
X113402465Y-82016588D01*
X113563412Y-82177535D01*
X113752665Y-82303991D01*
X113962953Y-82391095D01*
X114186193Y-82435500D01*
X114413807Y-82435500D01*
X114637047Y-82391095D01*
X114847335Y-82303991D01*
X115036588Y-82177535D01*
X115138623Y-82075500D01*
X115620377Y-82075500D01*
X115722412Y-82177535D01*
X115911665Y-82303991D01*
X116121953Y-82391095D01*
X116345193Y-82435500D01*
X116572807Y-82435500D01*
X116796047Y-82391095D01*
X117006335Y-82303991D01*
X117195588Y-82177535D01*
X117221500Y-82151623D01*
X117221500Y-82948377D01*
X117195588Y-82922465D01*
X117006335Y-82796009D01*
X116796047Y-82708905D01*
X116572807Y-82664500D01*
X116345193Y-82664500D01*
X116121953Y-82708905D01*
X115911665Y-82796009D01*
X115722412Y-82922465D01*
X115620377Y-83024500D01*
X115138623Y-83024500D01*
X115036588Y-82922465D01*
X114847335Y-82796009D01*
X114637047Y-82708905D01*
X114413807Y-82664500D01*
X114186193Y-82664500D01*
X113962953Y-82708905D01*
X113752665Y-82796009D01*
X113563412Y-82922465D01*
X113402465Y-83083412D01*
X113276009Y-83272665D01*
X113188905Y-83482953D01*
X113144500Y-83706193D01*
X113144500Y-83933807D01*
X113188905Y-84157047D01*
X113276009Y-84367335D01*
X113402465Y-84556588D01*
X113563412Y-84717535D01*
X113752665Y-84843991D01*
X113962953Y-84931095D01*
X114186193Y-84975500D01*
X114413807Y-84975500D01*
X114637047Y-84931095D01*
X114847335Y-84843991D01*
X115036588Y-84717535D01*
X115138623Y-84615500D01*
X115620377Y-84615500D01*
X115722412Y-84717535D01*
X115911665Y-84843991D01*
X116121953Y-84931095D01*
X116345193Y-84975500D01*
X116572807Y-84975500D01*
X116796047Y-84931095D01*
X117006335Y-84843991D01*
X117195588Y-84717535D01*
X117221500Y-84691623D01*
X117221500Y-85488377D01*
X117195588Y-85462465D01*
X117006335Y-85336009D01*
X116796047Y-85248905D01*
X116572807Y-85204500D01*
X116345193Y-85204500D01*
X116121953Y-85248905D01*
X115911665Y-85336009D01*
X115722412Y-85462465D01*
X115620377Y-85564500D01*
X115138623Y-85564500D01*
X115036588Y-85462465D01*
X114847335Y-85336009D01*
X114637047Y-85248905D01*
X114413807Y-85204500D01*
X114186193Y-85204500D01*
X113962953Y-85248905D01*
X113752665Y-85336009D01*
X113563412Y-85462465D01*
X113402465Y-85623412D01*
X113276009Y-85812665D01*
X113188905Y-86022953D01*
X113144500Y-86246193D01*
X113144500Y-86473807D01*
X113188905Y-86697047D01*
X113276009Y-86907335D01*
X113402465Y-87096588D01*
X113563412Y-87257535D01*
X113752665Y-87383991D01*
X113962953Y-87471095D01*
X114186193Y-87515500D01*
X114413807Y-87515500D01*
X114637047Y-87471095D01*
X114847335Y-87383991D01*
X115036588Y-87257535D01*
X115138623Y-87155500D01*
X115620377Y-87155500D01*
X115722412Y-87257535D01*
X115911665Y-87383991D01*
X116121953Y-87471095D01*
X116345193Y-87515500D01*
X116572807Y-87515500D01*
X116796047Y-87471095D01*
X117006335Y-87383991D01*
X117195588Y-87257535D01*
X117221500Y-87231623D01*
X117221500Y-88028377D01*
X117195588Y-88002465D01*
X117006335Y-87876009D01*
X116796047Y-87788905D01*
X116572807Y-87744500D01*
X116345193Y-87744500D01*
X116121953Y-87788905D01*
X115911665Y-87876009D01*
X115722412Y-88002465D01*
X115620377Y-88104500D01*
X115138623Y-88104500D01*
X115036588Y-88002465D01*
X114847335Y-87876009D01*
X114637047Y-87788905D01*
X114413807Y-87744500D01*
X114186193Y-87744500D01*
X113962953Y-87788905D01*
X113752665Y-87876009D01*
X113563412Y-88002465D01*
X113402465Y-88163412D01*
X113276009Y-88352665D01*
X113188905Y-88562953D01*
X113144500Y-88786193D01*
X113144500Y-89013807D01*
X113188905Y-89237047D01*
X113276009Y-89447335D01*
X113402465Y-89636588D01*
X113563412Y-89797535D01*
X113752665Y-89923991D01*
X113962953Y-90011095D01*
X114186193Y-90055500D01*
X114413807Y-90055500D01*
X114637047Y-90011095D01*
X114847335Y-89923991D01*
X115036588Y-89797535D01*
X115138623Y-89695500D01*
X115620377Y-89695500D01*
X115722412Y-89797535D01*
X115911665Y-89923991D01*
X116121953Y-90011095D01*
X116345193Y-90055500D01*
X116572807Y-90055500D01*
X116796047Y-90011095D01*
X117006335Y-89923991D01*
X117195588Y-89797535D01*
X117221500Y-89771623D01*
X117221500Y-90568377D01*
X117195588Y-90542465D01*
X117006335Y-90416009D01*
X116796047Y-90328905D01*
X116572807Y-90284500D01*
X116345193Y-90284500D01*
X116121953Y-90328905D01*
X115911665Y-90416009D01*
X115722412Y-90542465D01*
X115620377Y-90644500D01*
X115138623Y-90644500D01*
X115036588Y-90542465D01*
X114847335Y-90416009D01*
X114637047Y-90328905D01*
X114413807Y-90284500D01*
X114186193Y-90284500D01*
X113962953Y-90328905D01*
X113752665Y-90416009D01*
X113563412Y-90542465D01*
X113402465Y-90703412D01*
X113276009Y-90892665D01*
X113188905Y-91102953D01*
X113144500Y-91326193D01*
X113144500Y-91553807D01*
X113188905Y-91777047D01*
X113276009Y-91987335D01*
X113402465Y-92176588D01*
X113563412Y-92337535D01*
X113752665Y-92463991D01*
X113962953Y-92551095D01*
X114186193Y-92595500D01*
X114413807Y-92595500D01*
X114637047Y-92551095D01*
X114847335Y-92463991D01*
X115036588Y-92337535D01*
X115138623Y-92235500D01*
X115620377Y-92235500D01*
X115722412Y-92337535D01*
X115911665Y-92463991D01*
X116121953Y-92551095D01*
X116345193Y-92595500D01*
X116572807Y-92595500D01*
X116796047Y-92551095D01*
X117006335Y-92463991D01*
X117195588Y-92337535D01*
X117221500Y-92311623D01*
X117221500Y-93108377D01*
X117195588Y-93082465D01*
X117006335Y-92956009D01*
X116796047Y-92868905D01*
X116572807Y-92824500D01*
X116345193Y-92824500D01*
X116121953Y-92868905D01*
X115911665Y-92956009D01*
X115722412Y-93082465D01*
X115620377Y-93184500D01*
X115138623Y-93184500D01*
X115036588Y-93082465D01*
X114847335Y-92956009D01*
X114637047Y-92868905D01*
X114413807Y-92824500D01*
X114186193Y-92824500D01*
X113962953Y-92868905D01*
X113752665Y-92956009D01*
X113563412Y-93082465D01*
X113402465Y-93243412D01*
X113276009Y-93432665D01*
X113188905Y-93642953D01*
X113144500Y-93866193D01*
X113144500Y-94093807D01*
X113188905Y-94317047D01*
X113276009Y-94527335D01*
X113402465Y-94716588D01*
X113563412Y-94877535D01*
X113752665Y-95003991D01*
X113962953Y-95091095D01*
X114186193Y-95135500D01*
X114413807Y-95135500D01*
X114637047Y-95091095D01*
X114847335Y-95003991D01*
X115036588Y-94877535D01*
X115138623Y-94775500D01*
X115620377Y-94775500D01*
X115722412Y-94877535D01*
X115911665Y-95003991D01*
X116121953Y-95091095D01*
X116345193Y-95135500D01*
X116572807Y-95135500D01*
X116796047Y-95091095D01*
X117006335Y-95003991D01*
X117195588Y-94877535D01*
X117221500Y-94851623D01*
X117221500Y-95648377D01*
X117195588Y-95622465D01*
X117006335Y-95496009D01*
X116796047Y-95408905D01*
X116572807Y-95364500D01*
X116345193Y-95364500D01*
X116121953Y-95408905D01*
X115911665Y-95496009D01*
X115722412Y-95622465D01*
X115620377Y-95724500D01*
X115138623Y-95724500D01*
X115036588Y-95622465D01*
X114847335Y-95496009D01*
X114637047Y-95408905D01*
X114413807Y-95364500D01*
X114186193Y-95364500D01*
X113962953Y-95408905D01*
X113752665Y-95496009D01*
X113563412Y-95622465D01*
X113402465Y-95783412D01*
X113276009Y-95972665D01*
X113188905Y-96182953D01*
X113144500Y-96406193D01*
X113144500Y-96633807D01*
X113188905Y-96857047D01*
X113276009Y-97067335D01*
X113402465Y-97256588D01*
X113563412Y-97417535D01*
X113752665Y-97543991D01*
X113962953Y-97631095D01*
X114186193Y-97675500D01*
X114413807Y-97675500D01*
X114637047Y-97631095D01*
X114847335Y-97543991D01*
X115036588Y-97417535D01*
X115138623Y-97315500D01*
X115620377Y-97315500D01*
X115722412Y-97417535D01*
X115911665Y-97543991D01*
X116121953Y-97631095D01*
X116345193Y-97675500D01*
X116572807Y-97675500D01*
X116796047Y-97631095D01*
X117006335Y-97543991D01*
X117195588Y-97417535D01*
X117221500Y-97391623D01*
X117221500Y-98188377D01*
X117195588Y-98162465D01*
X117006335Y-98036009D01*
X116796047Y-97948905D01*
X116572807Y-97904500D01*
X116345193Y-97904500D01*
X116121953Y-97948905D01*
X115911665Y-98036009D01*
X115722412Y-98162465D01*
X115620377Y-98264500D01*
X115138623Y-98264500D01*
X115036588Y-98162465D01*
X114847335Y-98036009D01*
X114637047Y-97948905D01*
X114413807Y-97904500D01*
X114186193Y-97904500D01*
X113962953Y-97948905D01*
X113752665Y-98036009D01*
X113563412Y-98162465D01*
X113402465Y-98323412D01*
X113276009Y-98512665D01*
X113188905Y-98722953D01*
X113144500Y-98946193D01*
X113144500Y-99173807D01*
X113188905Y-99397047D01*
X113276009Y-99607335D01*
X113402465Y-99796588D01*
X113563412Y-99957535D01*
X113752665Y-100083991D01*
X113962953Y-100171095D01*
X114125865Y-100203500D01*
X106591313Y-100203500D01*
X106623936Y-100163749D01*
X106636756Y-100139765D01*
X106786241Y-100169500D01*
X106954759Y-100169500D01*
X107120040Y-100136623D01*
X107275731Y-100072134D01*
X107415849Y-99978510D01*
X107505500Y-99888859D01*
X107595151Y-99978510D01*
X107735269Y-100072134D01*
X107890960Y-100136623D01*
X108056241Y-100169500D01*
X108224759Y-100169500D01*
X108390040Y-100136623D01*
X108545731Y-100072134D01*
X108685849Y-99978510D01*
X108775500Y-99888859D01*
X108865151Y-99978510D01*
X109005269Y-100072134D01*
X109160960Y-100136623D01*
X109326241Y-100169500D01*
X109494759Y-100169500D01*
X109660040Y-100136623D01*
X109815731Y-100072134D01*
X109955849Y-99978510D01*
X110045500Y-99888859D01*
X110135151Y-99978510D01*
X110275269Y-100072134D01*
X110430960Y-100136623D01*
X110596241Y-100169500D01*
X110764759Y-100169500D01*
X110930040Y-100136623D01*
X111085731Y-100072134D01*
X111225849Y-99978510D01*
X111345010Y-99859349D01*
X111438634Y-99719231D01*
X111503123Y-99563540D01*
X111536000Y-99398259D01*
X111536000Y-99229741D01*
X111503123Y-99064460D01*
X111476000Y-98998979D01*
X111476000Y-98692196D01*
X111499725Y-98672725D01*
X111524639Y-98642367D01*
X112485372Y-97681635D01*
X112515725Y-97656725D01*
X112556843Y-97606623D01*
X112615134Y-97535596D01*
X112689002Y-97397398D01*
X112697617Y-97368998D01*
X112734490Y-97247445D01*
X112746000Y-97130580D01*
X112746000Y-97130571D01*
X112749848Y-97091501D01*
X112746000Y-97052431D01*
X112746000Y-73635569D01*
X112749848Y-73596499D01*
X112746000Y-73557429D01*
X112746000Y-73557420D01*
X112734490Y-73440555D01*
X112689002Y-73290602D01*
X112688764Y-73290157D01*
X112615134Y-73152404D01*
X112540637Y-73061630D01*
X112540636Y-73061629D01*
X112515725Y-73031275D01*
X112485371Y-73006364D01*
X111842140Y-72363134D01*
X111817225Y-72332775D01*
X111696095Y-72233366D01*
X111557898Y-72159498D01*
X111407945Y-72114010D01*
X111291080Y-72102500D01*
X111291070Y-72102500D01*
X111252000Y-72098652D01*
X111212930Y-72102500D01*
X110768420Y-72102500D01*
X110651555Y-72114010D01*
X110501602Y-72159498D01*
X110363405Y-72233366D01*
X110242275Y-72332775D01*
X110142866Y-72453905D01*
X110068998Y-72592102D01*
X110023510Y-72742055D01*
X110008151Y-72898000D01*
X110023510Y-73053945D01*
X110068998Y-73203898D01*
X110142866Y-73342095D01*
X110242275Y-73463225D01*
X110363405Y-73562634D01*
X110501602Y-73636502D01*
X110651555Y-73681990D01*
X110768420Y-73693500D01*
X110922494Y-73693500D01*
X111155001Y-73926008D01*
X111155000Y-79401379D01*
X111155001Y-79401389D01*
X111155000Y-81407979D01*
X111155001Y-81407989D01*
X111155000Y-83439979D01*
X111155001Y-83439989D01*
X111155000Y-85497379D01*
X111155001Y-85497389D01*
X111155000Y-89002579D01*
X111155001Y-89002589D01*
X111155001Y-92922386D01*
X111100000Y-92916969D01*
X110192125Y-92920000D01*
X110035500Y-93076625D01*
X110035500Y-93781000D01*
X110055500Y-93781000D01*
X110055500Y-94052000D01*
X110035500Y-94052000D01*
X110035500Y-94072000D01*
X109764500Y-94072000D01*
X109764500Y-94052000D01*
X108230125Y-94052000D01*
X108073500Y-94208625D01*
X108070469Y-94286500D01*
X108082565Y-94409315D01*
X108118389Y-94527411D01*
X108176564Y-94636249D01*
X108254854Y-94731646D01*
X108343937Y-94804754D01*
X108342780Y-94816500D01*
X108342780Y-95219090D01*
X107753918Y-95807953D01*
X107735593Y-95822992D01*
X107720554Y-95841317D01*
X107720550Y-95841321D01*
X107675547Y-95896157D01*
X107630929Y-95979632D01*
X107628277Y-95988375D01*
X107603453Y-96070206D01*
X107596500Y-96140803D01*
X107596500Y-96140814D01*
X107594177Y-96164400D01*
X107596500Y-96187986D01*
X107596500Y-96335473D01*
X107557220Y-96374753D01*
X107557220Y-96086500D01*
X107550356Y-96016810D01*
X107530028Y-95949798D01*
X107497018Y-95888039D01*
X107452593Y-95833907D01*
X107437475Y-95821500D01*
X107452593Y-95809093D01*
X107497018Y-95754961D01*
X107530028Y-95693202D01*
X107550356Y-95626190D01*
X107557220Y-95556500D01*
X107557220Y-94816500D01*
X107550356Y-94746810D01*
X107530028Y-94679798D01*
X107497018Y-94618039D01*
X107452593Y-94563907D01*
X107437475Y-94551500D01*
X107452593Y-94539093D01*
X107497018Y-94484961D01*
X107530028Y-94423202D01*
X107550356Y-94356190D01*
X107557220Y-94286500D01*
X107557220Y-93546500D01*
X108070469Y-93546500D01*
X108073500Y-93624375D01*
X108230125Y-93781000D01*
X109764500Y-93781000D01*
X109764500Y-93076625D01*
X109607875Y-92920000D01*
X108700000Y-92916969D01*
X108577185Y-92929065D01*
X108459089Y-92964889D01*
X108350251Y-93023064D01*
X108254854Y-93101354D01*
X108176564Y-93196751D01*
X108118389Y-93305589D01*
X108082565Y-93423685D01*
X108070469Y-93546500D01*
X107557220Y-93546500D01*
X107550356Y-93476810D01*
X107530028Y-93409798D01*
X107497018Y-93348039D01*
X107452593Y-93293907D01*
X107398461Y-93249482D01*
X107336702Y-93216472D01*
X107269690Y-93196144D01*
X107200000Y-93189280D01*
X106499500Y-93189280D01*
X106499500Y-92988466D01*
X107040467Y-92447500D01*
X107442877Y-92447500D01*
X107467400Y-92449915D01*
X107491923Y-92447500D01*
X107491931Y-92447500D01*
X107565319Y-92440272D01*
X107659475Y-92411710D01*
X107746250Y-92365328D01*
X107822308Y-92302908D01*
X107837952Y-92283846D01*
X109382100Y-90739699D01*
X109382100Y-90787885D01*
X109405153Y-90903784D01*
X109450375Y-91012959D01*
X109516027Y-91111214D01*
X109599586Y-91194773D01*
X109697841Y-91260425D01*
X109807016Y-91305647D01*
X109922915Y-91328700D01*
X110041085Y-91328700D01*
X110156984Y-91305647D01*
X110266159Y-91260425D01*
X110364414Y-91194773D01*
X110447973Y-91111214D01*
X110513625Y-91012959D01*
X110558847Y-90903784D01*
X110581900Y-90787885D01*
X110581900Y-90669715D01*
X110558847Y-90553816D01*
X110513625Y-90444641D01*
X110485756Y-90402932D01*
X110488116Y-90378967D01*
X110485701Y-90354444D01*
X110485701Y-89208124D01*
X110488116Y-89183601D01*
X110485701Y-89159078D01*
X110485701Y-89159070D01*
X110478473Y-89085682D01*
X110449911Y-88991526D01*
X110403529Y-88904751D01*
X110341109Y-88828693D01*
X110322053Y-88813054D01*
X108498352Y-86989354D01*
X108482708Y-86970292D01*
X108406650Y-86907872D01*
X108319875Y-86861490D01*
X108225719Y-86832928D01*
X108152331Y-86825700D01*
X108152323Y-86825700D01*
X108127800Y-86823285D01*
X108103277Y-86825700D01*
X107977437Y-86825700D01*
X107929359Y-86793575D01*
X107820184Y-86748353D01*
X107704285Y-86725300D01*
X107586115Y-86725300D01*
X107470216Y-86748353D01*
X107361041Y-86793575D01*
X107262786Y-86859227D01*
X107179227Y-86942786D01*
X107113575Y-87041041D01*
X107068353Y-87150216D01*
X107045300Y-87266115D01*
X107045300Y-87384285D01*
X107068353Y-87500184D01*
X107113575Y-87609359D01*
X107179227Y-87707614D01*
X107262786Y-87791173D01*
X107361041Y-87856825D01*
X107470216Y-87902047D01*
X107586115Y-87925100D01*
X107704285Y-87925100D01*
X107820184Y-87902047D01*
X107929359Y-87856825D01*
X107943547Y-87847345D01*
X109044305Y-88948104D01*
X109015386Y-88967427D01*
X108931827Y-89050986D01*
X108866175Y-89149241D01*
X108820953Y-89258416D01*
X108797900Y-89374315D01*
X108797900Y-89492485D01*
X108820953Y-89608384D01*
X108866175Y-89717559D01*
X108898300Y-89765638D01*
X108898300Y-89810701D01*
X107260502Y-91448500D01*
X106858090Y-91448500D01*
X106833567Y-91446085D01*
X106809044Y-91448500D01*
X106809037Y-91448500D01*
X106735649Y-91455728D01*
X106641493Y-91484290D01*
X106554718Y-91530672D01*
X106478660Y-91593092D01*
X106463022Y-91612147D01*
X105664149Y-92411021D01*
X105645093Y-92426660D01*
X105629455Y-92445715D01*
X105582672Y-92502719D01*
X105536290Y-92589494D01*
X105507728Y-92683650D01*
X105498085Y-92781568D01*
X105500501Y-92806100D01*
X105500501Y-93189280D01*
X104800000Y-93189280D01*
X104730310Y-93196144D01*
X104663298Y-93216472D01*
X104601539Y-93249482D01*
X104547407Y-93293907D01*
X104502982Y-93348039D01*
X104469972Y-93409798D01*
X104449644Y-93476810D01*
X104442780Y-93546500D01*
X104442780Y-94286500D01*
X104449644Y-94356190D01*
X104469972Y-94423202D01*
X104502982Y-94484961D01*
X104547407Y-94539093D01*
X104562525Y-94551500D01*
X104547407Y-94563907D01*
X104502982Y-94618039D01*
X104469972Y-94679798D01*
X104449644Y-94746810D01*
X104442780Y-94816500D01*
X104442780Y-95556500D01*
X104449644Y-95626190D01*
X104469972Y-95693202D01*
X104502982Y-95754961D01*
X104547407Y-95809093D01*
X104562525Y-95821500D01*
X104547407Y-95833907D01*
X104502982Y-95888039D01*
X104469972Y-95949798D01*
X104449644Y-96016810D01*
X104442780Y-96086500D01*
X104442780Y-96826500D01*
X104446276Y-96861990D01*
X103575632Y-96861990D01*
X103573847Y-96853016D01*
X103528625Y-96743841D01*
X103462973Y-96645586D01*
X103379414Y-96562027D01*
X103281159Y-96496375D01*
X103171984Y-96451153D01*
X103056085Y-96428100D01*
X102937915Y-96428100D01*
X102822016Y-96451153D01*
X102712841Y-96496375D01*
X102614586Y-96562027D01*
X102531027Y-96645586D01*
X102465375Y-96743841D01*
X102420153Y-96853016D01*
X102397100Y-96968915D01*
X102397100Y-97087085D01*
X102420153Y-97202984D01*
X102465375Y-97312159D01*
X102531027Y-97410414D01*
X102614586Y-97493973D01*
X102712841Y-97559625D01*
X102720726Y-97562891D01*
X102712734Y-97572629D01*
X102039243Y-98246120D01*
X101955588Y-98162465D01*
X101766335Y-98036009D01*
X101556047Y-97948905D01*
X101332807Y-97904500D01*
X101105193Y-97904500D01*
X100881953Y-97948905D01*
X100671665Y-98036009D01*
X100482412Y-98162465D01*
X100380377Y-98264500D01*
X99898623Y-98264500D01*
X99796588Y-98162465D01*
X99607335Y-98036009D01*
X99397047Y-97948905D01*
X99173807Y-97904500D01*
X98946193Y-97904500D01*
X98722953Y-97948905D01*
X98512665Y-98036009D01*
X98323412Y-98162465D01*
X98297500Y-98188377D01*
X98297500Y-97391623D01*
X98323412Y-97417535D01*
X98512665Y-97543991D01*
X98722953Y-97631095D01*
X98946193Y-97675500D01*
X99173807Y-97675500D01*
X99397047Y-97631095D01*
X99607335Y-97543991D01*
X99796588Y-97417535D01*
X99898623Y-97315500D01*
X100380377Y-97315500D01*
X100482412Y-97417535D01*
X100671665Y-97543991D01*
X100881953Y-97631095D01*
X101105193Y-97675500D01*
X101332807Y-97675500D01*
X101556047Y-97631095D01*
X101766335Y-97543991D01*
X101955588Y-97417535D01*
X102116535Y-97256588D01*
X102242991Y-97067335D01*
X102330095Y-96857047D01*
X102374500Y-96633807D01*
X102374500Y-96406193D01*
X102330095Y-96182953D01*
X102242991Y-95972665D01*
X102116535Y-95783412D01*
X101955588Y-95622465D01*
X101766335Y-95496009D01*
X101556047Y-95408905D01*
X101332807Y-95364500D01*
X101105193Y-95364500D01*
X100881953Y-95408905D01*
X100671665Y-95496009D01*
X100482412Y-95622465D01*
X100380377Y-95724500D01*
X99898623Y-95724500D01*
X99796588Y-95622465D01*
X99607335Y-95496009D01*
X99397047Y-95408905D01*
X99173807Y-95364500D01*
X98946193Y-95364500D01*
X98722953Y-95408905D01*
X98512665Y-95496009D01*
X98323412Y-95622465D01*
X98297500Y-95648377D01*
X98297500Y-94851623D01*
X98323412Y-94877535D01*
X98512665Y-95003991D01*
X98722953Y-95091095D01*
X98946193Y-95135500D01*
X99173807Y-95135500D01*
X99397047Y-95091095D01*
X99607335Y-95003991D01*
X99796588Y-94877535D01*
X99898623Y-94775500D01*
X100380377Y-94775500D01*
X100482412Y-94877535D01*
X100671665Y-95003991D01*
X100881953Y-95091095D01*
X101105193Y-95135500D01*
X101332807Y-95135500D01*
X101556047Y-95091095D01*
X101766335Y-95003991D01*
X101955588Y-94877535D01*
X102116535Y-94716588D01*
X102242991Y-94527335D01*
X102330095Y-94317047D01*
X102374500Y-94093807D01*
X102374500Y-93866193D01*
X102330095Y-93642953D01*
X102242991Y-93432665D01*
X102116535Y-93243412D01*
X101955588Y-93082465D01*
X101766335Y-92956009D01*
X101556047Y-92868905D01*
X101332807Y-92824500D01*
X101105193Y-92824500D01*
X100881953Y-92868905D01*
X100671665Y-92956009D01*
X100482412Y-93082465D01*
X100380377Y-93184500D01*
X99898623Y-93184500D01*
X99796588Y-93082465D01*
X99607335Y-92956009D01*
X99397047Y-92868905D01*
X99173807Y-92824500D01*
X98946193Y-92824500D01*
X98722953Y-92868905D01*
X98512665Y-92956009D01*
X98323412Y-93082465D01*
X98297500Y-93108377D01*
X98297500Y-92311623D01*
X98323412Y-92337535D01*
X98512665Y-92463991D01*
X98722953Y-92551095D01*
X98946193Y-92595500D01*
X99173807Y-92595500D01*
X99397047Y-92551095D01*
X99607335Y-92463991D01*
X99796588Y-92337535D01*
X99898623Y-92235500D01*
X100380377Y-92235500D01*
X100482412Y-92337535D01*
X100671665Y-92463991D01*
X100881953Y-92551095D01*
X101105193Y-92595500D01*
X101332807Y-92595500D01*
X101556047Y-92551095D01*
X101766335Y-92463991D01*
X101955588Y-92337535D01*
X102116535Y-92176588D01*
X102242991Y-91987335D01*
X102330095Y-91777047D01*
X102374500Y-91553807D01*
X102374500Y-91326193D01*
X102330095Y-91102953D01*
X102302411Y-91036118D01*
X102685083Y-90653447D01*
X102703408Y-90638408D01*
X102718447Y-90620083D01*
X102718450Y-90620080D01*
X102763453Y-90565244D01*
X102808071Y-90481769D01*
X102809553Y-90476884D01*
X102835547Y-90391194D01*
X102842500Y-90320597D01*
X102842500Y-90320587D01*
X102844823Y-90297001D01*
X102842500Y-90273414D01*
X102842500Y-89663059D01*
X102849547Y-89676243D01*
X102909592Y-89749408D01*
X102910956Y-89750528D01*
X102928153Y-89836984D01*
X102973375Y-89946159D01*
X103039027Y-90044414D01*
X103122586Y-90127973D01*
X103220841Y-90193625D01*
X103330016Y-90238847D01*
X103445915Y-90261900D01*
X103564085Y-90261900D01*
X103679984Y-90238847D01*
X103681540Y-90238203D01*
X103681540Y-90549287D01*
X103630414Y-90625802D01*
X103585192Y-90734977D01*
X103562139Y-90850876D01*
X103562139Y-90969046D01*
X103585192Y-91084945D01*
X103630414Y-91194120D01*
X103696066Y-91292375D01*
X103779625Y-91375934D01*
X103877880Y-91441586D01*
X103987055Y-91486808D01*
X104102954Y-91509861D01*
X104221124Y-91509861D01*
X104337023Y-91486808D01*
X104446198Y-91441586D01*
X104544453Y-91375934D01*
X104615062Y-91305325D01*
X104579153Y-91392016D01*
X104556100Y-91507915D01*
X104556100Y-91626085D01*
X104579153Y-91741984D01*
X104624375Y-91851159D01*
X104690027Y-91949414D01*
X104773586Y-92032973D01*
X104871841Y-92098625D01*
X104981016Y-92143847D01*
X105096915Y-92166900D01*
X105215085Y-92166900D01*
X105330984Y-92143847D01*
X105440159Y-92098625D01*
X105538414Y-92032973D01*
X105621973Y-91949414D01*
X105687625Y-91851159D01*
X105732847Y-91741984D01*
X105755900Y-91626085D01*
X105755900Y-91507915D01*
X105732847Y-91392016D01*
X105687625Y-91282841D01*
X105636500Y-91206327D01*
X105636500Y-83900489D01*
X105895900Y-83641090D01*
X105953111Y-83594138D01*
X105968154Y-83575808D01*
X106444278Y-83099684D01*
X106462608Y-83084641D01*
X106522653Y-83011476D01*
X106567271Y-82928002D01*
X106594747Y-82837427D01*
X106601700Y-82766830D01*
X106601700Y-82766827D01*
X106602688Y-82756794D01*
X106652825Y-82681759D01*
X106698047Y-82572584D01*
X106721100Y-82456685D01*
X106721100Y-82338515D01*
X106709083Y-82278101D01*
X106719172Y-82278101D01*
X107139300Y-82698230D01*
X107139301Y-84348326D01*
X107088175Y-84424841D01*
X107042953Y-84534016D01*
X107019900Y-84649915D01*
X107019900Y-84768085D01*
X107042953Y-84883984D01*
X107088175Y-84993159D01*
X107153827Y-85091414D01*
X107237386Y-85174973D01*
X107335641Y-85240625D01*
X107444816Y-85285847D01*
X107560715Y-85308900D01*
X107678885Y-85308900D01*
X107794784Y-85285847D01*
X107903959Y-85240625D01*
X108002214Y-85174973D01*
X108085773Y-85091414D01*
X108151425Y-84993159D01*
X108196647Y-84883984D01*
X108219700Y-84768085D01*
X108219700Y-84649915D01*
X108196647Y-84534016D01*
X108151425Y-84424841D01*
X108100300Y-84348327D01*
X108100300Y-82522786D01*
X108102623Y-82499200D01*
X108100300Y-82475613D01*
X108100300Y-82475603D01*
X108093347Y-82405006D01*
X108065871Y-82314431D01*
X108021253Y-82230957D01*
X108014408Y-82222616D01*
X107976250Y-82176120D01*
X107976247Y-82176117D01*
X107961208Y-82157792D01*
X107942883Y-82142753D01*
X107274652Y-81474523D01*
X107259609Y-81456193D01*
X107186444Y-81396148D01*
X107102970Y-81351530D01*
X107012395Y-81324054D01*
X106941798Y-81317101D01*
X106941787Y-81317101D01*
X106918201Y-81314778D01*
X106894615Y-81317101D01*
X106840219Y-81317101D01*
X108287514Y-79869807D01*
X108305839Y-79854768D01*
X108320878Y-79836443D01*
X108320881Y-79836440D01*
X108365884Y-79781604D01*
X108410502Y-79698129D01*
X108419530Y-79668367D01*
X108437978Y-79607554D01*
X108444931Y-79536957D01*
X108444931Y-79536947D01*
X108447254Y-79513360D01*
X108444931Y-79489774D01*
X108444931Y-75749598D01*
X109677565Y-74516965D01*
X109695890Y-74501926D01*
X109710929Y-74483601D01*
X109710932Y-74483598D01*
X109755935Y-74428762D01*
X109800553Y-74345287D01*
X109809462Y-74315917D01*
X109828029Y-74254712D01*
X109834982Y-74184115D01*
X109834982Y-74184105D01*
X109837305Y-74160518D01*
X109834982Y-74136932D01*
X109834982Y-73919668D01*
X109837305Y-73896082D01*
X109834982Y-73872496D01*
X109834982Y-73872486D01*
X109834591Y-73868516D01*
X109834591Y-71561424D01*
X109849207Y-71546807D01*
X110036602Y-71546807D01*
X110074827Y-71604014D01*
X110158386Y-71687573D01*
X110256641Y-71753225D01*
X110365816Y-71798447D01*
X110481715Y-71821500D01*
X110599885Y-71821500D01*
X110715784Y-71798447D01*
X110824959Y-71753225D01*
X110923214Y-71687573D01*
X111006773Y-71604014D01*
X111072425Y-71505759D01*
X111117647Y-71396584D01*
X111140700Y-71280685D01*
X111140700Y-71162515D01*
X111117647Y-71046616D01*
X111072425Y-70937441D01*
X111006773Y-70839186D01*
X110923214Y-70755627D01*
X110824959Y-70689975D01*
X110715784Y-70644753D01*
X110599885Y-70621700D01*
X110540701Y-70621700D01*
X110537962Y-70620236D01*
X110447387Y-70592760D01*
X110415393Y-70589609D01*
X110429500Y-70518685D01*
X110429500Y-70400515D01*
X110406447Y-70284616D01*
X110361225Y-70175441D01*
X110313490Y-70104000D01*
X110361225Y-70032559D01*
X110406447Y-69923384D01*
X110429500Y-69807485D01*
X110429500Y-69689315D01*
X110406447Y-69573416D01*
X110361225Y-69464241D01*
X110313490Y-69392800D01*
X110361225Y-69321359D01*
X110406447Y-69212184D01*
X110429500Y-69096285D01*
X110429500Y-68978115D01*
X110406447Y-68862216D01*
X110361225Y-68753041D01*
X110295573Y-68654786D01*
X110212014Y-68571227D01*
X110113759Y-68505575D01*
X110004584Y-68460353D01*
X109888685Y-68437300D01*
X109841692Y-68437300D01*
X109859982Y-68403082D01*
X109863192Y-68392500D01*
X109868036Y-68376532D01*
X109948315Y-68392500D01*
X110066485Y-68392500D01*
X110182384Y-68369447D01*
X110291559Y-68324225D01*
X110389814Y-68258573D01*
X110473373Y-68175014D01*
X110539025Y-68076759D01*
X110584247Y-67967584D01*
X110602199Y-67877330D01*
X111041678Y-67437851D01*
X111060008Y-67422808D01*
X111120053Y-67349643D01*
X111164671Y-67266169D01*
X111192147Y-67175594D01*
X111199100Y-67104997D01*
X111199100Y-67104994D01*
X111201424Y-67081400D01*
X111199100Y-67057806D01*
X111199100Y-66688699D01*
X112304815Y-66688699D01*
X112328401Y-66691022D01*
X112351987Y-66688699D01*
X112351998Y-66688699D01*
X112422595Y-66681746D01*
X112513170Y-66654270D01*
X112596644Y-66609652D01*
X112659275Y-66558252D01*
X112694499Y-66551246D01*
X112694499Y-66556414D01*
G04 #@! TA.AperFunction,Conductor*
D25*
G36*
X112694499Y-66556414D02*
G01*
X112692176Y-66580001D01*
X112694499Y-66603587D01*
X112694499Y-66603597D01*
X112701452Y-66674194D01*
X112728928Y-66764769D01*
X112773546Y-66848244D01*
X112833591Y-66921409D01*
X112851921Y-66936452D01*
X112969357Y-67053889D01*
X112935753Y-67135016D01*
X112912700Y-67250915D01*
X112912700Y-67369085D01*
X112935753Y-67484984D01*
X112980975Y-67594159D01*
X113046627Y-67692414D01*
X113130186Y-67775973D01*
X113228441Y-67841625D01*
X113337616Y-67886847D01*
X113369239Y-67893137D01*
X113276009Y-68032665D01*
X113188905Y-68242953D01*
X113144500Y-68466193D01*
X113144500Y-68693807D01*
X113188905Y-68917047D01*
X113276009Y-69127335D01*
X113402465Y-69316588D01*
X113563412Y-69477535D01*
X113752665Y-69603991D01*
X113962953Y-69691095D01*
X114186193Y-69735500D01*
X114413807Y-69735500D01*
X114637047Y-69691095D01*
X114847335Y-69603991D01*
X115036588Y-69477535D01*
X115138623Y-69375500D01*
X115620377Y-69375500D01*
X115722412Y-69477535D01*
X115911665Y-69603991D01*
X116121953Y-69691095D01*
X116345193Y-69735500D01*
X116572807Y-69735500D01*
X116796047Y-69691095D01*
X117006335Y-69603991D01*
X117195588Y-69477535D01*
X117221501Y-69451622D01*
X117221501Y-70248378D01*
X117195588Y-70222465D01*
X117006335Y-70096009D01*
X116796047Y-70008905D01*
X116572807Y-69964500D01*
X116345193Y-69964500D01*
X116121953Y-70008905D01*
X115911665Y-70096009D01*
X115722412Y-70222465D01*
X115620377Y-70324500D01*
X115138623Y-70324500D01*
X115036588Y-70222465D01*
X114847335Y-70096009D01*
X114637047Y-70008905D01*
X114413807Y-69964500D01*
X114186193Y-69964500D01*
X113962953Y-70008905D01*
X113752665Y-70096009D01*
X113563412Y-70222465D01*
X113402465Y-70383412D01*
X113276009Y-70572665D01*
X113188905Y-70782953D01*
X113144500Y-71006193D01*
X113144500Y-71233807D01*
X113188905Y-71457047D01*
X113276009Y-71667335D01*
X113402465Y-71856588D01*
X113563412Y-72017535D01*
X113752665Y-72143991D01*
X113962953Y-72231095D01*
X114186193Y-72275500D01*
X114413807Y-72275500D01*
X114637047Y-72231095D01*
X114847335Y-72143991D01*
X115036588Y-72017535D01*
X115138623Y-71915500D01*
X115620377Y-71915500D01*
X115722412Y-72017535D01*
X115911665Y-72143991D01*
X116121953Y-72231095D01*
X116345193Y-72275500D01*
X116572807Y-72275500D01*
X116796047Y-72231095D01*
X117006335Y-72143991D01*
X117195588Y-72017535D01*
X117221501Y-71991622D01*
X117221500Y-72788377D01*
X117195588Y-72762465D01*
X117006335Y-72636009D01*
X116796047Y-72548905D01*
X116572807Y-72504500D01*
X116345193Y-72504500D01*
X116121953Y-72548905D01*
X115911665Y-72636009D01*
X115722412Y-72762465D01*
X115620377Y-72864500D01*
X115138623Y-72864500D01*
X115036588Y-72762465D01*
X114847335Y-72636009D01*
X114637047Y-72548905D01*
X114413807Y-72504500D01*
X114186193Y-72504500D01*
X113962953Y-72548905D01*
X113752665Y-72636009D01*
X113563412Y-72762465D01*
X113402465Y-72923412D01*
X113276009Y-73112665D01*
X113188905Y-73322953D01*
X113144500Y-73546193D01*
X113144500Y-73773807D01*
X113188905Y-73997047D01*
X113276009Y-74207335D01*
X113402465Y-74396588D01*
X113563412Y-74557535D01*
X113752665Y-74683991D01*
X113962953Y-74771095D01*
X114186193Y-74815500D01*
X114413807Y-74815500D01*
X114637047Y-74771095D01*
X114847335Y-74683991D01*
X115036588Y-74557535D01*
X115138623Y-74455500D01*
X115620377Y-74455500D01*
X115722412Y-74557535D01*
X115911665Y-74683991D01*
X116121953Y-74771095D01*
X116345193Y-74815500D01*
X116572807Y-74815500D01*
X116796047Y-74771095D01*
X117006335Y-74683991D01*
X117195588Y-74557535D01*
X117221500Y-74531623D01*
X117221500Y-75328377D01*
X117195588Y-75302465D01*
X117006335Y-75176009D01*
X116796047Y-75088905D01*
X116572807Y-75044500D01*
X116345193Y-75044500D01*
X116121953Y-75088905D01*
X115911665Y-75176009D01*
X115722412Y-75302465D01*
X115620377Y-75404500D01*
X115138623Y-75404500D01*
X115036588Y-75302465D01*
X114847335Y-75176009D01*
X114637047Y-75088905D01*
X114413807Y-75044500D01*
X114186193Y-75044500D01*
X113962953Y-75088905D01*
X113752665Y-75176009D01*
X113563412Y-75302465D01*
X113402465Y-75463412D01*
X113276009Y-75652665D01*
X113188905Y-75862953D01*
X113144500Y-76086193D01*
X113144500Y-76313807D01*
X113188905Y-76537047D01*
X113276009Y-76747335D01*
X113402465Y-76936588D01*
X113563412Y-77097535D01*
X113752665Y-77223991D01*
X113962953Y-77311095D01*
X114186193Y-77355500D01*
X114413807Y-77355500D01*
X114637047Y-77311095D01*
X114847335Y-77223991D01*
X115036588Y-77097535D01*
X115138623Y-76995500D01*
X115620377Y-76995500D01*
X115722412Y-77097535D01*
X115911665Y-77223991D01*
X116121953Y-77311095D01*
X116345193Y-77355500D01*
X116572807Y-77355500D01*
X116796047Y-77311095D01*
X117006335Y-77223991D01*
X117195588Y-77097535D01*
X117221500Y-77071623D01*
X117221500Y-77868377D01*
X117195588Y-77842465D01*
X117006335Y-77716009D01*
X116796047Y-77628905D01*
X116572807Y-77584500D01*
X116345193Y-77584500D01*
X116121953Y-77628905D01*
X115911665Y-77716009D01*
X115722412Y-77842465D01*
X115620377Y-77944500D01*
X115138623Y-77944500D01*
X115036588Y-77842465D01*
X114847335Y-77716009D01*
X114637047Y-77628905D01*
X114413807Y-77584500D01*
X114186193Y-77584500D01*
X113962953Y-77628905D01*
X113752665Y-77716009D01*
X113563412Y-77842465D01*
X113402465Y-78003412D01*
X113276009Y-78192665D01*
X113188905Y-78402953D01*
X113144500Y-78626193D01*
X113144500Y-78853807D01*
X113188905Y-79077047D01*
X113276009Y-79287335D01*
X113402465Y-79476588D01*
X113563412Y-79637535D01*
X113752665Y-79763991D01*
X113962953Y-79851095D01*
X114186193Y-79895500D01*
X114413807Y-79895500D01*
X114637047Y-79851095D01*
X114847335Y-79763991D01*
X115036588Y-79637535D01*
X115138623Y-79535500D01*
X115620377Y-79535500D01*
X115722412Y-79637535D01*
X115911665Y-79763991D01*
X116121953Y-79851095D01*
X116345193Y-79895500D01*
X116572807Y-79895500D01*
X116796047Y-79851095D01*
X117006335Y-79763991D01*
X117195588Y-79637535D01*
X117221500Y-79611623D01*
X117221500Y-80408377D01*
X117195588Y-80382465D01*
X117006335Y-80256009D01*
X116796047Y-80168905D01*
X116572807Y-80124500D01*
X116345193Y-80124500D01*
X116121953Y-80168905D01*
X115911665Y-80256009D01*
X115722412Y-80382465D01*
X115620377Y-80484500D01*
X115138623Y-80484500D01*
X115036588Y-80382465D01*
X114847335Y-80256009D01*
X114637047Y-80168905D01*
X114413807Y-80124500D01*
X114186193Y-80124500D01*
X113962953Y-80168905D01*
X113752665Y-80256009D01*
X113563412Y-80382465D01*
X113402465Y-80543412D01*
X113276009Y-80732665D01*
X113188905Y-80942953D01*
X113144500Y-81166193D01*
X113144500Y-81393807D01*
X113188905Y-81617047D01*
X113276009Y-81827335D01*
X113402465Y-82016588D01*
X113563412Y-82177535D01*
X113752665Y-82303991D01*
X113962953Y-82391095D01*
X114186193Y-82435500D01*
X114413807Y-82435500D01*
X114637047Y-82391095D01*
X114847335Y-82303991D01*
X115036588Y-82177535D01*
X115138623Y-82075500D01*
X115620377Y-82075500D01*
X115722412Y-82177535D01*
X115911665Y-82303991D01*
X116121953Y-82391095D01*
X116345193Y-82435500D01*
X116572807Y-82435500D01*
X116796047Y-82391095D01*
X117006335Y-82303991D01*
X117195588Y-82177535D01*
X117221500Y-82151623D01*
X117221500Y-82948377D01*
X117195588Y-82922465D01*
X117006335Y-82796009D01*
X116796047Y-82708905D01*
X116572807Y-82664500D01*
X116345193Y-82664500D01*
X116121953Y-82708905D01*
X115911665Y-82796009D01*
X115722412Y-82922465D01*
X115620377Y-83024500D01*
X115138623Y-83024500D01*
X115036588Y-82922465D01*
X114847335Y-82796009D01*
X114637047Y-82708905D01*
X114413807Y-82664500D01*
X114186193Y-82664500D01*
X113962953Y-82708905D01*
X113752665Y-82796009D01*
X113563412Y-82922465D01*
X113402465Y-83083412D01*
X113276009Y-83272665D01*
X113188905Y-83482953D01*
X113144500Y-83706193D01*
X113144500Y-83933807D01*
X113188905Y-84157047D01*
X113276009Y-84367335D01*
X113402465Y-84556588D01*
X113563412Y-84717535D01*
X113752665Y-84843991D01*
X113962953Y-84931095D01*
X114186193Y-84975500D01*
X114413807Y-84975500D01*
X114637047Y-84931095D01*
X114847335Y-84843991D01*
X115036588Y-84717535D01*
X115138623Y-84615500D01*
X115620377Y-84615500D01*
X115722412Y-84717535D01*
X115911665Y-84843991D01*
X116121953Y-84931095D01*
X116345193Y-84975500D01*
X116572807Y-84975500D01*
X116796047Y-84931095D01*
X117006335Y-84843991D01*
X117195588Y-84717535D01*
X117221500Y-84691623D01*
X117221500Y-85488377D01*
X117195588Y-85462465D01*
X117006335Y-85336009D01*
X116796047Y-85248905D01*
X116572807Y-85204500D01*
X116345193Y-85204500D01*
X116121953Y-85248905D01*
X115911665Y-85336009D01*
X115722412Y-85462465D01*
X115620377Y-85564500D01*
X115138623Y-85564500D01*
X115036588Y-85462465D01*
X114847335Y-85336009D01*
X114637047Y-85248905D01*
X114413807Y-85204500D01*
X114186193Y-85204500D01*
X113962953Y-85248905D01*
X113752665Y-85336009D01*
X113563412Y-85462465D01*
X113402465Y-85623412D01*
X113276009Y-85812665D01*
X113188905Y-86022953D01*
X113144500Y-86246193D01*
X113144500Y-86473807D01*
X113188905Y-86697047D01*
X113276009Y-86907335D01*
X113402465Y-87096588D01*
X113563412Y-87257535D01*
X113752665Y-87383991D01*
X113962953Y-87471095D01*
X114186193Y-87515500D01*
X114413807Y-87515500D01*
X114637047Y-87471095D01*
X114847335Y-87383991D01*
X115036588Y-87257535D01*
X115138623Y-87155500D01*
X115620377Y-87155500D01*
X115722412Y-87257535D01*
X115911665Y-87383991D01*
X116121953Y-87471095D01*
X116345193Y-87515500D01*
X116572807Y-87515500D01*
X116796047Y-87471095D01*
X117006335Y-87383991D01*
X117195588Y-87257535D01*
X117221500Y-87231623D01*
X117221500Y-88028377D01*
X117195588Y-88002465D01*
X117006335Y-87876009D01*
X116796047Y-87788905D01*
X116572807Y-87744500D01*
X116345193Y-87744500D01*
X116121953Y-87788905D01*
X115911665Y-87876009D01*
X115722412Y-88002465D01*
X115620377Y-88104500D01*
X115138623Y-88104500D01*
X115036588Y-88002465D01*
X114847335Y-87876009D01*
X114637047Y-87788905D01*
X114413807Y-87744500D01*
X114186193Y-87744500D01*
X113962953Y-87788905D01*
X113752665Y-87876009D01*
X113563412Y-88002465D01*
X113402465Y-88163412D01*
X113276009Y-88352665D01*
X113188905Y-88562953D01*
X113144500Y-88786193D01*
X113144500Y-89013807D01*
X113188905Y-89237047D01*
X113276009Y-89447335D01*
X113402465Y-89636588D01*
X113563412Y-89797535D01*
X113752665Y-89923991D01*
X113962953Y-90011095D01*
X114186193Y-90055500D01*
X114413807Y-90055500D01*
X114637047Y-90011095D01*
X114847335Y-89923991D01*
X115036588Y-89797535D01*
X115138623Y-89695500D01*
X115620377Y-89695500D01*
X115722412Y-89797535D01*
X115911665Y-89923991D01*
X116121953Y-90011095D01*
X116345193Y-90055500D01*
X116572807Y-90055500D01*
X116796047Y-90011095D01*
X117006335Y-89923991D01*
X117195588Y-89797535D01*
X117221500Y-89771623D01*
X117221500Y-90568377D01*
X117195588Y-90542465D01*
X117006335Y-90416009D01*
X116796047Y-90328905D01*
X116572807Y-90284500D01*
X116345193Y-90284500D01*
X116121953Y-90328905D01*
X115911665Y-90416009D01*
X115722412Y-90542465D01*
X115620377Y-90644500D01*
X115138623Y-90644500D01*
X115036588Y-90542465D01*
X114847335Y-90416009D01*
X114637047Y-90328905D01*
X114413807Y-90284500D01*
X114186193Y-90284500D01*
X113962953Y-90328905D01*
X113752665Y-90416009D01*
X113563412Y-90542465D01*
X113402465Y-90703412D01*
X113276009Y-90892665D01*
X113188905Y-91102953D01*
X113144500Y-91326193D01*
X113144500Y-91553807D01*
X113188905Y-91777047D01*
X113276009Y-91987335D01*
X113402465Y-92176588D01*
X113563412Y-92337535D01*
X113752665Y-92463991D01*
X113962953Y-92551095D01*
X114186193Y-92595500D01*
X114413807Y-92595500D01*
X114637047Y-92551095D01*
X114847335Y-92463991D01*
X115036588Y-92337535D01*
X115138623Y-92235500D01*
X115620377Y-92235500D01*
X115722412Y-92337535D01*
X115911665Y-92463991D01*
X116121953Y-92551095D01*
X116345193Y-92595500D01*
X116572807Y-92595500D01*
X116796047Y-92551095D01*
X117006335Y-92463991D01*
X117195588Y-92337535D01*
X117221500Y-92311623D01*
X117221500Y-93108377D01*
X117195588Y-93082465D01*
X117006335Y-92956009D01*
X116796047Y-92868905D01*
X116572807Y-92824500D01*
X116345193Y-92824500D01*
X116121953Y-92868905D01*
X115911665Y-92956009D01*
X115722412Y-93082465D01*
X115620377Y-93184500D01*
X115138623Y-93184500D01*
X115036588Y-93082465D01*
X114847335Y-92956009D01*
X114637047Y-92868905D01*
X114413807Y-92824500D01*
X114186193Y-92824500D01*
X113962953Y-92868905D01*
X113752665Y-92956009D01*
X113563412Y-93082465D01*
X113402465Y-93243412D01*
X113276009Y-93432665D01*
X113188905Y-93642953D01*
X113144500Y-93866193D01*
X113144500Y-94093807D01*
X113188905Y-94317047D01*
X113276009Y-94527335D01*
X113402465Y-94716588D01*
X113563412Y-94877535D01*
X113752665Y-95003991D01*
X113962953Y-95091095D01*
X114186193Y-95135500D01*
X114413807Y-95135500D01*
X114637047Y-95091095D01*
X114847335Y-95003991D01*
X115036588Y-94877535D01*
X115138623Y-94775500D01*
X115620377Y-94775500D01*
X115722412Y-94877535D01*
X115911665Y-95003991D01*
X116121953Y-95091095D01*
X116345193Y-95135500D01*
X116572807Y-95135500D01*
X116796047Y-95091095D01*
X117006335Y-95003991D01*
X117195588Y-94877535D01*
X117221500Y-94851623D01*
X117221500Y-95648377D01*
X117195588Y-95622465D01*
X117006335Y-95496009D01*
X116796047Y-95408905D01*
X116572807Y-95364500D01*
X116345193Y-95364500D01*
X116121953Y-95408905D01*
X115911665Y-95496009D01*
X115722412Y-95622465D01*
X115620377Y-95724500D01*
X115138623Y-95724500D01*
X115036588Y-95622465D01*
X114847335Y-95496009D01*
X114637047Y-95408905D01*
X114413807Y-95364500D01*
X114186193Y-95364500D01*
X113962953Y-95408905D01*
X113752665Y-95496009D01*
X113563412Y-95622465D01*
X113402465Y-95783412D01*
X113276009Y-95972665D01*
X113188905Y-96182953D01*
X113144500Y-96406193D01*
X113144500Y-96633807D01*
X113188905Y-96857047D01*
X113276009Y-97067335D01*
X113402465Y-97256588D01*
X113563412Y-97417535D01*
X113752665Y-97543991D01*
X113962953Y-97631095D01*
X114186193Y-97675500D01*
X114413807Y-97675500D01*
X114637047Y-97631095D01*
X114847335Y-97543991D01*
X115036588Y-97417535D01*
X115138623Y-97315500D01*
X115620377Y-97315500D01*
X115722412Y-97417535D01*
X115911665Y-97543991D01*
X116121953Y-97631095D01*
X116345193Y-97675500D01*
X116572807Y-97675500D01*
X116796047Y-97631095D01*
X117006335Y-97543991D01*
X117195588Y-97417535D01*
X117221500Y-97391623D01*
X117221500Y-98188377D01*
X117195588Y-98162465D01*
X117006335Y-98036009D01*
X116796047Y-97948905D01*
X116572807Y-97904500D01*
X116345193Y-97904500D01*
X116121953Y-97948905D01*
X115911665Y-98036009D01*
X115722412Y-98162465D01*
X115620377Y-98264500D01*
X115138623Y-98264500D01*
X115036588Y-98162465D01*
X114847335Y-98036009D01*
X114637047Y-97948905D01*
X114413807Y-97904500D01*
X114186193Y-97904500D01*
X113962953Y-97948905D01*
X113752665Y-98036009D01*
X113563412Y-98162465D01*
X113402465Y-98323412D01*
X113276009Y-98512665D01*
X113188905Y-98722953D01*
X113144500Y-98946193D01*
X113144500Y-99173807D01*
X113188905Y-99397047D01*
X113276009Y-99607335D01*
X113402465Y-99796588D01*
X113563412Y-99957535D01*
X113752665Y-100083991D01*
X113962953Y-100171095D01*
X114125865Y-100203500D01*
X106591313Y-100203500D01*
X106623936Y-100163749D01*
X106636756Y-100139765D01*
X106786241Y-100169500D01*
X106954759Y-100169500D01*
X107120040Y-100136623D01*
X107275731Y-100072134D01*
X107415849Y-99978510D01*
X107505500Y-99888859D01*
X107595151Y-99978510D01*
X107735269Y-100072134D01*
X107890960Y-100136623D01*
X108056241Y-100169500D01*
X108224759Y-100169500D01*
X108390040Y-100136623D01*
X108545731Y-100072134D01*
X108685849Y-99978510D01*
X108775500Y-99888859D01*
X108865151Y-99978510D01*
X109005269Y-100072134D01*
X109160960Y-100136623D01*
X109326241Y-100169500D01*
X109494759Y-100169500D01*
X109660040Y-100136623D01*
X109815731Y-100072134D01*
X109955849Y-99978510D01*
X110045500Y-99888859D01*
X110135151Y-99978510D01*
X110275269Y-100072134D01*
X110430960Y-100136623D01*
X110596241Y-100169500D01*
X110764759Y-100169500D01*
X110930040Y-100136623D01*
X111085731Y-100072134D01*
X111225849Y-99978510D01*
X111345010Y-99859349D01*
X111438634Y-99719231D01*
X111503123Y-99563540D01*
X111536000Y-99398259D01*
X111536000Y-99229741D01*
X111503123Y-99064460D01*
X111476000Y-98998979D01*
X111476000Y-98692196D01*
X111499725Y-98672725D01*
X111524639Y-98642367D01*
X112485372Y-97681635D01*
X112515725Y-97656725D01*
X112556843Y-97606623D01*
X112615134Y-97535596D01*
X112689002Y-97397398D01*
X112697617Y-97368998D01*
X112734490Y-97247445D01*
X112746000Y-97130580D01*
X112746000Y-97130571D01*
X112749848Y-97091501D01*
X112746000Y-97052431D01*
X112746000Y-73635569D01*
X112749848Y-73596499D01*
X112746000Y-73557429D01*
X112746000Y-73557420D01*
X112734490Y-73440555D01*
X112689002Y-73290602D01*
X112688764Y-73290157D01*
X112615134Y-73152404D01*
X112540637Y-73061630D01*
X112540636Y-73061629D01*
X112515725Y-73031275D01*
X112485371Y-73006364D01*
X111842140Y-72363134D01*
X111817225Y-72332775D01*
X111696095Y-72233366D01*
X111557898Y-72159498D01*
X111407945Y-72114010D01*
X111291080Y-72102500D01*
X111291070Y-72102500D01*
X111252000Y-72098652D01*
X111212930Y-72102500D01*
X110768420Y-72102500D01*
X110651555Y-72114010D01*
X110501602Y-72159498D01*
X110363405Y-72233366D01*
X110242275Y-72332775D01*
X110142866Y-72453905D01*
X110068998Y-72592102D01*
X110023510Y-72742055D01*
X110008151Y-72898000D01*
X110023510Y-73053945D01*
X110068998Y-73203898D01*
X110142866Y-73342095D01*
X110242275Y-73463225D01*
X110363405Y-73562634D01*
X110501602Y-73636502D01*
X110651555Y-73681990D01*
X110768420Y-73693500D01*
X110922494Y-73693500D01*
X111155001Y-73926008D01*
X111155000Y-79401379D01*
X111155001Y-79401389D01*
X111155000Y-81407979D01*
X111155001Y-81407989D01*
X111155000Y-83439979D01*
X111155001Y-83439989D01*
X111155000Y-85497379D01*
X111155001Y-85497389D01*
X111155000Y-89002579D01*
X111155001Y-89002589D01*
X111155001Y-92922386D01*
X111100000Y-92916969D01*
X110192125Y-92920000D01*
X110035500Y-93076625D01*
X110035500Y-93781000D01*
X110055500Y-93781000D01*
X110055500Y-94052000D01*
X110035500Y-94052000D01*
X110035500Y-94072000D01*
X109764500Y-94072000D01*
X109764500Y-94052000D01*
X108230125Y-94052000D01*
X108073500Y-94208625D01*
X108070469Y-94286500D01*
X108082565Y-94409315D01*
X108118389Y-94527411D01*
X108176564Y-94636249D01*
X108254854Y-94731646D01*
X108343937Y-94804754D01*
X108342780Y-94816500D01*
X108342780Y-95219090D01*
X107753918Y-95807953D01*
X107735593Y-95822992D01*
X107720554Y-95841317D01*
X107720550Y-95841321D01*
X107675547Y-95896157D01*
X107630929Y-95979632D01*
X107628277Y-95988375D01*
X107603453Y-96070206D01*
X107596500Y-96140803D01*
X107596500Y-96140814D01*
X107594177Y-96164400D01*
X107596500Y-96187986D01*
X107596500Y-96335473D01*
X107557220Y-96374753D01*
X107557220Y-96086500D01*
X107550356Y-96016810D01*
X107530028Y-95949798D01*
X107497018Y-95888039D01*
X107452593Y-95833907D01*
X107437475Y-95821500D01*
X107452593Y-95809093D01*
X107497018Y-95754961D01*
X107530028Y-95693202D01*
X107550356Y-95626190D01*
X107557220Y-95556500D01*
X107557220Y-94816500D01*
X107550356Y-94746810D01*
X107530028Y-94679798D01*
X107497018Y-94618039D01*
X107452593Y-94563907D01*
X107437475Y-94551500D01*
X107452593Y-94539093D01*
X107497018Y-94484961D01*
X107530028Y-94423202D01*
X107550356Y-94356190D01*
X107557220Y-94286500D01*
X107557220Y-93546500D01*
X108070469Y-93546500D01*
X108073500Y-93624375D01*
X108230125Y-93781000D01*
X109764500Y-93781000D01*
X109764500Y-93076625D01*
X109607875Y-92920000D01*
X108700000Y-92916969D01*
X108577185Y-92929065D01*
X108459089Y-92964889D01*
X108350251Y-93023064D01*
X108254854Y-93101354D01*
X108176564Y-93196751D01*
X108118389Y-93305589D01*
X108082565Y-93423685D01*
X108070469Y-93546500D01*
X107557220Y-93546500D01*
X107550356Y-93476810D01*
X107530028Y-93409798D01*
X107497018Y-93348039D01*
X107452593Y-93293907D01*
X107398461Y-93249482D01*
X107336702Y-93216472D01*
X107269690Y-93196144D01*
X107200000Y-93189280D01*
X106499500Y-93189280D01*
X106499500Y-92988466D01*
X107040467Y-92447500D01*
X107442877Y-92447500D01*
X107467400Y-92449915D01*
X107491923Y-92447500D01*
X107491931Y-92447500D01*
X107565319Y-92440272D01*
X107659475Y-92411710D01*
X107746250Y-92365328D01*
X107822308Y-92302908D01*
X107837952Y-92283846D01*
X109382100Y-90739699D01*
X109382100Y-90787885D01*
X109405153Y-90903784D01*
X109450375Y-91012959D01*
X109516027Y-91111214D01*
X109599586Y-91194773D01*
X109697841Y-91260425D01*
X109807016Y-91305647D01*
X109922915Y-91328700D01*
X110041085Y-91328700D01*
X110156984Y-91305647D01*
X110266159Y-91260425D01*
X110364414Y-91194773D01*
X110447973Y-91111214D01*
X110513625Y-91012959D01*
X110558847Y-90903784D01*
X110581900Y-90787885D01*
X110581900Y-90669715D01*
X110558847Y-90553816D01*
X110513625Y-90444641D01*
X110485756Y-90402932D01*
X110488116Y-90378967D01*
X110485701Y-90354444D01*
X110485701Y-89208124D01*
X110488116Y-89183601D01*
X110485701Y-89159078D01*
X110485701Y-89159070D01*
X110478473Y-89085682D01*
X110449911Y-88991526D01*
X110403529Y-88904751D01*
X110341109Y-88828693D01*
X110322053Y-88813054D01*
X108498352Y-86989354D01*
X108482708Y-86970292D01*
X108406650Y-86907872D01*
X108319875Y-86861490D01*
X108225719Y-86832928D01*
X108152331Y-86825700D01*
X108152323Y-86825700D01*
X108127800Y-86823285D01*
X108103277Y-86825700D01*
X107977437Y-86825700D01*
X107929359Y-86793575D01*
X107820184Y-86748353D01*
X107704285Y-86725300D01*
X107586115Y-86725300D01*
X107470216Y-86748353D01*
X107361041Y-86793575D01*
X107262786Y-86859227D01*
X107179227Y-86942786D01*
X107113575Y-87041041D01*
X107068353Y-87150216D01*
X107045300Y-87266115D01*
X107045300Y-87384285D01*
X107068353Y-87500184D01*
X107113575Y-87609359D01*
X107179227Y-87707614D01*
X107262786Y-87791173D01*
X107361041Y-87856825D01*
X107470216Y-87902047D01*
X107586115Y-87925100D01*
X107704285Y-87925100D01*
X107820184Y-87902047D01*
X107929359Y-87856825D01*
X107943547Y-87847345D01*
X109044305Y-88948104D01*
X109015386Y-88967427D01*
X108931827Y-89050986D01*
X108866175Y-89149241D01*
X108820953Y-89258416D01*
X108797900Y-89374315D01*
X108797900Y-89492485D01*
X108820953Y-89608384D01*
X108866175Y-89717559D01*
X108898300Y-89765638D01*
X108898300Y-89810701D01*
X107260502Y-91448500D01*
X106858090Y-91448500D01*
X106833567Y-91446085D01*
X106809044Y-91448500D01*
X106809037Y-91448500D01*
X106735649Y-91455728D01*
X106641493Y-91484290D01*
X106554718Y-91530672D01*
X106478660Y-91593092D01*
X106463022Y-91612147D01*
X105664149Y-92411021D01*
X105645093Y-92426660D01*
X105629455Y-92445715D01*
X105582672Y-92502719D01*
X105536290Y-92589494D01*
X105507728Y-92683650D01*
X105498085Y-92781568D01*
X105500501Y-92806100D01*
X105500501Y-93189280D01*
X104800000Y-93189280D01*
X104730310Y-93196144D01*
X104663298Y-93216472D01*
X104601539Y-93249482D01*
X104547407Y-93293907D01*
X104502982Y-93348039D01*
X104469972Y-93409798D01*
X104449644Y-93476810D01*
X104442780Y-93546500D01*
X104442780Y-94286500D01*
X104449644Y-94356190D01*
X104469972Y-94423202D01*
X104502982Y-94484961D01*
X104547407Y-94539093D01*
X104562525Y-94551500D01*
X104547407Y-94563907D01*
X104502982Y-94618039D01*
X104469972Y-94679798D01*
X104449644Y-94746810D01*
X104442780Y-94816500D01*
X104442780Y-95556500D01*
X104449644Y-95626190D01*
X104469972Y-95693202D01*
X104502982Y-95754961D01*
X104547407Y-95809093D01*
X104562525Y-95821500D01*
X104547407Y-95833907D01*
X104502982Y-95888039D01*
X104469972Y-95949798D01*
X104449644Y-96016810D01*
X104442780Y-96086500D01*
X104442780Y-96826500D01*
X104446276Y-96861990D01*
X103575632Y-96861990D01*
X103573847Y-96853016D01*
X103528625Y-96743841D01*
X103462973Y-96645586D01*
X103379414Y-96562027D01*
X103281159Y-96496375D01*
X103171984Y-96451153D01*
X103056085Y-96428100D01*
X102937915Y-96428100D01*
X102822016Y-96451153D01*
X102712841Y-96496375D01*
X102614586Y-96562027D01*
X102531027Y-96645586D01*
X102465375Y-96743841D01*
X102420153Y-96853016D01*
X102397100Y-96968915D01*
X102397100Y-97087085D01*
X102420153Y-97202984D01*
X102465375Y-97312159D01*
X102531027Y-97410414D01*
X102614586Y-97493973D01*
X102712841Y-97559625D01*
X102720726Y-97562891D01*
X102712734Y-97572629D01*
X102039243Y-98246120D01*
X101955588Y-98162465D01*
X101766335Y-98036009D01*
X101556047Y-97948905D01*
X101332807Y-97904500D01*
X101105193Y-97904500D01*
X100881953Y-97948905D01*
X100671665Y-98036009D01*
X100482412Y-98162465D01*
X100380377Y-98264500D01*
X99898623Y-98264500D01*
X99796588Y-98162465D01*
X99607335Y-98036009D01*
X99397047Y-97948905D01*
X99173807Y-97904500D01*
X98946193Y-97904500D01*
X98722953Y-97948905D01*
X98512665Y-98036009D01*
X98323412Y-98162465D01*
X98297500Y-98188377D01*
X98297500Y-97391623D01*
X98323412Y-97417535D01*
X98512665Y-97543991D01*
X98722953Y-97631095D01*
X98946193Y-97675500D01*
X99173807Y-97675500D01*
X99397047Y-97631095D01*
X99607335Y-97543991D01*
X99796588Y-97417535D01*
X99898623Y-97315500D01*
X100380377Y-97315500D01*
X100482412Y-97417535D01*
X100671665Y-97543991D01*
X100881953Y-97631095D01*
X101105193Y-97675500D01*
X101332807Y-97675500D01*
X101556047Y-97631095D01*
X101766335Y-97543991D01*
X101955588Y-97417535D01*
X102116535Y-97256588D01*
X102242991Y-97067335D01*
X102330095Y-96857047D01*
X102374500Y-96633807D01*
X102374500Y-96406193D01*
X102330095Y-96182953D01*
X102242991Y-95972665D01*
X102116535Y-95783412D01*
X101955588Y-95622465D01*
X101766335Y-95496009D01*
X101556047Y-95408905D01*
X101332807Y-95364500D01*
X101105193Y-95364500D01*
X100881953Y-95408905D01*
X100671665Y-95496009D01*
X100482412Y-95622465D01*
X100380377Y-95724500D01*
X99898623Y-95724500D01*
X99796588Y-95622465D01*
X99607335Y-95496009D01*
X99397047Y-95408905D01*
X99173807Y-95364500D01*
X98946193Y-95364500D01*
X98722953Y-95408905D01*
X98512665Y-95496009D01*
X98323412Y-95622465D01*
X98297500Y-95648377D01*
X98297500Y-94851623D01*
X98323412Y-94877535D01*
X98512665Y-95003991D01*
X98722953Y-95091095D01*
X98946193Y-95135500D01*
X99173807Y-95135500D01*
X99397047Y-95091095D01*
X99607335Y-95003991D01*
X99796588Y-94877535D01*
X99898623Y-94775500D01*
X100380377Y-94775500D01*
X100482412Y-94877535D01*
X100671665Y-95003991D01*
X100881953Y-95091095D01*
X101105193Y-95135500D01*
X101332807Y-95135500D01*
X101556047Y-95091095D01*
X101766335Y-95003991D01*
X101955588Y-94877535D01*
X102116535Y-94716588D01*
X102242991Y-94527335D01*
X102330095Y-94317047D01*
X102374500Y-94093807D01*
X102374500Y-93866193D01*
X102330095Y-93642953D01*
X102242991Y-93432665D01*
X102116535Y-93243412D01*
X101955588Y-93082465D01*
X101766335Y-92956009D01*
X101556047Y-92868905D01*
X101332807Y-92824500D01*
X101105193Y-92824500D01*
X100881953Y-92868905D01*
X100671665Y-92956009D01*
X100482412Y-93082465D01*
X100380377Y-93184500D01*
X99898623Y-93184500D01*
X99796588Y-93082465D01*
X99607335Y-92956009D01*
X99397047Y-92868905D01*
X99173807Y-92824500D01*
X98946193Y-92824500D01*
X98722953Y-92868905D01*
X98512665Y-92956009D01*
X98323412Y-93082465D01*
X98297500Y-93108377D01*
X98297500Y-92311623D01*
X98323412Y-92337535D01*
X98512665Y-92463991D01*
X98722953Y-92551095D01*
X98946193Y-92595500D01*
X99173807Y-92595500D01*
X99397047Y-92551095D01*
X99607335Y-92463991D01*
X99796588Y-92337535D01*
X99898623Y-92235500D01*
X100380377Y-92235500D01*
X100482412Y-92337535D01*
X100671665Y-92463991D01*
X100881953Y-92551095D01*
X101105193Y-92595500D01*
X101332807Y-92595500D01*
X101556047Y-92551095D01*
X101766335Y-92463991D01*
X101955588Y-92337535D01*
X102116535Y-92176588D01*
X102242991Y-91987335D01*
X102330095Y-91777047D01*
X102374500Y-91553807D01*
X102374500Y-91326193D01*
X102330095Y-91102953D01*
X102302411Y-91036118D01*
X102685083Y-90653447D01*
X102703408Y-90638408D01*
X102718447Y-90620083D01*
X102718450Y-90620080D01*
X102763453Y-90565244D01*
X102808071Y-90481769D01*
X102809553Y-90476884D01*
X102835547Y-90391194D01*
X102842500Y-90320597D01*
X102842500Y-90320587D01*
X102844823Y-90297001D01*
X102842500Y-90273414D01*
X102842500Y-89663059D01*
X102849547Y-89676243D01*
X102909592Y-89749408D01*
X102910956Y-89750528D01*
X102928153Y-89836984D01*
X102973375Y-89946159D01*
X103039027Y-90044414D01*
X103122586Y-90127973D01*
X103220841Y-90193625D01*
X103330016Y-90238847D01*
X103445915Y-90261900D01*
X103564085Y-90261900D01*
X103679984Y-90238847D01*
X103681540Y-90238203D01*
X103681540Y-90549287D01*
X103630414Y-90625802D01*
X103585192Y-90734977D01*
X103562139Y-90850876D01*
X103562139Y-90969046D01*
X103585192Y-91084945D01*
X103630414Y-91194120D01*
X103696066Y-91292375D01*
X103779625Y-91375934D01*
X103877880Y-91441586D01*
X103987055Y-91486808D01*
X104102954Y-91509861D01*
X104221124Y-91509861D01*
X104337023Y-91486808D01*
X104446198Y-91441586D01*
X104544453Y-91375934D01*
X104615062Y-91305325D01*
X104579153Y-91392016D01*
X104556100Y-91507915D01*
X104556100Y-91626085D01*
X104579153Y-91741984D01*
X104624375Y-91851159D01*
X104690027Y-91949414D01*
X104773586Y-92032973D01*
X104871841Y-92098625D01*
X104981016Y-92143847D01*
X105096915Y-92166900D01*
X105215085Y-92166900D01*
X105330984Y-92143847D01*
X105440159Y-92098625D01*
X105538414Y-92032973D01*
X105621973Y-91949414D01*
X105687625Y-91851159D01*
X105732847Y-91741984D01*
X105755900Y-91626085D01*
X105755900Y-91507915D01*
X105732847Y-91392016D01*
X105687625Y-91282841D01*
X105636500Y-91206327D01*
X105636500Y-83900489D01*
X105895900Y-83641090D01*
X105953111Y-83594138D01*
X105968154Y-83575808D01*
X106444278Y-83099684D01*
X106462608Y-83084641D01*
X106522653Y-83011476D01*
X106567271Y-82928002D01*
X106594747Y-82837427D01*
X106601700Y-82766830D01*
X106601700Y-82766827D01*
X106602688Y-82756794D01*
X106652825Y-82681759D01*
X106698047Y-82572584D01*
X106721100Y-82456685D01*
X106721100Y-82338515D01*
X106709083Y-82278101D01*
X106719172Y-82278101D01*
X107139300Y-82698230D01*
X107139301Y-84348326D01*
X107088175Y-84424841D01*
X107042953Y-84534016D01*
X107019900Y-84649915D01*
X107019900Y-84768085D01*
X107042953Y-84883984D01*
X107088175Y-84993159D01*
X107153827Y-85091414D01*
X107237386Y-85174973D01*
X107335641Y-85240625D01*
X107444816Y-85285847D01*
X107560715Y-85308900D01*
X107678885Y-85308900D01*
X107794784Y-85285847D01*
X107903959Y-85240625D01*
X108002214Y-85174973D01*
X108085773Y-85091414D01*
X108151425Y-84993159D01*
X108196647Y-84883984D01*
X108219700Y-84768085D01*
X108219700Y-84649915D01*
X108196647Y-84534016D01*
X108151425Y-84424841D01*
X108100300Y-84348327D01*
X108100300Y-82522786D01*
X108102623Y-82499200D01*
X108100300Y-82475613D01*
X108100300Y-82475603D01*
X108093347Y-82405006D01*
X108065871Y-82314431D01*
X108021253Y-82230957D01*
X108014408Y-82222616D01*
X107976250Y-82176120D01*
X107976247Y-82176117D01*
X107961208Y-82157792D01*
X107942883Y-82142753D01*
X107274652Y-81474523D01*
X107259609Y-81456193D01*
X107186444Y-81396148D01*
X107102970Y-81351530D01*
X107012395Y-81324054D01*
X106941798Y-81317101D01*
X106941787Y-81317101D01*
X106918201Y-81314778D01*
X106894615Y-81317101D01*
X106840219Y-81317101D01*
X108287514Y-79869807D01*
X108305839Y-79854768D01*
X108320878Y-79836443D01*
X108320881Y-79836440D01*
X108365884Y-79781604D01*
X108410502Y-79698129D01*
X108419530Y-79668367D01*
X108437978Y-79607554D01*
X108444931Y-79536957D01*
X108444931Y-79536947D01*
X108447254Y-79513360D01*
X108444931Y-79489774D01*
X108444931Y-75749598D01*
X109677565Y-74516965D01*
X109695890Y-74501926D01*
X109710929Y-74483601D01*
X109710932Y-74483598D01*
X109755935Y-74428762D01*
X109800553Y-74345287D01*
X109809462Y-74315917D01*
X109828029Y-74254712D01*
X109834982Y-74184115D01*
X109834982Y-74184105D01*
X109837305Y-74160518D01*
X109834982Y-74136932D01*
X109834982Y-73919668D01*
X109837305Y-73896082D01*
X109834982Y-73872496D01*
X109834982Y-73872486D01*
X109834591Y-73868516D01*
X109834591Y-71561424D01*
X109849207Y-71546807D01*
X110036602Y-71546807D01*
X110074827Y-71604014D01*
X110158386Y-71687573D01*
X110256641Y-71753225D01*
X110365816Y-71798447D01*
X110481715Y-71821500D01*
X110599885Y-71821500D01*
X110715784Y-71798447D01*
X110824959Y-71753225D01*
X110923214Y-71687573D01*
X111006773Y-71604014D01*
X111072425Y-71505759D01*
X111117647Y-71396584D01*
X111140700Y-71280685D01*
X111140700Y-71162515D01*
X111117647Y-71046616D01*
X111072425Y-70937441D01*
X111006773Y-70839186D01*
X110923214Y-70755627D01*
X110824959Y-70689975D01*
X110715784Y-70644753D01*
X110599885Y-70621700D01*
X110540701Y-70621700D01*
X110537962Y-70620236D01*
X110447387Y-70592760D01*
X110415393Y-70589609D01*
X110429500Y-70518685D01*
X110429500Y-70400515D01*
X110406447Y-70284616D01*
X110361225Y-70175441D01*
X110313490Y-70104000D01*
X110361225Y-70032559D01*
X110406447Y-69923384D01*
X110429500Y-69807485D01*
X110429500Y-69689315D01*
X110406447Y-69573416D01*
X110361225Y-69464241D01*
X110313490Y-69392800D01*
X110361225Y-69321359D01*
X110406447Y-69212184D01*
X110429500Y-69096285D01*
X110429500Y-68978115D01*
X110406447Y-68862216D01*
X110361225Y-68753041D01*
X110295573Y-68654786D01*
X110212014Y-68571227D01*
X110113759Y-68505575D01*
X110004584Y-68460353D01*
X109888685Y-68437300D01*
X109841692Y-68437300D01*
X109859982Y-68403082D01*
X109863192Y-68392500D01*
X109868036Y-68376532D01*
X109948315Y-68392500D01*
X110066485Y-68392500D01*
X110182384Y-68369447D01*
X110291559Y-68324225D01*
X110389814Y-68258573D01*
X110473373Y-68175014D01*
X110539025Y-68076759D01*
X110584247Y-67967584D01*
X110602199Y-67877330D01*
X111041678Y-67437851D01*
X111060008Y-67422808D01*
X111120053Y-67349643D01*
X111164671Y-67266169D01*
X111192147Y-67175594D01*
X111199100Y-67104997D01*
X111199100Y-67104994D01*
X111201424Y-67081400D01*
X111199100Y-67057806D01*
X111199100Y-66688699D01*
X112304815Y-66688699D01*
X112328401Y-66691022D01*
X112351987Y-66688699D01*
X112351998Y-66688699D01*
X112422595Y-66681746D01*
X112513170Y-66654270D01*
X112596644Y-66609652D01*
X112659275Y-66558252D01*
X112694499Y-66551246D01*
X112694499Y-66556414D01*
G37*
G04 #@! TD.AperFunction*
D24*
X104474000Y-99021875D02*
X104630625Y-99178500D01*
X105465000Y-99178500D01*
X105465000Y-99158500D01*
X105736000Y-99158500D01*
X105736000Y-99178500D01*
X105756000Y-99178500D01*
X105756000Y-99449500D01*
X105736000Y-99449500D01*
X105736000Y-99469500D01*
X105465000Y-99469500D01*
X105465000Y-99449500D01*
X104630625Y-99449500D01*
X104474000Y-99606125D01*
X104470969Y-99814000D01*
X104483065Y-99936815D01*
X104518889Y-100054911D01*
X104577064Y-100163749D01*
X104609687Y-100203500D01*
X101393135Y-100203500D01*
X101556047Y-100171095D01*
X101766335Y-100083991D01*
X101955588Y-99957535D01*
X102057623Y-99855500D01*
X102311300Y-99855500D01*
X102350370Y-99859348D01*
X102389440Y-99855500D01*
X102389450Y-99855500D01*
X102506315Y-99843990D01*
X102656268Y-99798502D01*
X102794465Y-99724634D01*
X102915595Y-99625225D01*
X102940510Y-99594866D01*
X103632377Y-98903000D01*
X104472267Y-98903000D01*
X104474000Y-99021875D01*
G04 #@! TA.AperFunction,Conductor*
D25*
G36*
X104474000Y-99021875D02*
G01*
X104630625Y-99178500D01*
X105465000Y-99178500D01*
X105465000Y-99158500D01*
X105736000Y-99158500D01*
X105736000Y-99178500D01*
X105756000Y-99178500D01*
X105756000Y-99449500D01*
X105736000Y-99449500D01*
X105736000Y-99469500D01*
X105465000Y-99469500D01*
X105465000Y-99449500D01*
X104630625Y-99449500D01*
X104474000Y-99606125D01*
X104470969Y-99814000D01*
X104483065Y-99936815D01*
X104518889Y-100054911D01*
X104577064Y-100163749D01*
X104609687Y-100203500D01*
X101393135Y-100203500D01*
X101556047Y-100171095D01*
X101766335Y-100083991D01*
X101955588Y-99957535D01*
X102057623Y-99855500D01*
X102311300Y-99855500D01*
X102350370Y-99859348D01*
X102389440Y-99855500D01*
X102389450Y-99855500D01*
X102506315Y-99843990D01*
X102656268Y-99798502D01*
X102794465Y-99724634D01*
X102915595Y-99625225D01*
X102940510Y-99594866D01*
X103632377Y-98903000D01*
X104472267Y-98903000D01*
X104474000Y-99021875D01*
G37*
G04 #@! TD.AperFunction*
D24*
X106133902Y-78755129D02*
X105371971Y-79517061D01*
X103862489Y-79517061D01*
X103838895Y-79514737D01*
X103815301Y-79517061D01*
X103815298Y-79517061D01*
X103744701Y-79524014D01*
X103654126Y-79551490D01*
X103570652Y-79596108D01*
X103497487Y-79656153D01*
X103482445Y-79674482D01*
X102802368Y-80354559D01*
X102833471Y-80296369D01*
X102843653Y-80262803D01*
X102860947Y-80205794D01*
X102867900Y-80135197D01*
X102867900Y-80135187D01*
X102870223Y-80111601D01*
X102867900Y-80088014D01*
X102867900Y-78532629D01*
X103323030Y-78077500D01*
X105303327Y-78077500D01*
X105379841Y-78128625D01*
X105489016Y-78173847D01*
X105604915Y-78196900D01*
X105723085Y-78196900D01*
X105838984Y-78173847D01*
X105948159Y-78128625D01*
X106046414Y-78062973D01*
X106129973Y-77979414D01*
X106133902Y-77973534D01*
X106133902Y-78755129D01*
G04 #@! TA.AperFunction,Conductor*
D25*
G36*
X106133902Y-78755129D02*
G01*
X105371971Y-79517061D01*
X103862489Y-79517061D01*
X103838895Y-79514737D01*
X103815301Y-79517061D01*
X103815298Y-79517061D01*
X103744701Y-79524014D01*
X103654126Y-79551490D01*
X103570652Y-79596108D01*
X103497487Y-79656153D01*
X103482445Y-79674482D01*
X102802368Y-80354559D01*
X102833471Y-80296369D01*
X102843653Y-80262803D01*
X102860947Y-80205794D01*
X102867900Y-80135197D01*
X102867900Y-80135187D01*
X102870223Y-80111601D01*
X102867900Y-80088014D01*
X102867900Y-78532629D01*
X103323030Y-78077500D01*
X105303327Y-78077500D01*
X105379841Y-78128625D01*
X105489016Y-78173847D01*
X105604915Y-78196900D01*
X105723085Y-78196900D01*
X105838984Y-78173847D01*
X105948159Y-78128625D01*
X106046414Y-78062973D01*
X106129973Y-77979414D01*
X106133902Y-77973534D01*
X106133902Y-78755129D01*
G37*
G04 #@! TD.AperFunction*
D24*
X100101058Y-44333095D02*
X99988283Y-44501875D01*
X99910602Y-44689414D01*
X99871000Y-44888505D01*
X99871000Y-45091495D01*
X99910602Y-45290586D01*
X99988283Y-45478125D01*
X100101058Y-45646905D01*
X100244595Y-45790442D01*
X100413375Y-45903217D01*
X100545102Y-45957780D01*
X100226500Y-45957780D01*
X100156810Y-45964644D01*
X100089798Y-45984972D01*
X100028039Y-46017982D01*
X99973907Y-46062407D01*
X99929482Y-46116539D01*
X99896472Y-46178298D01*
X99876144Y-46245310D01*
X99869280Y-46315000D01*
X99869280Y-47665000D01*
X99876144Y-47734690D01*
X99896472Y-47801702D01*
X99929482Y-47863461D01*
X99973907Y-47917593D01*
X100028039Y-47962018D01*
X100089798Y-47995028D01*
X100156810Y-48015356D01*
X100226500Y-48022220D01*
X101576500Y-48022220D01*
X101646190Y-48015356D01*
X101713202Y-47995028D01*
X101774961Y-47962018D01*
X101829093Y-47917593D01*
X101873518Y-47863461D01*
X101906528Y-47801702D01*
X101926856Y-47734690D01*
X101933720Y-47665000D01*
X101933720Y-47346398D01*
X101988283Y-47478125D01*
X102101058Y-47646905D01*
X102244595Y-47790442D01*
X102413375Y-47903217D01*
X102600914Y-47980898D01*
X102800005Y-48020500D01*
X103002995Y-48020500D01*
X103202086Y-47980898D01*
X103389625Y-47903217D01*
X103558405Y-47790442D01*
X103701942Y-47646905D01*
X103814717Y-47478125D01*
X103892398Y-47290586D01*
X103901500Y-47244828D01*
X103910602Y-47290586D01*
X103988283Y-47478125D01*
X104101058Y-47646905D01*
X104244595Y-47790442D01*
X104413375Y-47903217D01*
X104600914Y-47980898D01*
X104800005Y-48020500D01*
X105002995Y-48020500D01*
X105202086Y-47980898D01*
X105389625Y-47903217D01*
X105558405Y-47790442D01*
X105701942Y-47646905D01*
X105814717Y-47478125D01*
X105892398Y-47290586D01*
X105901500Y-47244828D01*
X105910602Y-47290586D01*
X105988283Y-47478125D01*
X106101058Y-47646905D01*
X106244595Y-47790442D01*
X106413375Y-47903217D01*
X106600914Y-47980898D01*
X106800005Y-48020500D01*
X107002995Y-48020500D01*
X107202086Y-47980898D01*
X107389625Y-47903217D01*
X107432000Y-47874903D01*
X107432000Y-48003157D01*
X107429701Y-48026499D01*
X107438872Y-48119615D01*
X107460136Y-48189711D01*
X107466034Y-48209153D01*
X107510141Y-48291672D01*
X107569499Y-48364000D01*
X107587628Y-48378878D01*
X108795321Y-49586572D01*
X108795322Y-52980075D01*
X108422744Y-53352653D01*
X108404609Y-53367536D01*
X108345251Y-53439864D01*
X108301144Y-53522384D01*
X108287303Y-53568011D01*
X108273983Y-53611921D01*
X108264812Y-53705037D01*
X108267110Y-53728369D01*
X108267111Y-54801237D01*
X108264812Y-54824579D01*
X108273983Y-54917695D01*
X108301145Y-55007233D01*
X108345252Y-55089752D01*
X108404610Y-55162080D01*
X108422739Y-55176958D01*
X109206831Y-55961051D01*
X109206831Y-56030596D01*
X109206832Y-56030606D01*
X109206831Y-62825179D01*
X108971387Y-63060624D01*
X108953063Y-63075662D01*
X108938024Y-63093987D01*
X108938021Y-63093990D01*
X108893018Y-63148826D01*
X108852359Y-63224895D01*
X108848400Y-63232301D01*
X108820924Y-63322876D01*
X108813971Y-63393473D01*
X108813971Y-63393483D01*
X108811648Y-63417069D01*
X108813971Y-63440656D01*
X108813973Y-66308414D01*
X108807946Y-66315758D01*
X108763328Y-66399233D01*
X108754929Y-66426923D01*
X108735853Y-66489807D01*
X108729963Y-66549607D01*
X108726576Y-66584001D01*
X108728900Y-66607597D01*
X108728899Y-67153326D01*
X108726576Y-67176913D01*
X108728899Y-67200499D01*
X108728899Y-67200509D01*
X108735852Y-67271106D01*
X108763328Y-67361681D01*
X108807946Y-67445156D01*
X108867991Y-67518321D01*
X108886322Y-67533365D01*
X108933411Y-67580454D01*
X108933411Y-67695283D01*
X108933412Y-67695292D01*
X108933411Y-68019283D01*
X108159996Y-68792699D01*
X107896874Y-68792699D01*
X107820360Y-68741574D01*
X107711185Y-68696352D01*
X107595286Y-68673299D01*
X107477116Y-68673299D01*
X107361217Y-68696352D01*
X107273120Y-68732843D01*
X107273120Y-65343239D01*
X107750109Y-64866250D01*
X107768439Y-64851207D01*
X107828484Y-64778042D01*
X107873102Y-64694568D01*
X107900578Y-64603993D01*
X107907531Y-64533396D01*
X107907531Y-64533393D01*
X107909855Y-64509799D01*
X107907531Y-64486205D01*
X107907531Y-54174117D01*
X107909854Y-54150531D01*
X107907531Y-54126945D01*
X107907531Y-54126935D01*
X107907529Y-54126915D01*
X107907529Y-52713615D01*
X107909852Y-52690029D01*
X107907529Y-52666442D01*
X107907529Y-52666432D01*
X107900576Y-52595835D01*
X107873100Y-52505260D01*
X107828482Y-52421786D01*
X107812033Y-52401743D01*
X107783479Y-52366949D01*
X107783476Y-52366946D01*
X107768437Y-52348621D01*
X107750112Y-52333582D01*
X107465299Y-52048769D01*
X107447347Y-51958516D01*
X107402125Y-51849341D01*
X107336473Y-51751086D01*
X107252914Y-51667527D01*
X107154659Y-51601875D01*
X107045484Y-51556653D01*
X106929585Y-51533600D01*
X106811415Y-51533600D01*
X106695516Y-51556653D01*
X106586341Y-51601875D01*
X106488086Y-51667527D01*
X106404527Y-51751086D01*
X106390520Y-51772049D01*
X106431347Y-51673484D01*
X106454400Y-51557585D01*
X106454400Y-51439415D01*
X106431347Y-51323516D01*
X106386125Y-51214341D01*
X106320473Y-51116086D01*
X106236914Y-51032527D01*
X106138659Y-50966875D01*
X106029484Y-50921653D01*
X105913585Y-50898600D01*
X105795415Y-50898600D01*
X105679516Y-50921653D01*
X105570341Y-50966875D01*
X105472086Y-51032527D01*
X105388527Y-51116086D01*
X105322875Y-51214341D01*
X105277653Y-51323516D01*
X105254600Y-51439415D01*
X105254600Y-51557585D01*
X105275090Y-51660600D01*
X105160415Y-51660600D01*
X105044516Y-51683653D01*
X104935341Y-51728875D01*
X104837086Y-51794527D01*
X104753527Y-51878086D01*
X104687875Y-51976341D01*
X104642653Y-52085516D01*
X104619600Y-52201415D01*
X104619600Y-52319585D01*
X104642653Y-52435484D01*
X104687875Y-52544659D01*
X104753527Y-52642914D01*
X104837086Y-52726473D01*
X104935341Y-52792125D01*
X105044516Y-52837347D01*
X105134770Y-52855299D01*
X105144082Y-52864611D01*
X105125342Y-52872374D01*
X105027087Y-52938026D01*
X104943528Y-53021585D01*
X104877876Y-53119840D01*
X104832654Y-53229015D01*
X104809601Y-53344914D01*
X104809601Y-53463084D01*
X104832654Y-53578983D01*
X104877876Y-53688158D01*
X104943528Y-53786413D01*
X105027087Y-53869972D01*
X105125342Y-53935624D01*
X105218665Y-53974280D01*
X104052000Y-53974280D01*
X103982310Y-53981144D01*
X103915298Y-54001472D01*
X103853539Y-54034482D01*
X103799407Y-54078907D01*
X103754982Y-54133039D01*
X103721972Y-54194798D01*
X103701644Y-54261810D01*
X103694780Y-54331500D01*
X103694780Y-55696491D01*
X103477500Y-55913771D01*
X103477500Y-53348529D01*
X103589731Y-53236299D01*
X103679984Y-53218347D01*
X103789159Y-53173125D01*
X103887414Y-53107473D01*
X103970973Y-53023914D01*
X104036625Y-52925659D01*
X104081847Y-52816484D01*
X104104900Y-52700585D01*
X104104900Y-52582415D01*
X104081847Y-52466516D01*
X104036625Y-52357341D01*
X103970973Y-52259086D01*
X103887414Y-52175527D01*
X103789159Y-52109875D01*
X103679984Y-52064653D01*
X103591456Y-52047044D01*
X103573847Y-51958516D01*
X103528625Y-51849341D01*
X103462973Y-51751086D01*
X103379414Y-51667527D01*
X103281159Y-51601875D01*
X103171984Y-51556653D01*
X103056085Y-51533600D01*
X102937915Y-51533600D01*
X102822016Y-51556653D01*
X102712841Y-51601875D01*
X102643803Y-51648005D01*
X102648531Y-51600000D01*
X102645500Y-51092125D01*
X102488875Y-50935500D01*
X101354500Y-50935500D01*
X101354500Y-50955500D01*
X101083500Y-50955500D01*
X101083500Y-50935500D01*
X99195500Y-50935500D01*
X99195500Y-50955500D01*
X98924500Y-50955500D01*
X98924500Y-50935500D01*
X98904500Y-50935500D01*
X98904500Y-50664500D01*
X98924500Y-50664500D01*
X98924500Y-49530125D01*
X99195500Y-49530125D01*
X99195500Y-50664500D01*
X101083500Y-50664500D01*
X101083500Y-49530125D01*
X101354500Y-49530125D01*
X101354500Y-50664500D01*
X102488875Y-50664500D01*
X102645500Y-50507875D01*
X102648531Y-50000000D01*
X102636435Y-49877185D01*
X102600611Y-49759089D01*
X102542436Y-49650251D01*
X102464146Y-49554854D01*
X102368749Y-49476564D01*
X102259911Y-49418389D01*
X102141815Y-49382565D01*
X102019000Y-49370469D01*
X101511125Y-49373500D01*
X101354500Y-49530125D01*
X101083500Y-49530125D01*
X100926875Y-49373500D01*
X100419000Y-49370469D01*
X100296185Y-49382565D01*
X100178089Y-49418389D01*
X100139500Y-49439015D01*
X100100911Y-49418389D01*
X99982815Y-49382565D01*
X99860000Y-49370469D01*
X99352125Y-49373500D01*
X99195500Y-49530125D01*
X98924500Y-49530125D01*
X98767875Y-49373500D01*
X98297500Y-49370693D01*
X98297500Y-44322500D01*
X100111653Y-44322500D01*
X100101058Y-44333095D01*
G04 #@! TA.AperFunction,Conductor*
D25*
G36*
X100101058Y-44333095D02*
G01*
X99988283Y-44501875D01*
X99910602Y-44689414D01*
X99871000Y-44888505D01*
X99871000Y-45091495D01*
X99910602Y-45290586D01*
X99988283Y-45478125D01*
X100101058Y-45646905D01*
X100244595Y-45790442D01*
X100413375Y-45903217D01*
X100545102Y-45957780D01*
X100226500Y-45957780D01*
X100156810Y-45964644D01*
X100089798Y-45984972D01*
X100028039Y-46017982D01*
X99973907Y-46062407D01*
X99929482Y-46116539D01*
X99896472Y-46178298D01*
X99876144Y-46245310D01*
X99869280Y-46315000D01*
X99869280Y-47665000D01*
X99876144Y-47734690D01*
X99896472Y-47801702D01*
X99929482Y-47863461D01*
X99973907Y-47917593D01*
X100028039Y-47962018D01*
X100089798Y-47995028D01*
X100156810Y-48015356D01*
X100226500Y-48022220D01*
X101576500Y-48022220D01*
X101646190Y-48015356D01*
X101713202Y-47995028D01*
X101774961Y-47962018D01*
X101829093Y-47917593D01*
X101873518Y-47863461D01*
X101906528Y-47801702D01*
X101926856Y-47734690D01*
X101933720Y-47665000D01*
X101933720Y-47346398D01*
X101988283Y-47478125D01*
X102101058Y-47646905D01*
X102244595Y-47790442D01*
X102413375Y-47903217D01*
X102600914Y-47980898D01*
X102800005Y-48020500D01*
X103002995Y-48020500D01*
X103202086Y-47980898D01*
X103389625Y-47903217D01*
X103558405Y-47790442D01*
X103701942Y-47646905D01*
X103814717Y-47478125D01*
X103892398Y-47290586D01*
X103901500Y-47244828D01*
X103910602Y-47290586D01*
X103988283Y-47478125D01*
X104101058Y-47646905D01*
X104244595Y-47790442D01*
X104413375Y-47903217D01*
X104600914Y-47980898D01*
X104800005Y-48020500D01*
X105002995Y-48020500D01*
X105202086Y-47980898D01*
X105389625Y-47903217D01*
X105558405Y-47790442D01*
X105701942Y-47646905D01*
X105814717Y-47478125D01*
X105892398Y-47290586D01*
X105901500Y-47244828D01*
X105910602Y-47290586D01*
X105988283Y-47478125D01*
X106101058Y-47646905D01*
X106244595Y-47790442D01*
X106413375Y-47903217D01*
X106600914Y-47980898D01*
X106800005Y-48020500D01*
X107002995Y-48020500D01*
X107202086Y-47980898D01*
X107389625Y-47903217D01*
X107432000Y-47874903D01*
X107432000Y-48003157D01*
X107429701Y-48026499D01*
X107438872Y-48119615D01*
X107460136Y-48189711D01*
X107466034Y-48209153D01*
X107510141Y-48291672D01*
X107569499Y-48364000D01*
X107587628Y-48378878D01*
X108795321Y-49586572D01*
X108795322Y-52980075D01*
X108422744Y-53352653D01*
X108404609Y-53367536D01*
X108345251Y-53439864D01*
X108301144Y-53522384D01*
X108287303Y-53568011D01*
X108273983Y-53611921D01*
X108264812Y-53705037D01*
X108267110Y-53728369D01*
X108267111Y-54801237D01*
X108264812Y-54824579D01*
X108273983Y-54917695D01*
X108301145Y-55007233D01*
X108345252Y-55089752D01*
X108404610Y-55162080D01*
X108422739Y-55176958D01*
X109206831Y-55961051D01*
X109206831Y-56030596D01*
X109206832Y-56030606D01*
X109206831Y-62825179D01*
X108971387Y-63060624D01*
X108953063Y-63075662D01*
X108938024Y-63093987D01*
X108938021Y-63093990D01*
X108893018Y-63148826D01*
X108852359Y-63224895D01*
X108848400Y-63232301D01*
X108820924Y-63322876D01*
X108813971Y-63393473D01*
X108813971Y-63393483D01*
X108811648Y-63417069D01*
X108813971Y-63440656D01*
X108813973Y-66308414D01*
X108807946Y-66315758D01*
X108763328Y-66399233D01*
X108754929Y-66426923D01*
X108735853Y-66489807D01*
X108729963Y-66549607D01*
X108726576Y-66584001D01*
X108728900Y-66607597D01*
X108728899Y-67153326D01*
X108726576Y-67176913D01*
X108728899Y-67200499D01*
X108728899Y-67200509D01*
X108735852Y-67271106D01*
X108763328Y-67361681D01*
X108807946Y-67445156D01*
X108867991Y-67518321D01*
X108886322Y-67533365D01*
X108933411Y-67580454D01*
X108933411Y-67695283D01*
X108933412Y-67695292D01*
X108933411Y-68019283D01*
X108159996Y-68792699D01*
X107896874Y-68792699D01*
X107820360Y-68741574D01*
X107711185Y-68696352D01*
X107595286Y-68673299D01*
X107477116Y-68673299D01*
X107361217Y-68696352D01*
X107273120Y-68732843D01*
X107273120Y-65343239D01*
X107750109Y-64866250D01*
X107768439Y-64851207D01*
X107828484Y-64778042D01*
X107873102Y-64694568D01*
X107900578Y-64603993D01*
X107907531Y-64533396D01*
X107907531Y-64533393D01*
X107909855Y-64509799D01*
X107907531Y-64486205D01*
X107907531Y-54174117D01*
X107909854Y-54150531D01*
X107907531Y-54126945D01*
X107907531Y-54126935D01*
X107907529Y-54126915D01*
X107907529Y-52713615D01*
X107909852Y-52690029D01*
X107907529Y-52666442D01*
X107907529Y-52666432D01*
X107900576Y-52595835D01*
X107873100Y-52505260D01*
X107828482Y-52421786D01*
X107812033Y-52401743D01*
X107783479Y-52366949D01*
X107783476Y-52366946D01*
X107768437Y-52348621D01*
X107750112Y-52333582D01*
X107465299Y-52048769D01*
X107447347Y-51958516D01*
X107402125Y-51849341D01*
X107336473Y-51751086D01*
X107252914Y-51667527D01*
X107154659Y-51601875D01*
X107045484Y-51556653D01*
X106929585Y-51533600D01*
X106811415Y-51533600D01*
X106695516Y-51556653D01*
X106586341Y-51601875D01*
X106488086Y-51667527D01*
X106404527Y-51751086D01*
X106390520Y-51772049D01*
X106431347Y-51673484D01*
X106454400Y-51557585D01*
X106454400Y-51439415D01*
X106431347Y-51323516D01*
X106386125Y-51214341D01*
X106320473Y-51116086D01*
X106236914Y-51032527D01*
X106138659Y-50966875D01*
X106029484Y-50921653D01*
X105913585Y-50898600D01*
X105795415Y-50898600D01*
X105679516Y-50921653D01*
X105570341Y-50966875D01*
X105472086Y-51032527D01*
X105388527Y-51116086D01*
X105322875Y-51214341D01*
X105277653Y-51323516D01*
X105254600Y-51439415D01*
X105254600Y-51557585D01*
X105275090Y-51660600D01*
X105160415Y-51660600D01*
X105044516Y-51683653D01*
X104935341Y-51728875D01*
X104837086Y-51794527D01*
X104753527Y-51878086D01*
X104687875Y-51976341D01*
X104642653Y-52085516D01*
X104619600Y-52201415D01*
X104619600Y-52319585D01*
X104642653Y-52435484D01*
X104687875Y-52544659D01*
X104753527Y-52642914D01*
X104837086Y-52726473D01*
X104935341Y-52792125D01*
X105044516Y-52837347D01*
X105134770Y-52855299D01*
X105144082Y-52864611D01*
X105125342Y-52872374D01*
X105027087Y-52938026D01*
X104943528Y-53021585D01*
X104877876Y-53119840D01*
X104832654Y-53229015D01*
X104809601Y-53344914D01*
X104809601Y-53463084D01*
X104832654Y-53578983D01*
X104877876Y-53688158D01*
X104943528Y-53786413D01*
X105027087Y-53869972D01*
X105125342Y-53935624D01*
X105218665Y-53974280D01*
X104052000Y-53974280D01*
X103982310Y-53981144D01*
X103915298Y-54001472D01*
X103853539Y-54034482D01*
X103799407Y-54078907D01*
X103754982Y-54133039D01*
X103721972Y-54194798D01*
X103701644Y-54261810D01*
X103694780Y-54331500D01*
X103694780Y-55696491D01*
X103477500Y-55913771D01*
X103477500Y-53348529D01*
X103589731Y-53236299D01*
X103679984Y-53218347D01*
X103789159Y-53173125D01*
X103887414Y-53107473D01*
X103970973Y-53023914D01*
X104036625Y-52925659D01*
X104081847Y-52816484D01*
X104104900Y-52700585D01*
X104104900Y-52582415D01*
X104081847Y-52466516D01*
X104036625Y-52357341D01*
X103970973Y-52259086D01*
X103887414Y-52175527D01*
X103789159Y-52109875D01*
X103679984Y-52064653D01*
X103591456Y-52047044D01*
X103573847Y-51958516D01*
X103528625Y-51849341D01*
X103462973Y-51751086D01*
X103379414Y-51667527D01*
X103281159Y-51601875D01*
X103171984Y-51556653D01*
X103056085Y-51533600D01*
X102937915Y-51533600D01*
X102822016Y-51556653D01*
X102712841Y-51601875D01*
X102643803Y-51648005D01*
X102648531Y-51600000D01*
X102645500Y-51092125D01*
X102488875Y-50935500D01*
X101354500Y-50935500D01*
X101354500Y-50955500D01*
X101083500Y-50955500D01*
X101083500Y-50935500D01*
X99195500Y-50935500D01*
X99195500Y-50955500D01*
X98924500Y-50955500D01*
X98924500Y-50935500D01*
X98904500Y-50935500D01*
X98904500Y-50664500D01*
X98924500Y-50664500D01*
X98924500Y-49530125D01*
X99195500Y-49530125D01*
X99195500Y-50664500D01*
X101083500Y-50664500D01*
X101083500Y-49530125D01*
X101354500Y-49530125D01*
X101354500Y-50664500D01*
X102488875Y-50664500D01*
X102645500Y-50507875D01*
X102648531Y-50000000D01*
X102636435Y-49877185D01*
X102600611Y-49759089D01*
X102542436Y-49650251D01*
X102464146Y-49554854D01*
X102368749Y-49476564D01*
X102259911Y-49418389D01*
X102141815Y-49382565D01*
X102019000Y-49370469D01*
X101511125Y-49373500D01*
X101354500Y-49530125D01*
X101083500Y-49530125D01*
X100926875Y-49373500D01*
X100419000Y-49370469D01*
X100296185Y-49382565D01*
X100178089Y-49418389D01*
X100139500Y-49439015D01*
X100100911Y-49418389D01*
X99982815Y-49382565D01*
X99860000Y-49370469D01*
X99352125Y-49373500D01*
X99195500Y-49530125D01*
X98924500Y-49530125D01*
X98767875Y-49373500D01*
X98297500Y-49370693D01*
X98297500Y-44322500D01*
X100111653Y-44322500D01*
X100101058Y-44333095D01*
G37*
G04 #@! TD.AperFunction*
D24*
X105596502Y-57593780D02*
X104207499Y-57593780D01*
X104207499Y-56542830D01*
X104361609Y-56388720D01*
X105596502Y-56388720D01*
X105596502Y-57593780D01*
G04 #@! TA.AperFunction,Conductor*
D25*
G36*
X105596502Y-57593780D02*
G01*
X104207499Y-57593780D01*
X104207499Y-56542830D01*
X104361609Y-56388720D01*
X105596502Y-56388720D01*
X105596502Y-57593780D01*
G37*
G04 #@! TD.AperFunction*
D24*
X117221501Y-49928378D02*
X117195588Y-49902465D01*
X117006335Y-49776009D01*
X116796047Y-49688905D01*
X116572807Y-49644500D01*
X116345193Y-49644500D01*
X116121953Y-49688905D01*
X115911665Y-49776009D01*
X115722412Y-49902465D01*
X115620377Y-50004500D01*
X115138623Y-50004500D01*
X115036588Y-49902465D01*
X114847335Y-49776009D01*
X114637047Y-49688905D01*
X114413807Y-49644500D01*
X114349251Y-49644500D01*
X114623752Y-49370000D01*
X114770521Y-49370000D01*
X114793853Y-49372298D01*
X114817185Y-49370000D01*
X114852834Y-49366489D01*
X114886969Y-49363127D01*
X114901035Y-49358860D01*
X114976507Y-49335966D01*
X115059026Y-49291859D01*
X115131354Y-49232501D01*
X115146237Y-49214366D01*
X116215378Y-48145227D01*
X116233502Y-48130353D01*
X116292860Y-48058025D01*
X116336967Y-47975506D01*
X116364128Y-47885968D01*
X116371001Y-47816184D01*
X116371001Y-47816183D01*
X116373299Y-47792852D01*
X116371001Y-47769520D01*
X116371001Y-46007833D01*
X116373299Y-45984500D01*
X116364128Y-45891384D01*
X116350862Y-45847653D01*
X116336967Y-45801847D01*
X116292860Y-45719328D01*
X116233502Y-45647000D01*
X116215372Y-45632121D01*
X115928882Y-45345632D01*
X115928873Y-45345621D01*
X115886962Y-45303710D01*
X115892398Y-45290586D01*
X115932000Y-45091495D01*
X115932000Y-44888505D01*
X115892398Y-44689414D01*
X115814717Y-44501875D01*
X115701942Y-44333095D01*
X115691347Y-44322500D01*
X117221501Y-44322500D01*
X117221501Y-49928378D01*
G04 #@! TA.AperFunction,Conductor*
D25*
G36*
X117221501Y-49928378D02*
G01*
X117195588Y-49902465D01*
X117006335Y-49776009D01*
X116796047Y-49688905D01*
X116572807Y-49644500D01*
X116345193Y-49644500D01*
X116121953Y-49688905D01*
X115911665Y-49776009D01*
X115722412Y-49902465D01*
X115620377Y-50004500D01*
X115138623Y-50004500D01*
X115036588Y-49902465D01*
X114847335Y-49776009D01*
X114637047Y-49688905D01*
X114413807Y-49644500D01*
X114349251Y-49644500D01*
X114623752Y-49370000D01*
X114770521Y-49370000D01*
X114793853Y-49372298D01*
X114817185Y-49370000D01*
X114852834Y-49366489D01*
X114886969Y-49363127D01*
X114901035Y-49358860D01*
X114976507Y-49335966D01*
X115059026Y-49291859D01*
X115131354Y-49232501D01*
X115146237Y-49214366D01*
X116215378Y-48145227D01*
X116233502Y-48130353D01*
X116292860Y-48058025D01*
X116336967Y-47975506D01*
X116364128Y-47885968D01*
X116371001Y-47816184D01*
X116371001Y-47816183D01*
X116373299Y-47792852D01*
X116371001Y-47769520D01*
X116371001Y-46007833D01*
X116373299Y-45984500D01*
X116364128Y-45891384D01*
X116350862Y-45847653D01*
X116336967Y-45801847D01*
X116292860Y-45719328D01*
X116233502Y-45647000D01*
X116215372Y-45632121D01*
X115928882Y-45345632D01*
X115928873Y-45345621D01*
X115886962Y-45303710D01*
X115892398Y-45290586D01*
X115932000Y-45091495D01*
X115932000Y-44888505D01*
X115892398Y-44689414D01*
X115814717Y-44501875D01*
X115701942Y-44333095D01*
X115691347Y-44322500D01*
X117221501Y-44322500D01*
X117221501Y-49928378D01*
G37*
G04 #@! TD.AperFunction*
M02*
