G04 #@! TF.GenerationSoftware,KiCad,Pcbnew,(5.1.9)-1*
G04 #@! TF.CreationDate,2021-06-10T15:01:45-04:00*
G04 #@! TF.ProjectId,6526KernalSwitcherC,36353236-4b65-4726-9e61-6c5377697463,rev?*
G04 #@! TF.SameCoordinates,Original*
G04 #@! TF.FileFunction,Soldermask,Bot*
G04 #@! TF.FilePolarity,Negative*
%FSLAX46Y46*%
G04 Gerber Fmt 4.6, Leading zero omitted, Abs format (unit mm)*
G04 Created by KiCad (PCBNEW (5.1.9)-1) date 2021-06-10 15:01:45*
%MOMM*%
%LPD*%
G01*
G04 APERTURE LIST*
%ADD10O,1.600000X1.600000*%
%ADD11R,1.600000X1.600000*%
%ADD12R,1.000000X1.000000*%
%ADD13O,1.000000X1.000000*%
%ADD14R,2.400000X0.740000*%
%ADD15R,1.700000X1.700000*%
%ADD16R,1.350000X1.350000*%
%ADD17O,1.350000X1.350000*%
G04 APERTURE END LIST*
D10*
X114300000Y-50800000D03*
X99060000Y-99060000D03*
X114300000Y-53340000D03*
X99060000Y-96520000D03*
X114300000Y-55880000D03*
X99060000Y-93980000D03*
X114300000Y-58420000D03*
X99060000Y-91440000D03*
X114300000Y-60960000D03*
X99060000Y-88900000D03*
X114300000Y-63500000D03*
X99060000Y-86360000D03*
X114300000Y-66040000D03*
X99060000Y-83820000D03*
X114300000Y-68580000D03*
X99060000Y-81280000D03*
X114300000Y-71120000D03*
X99060000Y-78740000D03*
X114300000Y-73660000D03*
X99060000Y-76200000D03*
X114300000Y-76200000D03*
X99060000Y-73660000D03*
X114300000Y-78740000D03*
X99060000Y-71120000D03*
X114300000Y-81280000D03*
X99060000Y-68580000D03*
X114300000Y-83820000D03*
X99060000Y-66040000D03*
X114300000Y-86360000D03*
X99060000Y-63500000D03*
X114300000Y-88900000D03*
X99060000Y-60960000D03*
X114300000Y-91440000D03*
X99060000Y-58420000D03*
X114300000Y-93980000D03*
X99060000Y-55880000D03*
X114300000Y-96520000D03*
X99060000Y-53340000D03*
X114300000Y-99060000D03*
D11*
X99060000Y-50800000D03*
D12*
X105600500Y-99314000D03*
D13*
X106870500Y-99314000D03*
X108140500Y-99314000D03*
X109410500Y-99314000D03*
X110680500Y-99314000D03*
D14*
X106000000Y-96456500D03*
X109900000Y-96456500D03*
X106000000Y-95186500D03*
X109900000Y-95186500D03*
X106000000Y-93916500D03*
X109900000Y-93916500D03*
D15*
X104902000Y-58801000D03*
X104902000Y-55181500D03*
X104902000Y-62420500D03*
D11*
X101219000Y-50800000D03*
D10*
X116459000Y-99060000D03*
X101219000Y-53340000D03*
X116459000Y-96520000D03*
X101219000Y-55880000D03*
X116459000Y-93980000D03*
X101219000Y-58420000D03*
X116459000Y-91440000D03*
X101219000Y-60960000D03*
X116459000Y-88900000D03*
X101219000Y-63500000D03*
X116459000Y-86360000D03*
X101219000Y-66040000D03*
X116459000Y-83820000D03*
X101219000Y-68580000D03*
X116459000Y-81280000D03*
X101219000Y-71120000D03*
X116459000Y-78740000D03*
X101219000Y-73660000D03*
X116459000Y-76200000D03*
X101219000Y-76200000D03*
X116459000Y-73660000D03*
X101219000Y-78740000D03*
X116459000Y-71120000D03*
X101219000Y-81280000D03*
X116459000Y-68580000D03*
X101219000Y-83820000D03*
X116459000Y-66040000D03*
X101219000Y-86360000D03*
X116459000Y-63500000D03*
X101219000Y-88900000D03*
X116459000Y-60960000D03*
X101219000Y-91440000D03*
X116459000Y-58420000D03*
X101219000Y-93980000D03*
X116459000Y-55880000D03*
X101219000Y-96520000D03*
X116459000Y-53340000D03*
X101219000Y-99060000D03*
X116459000Y-50800000D03*
D16*
X100901500Y-46990000D03*
D17*
X100901500Y-44990000D03*
X102901500Y-46990000D03*
X102901500Y-44990000D03*
X104901500Y-46990000D03*
X104901500Y-44990000D03*
X106901500Y-46990000D03*
X106901500Y-44990000D03*
X108901500Y-46990000D03*
X108901500Y-44990000D03*
X110901500Y-46990000D03*
X110901500Y-44990000D03*
X112901500Y-46990000D03*
X112901500Y-44990000D03*
X114901500Y-46990000D03*
X114901500Y-44990000D03*
M02*
