%FSLAX45Y45*%
G04 Gerber Fmt 4.5, Leading zero omitted, Abs format (unit mm)*
G04 Created by KiCad (PCBNEW (5.1.9)-1) date 2021-06-10 15:01:48*
%MOMM*%
%LPD*%
G01*
G04 APERTURE LIST*
%TA.AperFunction,Profile*%
%ADD10C,0.050000*%
%TD*%
%ADD11C,0.200000*%
%ADD12C,0.300000*%
G04 APERTURE END LIST*
D10*
X9791700Y-4394200D02*
X9982200Y-4394200D01*
X9791700Y-10058400D02*
X9791700Y-4394200D01*
X11760200Y-4394200D02*
X9982200Y-4394200D01*
X11760200Y-10058400D02*
X11760200Y-4394200D01*
X11760200Y-10058400D02*
X9791700Y-10058400D01*
D11*
X10279700Y-5193350D02*
X10319700Y-5233350D01*
X10319700Y-5193350D02*
X10279700Y-5233350D01*
X10279700Y-9682800D02*
X10319700Y-9722800D01*
X10319700Y-9682800D02*
X10279700Y-9722800D01*
X10330500Y-5244150D02*
X10370500Y-5284150D01*
X10370500Y-5244150D02*
X10330500Y-5284150D01*
X10330500Y-8946200D02*
X10370500Y-8986200D01*
X10370500Y-8946200D02*
X10330500Y-8986200D01*
X10336850Y-6539550D02*
X10376850Y-6579550D01*
X10376850Y-6539550D02*
X10336850Y-6579550D01*
X10386380Y-6050600D02*
X10426380Y-6090600D01*
X10426380Y-6050600D02*
X10386380Y-6090600D01*
X10396204Y-9070996D02*
X10436204Y-9110996D01*
X10436204Y-9070996D02*
X10396204Y-9110996D01*
X10409875Y-7438075D02*
X10449875Y-7478075D01*
X10449875Y-7438075D02*
X10409875Y-7478075D01*
X10423210Y-8269290D02*
X10463210Y-8309290D01*
X10463210Y-8269290D02*
X10423210Y-8309290D01*
X10434640Y-8184200D02*
X10474640Y-8224200D01*
X10474640Y-8184200D02*
X10434640Y-8224200D01*
X10449880Y-6799900D02*
X10489880Y-6839900D01*
X10489880Y-6799900D02*
X10449880Y-6839900D01*
X10470200Y-5682300D02*
X10510200Y-5722300D01*
X10510200Y-5682300D02*
X10470200Y-5722300D01*
X10495600Y-9136700D02*
X10535600Y-9176700D01*
X10535600Y-9136700D02*
X10495600Y-9176700D01*
X10501950Y-5206050D02*
X10541950Y-5246050D01*
X10541950Y-5206050D02*
X10501950Y-5246050D01*
X10520950Y-5320400D02*
X10560950Y-5360400D01*
X10560950Y-5320400D02*
X10520950Y-5360400D01*
X10521000Y-7051360D02*
X10561000Y-7091360D01*
X10561000Y-7051360D02*
X10521000Y-7091360D01*
X10521000Y-8219760D02*
X10561000Y-8259760D01*
X10561000Y-8219760D02*
X10521000Y-8259760D01*
X10526080Y-7213920D02*
X10566080Y-7253920D01*
X10566080Y-7213920D02*
X10526080Y-7253920D01*
X10533700Y-7285040D02*
X10573700Y-7325040D01*
X10573700Y-7285040D02*
X10533700Y-7325040D01*
X10546400Y-7612700D02*
X10586400Y-7652700D01*
X10586400Y-7612700D02*
X10546400Y-7652700D01*
X10546400Y-7739700D02*
X10586400Y-7779700D01*
X10586400Y-7739700D02*
X10546400Y-7779700D01*
X10554020Y-9632000D02*
X10594020Y-9672000D01*
X10594020Y-9632000D02*
X10554020Y-9672000D01*
X10565450Y-5129850D02*
X10605450Y-5169850D01*
X10605450Y-5129850D02*
X10565450Y-5169850D01*
X10569260Y-6992940D02*
X10609260Y-7032940D01*
X10609260Y-6992940D02*
X10569260Y-7032940D01*
X10571800Y-7854000D02*
X10611800Y-7894000D01*
X10611800Y-7854000D02*
X10571800Y-7894000D01*
X10584500Y-7549200D02*
X10624500Y-7589200D01*
X10624500Y-7549200D02*
X10584500Y-7589200D01*
X10584500Y-7676200D02*
X10624500Y-7716200D01*
X10624500Y-7676200D02*
X10584500Y-7716200D01*
X10592120Y-8219760D02*
X10632120Y-8259760D01*
X10632120Y-8219760D02*
X10592120Y-8259760D01*
X10614980Y-9497380D02*
X10654980Y-9537380D01*
X10654980Y-9497380D02*
X10614980Y-9537380D01*
X10645460Y-7051360D02*
X10685460Y-7091360D01*
X10685460Y-7051360D02*
X10645460Y-7091360D01*
X10667050Y-5193350D02*
X10707050Y-5233350D01*
X10707050Y-5193350D02*
X10667050Y-5233350D01*
X10673820Y-9251420D02*
X10713820Y-9291420D01*
X10713820Y-9251420D02*
X10673820Y-9291420D01*
X10688640Y-6987860D02*
X10728640Y-7027860D01*
X10728640Y-6987860D02*
X10688640Y-7027860D01*
X10724200Y-6838000D02*
X10764200Y-6878000D01*
X10764200Y-6838000D02*
X10724200Y-6878000D01*
X10733620Y-6907320D02*
X10773620Y-6947320D01*
X10773620Y-6907320D02*
X10733620Y-6947320D01*
X10741980Y-8450900D02*
X10781980Y-8490900D01*
X10781980Y-8450900D02*
X10741980Y-8490900D01*
X10744520Y-8712520D02*
X10784520Y-8752520D01*
X10784520Y-8712520D02*
X10744520Y-8752520D01*
X10787700Y-5148900D02*
X10827700Y-5188900D01*
X10827700Y-5148900D02*
X10787700Y-5188900D01*
X10794050Y-6653850D02*
X10834050Y-6693850D01*
X10834050Y-6653850D02*
X10794050Y-6693850D01*
X10797860Y-6234750D02*
X10837860Y-6274750D01*
X10837860Y-6234750D02*
X10797860Y-6274750D01*
X10864451Y-6774500D02*
X10904451Y-6814500D01*
X10904451Y-6774500D02*
X10864451Y-6814500D01*
X10919780Y-8923340D02*
X10959780Y-8963340D01*
X10959780Y-8923340D02*
X10919780Y-8963340D01*
X10957880Y-6670360D02*
X10997880Y-6710360D01*
X10997880Y-6670360D02*
X10957880Y-6710360D01*
X10957880Y-8204520D02*
X10997880Y-8244520D01*
X10997880Y-8204520D02*
X10957880Y-8244520D01*
X10962960Y-6883720D02*
X11002960Y-6923720D01*
X11002960Y-6883720D02*
X10962960Y-6923720D01*
X10962960Y-6954840D02*
X11002960Y-6994840D01*
X11002960Y-6954840D02*
X10962960Y-6994840D01*
X10962960Y-7025960D02*
X11002960Y-7065960D01*
X11002960Y-7025960D02*
X10962960Y-7065960D01*
X10965500Y-5390200D02*
X11005500Y-5430200D01*
X11005500Y-5390200D02*
X10965500Y-5430200D01*
X10965500Y-7714300D02*
X11005500Y-7754300D01*
X11005500Y-7714300D02*
X10965500Y-7754300D01*
X10972349Y-7143571D02*
X11012349Y-7183571D01*
X11012349Y-7143571D02*
X10972349Y-7183571D01*
X10978200Y-9052880D02*
X11018200Y-9092880D01*
X11018200Y-9052880D02*
X10978200Y-9092880D01*
X10980740Y-6759260D02*
X11020740Y-6799260D01*
X11020740Y-6759260D02*
X10980740Y-6799260D01*
X11034080Y-7102160D02*
X11074080Y-7142160D01*
X11074080Y-7102160D02*
X11034080Y-7142160D01*
X11060750Y-7269800D02*
X11100750Y-7309800D01*
X11100750Y-7269800D02*
X11060750Y-7309800D01*
X11101390Y-6524310D02*
X11141390Y-6564310D01*
X11141390Y-6524310D02*
X11101390Y-6564310D01*
X11149650Y-6444300D02*
X11189650Y-6484300D01*
X11189650Y-6444300D02*
X11149650Y-6484300D01*
X11175050Y-7916230D02*
X11215050Y-7956230D01*
X11215050Y-7916230D02*
X11175050Y-7956230D01*
X11175050Y-8116890D02*
X11215050Y-8156890D01*
X11215050Y-8116890D02*
X11175050Y-8156890D01*
X11175050Y-8320090D02*
X11215050Y-8360090D01*
X11215050Y-8320090D02*
X11175050Y-8360090D01*
X11175050Y-8525830D02*
X11215050Y-8565830D01*
X11215050Y-8525830D02*
X11175050Y-8565830D01*
X11175050Y-8876350D02*
X11215050Y-8916350D01*
X11215050Y-8876350D02*
X11175050Y-8916350D01*
X11176320Y-7752400D02*
X11216320Y-7792400D01*
X11216320Y-7752400D02*
X11176320Y-7792400D01*
X11206800Y-6505260D02*
X11246800Y-6545260D01*
X11246800Y-6505260D02*
X11206800Y-6545260D01*
X11219500Y-9905050D02*
X11259500Y-9945050D01*
X11259500Y-9905050D02*
X11219500Y-9945050D01*
X11237280Y-6576380D02*
X11277280Y-6616380D01*
X11277280Y-6576380D02*
X11237280Y-6616380D01*
X11331260Y-6711000D02*
X11371260Y-6751000D01*
X11371260Y-6711000D02*
X11331260Y-6751000D01*
X11517950Y-6965000D02*
X11557950Y-7005000D01*
X11557950Y-6965000D02*
X11517950Y-7005000D01*
X11638600Y-4513900D02*
X11678600Y-4553900D01*
X11678600Y-4513900D02*
X11638600Y-4553900D01*
X10592550Y-9931400D02*
G75*
G03*
X10592550Y-9931400I-32500J0D01*
G01*
X10719550Y-9931400D02*
G75*
G03*
X10719550Y-9931400I-32500J0D01*
G01*
X10846550Y-9931400D02*
G75*
G03*
X10846550Y-9931400I-32500J0D01*
G01*
X10973550Y-9931400D02*
G75*
G03*
X10973550Y-9931400I-32500J0D01*
G01*
X11100550Y-9931400D02*
G75*
G03*
X11100550Y-9931400I-32500J0D01*
G01*
X9906000Y-5040000D02*
X9906000Y-5120000D01*
X9866000Y-5080000D02*
X9946000Y-5080000D01*
X9906000Y-5294000D02*
X9906000Y-5374000D01*
X9866000Y-5334000D02*
X9946000Y-5334000D01*
X9906000Y-5548000D02*
X9906000Y-5628000D01*
X9866000Y-5588000D02*
X9946000Y-5588000D01*
X9906000Y-5802000D02*
X9906000Y-5882000D01*
X9866000Y-5842000D02*
X9946000Y-5842000D01*
X9906000Y-6056000D02*
X9906000Y-6136000D01*
X9866000Y-6096000D02*
X9946000Y-6096000D01*
X9906000Y-6310000D02*
X9906000Y-6390000D01*
X9866000Y-6350000D02*
X9946000Y-6350000D01*
X9906000Y-6564000D02*
X9906000Y-6644000D01*
X9866000Y-6604000D02*
X9946000Y-6604000D01*
X9906000Y-6818000D02*
X9906000Y-6898000D01*
X9866000Y-6858000D02*
X9946000Y-6858000D01*
X9906000Y-7072000D02*
X9906000Y-7152000D01*
X9866000Y-7112000D02*
X9946000Y-7112000D01*
X9906000Y-7326000D02*
X9906000Y-7406000D01*
X9866000Y-7366000D02*
X9946000Y-7366000D01*
X9906000Y-7580000D02*
X9906000Y-7660000D01*
X9866000Y-7620000D02*
X9946000Y-7620000D01*
X9906000Y-7834000D02*
X9906000Y-7914000D01*
X9866000Y-7874000D02*
X9946000Y-7874000D01*
X9906000Y-8088000D02*
X9906000Y-8168000D01*
X9866000Y-8128000D02*
X9946000Y-8128000D01*
X9906000Y-8342000D02*
X9906000Y-8422000D01*
X9866000Y-8382000D02*
X9946000Y-8382000D01*
X9906000Y-8596000D02*
X9906000Y-8676000D01*
X9866000Y-8636000D02*
X9946000Y-8636000D01*
X9906000Y-8850000D02*
X9906000Y-8930000D01*
X9866000Y-8890000D02*
X9946000Y-8890000D01*
X9906000Y-9104000D02*
X9906000Y-9184000D01*
X9866000Y-9144000D02*
X9946000Y-9144000D01*
X9906000Y-9358000D02*
X9906000Y-9438000D01*
X9866000Y-9398000D02*
X9946000Y-9398000D01*
X9906000Y-9612000D02*
X9906000Y-9692000D01*
X9866000Y-9652000D02*
X9946000Y-9652000D01*
X9906000Y-9866000D02*
X9906000Y-9946000D01*
X9866000Y-9906000D02*
X9946000Y-9906000D01*
X10090150Y-4459000D02*
X10090150Y-4539000D01*
X10050150Y-4499000D02*
X10130150Y-4499000D01*
X10090150Y-4659000D02*
X10090150Y-4739000D01*
X10050150Y-4699000D02*
X10130150Y-4699000D01*
X10121900Y-5040000D02*
X10121900Y-5120000D01*
X10081900Y-5080000D02*
X10161900Y-5080000D01*
X10121900Y-5294000D02*
X10121900Y-5374000D01*
X10081900Y-5334000D02*
X10161900Y-5334000D01*
X10121900Y-5548000D02*
X10121900Y-5628000D01*
X10081900Y-5588000D02*
X10161900Y-5588000D01*
X10121900Y-5802000D02*
X10121900Y-5882000D01*
X10081900Y-5842000D02*
X10161900Y-5842000D01*
X10121900Y-6056000D02*
X10121900Y-6136000D01*
X10081900Y-6096000D02*
X10161900Y-6096000D01*
X10121900Y-6310000D02*
X10121900Y-6390000D01*
X10081900Y-6350000D02*
X10161900Y-6350000D01*
X10121900Y-6564000D02*
X10121900Y-6644000D01*
X10081900Y-6604000D02*
X10161900Y-6604000D01*
X10121900Y-6818000D02*
X10121900Y-6898000D01*
X10081900Y-6858000D02*
X10161900Y-6858000D01*
X10121900Y-7072000D02*
X10121900Y-7152000D01*
X10081900Y-7112000D02*
X10161900Y-7112000D01*
X10121900Y-7326000D02*
X10121900Y-7406000D01*
X10081900Y-7366000D02*
X10161900Y-7366000D01*
X10121900Y-7580000D02*
X10121900Y-7660000D01*
X10081900Y-7620000D02*
X10161900Y-7620000D01*
X10121900Y-7834000D02*
X10121900Y-7914000D01*
X10081900Y-7874000D02*
X10161900Y-7874000D01*
X10121900Y-8088000D02*
X10121900Y-8168000D01*
X10081900Y-8128000D02*
X10161900Y-8128000D01*
X10121900Y-8342000D02*
X10121900Y-8422000D01*
X10081900Y-8382000D02*
X10161900Y-8382000D01*
X10121900Y-8596000D02*
X10121900Y-8676000D01*
X10081900Y-8636000D02*
X10161900Y-8636000D01*
X10121900Y-8850000D02*
X10121900Y-8930000D01*
X10081900Y-8890000D02*
X10161900Y-8890000D01*
X10121900Y-9104000D02*
X10121900Y-9184000D01*
X10081900Y-9144000D02*
X10161900Y-9144000D01*
X10121900Y-9358000D02*
X10121900Y-9438000D01*
X10081900Y-9398000D02*
X10161900Y-9398000D01*
X10121900Y-9612000D02*
X10121900Y-9692000D01*
X10081900Y-9652000D02*
X10161900Y-9652000D01*
X10121900Y-9866000D02*
X10121900Y-9946000D01*
X10081900Y-9906000D02*
X10161900Y-9906000D01*
X10290150Y-4459000D02*
X10290150Y-4539000D01*
X10250150Y-4499000D02*
X10330150Y-4499000D01*
X10290150Y-4659000D02*
X10290150Y-4739000D01*
X10250150Y-4699000D02*
X10330150Y-4699000D01*
X10490150Y-4459000D02*
X10490150Y-4539000D01*
X10450150Y-4499000D02*
X10530150Y-4499000D01*
X10490150Y-4659000D02*
X10490150Y-4739000D01*
X10450150Y-4699000D02*
X10530150Y-4699000D01*
X10690150Y-4459000D02*
X10690150Y-4539000D01*
X10650150Y-4499000D02*
X10730150Y-4499000D01*
X10690150Y-4659000D02*
X10690150Y-4739000D01*
X10650150Y-4699000D02*
X10730150Y-4699000D01*
X10890150Y-4459000D02*
X10890150Y-4539000D01*
X10850150Y-4499000D02*
X10930150Y-4499000D01*
X10890150Y-4659000D02*
X10890150Y-4739000D01*
X10850150Y-4699000D02*
X10930150Y-4699000D01*
X11090150Y-4459000D02*
X11090150Y-4539000D01*
X11050150Y-4499000D02*
X11130150Y-4499000D01*
X11090150Y-4659000D02*
X11090150Y-4739000D01*
X11050150Y-4699000D02*
X11130150Y-4699000D01*
X11290150Y-4459000D02*
X11290150Y-4539000D01*
X11250150Y-4499000D02*
X11330150Y-4499000D01*
X11290150Y-4659000D02*
X11290150Y-4739000D01*
X11250150Y-4699000D02*
X11330150Y-4699000D01*
X11430000Y-5040000D02*
X11430000Y-5120000D01*
X11390000Y-5080000D02*
X11470000Y-5080000D01*
X11430000Y-5294000D02*
X11430000Y-5374000D01*
X11390000Y-5334000D02*
X11470000Y-5334000D01*
X11430000Y-5548000D02*
X11430000Y-5628000D01*
X11390000Y-5588000D02*
X11470000Y-5588000D01*
X11430000Y-5802000D02*
X11430000Y-5882000D01*
X11390000Y-5842000D02*
X11470000Y-5842000D01*
X11430000Y-6056000D02*
X11430000Y-6136000D01*
X11390000Y-6096000D02*
X11470000Y-6096000D01*
X11430000Y-6310000D02*
X11430000Y-6390000D01*
X11390000Y-6350000D02*
X11470000Y-6350000D01*
X11430000Y-6564000D02*
X11430000Y-6644000D01*
X11390000Y-6604000D02*
X11470000Y-6604000D01*
X11430000Y-6818000D02*
X11430000Y-6898000D01*
X11390000Y-6858000D02*
X11470000Y-6858000D01*
X11430000Y-7072000D02*
X11430000Y-7152000D01*
X11390000Y-7112000D02*
X11470000Y-7112000D01*
X11430000Y-7326000D02*
X11430000Y-7406000D01*
X11390000Y-7366000D02*
X11470000Y-7366000D01*
X11430000Y-7580000D02*
X11430000Y-7660000D01*
X11390000Y-7620000D02*
X11470000Y-7620000D01*
X11430000Y-7834000D02*
X11430000Y-7914000D01*
X11390000Y-7874000D02*
X11470000Y-7874000D01*
X11430000Y-8088000D02*
X11430000Y-8168000D01*
X11390000Y-8128000D02*
X11470000Y-8128000D01*
X11430000Y-8342000D02*
X11430000Y-8422000D01*
X11390000Y-8382000D02*
X11470000Y-8382000D01*
X11430000Y-8596000D02*
X11430000Y-8676000D01*
X11390000Y-8636000D02*
X11470000Y-8636000D01*
X11430000Y-8850000D02*
X11430000Y-8930000D01*
X11390000Y-8890000D02*
X11470000Y-8890000D01*
X11430000Y-9104000D02*
X11430000Y-9184000D01*
X11390000Y-9144000D02*
X11470000Y-9144000D01*
X11430000Y-9358000D02*
X11430000Y-9438000D01*
X11390000Y-9398000D02*
X11470000Y-9398000D01*
X11430000Y-9612000D02*
X11430000Y-9692000D01*
X11390000Y-9652000D02*
X11470000Y-9652000D01*
X11430000Y-9866000D02*
X11430000Y-9946000D01*
X11390000Y-9906000D02*
X11470000Y-9906000D01*
X11490150Y-4459000D02*
X11490150Y-4539000D01*
X11450150Y-4499000D02*
X11530150Y-4499000D01*
X11490150Y-4659000D02*
X11490150Y-4739000D01*
X11450150Y-4699000D02*
X11530150Y-4699000D01*
X11645900Y-5040000D02*
X11645900Y-5120000D01*
X11605900Y-5080000D02*
X11685900Y-5080000D01*
X11645900Y-5294000D02*
X11645900Y-5374000D01*
X11605900Y-5334000D02*
X11685900Y-5334000D01*
X11645900Y-5548000D02*
X11645900Y-5628000D01*
X11605900Y-5588000D02*
X11685900Y-5588000D01*
X11645900Y-5802000D02*
X11645900Y-5882000D01*
X11605900Y-5842000D02*
X11685900Y-5842000D01*
X11645900Y-6056000D02*
X11645900Y-6136000D01*
X11605900Y-6096000D02*
X11685900Y-6096000D01*
X11645900Y-6310000D02*
X11645900Y-6390000D01*
X11605900Y-6350000D02*
X11685900Y-6350000D01*
X11645900Y-6564000D02*
X11645900Y-6644000D01*
X11605900Y-6604000D02*
X11685900Y-6604000D01*
X11645900Y-6818000D02*
X11645900Y-6898000D01*
X11605900Y-6858000D02*
X11685900Y-6858000D01*
X11645900Y-7072000D02*
X11645900Y-7152000D01*
X11605900Y-7112000D02*
X11685900Y-7112000D01*
X11645900Y-7326000D02*
X11645900Y-7406000D01*
X11605900Y-7366000D02*
X11685900Y-7366000D01*
X11645900Y-7580000D02*
X11645900Y-7660000D01*
X11605900Y-7620000D02*
X11685900Y-7620000D01*
X11645900Y-7834000D02*
X11645900Y-7914000D01*
X11605900Y-7874000D02*
X11685900Y-7874000D01*
X11645900Y-8088000D02*
X11645900Y-8168000D01*
X11605900Y-8128000D02*
X11685900Y-8128000D01*
X11645900Y-8342000D02*
X11645900Y-8422000D01*
X11605900Y-8382000D02*
X11685900Y-8382000D01*
X11645900Y-8596000D02*
X11645900Y-8676000D01*
X11605900Y-8636000D02*
X11685900Y-8636000D01*
X11645900Y-8850000D02*
X11645900Y-8930000D01*
X11605900Y-8890000D02*
X11685900Y-8890000D01*
X11645900Y-9104000D02*
X11645900Y-9184000D01*
X11605900Y-9144000D02*
X11685900Y-9144000D01*
X11645900Y-9358000D02*
X11645900Y-9438000D01*
X11605900Y-9398000D02*
X11685900Y-9398000D01*
X11645900Y-9612000D02*
X11645900Y-9692000D01*
X11605900Y-9652000D02*
X11685900Y-9652000D01*
X11645900Y-9866000D02*
X11645900Y-9946000D01*
X11605900Y-9906000D02*
X11685900Y-9906000D01*
X10525556Y-5553506D02*
X10525556Y-5482794D01*
X10454844Y-5482794D01*
X10454844Y-5553506D01*
X10525556Y-5553506D01*
X10525556Y-5915456D02*
X10525556Y-5844744D01*
X10454844Y-5844744D01*
X10454844Y-5915456D01*
X10525556Y-5915456D01*
X10525556Y-6277406D02*
X10525556Y-6206694D01*
X10454844Y-6206694D01*
X10454844Y-6277406D01*
X10525556Y-6277406D01*
D12*
X10075628Y-10526614D02*
X10075628Y-10226614D01*
X10147057Y-10226614D01*
X10189914Y-10240900D01*
X10218486Y-10269472D01*
X10232771Y-10298043D01*
X10247057Y-10355186D01*
X10247057Y-10398043D01*
X10232771Y-10455186D01*
X10218486Y-10483757D01*
X10189914Y-10512329D01*
X10147057Y-10526614D01*
X10075628Y-10526614D01*
X10375628Y-10526614D02*
X10375628Y-10326614D01*
X10375628Y-10383757D02*
X10389914Y-10355186D01*
X10404200Y-10340900D01*
X10432771Y-10326614D01*
X10461343Y-10326614D01*
X10561343Y-10526614D02*
X10561343Y-10326614D01*
X10561343Y-10226614D02*
X10547057Y-10240900D01*
X10561343Y-10255186D01*
X10575628Y-10240900D01*
X10561343Y-10226614D01*
X10561343Y-10255186D01*
X10747057Y-10526614D02*
X10718486Y-10512329D01*
X10704200Y-10483757D01*
X10704200Y-10226614D01*
X10904200Y-10526614D02*
X10875628Y-10512329D01*
X10861343Y-10483757D01*
X10861343Y-10226614D01*
X11247057Y-10526614D02*
X11247057Y-10226614D01*
X11347057Y-10440900D01*
X11447057Y-10226614D01*
X11447057Y-10526614D01*
X11718486Y-10526614D02*
X11718486Y-10369472D01*
X11704200Y-10340900D01*
X11675628Y-10326614D01*
X11618486Y-10326614D01*
X11589914Y-10340900D01*
X11718486Y-10512329D02*
X11689914Y-10526614D01*
X11618486Y-10526614D01*
X11589914Y-10512329D01*
X11575628Y-10483757D01*
X11575628Y-10455186D01*
X11589914Y-10426614D01*
X11618486Y-10412329D01*
X11689914Y-10412329D01*
X11718486Y-10398043D01*
X11861343Y-10326614D02*
X11861343Y-10626614D01*
X11861343Y-10340900D02*
X11889914Y-10326614D01*
X11947057Y-10326614D01*
X11975628Y-10340900D01*
X11989914Y-10355186D01*
X12004200Y-10383757D01*
X12004200Y-10469472D01*
X11989914Y-10498043D01*
X11975628Y-10512329D01*
X11947057Y-10526614D01*
X11889914Y-10526614D01*
X11861343Y-10512329D01*
X12132771Y-10498043D02*
X12147057Y-10512329D01*
X12132771Y-10526614D01*
X12118486Y-10512329D01*
X12132771Y-10498043D01*
X12132771Y-10526614D01*
X12132771Y-10340900D02*
X12147057Y-10355186D01*
X12132771Y-10369472D01*
X12118486Y-10355186D01*
X12132771Y-10340900D01*
X12132771Y-10369472D01*
X9749200Y-11000900D02*
X9789200Y-11040900D01*
X9789200Y-11000900D02*
X9749200Y-11040900D01*
X10132771Y-10856614D02*
X10161343Y-10856614D01*
X10189914Y-10870900D01*
X10204200Y-10885186D01*
X10218486Y-10913757D01*
X10232771Y-10970900D01*
X10232771Y-11042329D01*
X10218486Y-11099472D01*
X10204200Y-11128043D01*
X10189914Y-11142329D01*
X10161343Y-11156614D01*
X10132771Y-11156614D01*
X10104200Y-11142329D01*
X10089914Y-11128043D01*
X10075628Y-11099472D01*
X10061343Y-11042329D01*
X10061343Y-10970900D01*
X10075628Y-10913757D01*
X10089914Y-10885186D01*
X10104200Y-10870900D01*
X10132771Y-10856614D01*
X10361343Y-11128043D02*
X10375628Y-11142329D01*
X10361343Y-11156614D01*
X10347057Y-11142329D01*
X10361343Y-11128043D01*
X10361343Y-11156614D01*
X10632771Y-10956614D02*
X10632771Y-11156614D01*
X10561343Y-10842329D02*
X10489914Y-11056614D01*
X10675628Y-11056614D01*
X10847057Y-10856614D02*
X10875628Y-10856614D01*
X10904200Y-10870900D01*
X10918486Y-10885186D01*
X10932771Y-10913757D01*
X10947057Y-10970900D01*
X10947057Y-11042329D01*
X10932771Y-11099472D01*
X10918486Y-11128043D01*
X10904200Y-11142329D01*
X10875628Y-11156614D01*
X10847057Y-11156614D01*
X10818486Y-11142329D01*
X10804200Y-11128043D01*
X10789914Y-11099472D01*
X10775628Y-11042329D01*
X10775628Y-10970900D01*
X10789914Y-10913757D01*
X10804200Y-10885186D01*
X10818486Y-10870900D01*
X10847057Y-10856614D01*
X11075628Y-11156614D02*
X11075628Y-10956614D01*
X11075628Y-10985186D02*
X11089914Y-10970900D01*
X11118486Y-10956614D01*
X11161343Y-10956614D01*
X11189914Y-10970900D01*
X11204200Y-10999472D01*
X11204200Y-11156614D01*
X11204200Y-10999472D02*
X11218486Y-10970900D01*
X11247057Y-10956614D01*
X11289914Y-10956614D01*
X11318486Y-10970900D01*
X11332771Y-10999472D01*
X11332771Y-11156614D01*
X11475628Y-11156614D02*
X11475628Y-10956614D01*
X11475628Y-10985186D02*
X11489914Y-10970900D01*
X11518486Y-10956614D01*
X11561343Y-10956614D01*
X11589914Y-10970900D01*
X11604200Y-10999472D01*
X11604200Y-11156614D01*
X11604200Y-10999472D02*
X11618486Y-10970900D01*
X11647057Y-10956614D01*
X11689914Y-10956614D01*
X11718486Y-10970900D01*
X11732771Y-10999472D01*
X11732771Y-11156614D01*
X12318486Y-10842329D02*
X12061343Y-11228043D01*
X12704200Y-10856614D02*
X12732771Y-10856614D01*
X12761343Y-10870900D01*
X12775628Y-10885186D01*
X12789914Y-10913757D01*
X12804200Y-10970900D01*
X12804200Y-11042329D01*
X12789914Y-11099472D01*
X12775628Y-11128043D01*
X12761343Y-11142329D01*
X12732771Y-11156614D01*
X12704200Y-11156614D01*
X12675628Y-11142329D01*
X12661343Y-11128043D01*
X12647057Y-11099472D01*
X12632771Y-11042329D01*
X12632771Y-10970900D01*
X12647057Y-10913757D01*
X12661343Y-10885186D01*
X12675628Y-10870900D01*
X12704200Y-10856614D01*
X12932771Y-11128043D02*
X12947057Y-11142329D01*
X12932771Y-11156614D01*
X12918486Y-11142329D01*
X12932771Y-11128043D01*
X12932771Y-11156614D01*
X13132771Y-10856614D02*
X13161343Y-10856614D01*
X13189914Y-10870900D01*
X13204200Y-10885186D01*
X13218486Y-10913757D01*
X13232771Y-10970900D01*
X13232771Y-11042329D01*
X13218486Y-11099472D01*
X13204200Y-11128043D01*
X13189914Y-11142329D01*
X13161343Y-11156614D01*
X13132771Y-11156614D01*
X13104200Y-11142329D01*
X13089914Y-11128043D01*
X13075628Y-11099472D01*
X13061343Y-11042329D01*
X13061343Y-10970900D01*
X13075628Y-10913757D01*
X13089914Y-10885186D01*
X13104200Y-10870900D01*
X13132771Y-10856614D01*
X13518486Y-11156614D02*
X13347057Y-11156614D01*
X13432771Y-11156614D02*
X13432771Y-10856614D01*
X13404200Y-10899472D01*
X13375628Y-10928043D01*
X13347057Y-10942329D01*
X13775628Y-10856614D02*
X13718486Y-10856614D01*
X13689914Y-10870900D01*
X13675628Y-10885186D01*
X13647057Y-10928043D01*
X13632771Y-10985186D01*
X13632771Y-11099472D01*
X13647057Y-11128043D01*
X13661343Y-11142329D01*
X13689914Y-11156614D01*
X13747057Y-11156614D01*
X13775628Y-11142329D01*
X13789914Y-11128043D01*
X13804200Y-11099472D01*
X13804200Y-11028043D01*
X13789914Y-10999472D01*
X13775628Y-10985186D01*
X13747057Y-10970900D01*
X13689914Y-10970900D01*
X13661343Y-10985186D01*
X13647057Y-10999472D01*
X13632771Y-11028043D01*
X13918486Y-10856614D02*
X13918486Y-10913757D01*
X14032771Y-10856614D02*
X14032771Y-10913757D01*
X14475628Y-11270900D02*
X14461343Y-11256614D01*
X14432771Y-11213757D01*
X14418486Y-11185186D01*
X14404200Y-11142329D01*
X14389914Y-11070900D01*
X14389914Y-11013757D01*
X14404200Y-10942329D01*
X14418486Y-10899472D01*
X14432771Y-10870900D01*
X14461343Y-10828043D01*
X14475628Y-10813757D01*
X14718486Y-10856614D02*
X14661343Y-10856614D01*
X14632771Y-10870900D01*
X14618486Y-10885186D01*
X14589914Y-10928043D01*
X14575628Y-10985186D01*
X14575628Y-11099472D01*
X14589914Y-11128043D01*
X14604200Y-11142329D01*
X14632771Y-11156614D01*
X14689914Y-11156614D01*
X14718486Y-11142329D01*
X14732771Y-11128043D01*
X14747057Y-11099472D01*
X14747057Y-11028043D01*
X14732771Y-10999472D01*
X14718486Y-10985186D01*
X14689914Y-10970900D01*
X14632771Y-10970900D01*
X14604200Y-10985186D01*
X14589914Y-10999472D01*
X14575628Y-11028043D01*
X14918486Y-10985186D02*
X14889914Y-10970900D01*
X14875628Y-10956614D01*
X14861343Y-10928043D01*
X14861343Y-10913757D01*
X14875628Y-10885186D01*
X14889914Y-10870900D01*
X14918486Y-10856614D01*
X14975628Y-10856614D01*
X15004200Y-10870900D01*
X15018486Y-10885186D01*
X15032771Y-10913757D01*
X15032771Y-10928043D01*
X15018486Y-10956614D01*
X15004200Y-10970900D01*
X14975628Y-10985186D01*
X14918486Y-10985186D01*
X14889914Y-10999472D01*
X14875628Y-11013757D01*
X14861343Y-11042329D01*
X14861343Y-11099472D01*
X14875628Y-11128043D01*
X14889914Y-11142329D01*
X14918486Y-11156614D01*
X14975628Y-11156614D01*
X15004200Y-11142329D01*
X15018486Y-11128043D01*
X15032771Y-11099472D01*
X15032771Y-11042329D01*
X15018486Y-11013757D01*
X15004200Y-10999472D01*
X14975628Y-10985186D01*
X15389914Y-11156614D02*
X15389914Y-10856614D01*
X15518486Y-11156614D02*
X15518486Y-10999472D01*
X15504200Y-10970900D01*
X15475628Y-10956614D01*
X15432771Y-10956614D01*
X15404200Y-10970900D01*
X15389914Y-10985186D01*
X15704200Y-11156614D02*
X15675628Y-11142329D01*
X15661343Y-11128043D01*
X15647057Y-11099472D01*
X15647057Y-11013757D01*
X15661343Y-10985186D01*
X15675628Y-10970900D01*
X15704200Y-10956614D01*
X15747057Y-10956614D01*
X15775628Y-10970900D01*
X15789914Y-10985186D01*
X15804200Y-11013757D01*
X15804200Y-11099472D01*
X15789914Y-11128043D01*
X15775628Y-11142329D01*
X15747057Y-11156614D01*
X15704200Y-11156614D01*
X15975628Y-11156614D02*
X15947057Y-11142329D01*
X15932771Y-11113757D01*
X15932771Y-10856614D01*
X16204200Y-11142329D02*
X16175628Y-11156614D01*
X16118486Y-11156614D01*
X16089914Y-11142329D01*
X16075628Y-11113757D01*
X16075628Y-10999472D01*
X16089914Y-10970900D01*
X16118486Y-10956614D01*
X16175628Y-10956614D01*
X16204200Y-10970900D01*
X16218486Y-10999472D01*
X16218486Y-11028043D01*
X16075628Y-11056614D01*
X16332771Y-11142329D02*
X16361343Y-11156614D01*
X16418486Y-11156614D01*
X16447057Y-11142329D01*
X16461343Y-11113757D01*
X16461343Y-11099472D01*
X16447057Y-11070900D01*
X16418486Y-11056614D01*
X16375628Y-11056614D01*
X16347057Y-11042329D01*
X16332771Y-11013757D01*
X16332771Y-10999472D01*
X16347057Y-10970900D01*
X16375628Y-10956614D01*
X16418486Y-10956614D01*
X16447057Y-10970900D01*
X16561343Y-11270900D02*
X16575628Y-11256614D01*
X16604200Y-11213757D01*
X16618486Y-11185186D01*
X16632771Y-11142329D01*
X16647057Y-11070900D01*
X16647057Y-11013757D01*
X16632771Y-10942329D01*
X16618486Y-10899472D01*
X16604200Y-10870900D01*
X16575628Y-10828043D01*
X16561343Y-10813757D01*
X9789200Y-11416900D02*
G75*
G03*
X9789200Y-11416900I-32500J0D01*
G01*
X10132771Y-11252614D02*
X10161343Y-11252614D01*
X10189914Y-11266900D01*
X10204200Y-11281186D01*
X10218486Y-11309757D01*
X10232771Y-11366900D01*
X10232771Y-11438329D01*
X10218486Y-11495471D01*
X10204200Y-11524043D01*
X10189914Y-11538329D01*
X10161343Y-11552614D01*
X10132771Y-11552614D01*
X10104200Y-11538329D01*
X10089914Y-11524043D01*
X10075628Y-11495471D01*
X10061343Y-11438329D01*
X10061343Y-11366900D01*
X10075628Y-11309757D01*
X10089914Y-11281186D01*
X10104200Y-11266900D01*
X10132771Y-11252614D01*
X10361343Y-11524043D02*
X10375628Y-11538329D01*
X10361343Y-11552614D01*
X10347057Y-11538329D01*
X10361343Y-11524043D01*
X10361343Y-11552614D01*
X10632771Y-11252614D02*
X10575628Y-11252614D01*
X10547057Y-11266900D01*
X10532771Y-11281186D01*
X10504200Y-11324043D01*
X10489914Y-11381186D01*
X10489914Y-11495471D01*
X10504200Y-11524043D01*
X10518486Y-11538329D01*
X10547057Y-11552614D01*
X10604200Y-11552614D01*
X10632771Y-11538329D01*
X10647057Y-11524043D01*
X10661343Y-11495471D01*
X10661343Y-11424043D01*
X10647057Y-11395471D01*
X10632771Y-11381186D01*
X10604200Y-11366900D01*
X10547057Y-11366900D01*
X10518486Y-11381186D01*
X10504200Y-11395471D01*
X10489914Y-11424043D01*
X10932771Y-11252614D02*
X10789914Y-11252614D01*
X10775628Y-11395471D01*
X10789914Y-11381186D01*
X10818486Y-11366900D01*
X10889914Y-11366900D01*
X10918486Y-11381186D01*
X10932771Y-11395471D01*
X10947057Y-11424043D01*
X10947057Y-11495471D01*
X10932771Y-11524043D01*
X10918486Y-11538329D01*
X10889914Y-11552614D01*
X10818486Y-11552614D01*
X10789914Y-11538329D01*
X10775628Y-11524043D01*
X11075628Y-11552614D02*
X11075628Y-11352614D01*
X11075628Y-11381186D02*
X11089914Y-11366900D01*
X11118486Y-11352614D01*
X11161343Y-11352614D01*
X11189914Y-11366900D01*
X11204200Y-11395471D01*
X11204200Y-11552614D01*
X11204200Y-11395471D02*
X11218486Y-11366900D01*
X11247057Y-11352614D01*
X11289914Y-11352614D01*
X11318486Y-11366900D01*
X11332771Y-11395471D01*
X11332771Y-11552614D01*
X11475628Y-11552614D02*
X11475628Y-11352614D01*
X11475628Y-11381186D02*
X11489914Y-11366900D01*
X11518486Y-11352614D01*
X11561343Y-11352614D01*
X11589914Y-11366900D01*
X11604200Y-11395471D01*
X11604200Y-11552614D01*
X11604200Y-11395471D02*
X11618486Y-11366900D01*
X11647057Y-11352614D01*
X11689914Y-11352614D01*
X11718486Y-11366900D01*
X11732771Y-11395471D01*
X11732771Y-11552614D01*
X12318486Y-11238329D02*
X12061343Y-11624043D01*
X12704200Y-11252614D02*
X12732771Y-11252614D01*
X12761343Y-11266900D01*
X12775628Y-11281186D01*
X12789914Y-11309757D01*
X12804200Y-11366900D01*
X12804200Y-11438329D01*
X12789914Y-11495471D01*
X12775628Y-11524043D01*
X12761343Y-11538329D01*
X12732771Y-11552614D01*
X12704200Y-11552614D01*
X12675628Y-11538329D01*
X12661343Y-11524043D01*
X12647057Y-11495471D01*
X12632771Y-11438329D01*
X12632771Y-11366900D01*
X12647057Y-11309757D01*
X12661343Y-11281186D01*
X12675628Y-11266900D01*
X12704200Y-11252614D01*
X12932771Y-11524043D02*
X12947057Y-11538329D01*
X12932771Y-11552614D01*
X12918486Y-11538329D01*
X12932771Y-11524043D01*
X12932771Y-11552614D01*
X13132771Y-11252614D02*
X13161343Y-11252614D01*
X13189914Y-11266900D01*
X13204200Y-11281186D01*
X13218486Y-11309757D01*
X13232771Y-11366900D01*
X13232771Y-11438329D01*
X13218486Y-11495471D01*
X13204200Y-11524043D01*
X13189914Y-11538329D01*
X13161343Y-11552614D01*
X13132771Y-11552614D01*
X13104200Y-11538329D01*
X13089914Y-11524043D01*
X13075628Y-11495471D01*
X13061343Y-11438329D01*
X13061343Y-11366900D01*
X13075628Y-11309757D01*
X13089914Y-11281186D01*
X13104200Y-11266900D01*
X13132771Y-11252614D01*
X13347057Y-11281186D02*
X13361343Y-11266900D01*
X13389914Y-11252614D01*
X13461343Y-11252614D01*
X13489914Y-11266900D01*
X13504200Y-11281186D01*
X13518486Y-11309757D01*
X13518486Y-11338329D01*
X13504200Y-11381186D01*
X13332771Y-11552614D01*
X13518486Y-11552614D01*
X13775628Y-11252614D02*
X13718486Y-11252614D01*
X13689914Y-11266900D01*
X13675628Y-11281186D01*
X13647057Y-11324043D01*
X13632771Y-11381186D01*
X13632771Y-11495471D01*
X13647057Y-11524043D01*
X13661343Y-11538329D01*
X13689914Y-11552614D01*
X13747057Y-11552614D01*
X13775628Y-11538329D01*
X13789914Y-11524043D01*
X13804200Y-11495471D01*
X13804200Y-11424043D01*
X13789914Y-11395471D01*
X13775628Y-11381186D01*
X13747057Y-11366900D01*
X13689914Y-11366900D01*
X13661343Y-11381186D01*
X13647057Y-11395471D01*
X13632771Y-11424043D01*
X13918486Y-11252614D02*
X13918486Y-11309757D01*
X14032771Y-11252614D02*
X14032771Y-11309757D01*
X14475628Y-11666900D02*
X14461343Y-11652614D01*
X14432771Y-11609757D01*
X14418486Y-11581186D01*
X14404200Y-11538329D01*
X14389914Y-11466900D01*
X14389914Y-11409757D01*
X14404200Y-11338329D01*
X14418486Y-11295471D01*
X14432771Y-11266900D01*
X14461343Y-11224043D01*
X14475628Y-11209757D01*
X14732771Y-11252614D02*
X14589914Y-11252614D01*
X14575628Y-11395471D01*
X14589914Y-11381186D01*
X14618486Y-11366900D01*
X14689914Y-11366900D01*
X14718486Y-11381186D01*
X14732771Y-11395471D01*
X14747057Y-11424043D01*
X14747057Y-11495471D01*
X14732771Y-11524043D01*
X14718486Y-11538329D01*
X14689914Y-11552614D01*
X14618486Y-11552614D01*
X14589914Y-11538329D01*
X14575628Y-11524043D01*
X15104200Y-11552614D02*
X15104200Y-11252614D01*
X15232771Y-11552614D02*
X15232771Y-11395471D01*
X15218486Y-11366900D01*
X15189914Y-11352614D01*
X15147057Y-11352614D01*
X15118486Y-11366900D01*
X15104200Y-11381186D01*
X15418486Y-11552614D02*
X15389914Y-11538329D01*
X15375628Y-11524043D01*
X15361343Y-11495471D01*
X15361343Y-11409757D01*
X15375628Y-11381186D01*
X15389914Y-11366900D01*
X15418486Y-11352614D01*
X15461343Y-11352614D01*
X15489914Y-11366900D01*
X15504200Y-11381186D01*
X15518486Y-11409757D01*
X15518486Y-11495471D01*
X15504200Y-11524043D01*
X15489914Y-11538329D01*
X15461343Y-11552614D01*
X15418486Y-11552614D01*
X15689914Y-11552614D02*
X15661343Y-11538329D01*
X15647057Y-11509757D01*
X15647057Y-11252614D01*
X15918486Y-11538329D02*
X15889914Y-11552614D01*
X15832771Y-11552614D01*
X15804200Y-11538329D01*
X15789914Y-11509757D01*
X15789914Y-11395471D01*
X15804200Y-11366900D01*
X15832771Y-11352614D01*
X15889914Y-11352614D01*
X15918486Y-11366900D01*
X15932771Y-11395471D01*
X15932771Y-11424043D01*
X15789914Y-11452614D01*
X16047057Y-11538329D02*
X16075628Y-11552614D01*
X16132771Y-11552614D01*
X16161343Y-11538329D01*
X16175628Y-11509757D01*
X16175628Y-11495471D01*
X16161343Y-11466900D01*
X16132771Y-11452614D01*
X16089914Y-11452614D01*
X16061343Y-11438329D01*
X16047057Y-11409757D01*
X16047057Y-11395471D01*
X16061343Y-11366900D01*
X16089914Y-11352614D01*
X16132771Y-11352614D01*
X16161343Y-11366900D01*
X16275628Y-11666900D02*
X16289914Y-11652614D01*
X16318486Y-11609757D01*
X16332771Y-11581186D01*
X16347057Y-11538329D01*
X16361343Y-11466900D01*
X16361343Y-11409757D01*
X16347057Y-11338329D01*
X16332771Y-11295471D01*
X16318486Y-11266900D01*
X16289914Y-11224043D01*
X16275628Y-11209757D01*
X9749200Y-11772900D02*
X9749200Y-11852900D01*
X9709200Y-11812900D02*
X9789200Y-11812900D01*
X10132771Y-11648614D02*
X10161343Y-11648614D01*
X10189914Y-11662900D01*
X10204200Y-11677186D01*
X10218486Y-11705757D01*
X10232771Y-11762900D01*
X10232771Y-11834329D01*
X10218486Y-11891471D01*
X10204200Y-11920043D01*
X10189914Y-11934329D01*
X10161343Y-11948614D01*
X10132771Y-11948614D01*
X10104200Y-11934329D01*
X10089914Y-11920043D01*
X10075628Y-11891471D01*
X10061343Y-11834329D01*
X10061343Y-11762900D01*
X10075628Y-11705757D01*
X10089914Y-11677186D01*
X10104200Y-11662900D01*
X10132771Y-11648614D01*
X10361343Y-11920043D02*
X10375628Y-11934329D01*
X10361343Y-11948614D01*
X10347057Y-11934329D01*
X10361343Y-11920043D01*
X10361343Y-11948614D01*
X10547057Y-11777186D02*
X10518486Y-11762900D01*
X10504200Y-11748614D01*
X10489914Y-11720043D01*
X10489914Y-11705757D01*
X10504200Y-11677186D01*
X10518486Y-11662900D01*
X10547057Y-11648614D01*
X10604200Y-11648614D01*
X10632771Y-11662900D01*
X10647057Y-11677186D01*
X10661343Y-11705757D01*
X10661343Y-11720043D01*
X10647057Y-11748614D01*
X10632771Y-11762900D01*
X10604200Y-11777186D01*
X10547057Y-11777186D01*
X10518486Y-11791471D01*
X10504200Y-11805757D01*
X10489914Y-11834329D01*
X10489914Y-11891471D01*
X10504200Y-11920043D01*
X10518486Y-11934329D01*
X10547057Y-11948614D01*
X10604200Y-11948614D01*
X10632771Y-11934329D01*
X10647057Y-11920043D01*
X10661343Y-11891471D01*
X10661343Y-11834329D01*
X10647057Y-11805757D01*
X10632771Y-11791471D01*
X10604200Y-11777186D01*
X10847057Y-11648614D02*
X10875628Y-11648614D01*
X10904200Y-11662900D01*
X10918486Y-11677186D01*
X10932771Y-11705757D01*
X10947057Y-11762900D01*
X10947057Y-11834329D01*
X10932771Y-11891471D01*
X10918486Y-11920043D01*
X10904200Y-11934329D01*
X10875628Y-11948614D01*
X10847057Y-11948614D01*
X10818486Y-11934329D01*
X10804200Y-11920043D01*
X10789914Y-11891471D01*
X10775628Y-11834329D01*
X10775628Y-11762900D01*
X10789914Y-11705757D01*
X10804200Y-11677186D01*
X10818486Y-11662900D01*
X10847057Y-11648614D01*
X11075628Y-11948614D02*
X11075628Y-11748614D01*
X11075628Y-11777186D02*
X11089914Y-11762900D01*
X11118486Y-11748614D01*
X11161343Y-11748614D01*
X11189914Y-11762900D01*
X11204200Y-11791471D01*
X11204200Y-11948614D01*
X11204200Y-11791471D02*
X11218486Y-11762900D01*
X11247057Y-11748614D01*
X11289914Y-11748614D01*
X11318486Y-11762900D01*
X11332771Y-11791471D01*
X11332771Y-11948614D01*
X11475628Y-11948614D02*
X11475628Y-11748614D01*
X11475628Y-11777186D02*
X11489914Y-11762900D01*
X11518486Y-11748614D01*
X11561343Y-11748614D01*
X11589914Y-11762900D01*
X11604200Y-11791471D01*
X11604200Y-11948614D01*
X11604200Y-11791471D02*
X11618486Y-11762900D01*
X11647057Y-11748614D01*
X11689914Y-11748614D01*
X11718486Y-11762900D01*
X11732771Y-11791471D01*
X11732771Y-11948614D01*
X12318486Y-11634329D02*
X12061343Y-12020043D01*
X12704200Y-11648614D02*
X12732771Y-11648614D01*
X12761343Y-11662900D01*
X12775628Y-11677186D01*
X12789914Y-11705757D01*
X12804200Y-11762900D01*
X12804200Y-11834329D01*
X12789914Y-11891471D01*
X12775628Y-11920043D01*
X12761343Y-11934329D01*
X12732771Y-11948614D01*
X12704200Y-11948614D01*
X12675628Y-11934329D01*
X12661343Y-11920043D01*
X12647057Y-11891471D01*
X12632771Y-11834329D01*
X12632771Y-11762900D01*
X12647057Y-11705757D01*
X12661343Y-11677186D01*
X12675628Y-11662900D01*
X12704200Y-11648614D01*
X12932771Y-11920043D02*
X12947057Y-11934329D01*
X12932771Y-11948614D01*
X12918486Y-11934329D01*
X12932771Y-11920043D01*
X12932771Y-11948614D01*
X13132771Y-11648614D02*
X13161343Y-11648614D01*
X13189914Y-11662900D01*
X13204200Y-11677186D01*
X13218486Y-11705757D01*
X13232771Y-11762900D01*
X13232771Y-11834329D01*
X13218486Y-11891471D01*
X13204200Y-11920043D01*
X13189914Y-11934329D01*
X13161343Y-11948614D01*
X13132771Y-11948614D01*
X13104200Y-11934329D01*
X13089914Y-11920043D01*
X13075628Y-11891471D01*
X13061343Y-11834329D01*
X13061343Y-11762900D01*
X13075628Y-11705757D01*
X13089914Y-11677186D01*
X13104200Y-11662900D01*
X13132771Y-11648614D01*
X13332771Y-11648614D02*
X13518486Y-11648614D01*
X13418486Y-11762900D01*
X13461343Y-11762900D01*
X13489914Y-11777186D01*
X13504200Y-11791471D01*
X13518486Y-11820043D01*
X13518486Y-11891471D01*
X13504200Y-11920043D01*
X13489914Y-11934329D01*
X13461343Y-11948614D01*
X13375628Y-11948614D01*
X13347057Y-11934329D01*
X13332771Y-11920043D01*
X13804200Y-11948614D02*
X13632771Y-11948614D01*
X13718486Y-11948614D02*
X13718486Y-11648614D01*
X13689914Y-11691471D01*
X13661343Y-11720043D01*
X13632771Y-11734329D01*
X13918486Y-11648614D02*
X13918486Y-11705757D01*
X14032771Y-11648614D02*
X14032771Y-11705757D01*
X14475628Y-12062900D02*
X14461343Y-12048614D01*
X14432771Y-12005757D01*
X14418486Y-11977186D01*
X14404200Y-11934329D01*
X14389914Y-11862900D01*
X14389914Y-11805757D01*
X14404200Y-11734329D01*
X14418486Y-11691471D01*
X14432771Y-11662900D01*
X14461343Y-11620043D01*
X14475628Y-11605757D01*
X14604200Y-11948614D02*
X14661343Y-11948614D01*
X14689914Y-11934329D01*
X14704200Y-11920043D01*
X14732771Y-11877186D01*
X14747057Y-11820043D01*
X14747057Y-11705757D01*
X14732771Y-11677186D01*
X14718486Y-11662900D01*
X14689914Y-11648614D01*
X14632771Y-11648614D01*
X14604200Y-11662900D01*
X14589914Y-11677186D01*
X14575628Y-11705757D01*
X14575628Y-11777186D01*
X14589914Y-11805757D01*
X14604200Y-11820043D01*
X14632771Y-11834329D01*
X14689914Y-11834329D01*
X14718486Y-11820043D01*
X14732771Y-11805757D01*
X14747057Y-11777186D01*
X15004200Y-11648614D02*
X14947057Y-11648614D01*
X14918486Y-11662900D01*
X14904200Y-11677186D01*
X14875628Y-11720043D01*
X14861343Y-11777186D01*
X14861343Y-11891471D01*
X14875628Y-11920043D01*
X14889914Y-11934329D01*
X14918486Y-11948614D01*
X14975628Y-11948614D01*
X15004200Y-11934329D01*
X15018486Y-11920043D01*
X15032771Y-11891471D01*
X15032771Y-11820043D01*
X15018486Y-11791471D01*
X15004200Y-11777186D01*
X14975628Y-11762900D01*
X14918486Y-11762900D01*
X14889914Y-11777186D01*
X14875628Y-11791471D01*
X14861343Y-11820043D01*
X15389914Y-11948614D02*
X15389914Y-11648614D01*
X15518486Y-11948614D02*
X15518486Y-11791471D01*
X15504200Y-11762900D01*
X15475628Y-11748614D01*
X15432771Y-11748614D01*
X15404200Y-11762900D01*
X15389914Y-11777186D01*
X15704200Y-11948614D02*
X15675628Y-11934329D01*
X15661343Y-11920043D01*
X15647057Y-11891471D01*
X15647057Y-11805757D01*
X15661343Y-11777186D01*
X15675628Y-11762900D01*
X15704200Y-11748614D01*
X15747057Y-11748614D01*
X15775628Y-11762900D01*
X15789914Y-11777186D01*
X15804200Y-11805757D01*
X15804200Y-11891471D01*
X15789914Y-11920043D01*
X15775628Y-11934329D01*
X15747057Y-11948614D01*
X15704200Y-11948614D01*
X15975628Y-11948614D02*
X15947057Y-11934329D01*
X15932771Y-11905757D01*
X15932771Y-11648614D01*
X16204200Y-11934329D02*
X16175628Y-11948614D01*
X16118486Y-11948614D01*
X16089914Y-11934329D01*
X16075628Y-11905757D01*
X16075628Y-11791471D01*
X16089914Y-11762900D01*
X16118486Y-11748614D01*
X16175628Y-11748614D01*
X16204200Y-11762900D01*
X16218486Y-11791471D01*
X16218486Y-11820043D01*
X16075628Y-11848614D01*
X16332771Y-11934329D02*
X16361343Y-11948614D01*
X16418486Y-11948614D01*
X16447057Y-11934329D01*
X16461343Y-11905757D01*
X16461343Y-11891471D01*
X16447057Y-11862900D01*
X16418486Y-11848614D01*
X16375628Y-11848614D01*
X16347057Y-11834329D01*
X16332771Y-11805757D01*
X16332771Y-11791471D01*
X16347057Y-11762900D01*
X16375628Y-11748614D01*
X16418486Y-11748614D01*
X16447057Y-11762900D01*
X16561343Y-12062900D02*
X16575628Y-12048614D01*
X16604200Y-12005757D01*
X16618486Y-11977186D01*
X16632771Y-11934329D01*
X16647057Y-11862900D01*
X16647057Y-11805757D01*
X16632771Y-11734329D01*
X16618486Y-11691471D01*
X16604200Y-11662900D01*
X16575628Y-11620043D01*
X16561343Y-11605757D01*
X9774556Y-12244256D02*
X9774556Y-12173544D01*
X9703844Y-12173544D01*
X9703844Y-12244256D01*
X9774556Y-12244256D01*
X10232771Y-12344614D02*
X10061343Y-12344614D01*
X10147057Y-12344614D02*
X10147057Y-12044614D01*
X10118486Y-12087471D01*
X10089914Y-12116043D01*
X10061343Y-12130329D01*
X10361343Y-12316043D02*
X10375628Y-12330329D01*
X10361343Y-12344614D01*
X10347057Y-12330329D01*
X10361343Y-12316043D01*
X10361343Y-12344614D01*
X10561343Y-12044614D02*
X10589914Y-12044614D01*
X10618486Y-12058900D01*
X10632771Y-12073186D01*
X10647057Y-12101757D01*
X10661343Y-12158900D01*
X10661343Y-12230329D01*
X10647057Y-12287471D01*
X10632771Y-12316043D01*
X10618486Y-12330329D01*
X10589914Y-12344614D01*
X10561343Y-12344614D01*
X10532771Y-12330329D01*
X10518486Y-12316043D01*
X10504200Y-12287471D01*
X10489914Y-12230329D01*
X10489914Y-12158900D01*
X10504200Y-12101757D01*
X10518486Y-12073186D01*
X10532771Y-12058900D01*
X10561343Y-12044614D01*
X10847057Y-12044614D02*
X10875628Y-12044614D01*
X10904200Y-12058900D01*
X10918486Y-12073186D01*
X10932771Y-12101757D01*
X10947057Y-12158900D01*
X10947057Y-12230329D01*
X10932771Y-12287471D01*
X10918486Y-12316043D01*
X10904200Y-12330329D01*
X10875628Y-12344614D01*
X10847057Y-12344614D01*
X10818486Y-12330329D01*
X10804200Y-12316043D01*
X10789914Y-12287471D01*
X10775628Y-12230329D01*
X10775628Y-12158900D01*
X10789914Y-12101757D01*
X10804200Y-12073186D01*
X10818486Y-12058900D01*
X10847057Y-12044614D01*
X11075628Y-12344614D02*
X11075628Y-12144614D01*
X11075628Y-12173186D02*
X11089914Y-12158900D01*
X11118486Y-12144614D01*
X11161343Y-12144614D01*
X11189914Y-12158900D01*
X11204200Y-12187471D01*
X11204200Y-12344614D01*
X11204200Y-12187471D02*
X11218486Y-12158900D01*
X11247057Y-12144614D01*
X11289914Y-12144614D01*
X11318486Y-12158900D01*
X11332771Y-12187471D01*
X11332771Y-12344614D01*
X11475628Y-12344614D02*
X11475628Y-12144614D01*
X11475628Y-12173186D02*
X11489914Y-12158900D01*
X11518486Y-12144614D01*
X11561343Y-12144614D01*
X11589914Y-12158900D01*
X11604200Y-12187471D01*
X11604200Y-12344614D01*
X11604200Y-12187471D02*
X11618486Y-12158900D01*
X11647057Y-12144614D01*
X11689914Y-12144614D01*
X11718486Y-12158900D01*
X11732771Y-12187471D01*
X11732771Y-12344614D01*
X12318486Y-12030329D02*
X12061343Y-12416043D01*
X12704200Y-12044614D02*
X12732771Y-12044614D01*
X12761343Y-12058900D01*
X12775628Y-12073186D01*
X12789914Y-12101757D01*
X12804200Y-12158900D01*
X12804200Y-12230329D01*
X12789914Y-12287471D01*
X12775628Y-12316043D01*
X12761343Y-12330329D01*
X12732771Y-12344614D01*
X12704200Y-12344614D01*
X12675628Y-12330329D01*
X12661343Y-12316043D01*
X12647057Y-12287471D01*
X12632771Y-12230329D01*
X12632771Y-12158900D01*
X12647057Y-12101757D01*
X12661343Y-12073186D01*
X12675628Y-12058900D01*
X12704200Y-12044614D01*
X12932771Y-12316043D02*
X12947057Y-12330329D01*
X12932771Y-12344614D01*
X12918486Y-12330329D01*
X12932771Y-12316043D01*
X12932771Y-12344614D01*
X13132771Y-12044614D02*
X13161343Y-12044614D01*
X13189914Y-12058900D01*
X13204200Y-12073186D01*
X13218486Y-12101757D01*
X13232771Y-12158900D01*
X13232771Y-12230329D01*
X13218486Y-12287471D01*
X13204200Y-12316043D01*
X13189914Y-12330329D01*
X13161343Y-12344614D01*
X13132771Y-12344614D01*
X13104200Y-12330329D01*
X13089914Y-12316043D01*
X13075628Y-12287471D01*
X13061343Y-12230329D01*
X13061343Y-12158900D01*
X13075628Y-12101757D01*
X13089914Y-12073186D01*
X13104200Y-12058900D01*
X13132771Y-12044614D01*
X13332771Y-12044614D02*
X13518486Y-12044614D01*
X13418486Y-12158900D01*
X13461343Y-12158900D01*
X13489914Y-12173186D01*
X13504200Y-12187471D01*
X13518486Y-12216043D01*
X13518486Y-12287471D01*
X13504200Y-12316043D01*
X13489914Y-12330329D01*
X13461343Y-12344614D01*
X13375628Y-12344614D01*
X13347057Y-12330329D01*
X13332771Y-12316043D01*
X13661343Y-12344614D02*
X13718486Y-12344614D01*
X13747057Y-12330329D01*
X13761343Y-12316043D01*
X13789914Y-12273186D01*
X13804200Y-12216043D01*
X13804200Y-12101757D01*
X13789914Y-12073186D01*
X13775628Y-12058900D01*
X13747057Y-12044614D01*
X13689914Y-12044614D01*
X13661343Y-12058900D01*
X13647057Y-12073186D01*
X13632771Y-12101757D01*
X13632771Y-12173186D01*
X13647057Y-12201757D01*
X13661343Y-12216043D01*
X13689914Y-12230329D01*
X13747057Y-12230329D01*
X13775628Y-12216043D01*
X13789914Y-12201757D01*
X13804200Y-12173186D01*
X13918486Y-12044614D02*
X13918486Y-12101757D01*
X14032771Y-12044614D02*
X14032771Y-12101757D01*
X14475628Y-12458900D02*
X14461343Y-12444614D01*
X14432771Y-12401757D01*
X14418486Y-12373186D01*
X14404200Y-12330329D01*
X14389914Y-12258900D01*
X14389914Y-12201757D01*
X14404200Y-12130329D01*
X14418486Y-12087471D01*
X14432771Y-12058900D01*
X14461343Y-12016043D01*
X14475628Y-12001757D01*
X14561343Y-12044614D02*
X14747057Y-12044614D01*
X14647057Y-12158900D01*
X14689914Y-12158900D01*
X14718486Y-12173186D01*
X14732771Y-12187471D01*
X14747057Y-12216043D01*
X14747057Y-12287471D01*
X14732771Y-12316043D01*
X14718486Y-12330329D01*
X14689914Y-12344614D01*
X14604200Y-12344614D01*
X14575628Y-12330329D01*
X14561343Y-12316043D01*
X15104200Y-12344614D02*
X15104200Y-12044614D01*
X15232771Y-12344614D02*
X15232771Y-12187471D01*
X15218486Y-12158900D01*
X15189914Y-12144614D01*
X15147057Y-12144614D01*
X15118486Y-12158900D01*
X15104200Y-12173186D01*
X15418486Y-12344614D02*
X15389914Y-12330329D01*
X15375628Y-12316043D01*
X15361343Y-12287471D01*
X15361343Y-12201757D01*
X15375628Y-12173186D01*
X15389914Y-12158900D01*
X15418486Y-12144614D01*
X15461343Y-12144614D01*
X15489914Y-12158900D01*
X15504200Y-12173186D01*
X15518486Y-12201757D01*
X15518486Y-12287471D01*
X15504200Y-12316043D01*
X15489914Y-12330329D01*
X15461343Y-12344614D01*
X15418486Y-12344614D01*
X15689914Y-12344614D02*
X15661343Y-12330329D01*
X15647057Y-12301757D01*
X15647057Y-12044614D01*
X15918486Y-12330329D02*
X15889914Y-12344614D01*
X15832771Y-12344614D01*
X15804200Y-12330329D01*
X15789914Y-12301757D01*
X15789914Y-12187471D01*
X15804200Y-12158900D01*
X15832771Y-12144614D01*
X15889914Y-12144614D01*
X15918486Y-12158900D01*
X15932771Y-12187471D01*
X15932771Y-12216043D01*
X15789914Y-12244614D01*
X16047057Y-12330329D02*
X16075628Y-12344614D01*
X16132771Y-12344614D01*
X16161343Y-12330329D01*
X16175628Y-12301757D01*
X16175628Y-12287471D01*
X16161343Y-12258900D01*
X16132771Y-12244614D01*
X16089914Y-12244614D01*
X16061343Y-12230329D01*
X16047057Y-12201757D01*
X16047057Y-12187471D01*
X16061343Y-12158900D01*
X16089914Y-12144614D01*
X16132771Y-12144614D01*
X16161343Y-12158900D01*
X16275628Y-12458900D02*
X16289914Y-12444614D01*
X16318486Y-12401757D01*
X16332771Y-12373186D01*
X16347057Y-12330329D01*
X16361343Y-12258900D01*
X16361343Y-12201757D01*
X16347057Y-12130329D01*
X16332771Y-12087471D01*
X16318486Y-12058900D01*
X16289914Y-12016043D01*
X16275628Y-12001757D01*
M02*
