G04 #@! TF.GenerationSoftware,KiCad,Pcbnew,(5.1.9)-1*
G04 #@! TF.CreationDate,2021-06-10T15:01:45-04:00*
G04 #@! TF.ProjectId,6526KernalSwitcherC,36353236-4b65-4726-9e61-6c5377697463,rev?*
G04 #@! TF.SameCoordinates,Original*
G04 #@! TF.FileFunction,Legend,Top*
G04 #@! TF.FilePolarity,Positive*
%FSLAX46Y46*%
G04 Gerber Fmt 4.6, Leading zero omitted, Abs format (unit mm)*
G04 Created by KiCad (PCBNEW (5.1.9)-1) date 2021-06-10 15:01:45*
%MOMM*%
%LPD*%
G01*
G04 APERTURE LIST*
%ADD10C,0.120000*%
%ADD11C,0.150000*%
G04 APERTURE END LIST*
D10*
X113140000Y-49470000D02*
X107680000Y-49470000D01*
X113140000Y-100390000D02*
X113140000Y-49470000D01*
X100220000Y-100390000D02*
X113140000Y-100390000D01*
X100220000Y-49470000D02*
X100220000Y-100390000D01*
X105680000Y-49470000D02*
X100220000Y-49470000D01*
X107680000Y-49470000D02*
G75*
G02*
X105680000Y-49470000I-1000000J0D01*
G01*
X110751252Y-82498000D02*
X110228748Y-82498000D01*
X110751252Y-81078000D02*
X110228748Y-81078000D01*
X110751252Y-79046000D02*
X110228748Y-79046000D01*
X110751252Y-80466000D02*
X110228748Y-80466000D01*
X110751252Y-78434000D02*
X110228748Y-78434000D01*
X110751252Y-77014000D02*
X110228748Y-77014000D01*
X106478000Y-85768548D02*
X106478000Y-86291052D01*
X107898000Y-85768548D02*
X107898000Y-86291052D01*
X108105000Y-90535000D02*
X112405000Y-90535000D01*
X112405000Y-90535000D02*
X112405000Y-88535000D01*
X112405000Y-88535000D02*
X108105000Y-88535000D01*
X111375500Y-100424000D02*
X111375500Y-99621530D01*
X111375500Y-99006470D02*
X111375500Y-98204000D01*
X106360500Y-100424000D02*
X111375500Y-100424000D01*
X106360500Y-98204000D02*
X111375500Y-98204000D01*
X106360500Y-100424000D02*
X106360500Y-99877471D01*
X106360500Y-98750529D02*
X106360500Y-98204000D01*
X105600500Y-100424000D02*
X104840500Y-100424000D01*
X104840500Y-100424000D02*
X104840500Y-99314000D01*
X103572000Y-57471000D02*
X104902000Y-57471000D01*
X103572000Y-58801000D02*
X103572000Y-57471000D01*
X103572000Y-60071000D02*
X106232000Y-60071000D01*
X106232000Y-60071000D02*
X106232000Y-60131000D01*
X103572000Y-60071000D02*
X103572000Y-60131000D01*
X103572000Y-60131000D02*
X106232000Y-60131000D01*
X103572000Y-56511500D02*
X106232000Y-56511500D01*
X103572000Y-56451500D02*
X103572000Y-56511500D01*
X106232000Y-56451500D02*
X106232000Y-56511500D01*
X103572000Y-56451500D02*
X106232000Y-56451500D01*
X103572000Y-55181500D02*
X103572000Y-53851500D01*
X103572000Y-53851500D02*
X104902000Y-53851500D01*
X103572000Y-63750500D02*
X106232000Y-63750500D01*
X103572000Y-63690500D02*
X103572000Y-63750500D01*
X106232000Y-63690500D02*
X106232000Y-63750500D01*
X103572000Y-63690500D02*
X106232000Y-63690500D01*
X103572000Y-62420500D02*
X103572000Y-61090500D01*
X103572000Y-61090500D02*
X104902000Y-61090500D01*
X112075500Y-64191000D02*
X112075500Y-63261000D01*
X112075500Y-61031000D02*
X112075500Y-61961000D01*
X112075500Y-61031000D02*
X109915500Y-61031000D01*
X112075500Y-64191000D02*
X110615500Y-64191000D01*
X110751252Y-83110000D02*
X110228748Y-83110000D01*
X110751252Y-84530000D02*
X110228748Y-84530000D01*
X105281800Y-95445948D02*
X105281800Y-95968452D01*
X103861800Y-95445948D02*
X103861800Y-95968452D01*
X105662800Y-86291052D02*
X105662800Y-85768548D01*
X104242800Y-86291052D02*
X104242800Y-85768548D01*
X110760252Y-86562000D02*
X110237748Y-86562000D01*
X110760252Y-85142000D02*
X110237748Y-85142000D01*
X109295000Y-58158748D02*
X109295000Y-58681252D01*
X107875000Y-58158748D02*
X107875000Y-58681252D01*
X107811500Y-62286248D02*
X107811500Y-62808752D01*
X109231500Y-62286248D02*
X109231500Y-62808752D01*
D11*
X104134500Y-73475000D02*
X104559500Y-73475000D01*
X104134500Y-66225000D02*
X104659500Y-66225000D01*
X111384500Y-66225000D02*
X110859500Y-66225000D01*
X111384500Y-73475000D02*
X110859500Y-73475000D01*
X104134500Y-73475000D02*
X104134500Y-72950000D01*
X111384500Y-73475000D02*
X111384500Y-72950000D01*
X111384500Y-66225000D02*
X111384500Y-66750000D01*
X104134500Y-66225000D02*
X104134500Y-66750000D01*
X104559500Y-73475000D02*
X104559500Y-74850000D01*
D10*
X107839000Y-49470000D02*
X102379000Y-49470000D01*
X102379000Y-49470000D02*
X102379000Y-100390000D01*
X102379000Y-100390000D02*
X115299000Y-100390000D01*
X115299000Y-100390000D02*
X115299000Y-49470000D01*
X115299000Y-49470000D02*
X109839000Y-49470000D01*
X109839000Y-49470000D02*
G75*
G02*
X107839000Y-49470000I-1000000J0D01*
G01*
X115961500Y-48050000D02*
X115961500Y-43930000D01*
X101901500Y-48050000D02*
X115961500Y-48050000D01*
X99841500Y-43930000D02*
X115961500Y-43930000D01*
X101901500Y-48050000D02*
X101901500Y-45990000D01*
X101901500Y-45990000D02*
X99841500Y-45990000D01*
X99841500Y-45990000D02*
X99841500Y-43930000D01*
X100901500Y-48050000D02*
X99841500Y-48050000D01*
X99841500Y-48050000D02*
X99841500Y-46990000D01*
D11*
X103357880Y-99647333D02*
X104072166Y-99647333D01*
X104215023Y-99694952D01*
X104310261Y-99790190D01*
X104357880Y-99933047D01*
X104357880Y-100028285D01*
X104357880Y-98647333D02*
X104357880Y-99218761D01*
X104357880Y-98933047D02*
X103357880Y-98933047D01*
X103500738Y-99028285D01*
X103595976Y-99123523D01*
X103643595Y-99218761D01*
X111220261Y-60658619D02*
X111125023Y-60611000D01*
X111029785Y-60515761D01*
X110886928Y-60372904D01*
X110791690Y-60325285D01*
X110696452Y-60325285D01*
X110744071Y-60563380D02*
X110648833Y-60515761D01*
X110553595Y-60420523D01*
X110505976Y-60230047D01*
X110505976Y-59896714D01*
X110553595Y-59706238D01*
X110648833Y-59611000D01*
X110744071Y-59563380D01*
X110934547Y-59563380D01*
X111029785Y-59611000D01*
X111125023Y-59706238D01*
X111172642Y-59896714D01*
X111172642Y-60230047D01*
X111125023Y-60420523D01*
X111029785Y-60515761D01*
X110934547Y-60563380D01*
X110744071Y-60563380D01*
X112125023Y-60563380D02*
X111553595Y-60563380D01*
X111839309Y-60563380D02*
X111839309Y-59563380D01*
X111744071Y-59706238D01*
X111648833Y-59801476D01*
X111553595Y-59849095D01*
X101211880Y-70611904D02*
X102021404Y-70611904D01*
X102116642Y-70564285D01*
X102164261Y-70516666D01*
X102211880Y-70421428D01*
X102211880Y-70230952D01*
X102164261Y-70135714D01*
X102116642Y-70088095D01*
X102021404Y-70040476D01*
X101211880Y-70040476D01*
X102211880Y-69040476D02*
X102211880Y-69611904D01*
X102211880Y-69326190D02*
X101211880Y-69326190D01*
X101354738Y-69421428D01*
X101449976Y-69516666D01*
X101497595Y-69611904D01*
X98293880Y-46323333D02*
X99008166Y-46323333D01*
X99151023Y-46370952D01*
X99246261Y-46466190D01*
X99293880Y-46609047D01*
X99293880Y-46704285D01*
X98293880Y-45942380D02*
X98293880Y-45323333D01*
X98674833Y-45656666D01*
X98674833Y-45513809D01*
X98722452Y-45418571D01*
X98770071Y-45370952D01*
X98865309Y-45323333D01*
X99103404Y-45323333D01*
X99198642Y-45370952D01*
X99246261Y-45418571D01*
X99293880Y-45513809D01*
X99293880Y-45799523D01*
X99246261Y-45894761D01*
X99198642Y-45942380D01*
M02*
