G04 #@! TF.GenerationSoftware,KiCad,Pcbnew,(5.1.9)-1*
G04 #@! TF.CreationDate,2021-06-10T15:02:54-04:00*
G04 #@! TF.ProjectId,6526KernalSwitcherB,36353236-4b65-4726-9e61-6c5377697463,rev?*
G04 #@! TF.SameCoordinates,Original*
G04 #@! TF.FileFunction,Copper,L1,Top*
G04 #@! TF.FilePolarity,Positive*
%FSLAX46Y46*%
G04 Gerber Fmt 4.6, Leading zero omitted, Abs format (unit mm)*
G04 Created by KiCad (PCBNEW (5.1.9)-1) date 2021-06-10 15:02:54*
%MOMM*%
%LPD*%
G01*
G04 APERTURE LIST*
G04 #@! TA.AperFunction,SMDPad,CuDef*
%ADD10R,1.700000X1.300000*%
G04 #@! TD*
G04 #@! TA.AperFunction,ComponentPad*
%ADD11R,1.000000X1.000000*%
G04 #@! TD*
G04 #@! TA.AperFunction,ComponentPad*
%ADD12O,1.000000X1.000000*%
G04 #@! TD*
G04 #@! TA.AperFunction,ComponentPad*
%ADD13R,1.700000X1.700000*%
G04 #@! TD*
G04 #@! TA.AperFunction,ComponentPad*
%ADD14O,1.700000X1.700000*%
G04 #@! TD*
G04 #@! TA.AperFunction,SMDPad,CuDef*
%ADD15R,0.900000X0.800000*%
G04 #@! TD*
G04 #@! TA.AperFunction,SMDPad,CuDef*
%ADD16R,0.550000X1.600000*%
G04 #@! TD*
G04 #@! TA.AperFunction,SMDPad,CuDef*
%ADD17R,1.600000X0.550000*%
G04 #@! TD*
G04 #@! TA.AperFunction,ComponentPad*
%ADD18O,1.600000X1.600000*%
G04 #@! TD*
G04 #@! TA.AperFunction,ComponentPad*
%ADD19R,1.600000X1.600000*%
G04 #@! TD*
G04 #@! TA.AperFunction,SMDPad,CuDef*
%ADD20R,0.800000X0.900000*%
G04 #@! TD*
G04 #@! TA.AperFunction,ViaPad*
%ADD21C,0.488800*%
G04 #@! TD*
G04 #@! TA.AperFunction,ViaPad*
%ADD22C,0.800000*%
G04 #@! TD*
G04 #@! TA.AperFunction,Conductor*
%ADD23C,0.488000*%
G04 #@! TD*
G04 #@! TA.AperFunction,Conductor*
%ADD24C,0.880000*%
G04 #@! TD*
G04 #@! TA.AperFunction,Conductor*
%ADD25C,0.288000*%
G04 #@! TD*
G04 #@! TA.AperFunction,Conductor*
%ADD26C,0.439000*%
G04 #@! TD*
G04 #@! TA.AperFunction,Conductor*
%ADD27C,0.237000*%
G04 #@! TD*
G04 #@! TA.AperFunction,Conductor*
%ADD28C,0.100000*%
G04 #@! TD*
G04 APERTURE END LIST*
G04 #@! TA.AperFunction,SMDPad,CuDef*
G36*
G01*
X106502000Y-86468799D02*
X106502000Y-87368801D01*
G75*
G02*
X106252001Y-87618800I-249999J0D01*
G01*
X105601999Y-87618800D01*
G75*
G02*
X105352000Y-87368801I0J249999D01*
G01*
X105352000Y-86468799D01*
G75*
G02*
X105601999Y-86218800I249999J0D01*
G01*
X106252001Y-86218800D01*
G75*
G02*
X106502000Y-86468799I0J-249999D01*
G01*
G37*
G04 #@! TD.AperFunction*
G04 #@! TA.AperFunction,SMDPad,CuDef*
G36*
G01*
X104452000Y-86468799D02*
X104452000Y-87368801D01*
G75*
G02*
X104202001Y-87618800I-249999J0D01*
G01*
X103551999Y-87618800D01*
G75*
G02*
X103302000Y-87368801I0J249999D01*
G01*
X103302000Y-86468799D01*
G75*
G02*
X103551999Y-86218800I249999J0D01*
G01*
X104202001Y-86218800D01*
G75*
G02*
X104452000Y-86468799I0J-249999D01*
G01*
G37*
G04 #@! TD.AperFunction*
G04 #@! TA.AperFunction,SMDPad,CuDef*
G36*
G01*
X104452000Y-84385999D02*
X104452000Y-85286001D01*
G75*
G02*
X104202001Y-85536000I-249999J0D01*
G01*
X103551999Y-85536000D01*
G75*
G02*
X103302000Y-85286001I0J249999D01*
G01*
X103302000Y-84385999D01*
G75*
G02*
X103551999Y-84136000I249999J0D01*
G01*
X104202001Y-84136000D01*
G75*
G02*
X104452000Y-84385999I0J-249999D01*
G01*
G37*
G04 #@! TD.AperFunction*
G04 #@! TA.AperFunction,SMDPad,CuDef*
G36*
G01*
X106502000Y-84385999D02*
X106502000Y-85286001D01*
G75*
G02*
X106252001Y-85536000I-249999J0D01*
G01*
X105601999Y-85536000D01*
G75*
G02*
X105352000Y-85286001I0J249999D01*
G01*
X105352000Y-84385999D01*
G75*
G02*
X105601999Y-84136000I249999J0D01*
G01*
X106252001Y-84136000D01*
G75*
G02*
X106502000Y-84385999I0J-249999D01*
G01*
G37*
G04 #@! TD.AperFunction*
G04 #@! TA.AperFunction,SMDPad,CuDef*
G36*
G01*
X109506599Y-77851200D02*
X110406601Y-77851200D01*
G75*
G02*
X110656600Y-78101199I0J-249999D01*
G01*
X110656600Y-78751201D01*
G75*
G02*
X110406601Y-79001200I-249999J0D01*
G01*
X109506599Y-79001200D01*
G75*
G02*
X109256600Y-78751201I0J249999D01*
G01*
X109256600Y-78101199D01*
G75*
G02*
X109506599Y-77851200I249999J0D01*
G01*
G37*
G04 #@! TD.AperFunction*
G04 #@! TA.AperFunction,SMDPad,CuDef*
G36*
G01*
X109506599Y-79901200D02*
X110406601Y-79901200D01*
G75*
G02*
X110656600Y-80151199I0J-249999D01*
G01*
X110656600Y-80801201D01*
G75*
G02*
X110406601Y-81051200I-249999J0D01*
G01*
X109506599Y-81051200D01*
G75*
G02*
X109256600Y-80801201I0J249999D01*
G01*
X109256600Y-80151199D01*
G75*
G02*
X109506599Y-79901200I249999J0D01*
G01*
G37*
G04 #@! TD.AperFunction*
G04 #@! TA.AperFunction,SMDPad,CuDef*
G36*
G01*
X107423799Y-79901200D02*
X108323801Y-79901200D01*
G75*
G02*
X108573800Y-80151199I0J-249999D01*
G01*
X108573800Y-80801201D01*
G75*
G02*
X108323801Y-81051200I-249999J0D01*
G01*
X107423799Y-81051200D01*
G75*
G02*
X107173800Y-80801201I0J249999D01*
G01*
X107173800Y-80151199D01*
G75*
G02*
X107423799Y-79901200I249999J0D01*
G01*
G37*
G04 #@! TD.AperFunction*
G04 #@! TA.AperFunction,SMDPad,CuDef*
G36*
G01*
X107423799Y-77851200D02*
X108323801Y-77851200D01*
G75*
G02*
X108573800Y-78101199I0J-249999D01*
G01*
X108573800Y-78751201D01*
G75*
G02*
X108323801Y-79001200I-249999J0D01*
G01*
X107423799Y-79001200D01*
G75*
G02*
X107173800Y-78751201I0J249999D01*
G01*
X107173800Y-78101199D01*
G75*
G02*
X107423799Y-77851200I249999J0D01*
G01*
G37*
G04 #@! TD.AperFunction*
G04 #@! TA.AperFunction,SMDPad,CuDef*
G36*
G01*
X103302000Y-83190501D02*
X103302000Y-82290499D01*
G75*
G02*
X103551999Y-82040500I249999J0D01*
G01*
X104202001Y-82040500D01*
G75*
G02*
X104452000Y-82290499I0J-249999D01*
G01*
X104452000Y-83190501D01*
G75*
G02*
X104202001Y-83440500I-249999J0D01*
G01*
X103551999Y-83440500D01*
G75*
G02*
X103302000Y-83190501I0J249999D01*
G01*
G37*
G04 #@! TD.AperFunction*
G04 #@! TA.AperFunction,SMDPad,CuDef*
G36*
G01*
X105352000Y-83190501D02*
X105352000Y-82290499D01*
G75*
G02*
X105601999Y-82040500I249999J0D01*
G01*
X106252001Y-82040500D01*
G75*
G02*
X106502000Y-82290499I0J-249999D01*
G01*
X106502000Y-83190501D01*
G75*
G02*
X106252001Y-83440500I-249999J0D01*
G01*
X105601999Y-83440500D01*
G75*
G02*
X105352000Y-83190501I0J249999D01*
G01*
G37*
G04 #@! TD.AperFunction*
G04 #@! TA.AperFunction,SMDPad,CuDef*
G36*
G01*
X111589399Y-79901200D02*
X112489401Y-79901200D01*
G75*
G02*
X112739400Y-80151199I0J-249999D01*
G01*
X112739400Y-80801201D01*
G75*
G02*
X112489401Y-81051200I-249999J0D01*
G01*
X111589399Y-81051200D01*
G75*
G02*
X111339400Y-80801201I0J249999D01*
G01*
X111339400Y-80151199D01*
G75*
G02*
X111589399Y-79901200I249999J0D01*
G01*
G37*
G04 #@! TD.AperFunction*
G04 #@! TA.AperFunction,SMDPad,CuDef*
G36*
G01*
X111589399Y-77851200D02*
X112489401Y-77851200D01*
G75*
G02*
X112739400Y-78101199I0J-249999D01*
G01*
X112739400Y-78751201D01*
G75*
G02*
X112489401Y-79001200I-249999J0D01*
G01*
X111589399Y-79001200D01*
G75*
G02*
X111339400Y-78751201I0J249999D01*
G01*
X111339400Y-78101199D01*
G75*
G02*
X111589399Y-77851200I249999J0D01*
G01*
G37*
G04 #@! TD.AperFunction*
G04 #@! TA.AperFunction,SMDPad,CuDef*
G36*
G01*
X109321400Y-64294599D02*
X109321400Y-65194601D01*
G75*
G02*
X109071401Y-65444600I-249999J0D01*
G01*
X108421399Y-65444600D01*
G75*
G02*
X108171400Y-65194601I0J249999D01*
G01*
X108171400Y-64294599D01*
G75*
G02*
X108421399Y-64044600I249999J0D01*
G01*
X109071401Y-64044600D01*
G75*
G02*
X109321400Y-64294599I0J-249999D01*
G01*
G37*
G04 #@! TD.AperFunction*
G04 #@! TA.AperFunction,SMDPad,CuDef*
G36*
G01*
X107271400Y-64294599D02*
X107271400Y-65194601D01*
G75*
G02*
X107021401Y-65444600I-249999J0D01*
G01*
X106371399Y-65444600D01*
G75*
G02*
X106121400Y-65194601I0J249999D01*
G01*
X106121400Y-64294599D01*
G75*
G02*
X106371399Y-64044600I249999J0D01*
G01*
X107021401Y-64044600D01*
G75*
G02*
X107271400Y-64294599I0J-249999D01*
G01*
G37*
G04 #@! TD.AperFunction*
D10*
X109245400Y-88191400D03*
X109245400Y-91691400D03*
D11*
X105410000Y-99695000D03*
D12*
X106680000Y-99695000D03*
X107950000Y-99695000D03*
X109220000Y-99695000D03*
X110490000Y-99695000D03*
D13*
X102870000Y-46990000D03*
D14*
X105410000Y-46990000D03*
X107950000Y-46990000D03*
X110490000Y-46990000D03*
X113030000Y-46990000D03*
D13*
X105587800Y-56032400D03*
X105384600Y-62077600D03*
D15*
X110404400Y-63007200D03*
X110404400Y-64907200D03*
X112404400Y-63957200D03*
G04 #@! TA.AperFunction,SMDPad,CuDef*
G36*
G01*
X106502000Y-90634399D02*
X106502000Y-91534401D01*
G75*
G02*
X106252001Y-91784400I-249999J0D01*
G01*
X105601999Y-91784400D01*
G75*
G02*
X105352000Y-91534401I0J249999D01*
G01*
X105352000Y-90634399D01*
G75*
G02*
X105601999Y-90384400I249999J0D01*
G01*
X106252001Y-90384400D01*
G75*
G02*
X106502000Y-90634399I0J-249999D01*
G01*
G37*
G04 #@! TD.AperFunction*
G04 #@! TA.AperFunction,SMDPad,CuDef*
G36*
G01*
X104452000Y-90634399D02*
X104452000Y-91534401D01*
G75*
G02*
X104202001Y-91784400I-249999J0D01*
G01*
X103551999Y-91784400D01*
G75*
G02*
X103302000Y-91534401I0J249999D01*
G01*
X103302000Y-90634399D01*
G75*
G02*
X103551999Y-90384400I249999J0D01*
G01*
X104202001Y-90384400D01*
G75*
G02*
X104452000Y-90634399I0J-249999D01*
G01*
G37*
G04 #@! TD.AperFunction*
G04 #@! TA.AperFunction,SMDPad,CuDef*
G36*
G01*
X111429600Y-85706799D02*
X111429600Y-86606801D01*
G75*
G02*
X111179601Y-86856800I-249999J0D01*
G01*
X110529599Y-86856800D01*
G75*
G02*
X110279600Y-86606801I0J249999D01*
G01*
X110279600Y-85706799D01*
G75*
G02*
X110529599Y-85456800I249999J0D01*
G01*
X111179601Y-85456800D01*
G75*
G02*
X111429600Y-85706799I0J-249999D01*
G01*
G37*
G04 #@! TD.AperFunction*
G04 #@! TA.AperFunction,SMDPad,CuDef*
G36*
G01*
X109379600Y-85706799D02*
X109379600Y-86606801D01*
G75*
G02*
X109129601Y-86856800I-249999J0D01*
G01*
X108479599Y-86856800D01*
G75*
G02*
X108229600Y-86606801I0J249999D01*
G01*
X108229600Y-85706799D01*
G75*
G02*
X108479599Y-85456800I249999J0D01*
G01*
X109129601Y-85456800D01*
G75*
G02*
X109379600Y-85706799I0J-249999D01*
G01*
G37*
G04 #@! TD.AperFunction*
G04 #@! TA.AperFunction,SMDPad,CuDef*
G36*
G01*
X105352000Y-78999501D02*
X105352000Y-78099499D01*
G75*
G02*
X105601999Y-77849500I249999J0D01*
G01*
X106252001Y-77849500D01*
G75*
G02*
X106502000Y-78099499I0J-249999D01*
G01*
X106502000Y-78999501D01*
G75*
G02*
X106252001Y-79249500I-249999J0D01*
G01*
X105601999Y-79249500D01*
G75*
G02*
X105352000Y-78999501I0J249999D01*
G01*
G37*
G04 #@! TD.AperFunction*
G04 #@! TA.AperFunction,SMDPad,CuDef*
G36*
G01*
X103302000Y-78999501D02*
X103302000Y-78099499D01*
G75*
G02*
X103551999Y-77849500I249999J0D01*
G01*
X104202001Y-77849500D01*
G75*
G02*
X104452000Y-78099499I0J-249999D01*
G01*
X104452000Y-78999501D01*
G75*
G02*
X104202001Y-79249500I-249999J0D01*
G01*
X103551999Y-79249500D01*
G75*
G02*
X103302000Y-78999501I0J249999D01*
G01*
G37*
G04 #@! TD.AperFunction*
G04 #@! TA.AperFunction,SMDPad,CuDef*
G36*
G01*
X103302000Y-81095001D02*
X103302000Y-80194999D01*
G75*
G02*
X103551999Y-79945000I249999J0D01*
G01*
X104202001Y-79945000D01*
G75*
G02*
X104452000Y-80194999I0J-249999D01*
G01*
X104452000Y-81095001D01*
G75*
G02*
X104202001Y-81345000I-249999J0D01*
G01*
X103551999Y-81345000D01*
G75*
G02*
X103302000Y-81095001I0J249999D01*
G01*
G37*
G04 #@! TD.AperFunction*
G04 #@! TA.AperFunction,SMDPad,CuDef*
G36*
G01*
X105352000Y-81095001D02*
X105352000Y-80194999D01*
G75*
G02*
X105601999Y-79945000I249999J0D01*
G01*
X106252001Y-79945000D01*
G75*
G02*
X106502000Y-80194999I0J-249999D01*
G01*
X106502000Y-81095001D01*
G75*
G02*
X106252001Y-81345000I-249999J0D01*
G01*
X105601999Y-81345000D01*
G75*
G02*
X105352000Y-81095001I0J249999D01*
G01*
G37*
G04 #@! TD.AperFunction*
G04 #@! TA.AperFunction,SMDPad,CuDef*
G36*
G01*
X106502000Y-88551599D02*
X106502000Y-89451601D01*
G75*
G02*
X106252001Y-89701600I-249999J0D01*
G01*
X105601999Y-89701600D01*
G75*
G02*
X105352000Y-89451601I0J249999D01*
G01*
X105352000Y-88551599D01*
G75*
G02*
X105601999Y-88301600I249999J0D01*
G01*
X106252001Y-88301600D01*
G75*
G02*
X106502000Y-88551599I0J-249999D01*
G01*
G37*
G04 #@! TD.AperFunction*
G04 #@! TA.AperFunction,SMDPad,CuDef*
G36*
G01*
X104452000Y-88551599D02*
X104452000Y-89451601D01*
G75*
G02*
X104202001Y-89701600I-249999J0D01*
G01*
X103551999Y-89701600D01*
G75*
G02*
X103302000Y-89451601I0J249999D01*
G01*
X103302000Y-88551599D01*
G75*
G02*
X103551999Y-88301600I249999J0D01*
G01*
X104202001Y-88301600D01*
G75*
G02*
X104452000Y-88551599I0J-249999D01*
G01*
G37*
G04 #@! TD.AperFunction*
G04 #@! TA.AperFunction,SMDPad,CuDef*
G36*
G01*
X105834600Y-59530401D02*
X105834600Y-58630399D01*
G75*
G02*
X106084599Y-58380400I249999J0D01*
G01*
X106734601Y-58380400D01*
G75*
G02*
X106984600Y-58630399I0J-249999D01*
G01*
X106984600Y-59530401D01*
G75*
G02*
X106734601Y-59780400I-249999J0D01*
G01*
X106084599Y-59780400D01*
G75*
G02*
X105834600Y-59530401I0J249999D01*
G01*
G37*
G04 #@! TD.AperFunction*
G04 #@! TA.AperFunction,SMDPad,CuDef*
G36*
G01*
X103784600Y-59530401D02*
X103784600Y-58630399D01*
G75*
G02*
X104034599Y-58380400I249999J0D01*
G01*
X104684601Y-58380400D01*
G75*
G02*
X104934600Y-58630399I0J-249999D01*
G01*
X104934600Y-59530401D01*
G75*
G02*
X104684601Y-59780400I-249999J0D01*
G01*
X104034599Y-59780400D01*
G75*
G02*
X103784600Y-59530401I0J249999D01*
G01*
G37*
G04 #@! TD.AperFunction*
G04 #@! TA.AperFunction,SMDPad,CuDef*
G36*
G01*
X107957199Y-62299000D02*
X108857201Y-62299000D01*
G75*
G02*
X109107200Y-62548999I0J-249999D01*
G01*
X109107200Y-63199001D01*
G75*
G02*
X108857201Y-63449000I-249999J0D01*
G01*
X107957199Y-63449000D01*
G75*
G02*
X107707200Y-63199001I0J249999D01*
G01*
X107707200Y-62548999D01*
G75*
G02*
X107957199Y-62299000I249999J0D01*
G01*
G37*
G04 #@! TD.AperFunction*
G04 #@! TA.AperFunction,SMDPad,CuDef*
G36*
G01*
X107957199Y-60249000D02*
X108857201Y-60249000D01*
G75*
G02*
X109107200Y-60498999I0J-249999D01*
G01*
X109107200Y-61149001D01*
G75*
G02*
X108857201Y-61399000I-249999J0D01*
G01*
X107957199Y-61399000D01*
G75*
G02*
X107707200Y-61149001I0J249999D01*
G01*
X107707200Y-60498999D01*
G75*
G02*
X107957199Y-60249000I249999J0D01*
G01*
G37*
G04 #@! TD.AperFunction*
D16*
X104959500Y-75370000D03*
X105759500Y-75370000D03*
X106559500Y-75370000D03*
X107359500Y-75370000D03*
X108159500Y-75370000D03*
X108959500Y-75370000D03*
X109759500Y-75370000D03*
X110559500Y-75370000D03*
D17*
X112009500Y-73920000D03*
X112009500Y-73120000D03*
X112009500Y-72320000D03*
X112009500Y-71520000D03*
X112009500Y-70720000D03*
X112009500Y-69920000D03*
X112009500Y-69120000D03*
X112009500Y-68320000D03*
D16*
X110559500Y-66870000D03*
X109759500Y-66870000D03*
X108959500Y-66870000D03*
X108159500Y-66870000D03*
X107359500Y-66870000D03*
X106559500Y-66870000D03*
X105759500Y-66870000D03*
X104959500Y-66870000D03*
D17*
X103509500Y-68320000D03*
X103509500Y-69120000D03*
X103509500Y-69920000D03*
X103509500Y-70720000D03*
X103509500Y-71520000D03*
X103509500Y-72320000D03*
X103509500Y-73120000D03*
X103509500Y-73920000D03*
D18*
X116459000Y-50800000D03*
X101219000Y-99060000D03*
X116459000Y-53340000D03*
X101219000Y-96520000D03*
X116459000Y-55880000D03*
X101219000Y-93980000D03*
X116459000Y-58420000D03*
X101219000Y-91440000D03*
X116459000Y-60960000D03*
X101219000Y-88900000D03*
X116459000Y-63500000D03*
X101219000Y-86360000D03*
X116459000Y-66040000D03*
X101219000Y-83820000D03*
X116459000Y-68580000D03*
X101219000Y-81280000D03*
X116459000Y-71120000D03*
X101219000Y-78740000D03*
X116459000Y-73660000D03*
X101219000Y-76200000D03*
X116459000Y-76200000D03*
X101219000Y-73660000D03*
X116459000Y-78740000D03*
X101219000Y-71120000D03*
X116459000Y-81280000D03*
X101219000Y-68580000D03*
X116459000Y-83820000D03*
X101219000Y-66040000D03*
X116459000Y-86360000D03*
X101219000Y-63500000D03*
X116459000Y-88900000D03*
X101219000Y-60960000D03*
X116459000Y-91440000D03*
X101219000Y-58420000D03*
X116459000Y-93980000D03*
X101219000Y-55880000D03*
X116459000Y-96520000D03*
X101219000Y-53340000D03*
X116459000Y-99060000D03*
D19*
X101219000Y-50800000D03*
X99060000Y-50800000D03*
D18*
X114300000Y-99060000D03*
X99060000Y-53340000D03*
X114300000Y-96520000D03*
X99060000Y-55880000D03*
X114300000Y-93980000D03*
X99060000Y-58420000D03*
X114300000Y-91440000D03*
X99060000Y-60960000D03*
X114300000Y-88900000D03*
X99060000Y-63500000D03*
X114300000Y-86360000D03*
X99060000Y-66040000D03*
X114300000Y-83820000D03*
X99060000Y-68580000D03*
X114300000Y-81280000D03*
X99060000Y-71120000D03*
X114300000Y-78740000D03*
X99060000Y-73660000D03*
X114300000Y-76200000D03*
X99060000Y-76200000D03*
X114300000Y-73660000D03*
X99060000Y-78740000D03*
X114300000Y-71120000D03*
X99060000Y-81280000D03*
X114300000Y-68580000D03*
X99060000Y-83820000D03*
X114300000Y-66040000D03*
X99060000Y-86360000D03*
X114300000Y-63500000D03*
X99060000Y-88900000D03*
X114300000Y-60960000D03*
X99060000Y-91440000D03*
X114300000Y-58420000D03*
X99060000Y-93980000D03*
X114300000Y-55880000D03*
X99060000Y-96520000D03*
X114300000Y-53340000D03*
X99060000Y-99060000D03*
X114300000Y-50800000D03*
D20*
X109432000Y-82967600D03*
X109432000Y-84367600D03*
X110532000Y-84367600D03*
X110532000Y-82967600D03*
D21*
X110540800Y-83210400D03*
X109575600Y-84683600D03*
D22*
X103581200Y-96697800D03*
D21*
X107353100Y-73850500D03*
D22*
X106908600Y-64414400D03*
X103759000Y-87147400D03*
X103877000Y-84836000D03*
X107873800Y-80476200D03*
D21*
X109931200Y-65379600D03*
X115570000Y-48133000D03*
X111887000Y-49657000D03*
X109220000Y-49403000D03*
X106553000Y-49276000D03*
X104267000Y-49149000D03*
X112903000Y-75311000D03*
X102489000Y-82296000D03*
X100203000Y-85090000D03*
X100076000Y-87630000D03*
X100076000Y-82550000D03*
X115316000Y-87630000D03*
X115316000Y-85090000D03*
X115316000Y-82550000D03*
X115316000Y-80010000D03*
X115316000Y-77470000D03*
X115316000Y-74930000D03*
X115443000Y-52070000D03*
X115316000Y-54610000D03*
X115316000Y-57150000D03*
X115316000Y-59690000D03*
X115316000Y-62230000D03*
X102616000Y-74930000D03*
X100076000Y-77470000D03*
X100076000Y-80010000D03*
X100076000Y-74930000D03*
X100076000Y-72390000D03*
X100076000Y-69850000D03*
X100076000Y-62230000D03*
X100076000Y-59690000D03*
X100076000Y-57150000D03*
X100076000Y-54610000D03*
X115316000Y-67310000D03*
X107950000Y-95631000D03*
X108192500Y-93102500D03*
D22*
X108127800Y-77241400D03*
X105918000Y-91236800D03*
X108712000Y-88366600D03*
X105918000Y-85877400D03*
D21*
X110363000Y-78714600D03*
X110591600Y-81838800D03*
X110972600Y-79451200D03*
X110769400Y-84785200D03*
X107188000Y-96443800D03*
X112750600Y-90220800D03*
X110642400Y-73888600D03*
X107188000Y-95250000D03*
X110871000Y-89636600D03*
X109067600Y-69519800D03*
X110820200Y-95250000D03*
X111887000Y-89916000D03*
X110363000Y-71983600D03*
X105054400Y-93980000D03*
X107188000Y-93980000D03*
X104140000Y-71501000D03*
X104140000Y-82296000D03*
X103886000Y-72313800D03*
X104165400Y-80238600D03*
X103632000Y-73126600D03*
X103492300Y-78651100D03*
X111093200Y-70720000D03*
X111582200Y-71526400D03*
X112064800Y-72339200D03*
X105029000Y-68478400D03*
X105486200Y-64541400D03*
X106553000Y-71501000D03*
X104038400Y-69113400D03*
X106222800Y-82321400D03*
X107670600Y-82321400D03*
X105638600Y-81051400D03*
X103606600Y-90754200D03*
X106222800Y-78968600D03*
X106946010Y-81699790D03*
X112547400Y-73126600D03*
X112623600Y-74041000D03*
X110363000Y-71170800D03*
X106680000Y-58674000D03*
X105862389Y-70489811D03*
X105841800Y-69189600D03*
D23*
X108159500Y-74295798D02*
X108159500Y-75370000D01*
X107004798Y-73850500D02*
X107353100Y-73850500D01*
X106559500Y-75370000D02*
X106559500Y-74295798D01*
X107714202Y-73850500D02*
X108159500Y-74295798D01*
X106559500Y-74295798D02*
X107004798Y-73850500D01*
X107359500Y-65407700D02*
X106696400Y-64744600D01*
X107359500Y-66870000D02*
X107359500Y-65407700D01*
D24*
X103877000Y-84836000D02*
X103877000Y-84836000D01*
X107873800Y-80476200D02*
X107873800Y-80476200D01*
X103581200Y-97866200D02*
X105410000Y-99695000D01*
X103581200Y-96697800D02*
X103581200Y-97866200D01*
D23*
X107353100Y-73850500D02*
X107714202Y-73850500D01*
X107359500Y-73844100D02*
X107353100Y-73850500D01*
D24*
X103877000Y-84836000D02*
X103877000Y-86918800D01*
X107873800Y-80476200D02*
X112039400Y-80476200D01*
D25*
X110404400Y-64907200D02*
X110403600Y-64907200D01*
X110403600Y-64907200D02*
X109931200Y-65379600D01*
X109931200Y-65379600D02*
X109931200Y-65379600D01*
D23*
X107359500Y-76658000D02*
X107727000Y-77025500D01*
X107359500Y-75370000D02*
X107359500Y-76658000D01*
X108592000Y-77025500D02*
X108959500Y-76658000D01*
X108959500Y-76658000D02*
X108959500Y-75370000D01*
D24*
X105927000Y-84836000D02*
X105927000Y-84836000D01*
D23*
X108127800Y-77597200D02*
X108127800Y-77241400D01*
X107873800Y-78426200D02*
X107873800Y-77851200D01*
X107873800Y-77851200D02*
X108127800Y-77597200D01*
X107727000Y-77025500D02*
X108127800Y-77241400D01*
X108127800Y-77241400D02*
X108592000Y-77025500D01*
X108127800Y-77241400D02*
X108127800Y-77241400D01*
D24*
X105927000Y-84836000D02*
X105927000Y-91084400D01*
D23*
X109759500Y-67989571D02*
X109759500Y-66870000D01*
X108737167Y-68831399D02*
X108917672Y-68831399D01*
X108379199Y-69189367D02*
X108988566Y-68580000D01*
X108379199Y-72456970D02*
X108379199Y-69189367D01*
X108959500Y-73037271D02*
X108379199Y-72456970D01*
X108959500Y-75370000D02*
X108959500Y-73037271D01*
X109220000Y-68580000D02*
X109759500Y-67989571D01*
X108988566Y-68580000D02*
X109220000Y-68580000D01*
X108917672Y-68831399D02*
X109220000Y-68580000D01*
X109759500Y-78229100D02*
X109956600Y-78426200D01*
X109759500Y-75370000D02*
X109759500Y-78229100D01*
X108587999Y-83562399D02*
X109182798Y-82967600D01*
X108587999Y-85240199D02*
X108587999Y-83562399D01*
X109182798Y-82967600D02*
X109432000Y-82967600D01*
X108804600Y-85456800D02*
X108587999Y-85240199D01*
X108804600Y-86156800D02*
X108804600Y-85456800D01*
D25*
X109432000Y-82229600D02*
X109432000Y-82967600D01*
X109822800Y-81838800D02*
X109432000Y-82229600D01*
X110591600Y-81838800D02*
X109822800Y-81838800D01*
D23*
X110559500Y-75370000D02*
X110559500Y-75888500D01*
X112039400Y-77368400D02*
X112039400Y-78426200D01*
X110559500Y-75888500D02*
X112039400Y-77368400D01*
X110532000Y-85834200D02*
X110854600Y-86156800D01*
X110532000Y-84367600D02*
X110532000Y-85834200D01*
D25*
X112039400Y-78426200D02*
X111921400Y-78426200D01*
X112039400Y-79001200D02*
X111589400Y-79451200D01*
X112039400Y-78426200D02*
X112039400Y-79001200D01*
X111589400Y-79451200D02*
X110998000Y-79451200D01*
X110998000Y-79451200D02*
X110972600Y-79451200D01*
D23*
X110645234Y-96443800D02*
X111915421Y-95173613D01*
X107188000Y-96443800D02*
X110645234Y-96443800D01*
X111915421Y-95173613D02*
X111915421Y-93266567D01*
X111915421Y-93266567D02*
X111915421Y-91211400D01*
D26*
X111915421Y-91211400D02*
X111915421Y-91055979D01*
X111915421Y-91055979D02*
X112750600Y-90220800D01*
X112750600Y-90220800D02*
X112750600Y-90220800D01*
D25*
X110398001Y-73644201D02*
X110642400Y-73888600D01*
X109239991Y-72486191D02*
X110398001Y-73644201D01*
X109239991Y-70199230D02*
X109239991Y-72486191D01*
X111119221Y-68320000D02*
X109239991Y-70199230D01*
X112009500Y-68320000D02*
X111119221Y-68320000D01*
D23*
X107188000Y-95250000D02*
X107188000Y-95199200D01*
X107188000Y-95199200D02*
X107719190Y-94668010D01*
X108971583Y-94668010D02*
X110539401Y-93100192D01*
X107719190Y-94668010D02*
X108971583Y-94668010D01*
X110539401Y-93100192D02*
X110539401Y-92696601D01*
X110539401Y-92696601D02*
X110539401Y-91135200D01*
D26*
X110539401Y-91135200D02*
X110539401Y-89968199D01*
X110539401Y-89968199D02*
X110871000Y-89636600D01*
X110871000Y-89636600D02*
X110871000Y-89636600D01*
D25*
X110559500Y-68189571D02*
X110559500Y-66870000D01*
X109473670Y-69275401D02*
X110559500Y-68189571D01*
X109311999Y-69275401D02*
X109473670Y-69275401D01*
X109067600Y-69519800D02*
X109311999Y-69275401D01*
D23*
X110820200Y-95250000D02*
X111227411Y-94842789D01*
X111227411Y-94842789D02*
X111227411Y-92981584D01*
X111227411Y-92981584D02*
X111227411Y-91186000D01*
D26*
X111227411Y-91186000D02*
X111227411Y-90575589D01*
X111227411Y-90575589D02*
X111887000Y-89916000D01*
X111887000Y-89916000D02*
X111887000Y-89916000D01*
D25*
X112009500Y-69120000D02*
X111009371Y-69120000D01*
X111009371Y-69120000D02*
X109728000Y-70401371D01*
X110017367Y-71983600D02*
X110363000Y-71983600D01*
X109728000Y-71694233D02*
X110017367Y-71983600D01*
X109728000Y-70401371D02*
X109728000Y-71694233D01*
D23*
X103877000Y-89119600D02*
X103877000Y-89001600D01*
X104896010Y-90138610D02*
X103877000Y-89119600D01*
X105054400Y-93980000D02*
X104896010Y-93821610D01*
X104896010Y-93821610D02*
X104896010Y-90138610D01*
X104896010Y-87991590D02*
X104896010Y-83890210D01*
X103877000Y-82871200D02*
X103877000Y-82740500D01*
X103877000Y-89001600D02*
X103886000Y-89001600D01*
X104896010Y-83890210D02*
X103877000Y-82871200D01*
X103886000Y-89001600D02*
X104896010Y-87991590D01*
X107188000Y-93980000D02*
X108686600Y-93980000D01*
X109245400Y-93421200D02*
X109245400Y-91691400D01*
X108686600Y-93980000D02*
X109245400Y-93421200D01*
D25*
X112009500Y-70720000D02*
X111093200Y-70720000D01*
D23*
X103509500Y-70720000D02*
X104797500Y-70720000D01*
X105029000Y-70488500D02*
X105029000Y-68478400D01*
X105029000Y-68478400D02*
X105029000Y-68478400D01*
X104797500Y-70720000D02*
X105029000Y-70488500D01*
X110404400Y-62821200D02*
X108407200Y-60824000D01*
X110404400Y-63007200D02*
X110404400Y-62821200D01*
X112404400Y-64144400D02*
X114300000Y-66040000D01*
X112404400Y-63957200D02*
X112404400Y-64144400D01*
D25*
X106951940Y-62874000D02*
X105486200Y-64339740D01*
X108407200Y-62874000D02*
X106951940Y-62874000D01*
X105486200Y-64339740D02*
X105486200Y-64541400D01*
X105486200Y-64541400D02*
X105486200Y-64541400D01*
D23*
X105759500Y-75370000D02*
X105759500Y-72383900D01*
X105759500Y-72383900D02*
X105759500Y-72294500D01*
X105759500Y-72294500D02*
X106553000Y-71501000D01*
X106553000Y-71501000D02*
X106553000Y-71501000D01*
X101219000Y-81280000D02*
X102489000Y-80010000D01*
X102489000Y-80010000D02*
X102489000Y-76327000D01*
X103446000Y-75370000D02*
X104959500Y-75370000D01*
X102489000Y-76327000D02*
X103446000Y-75370000D01*
X103151011Y-59379018D02*
X102463600Y-58691608D01*
X103151011Y-60946026D02*
X103151011Y-59379018D01*
X103839620Y-61634634D02*
X103151011Y-60946026D01*
X105759500Y-65795798D02*
X105470302Y-65506600D01*
X102463600Y-57124600D02*
X101219000Y-55880000D01*
X105470302Y-65506600D02*
X104546400Y-65506600D01*
X102463600Y-58691608D02*
X102463600Y-57124600D01*
X104546400Y-65506600D02*
X103839620Y-64799820D01*
X105759500Y-66870000D02*
X105759500Y-65795798D01*
X103839620Y-64799820D02*
X103839620Y-61634634D01*
X104673400Y-67156100D02*
X104959500Y-66870000D01*
X104673400Y-67335400D02*
X104673400Y-67156100D01*
X102463001Y-59664001D02*
X102463001Y-61231009D01*
X103657400Y-67335400D02*
X104673400Y-67335400D01*
X102463001Y-61231009D02*
X103151610Y-61919617D01*
X103151610Y-61919617D02*
X103151610Y-66829610D01*
X101219000Y-58420000D02*
X102463001Y-59664001D01*
X103151610Y-66829610D02*
X103657400Y-67335400D01*
X103509500Y-68320000D02*
X103245000Y-68320000D01*
X102991000Y-68320000D02*
X103509500Y-68320000D01*
X102463600Y-67792600D02*
X102991000Y-68320000D01*
X101219000Y-60960000D02*
X102463600Y-62204600D01*
X102463600Y-62204600D02*
X102463600Y-67792600D01*
X102419000Y-69920000D02*
X101219000Y-71120000D01*
X103509500Y-69920000D02*
X102419000Y-69920000D01*
X101479000Y-73920000D02*
X101219000Y-73660000D01*
X103509500Y-73920000D02*
X101479000Y-73920000D01*
X107670600Y-82321400D02*
X107670600Y-82321400D01*
X109220000Y-99494634D02*
X109220000Y-99695000D01*
X106499599Y-96774233D02*
X109220000Y-99494634D01*
X106499599Y-93677801D02*
X106499599Y-96774233D01*
X107670600Y-82321400D02*
X107670600Y-92506800D01*
X107670600Y-92506800D02*
X106499599Y-93677801D01*
X108159500Y-65455800D02*
X108746400Y-64868900D01*
X108159500Y-66870000D02*
X108159500Y-65455800D01*
X106680000Y-98987894D02*
X106218706Y-98526600D01*
X106680000Y-99695000D02*
X106680000Y-98987894D01*
X103877000Y-95495000D02*
X103877000Y-91084400D01*
X104465210Y-96083210D02*
X103877000Y-95495000D01*
X106207214Y-98526600D02*
X106218706Y-98526600D01*
X104465210Y-96784596D02*
X106207214Y-98526600D01*
X104465210Y-96083210D02*
X104465210Y-96784596D01*
X107950000Y-99197626D02*
X105811589Y-97059216D01*
X107950000Y-99695000D02*
X107950000Y-99197626D01*
X105811589Y-97059216D02*
X105811589Y-93649800D01*
X106946010Y-92258397D02*
X106946010Y-85787810D01*
X105811589Y-93649800D02*
X105811589Y-93392818D01*
X105811589Y-93392818D02*
X106946010Y-92258397D01*
X106946010Y-85787810D02*
X106946010Y-81699790D01*
X106946010Y-81699790D02*
X106946010Y-81699790D01*
X104359600Y-57260600D02*
X105587800Y-56032400D01*
X104359600Y-59080400D02*
X104359600Y-57260600D01*
D25*
X112009500Y-69920000D02*
X110921500Y-69920000D01*
X110921500Y-69920000D02*
X110363000Y-70478500D01*
X110363000Y-70478500D02*
X110363000Y-71170800D01*
X110363000Y-71170800D02*
X110363000Y-71170800D01*
X108959500Y-66870000D02*
X108959500Y-67764202D01*
X107670600Y-68681600D02*
X105862389Y-70489811D01*
X108042102Y-68681600D02*
X108959500Y-67764202D01*
X107670600Y-68681600D02*
X108042102Y-68681600D01*
X106559500Y-68471900D02*
X105841800Y-69189600D01*
X106559500Y-66870000D02*
X106559500Y-68471900D01*
D27*
X102944780Y-81095001D02*
X102956448Y-81213464D01*
X102991002Y-81327374D01*
X103047115Y-81432354D01*
X103122630Y-81524370D01*
X103214646Y-81599885D01*
X103319626Y-81655998D01*
X103433536Y-81690552D01*
X103455852Y-81692750D01*
X103433536Y-81694948D01*
X103319626Y-81729502D01*
X103214646Y-81785615D01*
X103122630Y-81861130D01*
X103047115Y-81953146D01*
X102991002Y-82058126D01*
X102956448Y-82172036D01*
X102944780Y-82290499D01*
X102944780Y-83190501D01*
X102956448Y-83308964D01*
X102991002Y-83422874D01*
X103047115Y-83527854D01*
X103067336Y-83552494D01*
X103061089Y-83554389D01*
X102952251Y-83612564D01*
X102856854Y-83690854D01*
X102778564Y-83786251D01*
X102720389Y-83895089D01*
X102684565Y-84013185D01*
X102672469Y-84136000D01*
X102675500Y-84543875D01*
X102832125Y-84700500D01*
X103741500Y-84700500D01*
X103741500Y-84680500D01*
X104012500Y-84680500D01*
X104012500Y-84700500D01*
X104032500Y-84700500D01*
X104032500Y-84971500D01*
X104012500Y-84971500D01*
X104012500Y-86783300D01*
X104032500Y-86783300D01*
X104032500Y-87054300D01*
X104012500Y-87054300D01*
X104012500Y-87074300D01*
X103741500Y-87074300D01*
X103741500Y-87054300D01*
X102832125Y-87054300D01*
X102675500Y-87210925D01*
X102672469Y-87618800D01*
X102684565Y-87741615D01*
X102720389Y-87859711D01*
X102778564Y-87968549D01*
X102856854Y-88063946D01*
X102952251Y-88142236D01*
X103059268Y-88199438D01*
X103047115Y-88214246D01*
X102991002Y-88319226D01*
X102956448Y-88433136D01*
X102944780Y-88551599D01*
X102944780Y-89451601D01*
X102956448Y-89570064D01*
X102991002Y-89683974D01*
X103047115Y-89788954D01*
X103122630Y-89880970D01*
X103214646Y-89956485D01*
X103319626Y-90012598D01*
X103419849Y-90043000D01*
X103319626Y-90073402D01*
X103214646Y-90129515D01*
X103122630Y-90205030D01*
X103047115Y-90297046D01*
X102991002Y-90402026D01*
X102956448Y-90515936D01*
X102944780Y-90634399D01*
X102944780Y-91534401D01*
X102956448Y-91652864D01*
X102991002Y-91766774D01*
X103047115Y-91871754D01*
X103122630Y-91963770D01*
X103214646Y-92039285D01*
X103277501Y-92072882D01*
X103277500Y-95465564D01*
X103274601Y-95495000D01*
X103277500Y-95524436D01*
X103277500Y-95524443D01*
X103286175Y-95612521D01*
X103320455Y-95725527D01*
X103376123Y-95829675D01*
X103451039Y-95920961D01*
X103473914Y-95939734D01*
X103865710Y-96331531D01*
X103865710Y-96755160D01*
X103862811Y-96784596D01*
X103865710Y-96814032D01*
X103865710Y-96814040D01*
X103874385Y-96902118D01*
X103908665Y-97015124D01*
X103964334Y-97119272D01*
X104039250Y-97210557D01*
X104062120Y-97229326D01*
X105401293Y-98568500D01*
X105274498Y-98568500D01*
X105274498Y-98725123D01*
X105117875Y-98568500D01*
X104910000Y-98565469D01*
X104787185Y-98577565D01*
X104669089Y-98613389D01*
X104560251Y-98671564D01*
X104464854Y-98749854D01*
X104386564Y-98845251D01*
X104328389Y-98954089D01*
X104292565Y-99072185D01*
X104280469Y-99195000D01*
X104283500Y-99402875D01*
X104440125Y-99559500D01*
X105274500Y-99559500D01*
X105274500Y-99539500D01*
X105545500Y-99539500D01*
X105545500Y-99559500D01*
X105565500Y-99559500D01*
X105565500Y-99830500D01*
X105545500Y-99830500D01*
X105545500Y-99850500D01*
X105274500Y-99850500D01*
X105274500Y-99830500D01*
X104440125Y-99830500D01*
X104283500Y-99987125D01*
X104280469Y-100195000D01*
X104281306Y-100203500D01*
X101393135Y-100203500D01*
X101556047Y-100171095D01*
X101766335Y-100083991D01*
X101955588Y-99957535D01*
X102116535Y-99796588D01*
X102242991Y-99607335D01*
X102330095Y-99397047D01*
X102374500Y-99173807D01*
X102374500Y-98946193D01*
X102330095Y-98722953D01*
X102242991Y-98512665D01*
X102116535Y-98323412D01*
X101955588Y-98162465D01*
X101766335Y-98036009D01*
X101556047Y-97948905D01*
X101332807Y-97904500D01*
X101105193Y-97904500D01*
X100881953Y-97948905D01*
X100671665Y-98036009D01*
X100482412Y-98162465D01*
X100321465Y-98323412D01*
X100195009Y-98512665D01*
X100139500Y-98646676D01*
X100083991Y-98512665D01*
X99957535Y-98323412D01*
X99796588Y-98162465D01*
X99607335Y-98036009D01*
X99397047Y-97948905D01*
X99173807Y-97904500D01*
X98946193Y-97904500D01*
X98722953Y-97948905D01*
X98512665Y-98036009D01*
X98323412Y-98162465D01*
X98170500Y-98315377D01*
X98170500Y-97264623D01*
X98323412Y-97417535D01*
X98512665Y-97543991D01*
X98722953Y-97631095D01*
X98946193Y-97675500D01*
X99173807Y-97675500D01*
X99397047Y-97631095D01*
X99607335Y-97543991D01*
X99796588Y-97417535D01*
X99957535Y-97256588D01*
X100083991Y-97067335D01*
X100139500Y-96933324D01*
X100195009Y-97067335D01*
X100321465Y-97256588D01*
X100482412Y-97417535D01*
X100671665Y-97543991D01*
X100881953Y-97631095D01*
X101105193Y-97675500D01*
X101332807Y-97675500D01*
X101556047Y-97631095D01*
X101766335Y-97543991D01*
X101955588Y-97417535D01*
X102116535Y-97256588D01*
X102242991Y-97067335D01*
X102330095Y-96857047D01*
X102374500Y-96633807D01*
X102374500Y-96406193D01*
X102330095Y-96182953D01*
X102242991Y-95972665D01*
X102116535Y-95783412D01*
X101955588Y-95622465D01*
X101766335Y-95496009D01*
X101556047Y-95408905D01*
X101332807Y-95364500D01*
X101105193Y-95364500D01*
X100881953Y-95408905D01*
X100671665Y-95496009D01*
X100482412Y-95622465D01*
X100321465Y-95783412D01*
X100195009Y-95972665D01*
X100139500Y-96106676D01*
X100083991Y-95972665D01*
X99957535Y-95783412D01*
X99796588Y-95622465D01*
X99607335Y-95496009D01*
X99397047Y-95408905D01*
X99173807Y-95364500D01*
X98946193Y-95364500D01*
X98722953Y-95408905D01*
X98512665Y-95496009D01*
X98323412Y-95622465D01*
X98170500Y-95775377D01*
X98170500Y-94724623D01*
X98323412Y-94877535D01*
X98512665Y-95003991D01*
X98722953Y-95091095D01*
X98946193Y-95135500D01*
X99173807Y-95135500D01*
X99397047Y-95091095D01*
X99607335Y-95003991D01*
X99796588Y-94877535D01*
X99957535Y-94716588D01*
X100083991Y-94527335D01*
X100139500Y-94393324D01*
X100195009Y-94527335D01*
X100321465Y-94716588D01*
X100482412Y-94877535D01*
X100671665Y-95003991D01*
X100881953Y-95091095D01*
X101105193Y-95135500D01*
X101332807Y-95135500D01*
X101556047Y-95091095D01*
X101766335Y-95003991D01*
X101955588Y-94877535D01*
X102116535Y-94716588D01*
X102242991Y-94527335D01*
X102330095Y-94317047D01*
X102374500Y-94093807D01*
X102374500Y-93866193D01*
X102330095Y-93642953D01*
X102242991Y-93432665D01*
X102116535Y-93243412D01*
X101955588Y-93082465D01*
X101766335Y-92956009D01*
X101556047Y-92868905D01*
X101332807Y-92824500D01*
X101105193Y-92824500D01*
X100881953Y-92868905D01*
X100671665Y-92956009D01*
X100482412Y-93082465D01*
X100321465Y-93243412D01*
X100195009Y-93432665D01*
X100139500Y-93566676D01*
X100083991Y-93432665D01*
X99957535Y-93243412D01*
X99796588Y-93082465D01*
X99607335Y-92956009D01*
X99397047Y-92868905D01*
X99173807Y-92824500D01*
X98946193Y-92824500D01*
X98722953Y-92868905D01*
X98512665Y-92956009D01*
X98323412Y-93082465D01*
X98170500Y-93235377D01*
X98170500Y-92184623D01*
X98323412Y-92337535D01*
X98512665Y-92463991D01*
X98722953Y-92551095D01*
X98946193Y-92595500D01*
X99173807Y-92595500D01*
X99397047Y-92551095D01*
X99607335Y-92463991D01*
X99796588Y-92337535D01*
X99957535Y-92176588D01*
X100083991Y-91987335D01*
X100139500Y-91853324D01*
X100195009Y-91987335D01*
X100321465Y-92176588D01*
X100482412Y-92337535D01*
X100671665Y-92463991D01*
X100881953Y-92551095D01*
X101105193Y-92595500D01*
X101332807Y-92595500D01*
X101556047Y-92551095D01*
X101766335Y-92463991D01*
X101955588Y-92337535D01*
X102116535Y-92176588D01*
X102242991Y-91987335D01*
X102330095Y-91777047D01*
X102374500Y-91553807D01*
X102374500Y-91326193D01*
X102330095Y-91102953D01*
X102242991Y-90892665D01*
X102116535Y-90703412D01*
X101955588Y-90542465D01*
X101766335Y-90416009D01*
X101556047Y-90328905D01*
X101332807Y-90284500D01*
X101105193Y-90284500D01*
X100881953Y-90328905D01*
X100671665Y-90416009D01*
X100482412Y-90542465D01*
X100321465Y-90703412D01*
X100195009Y-90892665D01*
X100139500Y-91026676D01*
X100083991Y-90892665D01*
X99957535Y-90703412D01*
X99796588Y-90542465D01*
X99607335Y-90416009D01*
X99397047Y-90328905D01*
X99173807Y-90284500D01*
X98946193Y-90284500D01*
X98722953Y-90328905D01*
X98512665Y-90416009D01*
X98323412Y-90542465D01*
X98170500Y-90695377D01*
X98170500Y-89644623D01*
X98323412Y-89797535D01*
X98512665Y-89923991D01*
X98722953Y-90011095D01*
X98946193Y-90055500D01*
X99173807Y-90055500D01*
X99397047Y-90011095D01*
X99607335Y-89923991D01*
X99796588Y-89797535D01*
X99957535Y-89636588D01*
X100083991Y-89447335D01*
X100139500Y-89313324D01*
X100195009Y-89447335D01*
X100321465Y-89636588D01*
X100482412Y-89797535D01*
X100671665Y-89923991D01*
X100881953Y-90011095D01*
X101105193Y-90055500D01*
X101332807Y-90055500D01*
X101556047Y-90011095D01*
X101766335Y-89923991D01*
X101955588Y-89797535D01*
X102116535Y-89636588D01*
X102242991Y-89447335D01*
X102330095Y-89237047D01*
X102374500Y-89013807D01*
X102374500Y-88786193D01*
X102330095Y-88562953D01*
X102242991Y-88352665D01*
X102116535Y-88163412D01*
X101955588Y-88002465D01*
X101766335Y-87876009D01*
X101556047Y-87788905D01*
X101332807Y-87744500D01*
X101105193Y-87744500D01*
X100881953Y-87788905D01*
X100671665Y-87876009D01*
X100482412Y-88002465D01*
X100321465Y-88163412D01*
X100195009Y-88352665D01*
X100139500Y-88486676D01*
X100083991Y-88352665D01*
X99957535Y-88163412D01*
X99796588Y-88002465D01*
X99607335Y-87876009D01*
X99397047Y-87788905D01*
X99173807Y-87744500D01*
X98946193Y-87744500D01*
X98722953Y-87788905D01*
X98512665Y-87876009D01*
X98323412Y-88002465D01*
X98170500Y-88155377D01*
X98170500Y-87104623D01*
X98323412Y-87257535D01*
X98512665Y-87383991D01*
X98722953Y-87471095D01*
X98946193Y-87515500D01*
X99173807Y-87515500D01*
X99397047Y-87471095D01*
X99607335Y-87383991D01*
X99796588Y-87257535D01*
X99957535Y-87096588D01*
X100083991Y-86907335D01*
X100139500Y-86773324D01*
X100195009Y-86907335D01*
X100321465Y-87096588D01*
X100482412Y-87257535D01*
X100671665Y-87383991D01*
X100881953Y-87471095D01*
X101105193Y-87515500D01*
X101332807Y-87515500D01*
X101556047Y-87471095D01*
X101766335Y-87383991D01*
X101955588Y-87257535D01*
X102116535Y-87096588D01*
X102242991Y-86907335D01*
X102330095Y-86697047D01*
X102374500Y-86473807D01*
X102374500Y-86246193D01*
X102330095Y-86022953D01*
X102242991Y-85812665D01*
X102116535Y-85623412D01*
X102029123Y-85536000D01*
X102672469Y-85536000D01*
X102684565Y-85658815D01*
X102720389Y-85776911D01*
X102774101Y-85877400D01*
X102720389Y-85977889D01*
X102684565Y-86095985D01*
X102672469Y-86218800D01*
X102675500Y-86626675D01*
X102832125Y-86783300D01*
X103741500Y-86783300D01*
X103741500Y-84971500D01*
X102832125Y-84971500D01*
X102675500Y-85128125D01*
X102672469Y-85536000D01*
X102029123Y-85536000D01*
X101955588Y-85462465D01*
X101766335Y-85336009D01*
X101556047Y-85248905D01*
X101332807Y-85204500D01*
X101105193Y-85204500D01*
X100881953Y-85248905D01*
X100671665Y-85336009D01*
X100482412Y-85462465D01*
X100321465Y-85623412D01*
X100195009Y-85812665D01*
X100139500Y-85946676D01*
X100083991Y-85812665D01*
X99957535Y-85623412D01*
X99796588Y-85462465D01*
X99607335Y-85336009D01*
X99397047Y-85248905D01*
X99173807Y-85204500D01*
X98946193Y-85204500D01*
X98722953Y-85248905D01*
X98512665Y-85336009D01*
X98323412Y-85462465D01*
X98170500Y-85615377D01*
X98170500Y-84564623D01*
X98323412Y-84717535D01*
X98512665Y-84843991D01*
X98722953Y-84931095D01*
X98946193Y-84975500D01*
X99173807Y-84975500D01*
X99397047Y-84931095D01*
X99607335Y-84843991D01*
X99796588Y-84717535D01*
X99957535Y-84556588D01*
X100083991Y-84367335D01*
X100139500Y-84233324D01*
X100195009Y-84367335D01*
X100321465Y-84556588D01*
X100482412Y-84717535D01*
X100671665Y-84843991D01*
X100881953Y-84931095D01*
X101105193Y-84975500D01*
X101332807Y-84975500D01*
X101556047Y-84931095D01*
X101766335Y-84843991D01*
X101955588Y-84717535D01*
X102116535Y-84556588D01*
X102242991Y-84367335D01*
X102330095Y-84157047D01*
X102374500Y-83933807D01*
X102374500Y-83706193D01*
X102330095Y-83482953D01*
X102242991Y-83272665D01*
X102116535Y-83083412D01*
X101955588Y-82922465D01*
X101766335Y-82796009D01*
X101556047Y-82708905D01*
X101332807Y-82664500D01*
X101105193Y-82664500D01*
X100881953Y-82708905D01*
X100671665Y-82796009D01*
X100482412Y-82922465D01*
X100321465Y-83083412D01*
X100195009Y-83272665D01*
X100139500Y-83406676D01*
X100083991Y-83272665D01*
X99957535Y-83083412D01*
X99796588Y-82922465D01*
X99607335Y-82796009D01*
X99397047Y-82708905D01*
X99173807Y-82664500D01*
X98946193Y-82664500D01*
X98722953Y-82708905D01*
X98512665Y-82796009D01*
X98323412Y-82922465D01*
X98170500Y-83075377D01*
X98170500Y-82024623D01*
X98323412Y-82177535D01*
X98512665Y-82303991D01*
X98722953Y-82391095D01*
X98946193Y-82435500D01*
X99173807Y-82435500D01*
X99397047Y-82391095D01*
X99607335Y-82303991D01*
X99796588Y-82177535D01*
X99957535Y-82016588D01*
X100083991Y-81827335D01*
X100139500Y-81693324D01*
X100195009Y-81827335D01*
X100321465Y-82016588D01*
X100482412Y-82177535D01*
X100671665Y-82303991D01*
X100881953Y-82391095D01*
X101105193Y-82435500D01*
X101332807Y-82435500D01*
X101556047Y-82391095D01*
X101766335Y-82303991D01*
X101955588Y-82177535D01*
X102116535Y-82016588D01*
X102242991Y-81827335D01*
X102330095Y-81617047D01*
X102374500Y-81393807D01*
X102374500Y-81166193D01*
X102342335Y-81004486D01*
X102892092Y-80454729D01*
X102914961Y-80435961D01*
X102944780Y-80399627D01*
X102944780Y-81095001D01*
G04 #@! TA.AperFunction,Conductor*
D28*
G36*
X102944780Y-81095001D02*
G01*
X102956448Y-81213464D01*
X102991002Y-81327374D01*
X103047115Y-81432354D01*
X103122630Y-81524370D01*
X103214646Y-81599885D01*
X103319626Y-81655998D01*
X103433536Y-81690552D01*
X103455852Y-81692750D01*
X103433536Y-81694948D01*
X103319626Y-81729502D01*
X103214646Y-81785615D01*
X103122630Y-81861130D01*
X103047115Y-81953146D01*
X102991002Y-82058126D01*
X102956448Y-82172036D01*
X102944780Y-82290499D01*
X102944780Y-83190501D01*
X102956448Y-83308964D01*
X102991002Y-83422874D01*
X103047115Y-83527854D01*
X103067336Y-83552494D01*
X103061089Y-83554389D01*
X102952251Y-83612564D01*
X102856854Y-83690854D01*
X102778564Y-83786251D01*
X102720389Y-83895089D01*
X102684565Y-84013185D01*
X102672469Y-84136000D01*
X102675500Y-84543875D01*
X102832125Y-84700500D01*
X103741500Y-84700500D01*
X103741500Y-84680500D01*
X104012500Y-84680500D01*
X104012500Y-84700500D01*
X104032500Y-84700500D01*
X104032500Y-84971500D01*
X104012500Y-84971500D01*
X104012500Y-86783300D01*
X104032500Y-86783300D01*
X104032500Y-87054300D01*
X104012500Y-87054300D01*
X104012500Y-87074300D01*
X103741500Y-87074300D01*
X103741500Y-87054300D01*
X102832125Y-87054300D01*
X102675500Y-87210925D01*
X102672469Y-87618800D01*
X102684565Y-87741615D01*
X102720389Y-87859711D01*
X102778564Y-87968549D01*
X102856854Y-88063946D01*
X102952251Y-88142236D01*
X103059268Y-88199438D01*
X103047115Y-88214246D01*
X102991002Y-88319226D01*
X102956448Y-88433136D01*
X102944780Y-88551599D01*
X102944780Y-89451601D01*
X102956448Y-89570064D01*
X102991002Y-89683974D01*
X103047115Y-89788954D01*
X103122630Y-89880970D01*
X103214646Y-89956485D01*
X103319626Y-90012598D01*
X103419849Y-90043000D01*
X103319626Y-90073402D01*
X103214646Y-90129515D01*
X103122630Y-90205030D01*
X103047115Y-90297046D01*
X102991002Y-90402026D01*
X102956448Y-90515936D01*
X102944780Y-90634399D01*
X102944780Y-91534401D01*
X102956448Y-91652864D01*
X102991002Y-91766774D01*
X103047115Y-91871754D01*
X103122630Y-91963770D01*
X103214646Y-92039285D01*
X103277501Y-92072882D01*
X103277500Y-95465564D01*
X103274601Y-95495000D01*
X103277500Y-95524436D01*
X103277500Y-95524443D01*
X103286175Y-95612521D01*
X103320455Y-95725527D01*
X103376123Y-95829675D01*
X103451039Y-95920961D01*
X103473914Y-95939734D01*
X103865710Y-96331531D01*
X103865710Y-96755160D01*
X103862811Y-96784596D01*
X103865710Y-96814032D01*
X103865710Y-96814040D01*
X103874385Y-96902118D01*
X103908665Y-97015124D01*
X103964334Y-97119272D01*
X104039250Y-97210557D01*
X104062120Y-97229326D01*
X105401293Y-98568500D01*
X105274498Y-98568500D01*
X105274498Y-98725123D01*
X105117875Y-98568500D01*
X104910000Y-98565469D01*
X104787185Y-98577565D01*
X104669089Y-98613389D01*
X104560251Y-98671564D01*
X104464854Y-98749854D01*
X104386564Y-98845251D01*
X104328389Y-98954089D01*
X104292565Y-99072185D01*
X104280469Y-99195000D01*
X104283500Y-99402875D01*
X104440125Y-99559500D01*
X105274500Y-99559500D01*
X105274500Y-99539500D01*
X105545500Y-99539500D01*
X105545500Y-99559500D01*
X105565500Y-99559500D01*
X105565500Y-99830500D01*
X105545500Y-99830500D01*
X105545500Y-99850500D01*
X105274500Y-99850500D01*
X105274500Y-99830500D01*
X104440125Y-99830500D01*
X104283500Y-99987125D01*
X104280469Y-100195000D01*
X104281306Y-100203500D01*
X101393135Y-100203500D01*
X101556047Y-100171095D01*
X101766335Y-100083991D01*
X101955588Y-99957535D01*
X102116535Y-99796588D01*
X102242991Y-99607335D01*
X102330095Y-99397047D01*
X102374500Y-99173807D01*
X102374500Y-98946193D01*
X102330095Y-98722953D01*
X102242991Y-98512665D01*
X102116535Y-98323412D01*
X101955588Y-98162465D01*
X101766335Y-98036009D01*
X101556047Y-97948905D01*
X101332807Y-97904500D01*
X101105193Y-97904500D01*
X100881953Y-97948905D01*
X100671665Y-98036009D01*
X100482412Y-98162465D01*
X100321465Y-98323412D01*
X100195009Y-98512665D01*
X100139500Y-98646676D01*
X100083991Y-98512665D01*
X99957535Y-98323412D01*
X99796588Y-98162465D01*
X99607335Y-98036009D01*
X99397047Y-97948905D01*
X99173807Y-97904500D01*
X98946193Y-97904500D01*
X98722953Y-97948905D01*
X98512665Y-98036009D01*
X98323412Y-98162465D01*
X98170500Y-98315377D01*
X98170500Y-97264623D01*
X98323412Y-97417535D01*
X98512665Y-97543991D01*
X98722953Y-97631095D01*
X98946193Y-97675500D01*
X99173807Y-97675500D01*
X99397047Y-97631095D01*
X99607335Y-97543991D01*
X99796588Y-97417535D01*
X99957535Y-97256588D01*
X100083991Y-97067335D01*
X100139500Y-96933324D01*
X100195009Y-97067335D01*
X100321465Y-97256588D01*
X100482412Y-97417535D01*
X100671665Y-97543991D01*
X100881953Y-97631095D01*
X101105193Y-97675500D01*
X101332807Y-97675500D01*
X101556047Y-97631095D01*
X101766335Y-97543991D01*
X101955588Y-97417535D01*
X102116535Y-97256588D01*
X102242991Y-97067335D01*
X102330095Y-96857047D01*
X102374500Y-96633807D01*
X102374500Y-96406193D01*
X102330095Y-96182953D01*
X102242991Y-95972665D01*
X102116535Y-95783412D01*
X101955588Y-95622465D01*
X101766335Y-95496009D01*
X101556047Y-95408905D01*
X101332807Y-95364500D01*
X101105193Y-95364500D01*
X100881953Y-95408905D01*
X100671665Y-95496009D01*
X100482412Y-95622465D01*
X100321465Y-95783412D01*
X100195009Y-95972665D01*
X100139500Y-96106676D01*
X100083991Y-95972665D01*
X99957535Y-95783412D01*
X99796588Y-95622465D01*
X99607335Y-95496009D01*
X99397047Y-95408905D01*
X99173807Y-95364500D01*
X98946193Y-95364500D01*
X98722953Y-95408905D01*
X98512665Y-95496009D01*
X98323412Y-95622465D01*
X98170500Y-95775377D01*
X98170500Y-94724623D01*
X98323412Y-94877535D01*
X98512665Y-95003991D01*
X98722953Y-95091095D01*
X98946193Y-95135500D01*
X99173807Y-95135500D01*
X99397047Y-95091095D01*
X99607335Y-95003991D01*
X99796588Y-94877535D01*
X99957535Y-94716588D01*
X100083991Y-94527335D01*
X100139500Y-94393324D01*
X100195009Y-94527335D01*
X100321465Y-94716588D01*
X100482412Y-94877535D01*
X100671665Y-95003991D01*
X100881953Y-95091095D01*
X101105193Y-95135500D01*
X101332807Y-95135500D01*
X101556047Y-95091095D01*
X101766335Y-95003991D01*
X101955588Y-94877535D01*
X102116535Y-94716588D01*
X102242991Y-94527335D01*
X102330095Y-94317047D01*
X102374500Y-94093807D01*
X102374500Y-93866193D01*
X102330095Y-93642953D01*
X102242991Y-93432665D01*
X102116535Y-93243412D01*
X101955588Y-93082465D01*
X101766335Y-92956009D01*
X101556047Y-92868905D01*
X101332807Y-92824500D01*
X101105193Y-92824500D01*
X100881953Y-92868905D01*
X100671665Y-92956009D01*
X100482412Y-93082465D01*
X100321465Y-93243412D01*
X100195009Y-93432665D01*
X100139500Y-93566676D01*
X100083991Y-93432665D01*
X99957535Y-93243412D01*
X99796588Y-93082465D01*
X99607335Y-92956009D01*
X99397047Y-92868905D01*
X99173807Y-92824500D01*
X98946193Y-92824500D01*
X98722953Y-92868905D01*
X98512665Y-92956009D01*
X98323412Y-93082465D01*
X98170500Y-93235377D01*
X98170500Y-92184623D01*
X98323412Y-92337535D01*
X98512665Y-92463991D01*
X98722953Y-92551095D01*
X98946193Y-92595500D01*
X99173807Y-92595500D01*
X99397047Y-92551095D01*
X99607335Y-92463991D01*
X99796588Y-92337535D01*
X99957535Y-92176588D01*
X100083991Y-91987335D01*
X100139500Y-91853324D01*
X100195009Y-91987335D01*
X100321465Y-92176588D01*
X100482412Y-92337535D01*
X100671665Y-92463991D01*
X100881953Y-92551095D01*
X101105193Y-92595500D01*
X101332807Y-92595500D01*
X101556047Y-92551095D01*
X101766335Y-92463991D01*
X101955588Y-92337535D01*
X102116535Y-92176588D01*
X102242991Y-91987335D01*
X102330095Y-91777047D01*
X102374500Y-91553807D01*
X102374500Y-91326193D01*
X102330095Y-91102953D01*
X102242991Y-90892665D01*
X102116535Y-90703412D01*
X101955588Y-90542465D01*
X101766335Y-90416009D01*
X101556047Y-90328905D01*
X101332807Y-90284500D01*
X101105193Y-90284500D01*
X100881953Y-90328905D01*
X100671665Y-90416009D01*
X100482412Y-90542465D01*
X100321465Y-90703412D01*
X100195009Y-90892665D01*
X100139500Y-91026676D01*
X100083991Y-90892665D01*
X99957535Y-90703412D01*
X99796588Y-90542465D01*
X99607335Y-90416009D01*
X99397047Y-90328905D01*
X99173807Y-90284500D01*
X98946193Y-90284500D01*
X98722953Y-90328905D01*
X98512665Y-90416009D01*
X98323412Y-90542465D01*
X98170500Y-90695377D01*
X98170500Y-89644623D01*
X98323412Y-89797535D01*
X98512665Y-89923991D01*
X98722953Y-90011095D01*
X98946193Y-90055500D01*
X99173807Y-90055500D01*
X99397047Y-90011095D01*
X99607335Y-89923991D01*
X99796588Y-89797535D01*
X99957535Y-89636588D01*
X100083991Y-89447335D01*
X100139500Y-89313324D01*
X100195009Y-89447335D01*
X100321465Y-89636588D01*
X100482412Y-89797535D01*
X100671665Y-89923991D01*
X100881953Y-90011095D01*
X101105193Y-90055500D01*
X101332807Y-90055500D01*
X101556047Y-90011095D01*
X101766335Y-89923991D01*
X101955588Y-89797535D01*
X102116535Y-89636588D01*
X102242991Y-89447335D01*
X102330095Y-89237047D01*
X102374500Y-89013807D01*
X102374500Y-88786193D01*
X102330095Y-88562953D01*
X102242991Y-88352665D01*
X102116535Y-88163412D01*
X101955588Y-88002465D01*
X101766335Y-87876009D01*
X101556047Y-87788905D01*
X101332807Y-87744500D01*
X101105193Y-87744500D01*
X100881953Y-87788905D01*
X100671665Y-87876009D01*
X100482412Y-88002465D01*
X100321465Y-88163412D01*
X100195009Y-88352665D01*
X100139500Y-88486676D01*
X100083991Y-88352665D01*
X99957535Y-88163412D01*
X99796588Y-88002465D01*
X99607335Y-87876009D01*
X99397047Y-87788905D01*
X99173807Y-87744500D01*
X98946193Y-87744500D01*
X98722953Y-87788905D01*
X98512665Y-87876009D01*
X98323412Y-88002465D01*
X98170500Y-88155377D01*
X98170500Y-87104623D01*
X98323412Y-87257535D01*
X98512665Y-87383991D01*
X98722953Y-87471095D01*
X98946193Y-87515500D01*
X99173807Y-87515500D01*
X99397047Y-87471095D01*
X99607335Y-87383991D01*
X99796588Y-87257535D01*
X99957535Y-87096588D01*
X100083991Y-86907335D01*
X100139500Y-86773324D01*
X100195009Y-86907335D01*
X100321465Y-87096588D01*
X100482412Y-87257535D01*
X100671665Y-87383991D01*
X100881953Y-87471095D01*
X101105193Y-87515500D01*
X101332807Y-87515500D01*
X101556047Y-87471095D01*
X101766335Y-87383991D01*
X101955588Y-87257535D01*
X102116535Y-87096588D01*
X102242991Y-86907335D01*
X102330095Y-86697047D01*
X102374500Y-86473807D01*
X102374500Y-86246193D01*
X102330095Y-86022953D01*
X102242991Y-85812665D01*
X102116535Y-85623412D01*
X102029123Y-85536000D01*
X102672469Y-85536000D01*
X102684565Y-85658815D01*
X102720389Y-85776911D01*
X102774101Y-85877400D01*
X102720389Y-85977889D01*
X102684565Y-86095985D01*
X102672469Y-86218800D01*
X102675500Y-86626675D01*
X102832125Y-86783300D01*
X103741500Y-86783300D01*
X103741500Y-84971500D01*
X102832125Y-84971500D01*
X102675500Y-85128125D01*
X102672469Y-85536000D01*
X102029123Y-85536000D01*
X101955588Y-85462465D01*
X101766335Y-85336009D01*
X101556047Y-85248905D01*
X101332807Y-85204500D01*
X101105193Y-85204500D01*
X100881953Y-85248905D01*
X100671665Y-85336009D01*
X100482412Y-85462465D01*
X100321465Y-85623412D01*
X100195009Y-85812665D01*
X100139500Y-85946676D01*
X100083991Y-85812665D01*
X99957535Y-85623412D01*
X99796588Y-85462465D01*
X99607335Y-85336009D01*
X99397047Y-85248905D01*
X99173807Y-85204500D01*
X98946193Y-85204500D01*
X98722953Y-85248905D01*
X98512665Y-85336009D01*
X98323412Y-85462465D01*
X98170500Y-85615377D01*
X98170500Y-84564623D01*
X98323412Y-84717535D01*
X98512665Y-84843991D01*
X98722953Y-84931095D01*
X98946193Y-84975500D01*
X99173807Y-84975500D01*
X99397047Y-84931095D01*
X99607335Y-84843991D01*
X99796588Y-84717535D01*
X99957535Y-84556588D01*
X100083991Y-84367335D01*
X100139500Y-84233324D01*
X100195009Y-84367335D01*
X100321465Y-84556588D01*
X100482412Y-84717535D01*
X100671665Y-84843991D01*
X100881953Y-84931095D01*
X101105193Y-84975500D01*
X101332807Y-84975500D01*
X101556047Y-84931095D01*
X101766335Y-84843991D01*
X101955588Y-84717535D01*
X102116535Y-84556588D01*
X102242991Y-84367335D01*
X102330095Y-84157047D01*
X102374500Y-83933807D01*
X102374500Y-83706193D01*
X102330095Y-83482953D01*
X102242991Y-83272665D01*
X102116535Y-83083412D01*
X101955588Y-82922465D01*
X101766335Y-82796009D01*
X101556047Y-82708905D01*
X101332807Y-82664500D01*
X101105193Y-82664500D01*
X100881953Y-82708905D01*
X100671665Y-82796009D01*
X100482412Y-82922465D01*
X100321465Y-83083412D01*
X100195009Y-83272665D01*
X100139500Y-83406676D01*
X100083991Y-83272665D01*
X99957535Y-83083412D01*
X99796588Y-82922465D01*
X99607335Y-82796009D01*
X99397047Y-82708905D01*
X99173807Y-82664500D01*
X98946193Y-82664500D01*
X98722953Y-82708905D01*
X98512665Y-82796009D01*
X98323412Y-82922465D01*
X98170500Y-83075377D01*
X98170500Y-82024623D01*
X98323412Y-82177535D01*
X98512665Y-82303991D01*
X98722953Y-82391095D01*
X98946193Y-82435500D01*
X99173807Y-82435500D01*
X99397047Y-82391095D01*
X99607335Y-82303991D01*
X99796588Y-82177535D01*
X99957535Y-82016588D01*
X100083991Y-81827335D01*
X100139500Y-81693324D01*
X100195009Y-81827335D01*
X100321465Y-82016588D01*
X100482412Y-82177535D01*
X100671665Y-82303991D01*
X100881953Y-82391095D01*
X101105193Y-82435500D01*
X101332807Y-82435500D01*
X101556047Y-82391095D01*
X101766335Y-82303991D01*
X101955588Y-82177535D01*
X102116535Y-82016588D01*
X102242991Y-81827335D01*
X102330095Y-81617047D01*
X102374500Y-81393807D01*
X102374500Y-81166193D01*
X102342335Y-81004486D01*
X102892092Y-80454729D01*
X102914961Y-80435961D01*
X102944780Y-80399627D01*
X102944780Y-81095001D01*
G37*
G04 #@! TD.AperFunction*
D27*
X115435009Y-74207335D02*
X115561465Y-74396588D01*
X115722412Y-74557535D01*
X115911665Y-74683991D01*
X116121953Y-74771095D01*
X116345193Y-74815500D01*
X116572807Y-74815500D01*
X116796047Y-74771095D01*
X117006335Y-74683991D01*
X117195588Y-74557535D01*
X117281946Y-74471177D01*
X117279827Y-75386704D01*
X117195588Y-75302465D01*
X117006335Y-75176009D01*
X116796047Y-75088905D01*
X116572807Y-75044500D01*
X116345193Y-75044500D01*
X116121953Y-75088905D01*
X115911665Y-75176009D01*
X115722412Y-75302465D01*
X115561465Y-75463412D01*
X115435009Y-75652665D01*
X115379500Y-75786676D01*
X115323991Y-75652665D01*
X115197535Y-75463412D01*
X115036588Y-75302465D01*
X114847335Y-75176009D01*
X114637047Y-75088905D01*
X114413807Y-75044500D01*
X114186193Y-75044500D01*
X113962953Y-75088905D01*
X113752665Y-75176009D01*
X113563412Y-75302465D01*
X113402465Y-75463412D01*
X113276009Y-75652665D01*
X113188905Y-75862953D01*
X113144500Y-76086193D01*
X113144500Y-76313807D01*
X113188905Y-76537047D01*
X113276009Y-76747335D01*
X113402465Y-76936588D01*
X113563412Y-77097535D01*
X113752665Y-77223991D01*
X113962953Y-77311095D01*
X114186193Y-77355500D01*
X114413807Y-77355500D01*
X114637047Y-77311095D01*
X114847335Y-77223991D01*
X115036588Y-77097535D01*
X115197535Y-76936588D01*
X115323991Y-76747335D01*
X115379500Y-76613324D01*
X115435009Y-76747335D01*
X115561465Y-76936588D01*
X115722412Y-77097535D01*
X115911665Y-77223991D01*
X116121953Y-77311095D01*
X116345193Y-77355500D01*
X116572807Y-77355500D01*
X116796047Y-77311095D01*
X117006335Y-77223991D01*
X117195588Y-77097535D01*
X117276053Y-77017070D01*
X117273960Y-77920837D01*
X117195588Y-77842465D01*
X117006335Y-77716009D01*
X116796047Y-77628905D01*
X116572807Y-77584500D01*
X116345193Y-77584500D01*
X116121953Y-77628905D01*
X115911665Y-77716009D01*
X115722412Y-77842465D01*
X115561465Y-78003412D01*
X115435009Y-78192665D01*
X115379500Y-78326676D01*
X115323991Y-78192665D01*
X115197535Y-78003412D01*
X115036588Y-77842465D01*
X114847335Y-77716009D01*
X114637047Y-77628905D01*
X114413807Y-77584500D01*
X114186193Y-77584500D01*
X113962953Y-77628905D01*
X113752665Y-77716009D01*
X113563412Y-77842465D01*
X113402465Y-78003412D01*
X113276009Y-78192665D01*
X113188905Y-78402953D01*
X113144500Y-78626193D01*
X113144500Y-78853807D01*
X113188905Y-79077047D01*
X113276009Y-79287335D01*
X113402465Y-79476588D01*
X113563412Y-79637535D01*
X113752665Y-79763991D01*
X113962953Y-79851095D01*
X114186193Y-79895500D01*
X114413807Y-79895500D01*
X114637047Y-79851095D01*
X114847335Y-79763991D01*
X115036588Y-79637535D01*
X115197535Y-79476588D01*
X115323991Y-79287335D01*
X115379500Y-79153324D01*
X115435009Y-79287335D01*
X115561465Y-79476588D01*
X115722412Y-79637535D01*
X115911665Y-79763991D01*
X116121953Y-79851095D01*
X116345193Y-79895500D01*
X116572807Y-79895500D01*
X116796047Y-79851095D01*
X117006335Y-79763991D01*
X117195588Y-79637535D01*
X117270159Y-79562964D01*
X117268094Y-80454971D01*
X117195588Y-80382465D01*
X117006335Y-80256009D01*
X116796047Y-80168905D01*
X116572807Y-80124500D01*
X116345193Y-80124500D01*
X116121953Y-80168905D01*
X115911665Y-80256009D01*
X115722412Y-80382465D01*
X115561465Y-80543412D01*
X115435009Y-80732665D01*
X115379500Y-80866676D01*
X115323991Y-80732665D01*
X115197535Y-80543412D01*
X115036588Y-80382465D01*
X114847335Y-80256009D01*
X114637047Y-80168905D01*
X114413807Y-80124500D01*
X114186193Y-80124500D01*
X113962953Y-80168905D01*
X113752665Y-80256009D01*
X113563412Y-80382465D01*
X113402465Y-80543412D01*
X113297731Y-80700156D01*
X113209275Y-80611700D01*
X112174900Y-80611700D01*
X112174900Y-81521075D01*
X112331525Y-81677700D01*
X112739400Y-81680731D01*
X112862215Y-81668635D01*
X112980311Y-81632811D01*
X113089149Y-81574636D01*
X113167654Y-81510209D01*
X113188905Y-81617047D01*
X113276009Y-81827335D01*
X113402465Y-82016588D01*
X113563412Y-82177535D01*
X113752665Y-82303991D01*
X113962953Y-82391095D01*
X114186193Y-82435500D01*
X114413807Y-82435500D01*
X114637047Y-82391095D01*
X114847335Y-82303991D01*
X115036588Y-82177535D01*
X115197535Y-82016588D01*
X115323991Y-81827335D01*
X115379500Y-81693324D01*
X115435009Y-81827335D01*
X115561465Y-82016588D01*
X115722412Y-82177535D01*
X115911665Y-82303991D01*
X116121953Y-82391095D01*
X116345193Y-82435500D01*
X116572807Y-82435500D01*
X116796047Y-82391095D01*
X117006335Y-82303991D01*
X117195588Y-82177535D01*
X117264266Y-82108857D01*
X117262228Y-82989105D01*
X117195588Y-82922465D01*
X117006335Y-82796009D01*
X116796047Y-82708905D01*
X116572807Y-82664500D01*
X116345193Y-82664500D01*
X116121953Y-82708905D01*
X115911665Y-82796009D01*
X115722412Y-82922465D01*
X115561465Y-83083412D01*
X115435009Y-83272665D01*
X115379500Y-83406676D01*
X115323991Y-83272665D01*
X115197535Y-83083412D01*
X115036588Y-82922465D01*
X114847335Y-82796009D01*
X114637047Y-82708905D01*
X114413807Y-82664500D01*
X114186193Y-82664500D01*
X113962953Y-82708905D01*
X113752665Y-82796009D01*
X113563412Y-82922465D01*
X113402465Y-83083412D01*
X113276009Y-83272665D01*
X113188905Y-83482953D01*
X113144500Y-83706193D01*
X113144500Y-83933807D01*
X113188905Y-84157047D01*
X113276009Y-84367335D01*
X113402465Y-84556588D01*
X113563412Y-84717535D01*
X113752665Y-84843991D01*
X113962953Y-84931095D01*
X114186193Y-84975500D01*
X114413807Y-84975500D01*
X114637047Y-84931095D01*
X114847335Y-84843991D01*
X115036588Y-84717535D01*
X115197535Y-84556588D01*
X115323991Y-84367335D01*
X115379500Y-84233324D01*
X115435009Y-84367335D01*
X115561465Y-84556588D01*
X115722412Y-84717535D01*
X115911665Y-84843991D01*
X116121953Y-84931095D01*
X116345193Y-84975500D01*
X116572807Y-84975500D01*
X116796047Y-84931095D01*
X117006335Y-84843991D01*
X117195588Y-84717535D01*
X117258373Y-84654750D01*
X117256362Y-85523239D01*
X117195588Y-85462465D01*
X117006335Y-85336009D01*
X116796047Y-85248905D01*
X116572807Y-85204500D01*
X116345193Y-85204500D01*
X116121953Y-85248905D01*
X115911665Y-85336009D01*
X115722412Y-85462465D01*
X115561465Y-85623412D01*
X115435009Y-85812665D01*
X115379500Y-85946676D01*
X115323991Y-85812665D01*
X115197535Y-85623412D01*
X115036588Y-85462465D01*
X114847335Y-85336009D01*
X114637047Y-85248905D01*
X114413807Y-85204500D01*
X114186193Y-85204500D01*
X113962953Y-85248905D01*
X113752665Y-85336009D01*
X113563412Y-85462465D01*
X113402465Y-85623412D01*
X113276009Y-85812665D01*
X113188905Y-86022953D01*
X113144500Y-86246193D01*
X113144500Y-86473807D01*
X113188905Y-86697047D01*
X113276009Y-86907335D01*
X113402465Y-87096588D01*
X113563412Y-87257535D01*
X113752665Y-87383991D01*
X113962953Y-87471095D01*
X114186193Y-87515500D01*
X114413807Y-87515500D01*
X114637047Y-87471095D01*
X114847335Y-87383991D01*
X115036588Y-87257535D01*
X115197535Y-87096588D01*
X115323991Y-86907335D01*
X115379500Y-86773324D01*
X115435009Y-86907335D01*
X115561465Y-87096588D01*
X115722412Y-87257535D01*
X115911665Y-87383991D01*
X116121953Y-87471095D01*
X116345193Y-87515500D01*
X116572807Y-87515500D01*
X116796047Y-87471095D01*
X117006335Y-87383991D01*
X117195588Y-87257535D01*
X117252479Y-87200644D01*
X117250496Y-88057373D01*
X117195588Y-88002465D01*
X117006335Y-87876009D01*
X116796047Y-87788905D01*
X116572807Y-87744500D01*
X116345193Y-87744500D01*
X116121953Y-87788905D01*
X115911665Y-87876009D01*
X115722412Y-88002465D01*
X115561465Y-88163412D01*
X115435009Y-88352665D01*
X115379500Y-88486676D01*
X115323991Y-88352665D01*
X115197535Y-88163412D01*
X115036588Y-88002465D01*
X114847335Y-87876009D01*
X114637047Y-87788905D01*
X114413807Y-87744500D01*
X114186193Y-87744500D01*
X113962953Y-87788905D01*
X113752665Y-87876009D01*
X113563412Y-88002465D01*
X113402465Y-88163412D01*
X113276009Y-88352665D01*
X113188905Y-88562953D01*
X113144500Y-88786193D01*
X113144500Y-89013807D01*
X113188905Y-89237047D01*
X113276009Y-89447335D01*
X113402465Y-89636588D01*
X113563412Y-89797535D01*
X113752665Y-89923991D01*
X113962953Y-90011095D01*
X114186193Y-90055500D01*
X114413807Y-90055500D01*
X114637047Y-90011095D01*
X114847335Y-89923991D01*
X115036588Y-89797535D01*
X115197535Y-89636588D01*
X115323991Y-89447335D01*
X115379500Y-89313324D01*
X115435009Y-89447335D01*
X115561465Y-89636588D01*
X115722412Y-89797535D01*
X115911665Y-89923991D01*
X116121953Y-90011095D01*
X116345193Y-90055500D01*
X116572807Y-90055500D01*
X116796047Y-90011095D01*
X117006335Y-89923991D01*
X117195588Y-89797535D01*
X117246586Y-89746537D01*
X117244630Y-90591507D01*
X117195588Y-90542465D01*
X117006335Y-90416009D01*
X116796047Y-90328905D01*
X116572807Y-90284500D01*
X116345193Y-90284500D01*
X116121953Y-90328905D01*
X115911665Y-90416009D01*
X115722412Y-90542465D01*
X115561465Y-90703412D01*
X115435009Y-90892665D01*
X115379500Y-91026676D01*
X115323991Y-90892665D01*
X115197535Y-90703412D01*
X115036588Y-90542465D01*
X114847335Y-90416009D01*
X114637047Y-90328905D01*
X114413807Y-90284500D01*
X114186193Y-90284500D01*
X113962953Y-90328905D01*
X113752665Y-90416009D01*
X113563412Y-90542465D01*
X113402465Y-90703412D01*
X113276009Y-90892665D01*
X113188905Y-91102953D01*
X113144500Y-91326193D01*
X113144500Y-91553807D01*
X113188905Y-91777047D01*
X113276009Y-91987335D01*
X113402465Y-92176588D01*
X113563412Y-92337535D01*
X113752665Y-92463991D01*
X113962953Y-92551095D01*
X114186193Y-92595500D01*
X114413807Y-92595500D01*
X114637047Y-92551095D01*
X114847335Y-92463991D01*
X115036588Y-92337535D01*
X115197535Y-92176588D01*
X115323991Y-91987335D01*
X115379500Y-91853324D01*
X115435009Y-91987335D01*
X115561465Y-92176588D01*
X115722412Y-92337535D01*
X115911665Y-92463991D01*
X116121953Y-92551095D01*
X116345193Y-92595500D01*
X116572807Y-92595500D01*
X116796047Y-92551095D01*
X117006335Y-92463991D01*
X117195588Y-92337535D01*
X117240693Y-92292430D01*
X117238764Y-93125641D01*
X117195588Y-93082465D01*
X117006335Y-92956009D01*
X116796047Y-92868905D01*
X116572807Y-92824500D01*
X116345193Y-92824500D01*
X116121953Y-92868905D01*
X115911665Y-92956009D01*
X115722412Y-93082465D01*
X115561465Y-93243412D01*
X115435009Y-93432665D01*
X115379500Y-93566676D01*
X115323991Y-93432665D01*
X115197535Y-93243412D01*
X115036588Y-93082465D01*
X114847335Y-92956009D01*
X114637047Y-92868905D01*
X114413807Y-92824500D01*
X114186193Y-92824500D01*
X113962953Y-92868905D01*
X113752665Y-92956009D01*
X113563412Y-93082465D01*
X113402465Y-93243412D01*
X113276009Y-93432665D01*
X113188905Y-93642953D01*
X113144500Y-93866193D01*
X113144500Y-94093807D01*
X113188905Y-94317047D01*
X113276009Y-94527335D01*
X113402465Y-94716588D01*
X113563412Y-94877535D01*
X113752665Y-95003991D01*
X113962953Y-95091095D01*
X114186193Y-95135500D01*
X114413807Y-95135500D01*
X114637047Y-95091095D01*
X114847335Y-95003991D01*
X115036588Y-94877535D01*
X115197535Y-94716588D01*
X115323991Y-94527335D01*
X115379500Y-94393324D01*
X115435009Y-94527335D01*
X115561465Y-94716588D01*
X115722412Y-94877535D01*
X115911665Y-95003991D01*
X116121953Y-95091095D01*
X116345193Y-95135500D01*
X116572807Y-95135500D01*
X116796047Y-95091095D01*
X117006335Y-95003991D01*
X117195588Y-94877535D01*
X117234799Y-94838324D01*
X117232898Y-95659775D01*
X117195588Y-95622465D01*
X117006335Y-95496009D01*
X116796047Y-95408905D01*
X116572807Y-95364500D01*
X116345193Y-95364500D01*
X116121953Y-95408905D01*
X115911665Y-95496009D01*
X115722412Y-95622465D01*
X115561465Y-95783412D01*
X115435009Y-95972665D01*
X115379500Y-96106676D01*
X115323991Y-95972665D01*
X115197535Y-95783412D01*
X115036588Y-95622465D01*
X114847335Y-95496009D01*
X114637047Y-95408905D01*
X114413807Y-95364500D01*
X114186193Y-95364500D01*
X113962953Y-95408905D01*
X113752665Y-95496009D01*
X113563412Y-95622465D01*
X113402465Y-95783412D01*
X113276009Y-95972665D01*
X113188905Y-96182953D01*
X113144500Y-96406193D01*
X113144500Y-96633807D01*
X113188905Y-96857047D01*
X113276009Y-97067335D01*
X113402465Y-97256588D01*
X113563412Y-97417535D01*
X113752665Y-97543991D01*
X113962953Y-97631095D01*
X114186193Y-97675500D01*
X114413807Y-97675500D01*
X114637047Y-97631095D01*
X114847335Y-97543991D01*
X115036588Y-97417535D01*
X115197535Y-97256588D01*
X115323991Y-97067335D01*
X115379500Y-96933324D01*
X115435009Y-97067335D01*
X115561465Y-97256588D01*
X115722412Y-97417535D01*
X115911665Y-97543991D01*
X116121953Y-97631095D01*
X116345193Y-97675500D01*
X116572807Y-97675500D01*
X116796047Y-97631095D01*
X117006335Y-97543991D01*
X117195588Y-97417535D01*
X117228906Y-97384217D01*
X117227032Y-98193909D01*
X117195588Y-98162465D01*
X117006335Y-98036009D01*
X116796047Y-97948905D01*
X116572807Y-97904500D01*
X116345193Y-97904500D01*
X116121953Y-97948905D01*
X115911665Y-98036009D01*
X115722412Y-98162465D01*
X115561465Y-98323412D01*
X115435009Y-98512665D01*
X115379500Y-98646676D01*
X115323991Y-98512665D01*
X115197535Y-98323412D01*
X115036588Y-98162465D01*
X114847335Y-98036009D01*
X114637047Y-97948905D01*
X114413807Y-97904500D01*
X114186193Y-97904500D01*
X113962953Y-97948905D01*
X113752665Y-98036009D01*
X113563412Y-98162465D01*
X113402465Y-98323412D01*
X113276009Y-98512665D01*
X113188905Y-98722953D01*
X113144500Y-98946193D01*
X113144500Y-99173807D01*
X113188905Y-99397047D01*
X113276009Y-99607335D01*
X113402465Y-99796588D01*
X113563412Y-99957535D01*
X113752665Y-100083991D01*
X113962953Y-100171095D01*
X114125865Y-100203500D01*
X111179132Y-100203500D01*
X111248134Y-100100231D01*
X111312623Y-99944540D01*
X111345500Y-99779259D01*
X111345500Y-99610741D01*
X111312623Y-99445460D01*
X111248134Y-99289769D01*
X111154510Y-99149651D01*
X111035349Y-99030490D01*
X110895231Y-98936866D01*
X110739540Y-98872377D01*
X110574259Y-98839500D01*
X110405741Y-98839500D01*
X110240460Y-98872377D01*
X110084769Y-98936866D01*
X109944651Y-99030490D01*
X109855000Y-99120141D01*
X109765349Y-99030490D01*
X109625231Y-98936866D01*
X109469540Y-98872377D01*
X109439610Y-98866424D01*
X107616486Y-97043300D01*
X110615798Y-97043300D01*
X110645234Y-97046199D01*
X110674670Y-97043300D01*
X110674678Y-97043300D01*
X110762756Y-97034625D01*
X110875762Y-97000345D01*
X110979910Y-96944677D01*
X111071195Y-96869761D01*
X111089968Y-96846886D01*
X112318513Y-95618342D01*
X112341382Y-95599574D01*
X112416298Y-95508289D01*
X112471966Y-95404141D01*
X112506246Y-95291135D01*
X112514921Y-95203057D01*
X112514921Y-95203056D01*
X112517821Y-95173613D01*
X112514921Y-95144169D01*
X112514921Y-91269651D01*
X113030301Y-90754271D01*
X113034759Y-90752425D01*
X113133014Y-90686773D01*
X113216573Y-90603214D01*
X113282225Y-90504959D01*
X113327447Y-90395784D01*
X113350500Y-90279885D01*
X113350500Y-90161715D01*
X113327447Y-90045816D01*
X113282225Y-89936641D01*
X113216573Y-89838386D01*
X113133014Y-89754827D01*
X113034759Y-89689175D01*
X112925584Y-89643953D01*
X112809685Y-89620900D01*
X112691515Y-89620900D01*
X112575616Y-89643953D01*
X112466441Y-89689175D01*
X112447591Y-89701770D01*
X112418625Y-89631841D01*
X112352973Y-89533586D01*
X112269414Y-89450027D01*
X112171159Y-89384375D01*
X112061984Y-89339153D01*
X111946085Y-89316100D01*
X111827915Y-89316100D01*
X111712016Y-89339153D01*
X111602841Y-89384375D01*
X111504586Y-89450027D01*
X111455338Y-89499275D01*
X111447847Y-89461616D01*
X111402625Y-89352441D01*
X111336973Y-89254186D01*
X111253414Y-89170627D01*
X111155159Y-89104975D01*
X111045984Y-89059753D01*
X110930085Y-89036700D01*
X110811915Y-89036700D01*
X110696016Y-89059753D01*
X110586841Y-89104975D01*
X110488586Y-89170627D01*
X110405027Y-89254186D01*
X110339375Y-89352441D01*
X110337528Y-89356900D01*
X110152790Y-89541638D01*
X110130848Y-89559645D01*
X110112842Y-89581586D01*
X110058993Y-89647201D01*
X110005600Y-89747092D01*
X109985836Y-89812247D01*
X109972722Y-89855479D01*
X109971726Y-89865592D01*
X109961619Y-89968199D01*
X109964402Y-89996452D01*
X109964401Y-90684180D01*
X108395400Y-90684180D01*
X108325710Y-90691044D01*
X108270100Y-90707913D01*
X108270100Y-89174887D01*
X108325710Y-89191756D01*
X108395400Y-89198620D01*
X110095400Y-89198620D01*
X110165090Y-89191756D01*
X110232102Y-89171428D01*
X110293861Y-89138418D01*
X110347993Y-89093993D01*
X110392418Y-89039861D01*
X110425428Y-88978102D01*
X110445756Y-88911090D01*
X110452620Y-88841400D01*
X110452620Y-87541400D01*
X110445756Y-87471710D01*
X110425428Y-87404698D01*
X110392418Y-87342939D01*
X110347993Y-87288807D01*
X110293861Y-87244382D01*
X110232102Y-87211372D01*
X110165090Y-87191044D01*
X110095400Y-87184180D01*
X109307969Y-87184180D01*
X109361974Y-87167798D01*
X109466954Y-87111685D01*
X109558970Y-87036170D01*
X109634485Y-86944154D01*
X109690598Y-86839174D01*
X109725152Y-86725264D01*
X109736820Y-86606801D01*
X109736820Y-85706799D01*
X109725152Y-85588336D01*
X109690598Y-85474426D01*
X109634485Y-85369446D01*
X109567502Y-85287826D01*
X109567502Y-85287477D01*
X109724125Y-85444100D01*
X109832000Y-85447131D01*
X109932501Y-85437233D01*
X109932501Y-85604044D01*
X109922380Y-85706799D01*
X109922380Y-86606801D01*
X109934048Y-86725264D01*
X109968602Y-86839174D01*
X110024715Y-86944154D01*
X110100230Y-87036170D01*
X110192246Y-87111685D01*
X110297226Y-87167798D01*
X110411136Y-87202352D01*
X110529599Y-87214020D01*
X111179601Y-87214020D01*
X111298064Y-87202352D01*
X111411974Y-87167798D01*
X111516954Y-87111685D01*
X111608970Y-87036170D01*
X111684485Y-86944154D01*
X111740598Y-86839174D01*
X111775152Y-86725264D01*
X111786820Y-86606801D01*
X111786820Y-85706799D01*
X111775152Y-85588336D01*
X111740598Y-85474426D01*
X111684485Y-85369446D01*
X111608970Y-85277430D01*
X111516954Y-85201915D01*
X111411974Y-85145802D01*
X111298064Y-85111248D01*
X111274581Y-85108935D01*
X111301025Y-85069359D01*
X111346247Y-84960184D01*
X111369300Y-84844285D01*
X111369300Y-84726115D01*
X111346247Y-84610216D01*
X111301025Y-84501041D01*
X111289220Y-84483374D01*
X111289220Y-83934905D01*
X111377146Y-83862746D01*
X111455436Y-83767349D01*
X111513611Y-83658511D01*
X111549435Y-83540415D01*
X111561531Y-83417600D01*
X111558500Y-83259725D01*
X111401875Y-83103100D01*
X110667500Y-83103100D01*
X110667500Y-83123100D01*
X110396500Y-83123100D01*
X110396500Y-83103100D01*
X110376500Y-83103100D01*
X110376500Y-82832100D01*
X110396500Y-82832100D01*
X110396500Y-82812100D01*
X110667500Y-82812100D01*
X110667500Y-82832100D01*
X111401875Y-82832100D01*
X111558500Y-82675475D01*
X111561531Y-82517600D01*
X111549435Y-82394785D01*
X111513611Y-82276689D01*
X111455436Y-82167851D01*
X111377146Y-82072454D01*
X111281749Y-81994164D01*
X111182863Y-81941308D01*
X111191500Y-81897885D01*
X111191500Y-81779715D01*
X111168447Y-81663816D01*
X111163812Y-81652627D01*
X111216585Y-81668635D01*
X111339400Y-81680731D01*
X111747275Y-81677700D01*
X111903900Y-81521075D01*
X111903900Y-80611700D01*
X110092100Y-80611700D01*
X110092100Y-80631700D01*
X109821100Y-80631700D01*
X109821100Y-80611700D01*
X108009300Y-80611700D01*
X108009300Y-81521075D01*
X108165925Y-81677700D01*
X108573800Y-81680731D01*
X108696615Y-81668635D01*
X108814711Y-81632811D01*
X108915200Y-81579099D01*
X109015689Y-81632811D01*
X109133785Y-81668635D01*
X109256600Y-81680731D01*
X109274604Y-81680597D01*
X109096153Y-81859049D01*
X109077092Y-81874692D01*
X109014672Y-81950750D01*
X108968290Y-82037526D01*
X108939728Y-82131682D01*
X108935422Y-82175400D01*
X108895298Y-82187572D01*
X108833539Y-82220582D01*
X108779407Y-82265007D01*
X108734982Y-82319139D01*
X108701972Y-82380898D01*
X108681644Y-82447910D01*
X108674780Y-82517600D01*
X108674780Y-82627797D01*
X108270100Y-83032478D01*
X108270100Y-82382496D01*
X108270500Y-82380485D01*
X108270500Y-82346783D01*
X108273000Y-82321400D01*
X108270500Y-82296017D01*
X108270500Y-82262315D01*
X108263925Y-82229258D01*
X108261425Y-82203878D01*
X108254023Y-82179477D01*
X108247447Y-82146416D01*
X108234547Y-82115272D01*
X108227145Y-82090872D01*
X108215125Y-82068384D01*
X108202225Y-82037241D01*
X108183499Y-82009215D01*
X108171477Y-81986724D01*
X108155298Y-81967010D01*
X108136573Y-81938986D01*
X108112740Y-81915153D01*
X108096561Y-81895439D01*
X108076847Y-81879260D01*
X108053014Y-81855427D01*
X108024990Y-81836702D01*
X108005276Y-81820523D01*
X107982785Y-81808501D01*
X107954759Y-81789775D01*
X107923616Y-81776875D01*
X107901128Y-81764855D01*
X107876728Y-81757453D01*
X107845584Y-81744553D01*
X107812523Y-81737977D01*
X107788122Y-81730575D01*
X107762742Y-81728075D01*
X107729685Y-81721500D01*
X107695983Y-81721500D01*
X107670600Y-81719000D01*
X107645217Y-81721500D01*
X107611515Y-81721500D01*
X107578458Y-81728075D01*
X107553078Y-81730575D01*
X107545910Y-81732749D01*
X107545910Y-81725173D01*
X107548410Y-81699790D01*
X107546260Y-81677963D01*
X107581675Y-81677700D01*
X107738300Y-81521075D01*
X107738300Y-80611700D01*
X107718300Y-80611700D01*
X107718300Y-80340700D01*
X107738300Y-80340700D01*
X107738300Y-80320700D01*
X108009300Y-80320700D01*
X108009300Y-80340700D01*
X109821100Y-80340700D01*
X109821100Y-80320700D01*
X110092100Y-80320700D01*
X110092100Y-80340700D01*
X111903900Y-80340700D01*
X111903900Y-80320700D01*
X112174900Y-80320700D01*
X112174900Y-80340700D01*
X113209275Y-80340700D01*
X113365900Y-80184075D01*
X113368931Y-79901200D01*
X113356835Y-79778385D01*
X113321011Y-79660289D01*
X113262836Y-79551451D01*
X113184546Y-79456054D01*
X113089149Y-79377764D01*
X112980311Y-79319589D01*
X112862215Y-79283765D01*
X112788543Y-79276509D01*
X112826754Y-79256085D01*
X112918770Y-79180570D01*
X112994285Y-79088554D01*
X113050398Y-78983574D01*
X113084952Y-78869664D01*
X113096620Y-78751201D01*
X113096620Y-78101199D01*
X113084952Y-77982736D01*
X113050398Y-77868826D01*
X112994285Y-77763846D01*
X112918770Y-77671830D01*
X112826754Y-77596315D01*
X112721774Y-77540202D01*
X112638900Y-77515063D01*
X112638900Y-77397844D01*
X112641800Y-77368400D01*
X112630225Y-77250878D01*
X112622069Y-77223991D01*
X112595945Y-77137872D01*
X112540277Y-77033724D01*
X112465361Y-76942439D01*
X112442492Y-76923671D01*
X111191720Y-75672900D01*
X111191720Y-74570000D01*
X111189777Y-74550277D01*
X111209500Y-74552220D01*
X112308903Y-74552220D01*
X112339441Y-74572625D01*
X112448616Y-74617847D01*
X112564515Y-74640900D01*
X112682685Y-74640900D01*
X112798584Y-74617847D01*
X112907759Y-74572625D01*
X113006014Y-74506973D01*
X113089573Y-74423414D01*
X113155225Y-74325159D01*
X113200447Y-74215984D01*
X113223500Y-74100085D01*
X113223500Y-74080567D01*
X113276009Y-74207335D01*
X113402465Y-74396588D01*
X113563412Y-74557535D01*
X113752665Y-74683991D01*
X113962953Y-74771095D01*
X114186193Y-74815500D01*
X114413807Y-74815500D01*
X114637047Y-74771095D01*
X114847335Y-74683991D01*
X115036588Y-74557535D01*
X115197535Y-74396588D01*
X115323991Y-74207335D01*
X115379500Y-74073324D01*
X115435009Y-74207335D01*
G04 #@! TA.AperFunction,Conductor*
D28*
G36*
X115435009Y-74207335D02*
G01*
X115561465Y-74396588D01*
X115722412Y-74557535D01*
X115911665Y-74683991D01*
X116121953Y-74771095D01*
X116345193Y-74815500D01*
X116572807Y-74815500D01*
X116796047Y-74771095D01*
X117006335Y-74683991D01*
X117195588Y-74557535D01*
X117281946Y-74471177D01*
X117279827Y-75386704D01*
X117195588Y-75302465D01*
X117006335Y-75176009D01*
X116796047Y-75088905D01*
X116572807Y-75044500D01*
X116345193Y-75044500D01*
X116121953Y-75088905D01*
X115911665Y-75176009D01*
X115722412Y-75302465D01*
X115561465Y-75463412D01*
X115435009Y-75652665D01*
X115379500Y-75786676D01*
X115323991Y-75652665D01*
X115197535Y-75463412D01*
X115036588Y-75302465D01*
X114847335Y-75176009D01*
X114637047Y-75088905D01*
X114413807Y-75044500D01*
X114186193Y-75044500D01*
X113962953Y-75088905D01*
X113752665Y-75176009D01*
X113563412Y-75302465D01*
X113402465Y-75463412D01*
X113276009Y-75652665D01*
X113188905Y-75862953D01*
X113144500Y-76086193D01*
X113144500Y-76313807D01*
X113188905Y-76537047D01*
X113276009Y-76747335D01*
X113402465Y-76936588D01*
X113563412Y-77097535D01*
X113752665Y-77223991D01*
X113962953Y-77311095D01*
X114186193Y-77355500D01*
X114413807Y-77355500D01*
X114637047Y-77311095D01*
X114847335Y-77223991D01*
X115036588Y-77097535D01*
X115197535Y-76936588D01*
X115323991Y-76747335D01*
X115379500Y-76613324D01*
X115435009Y-76747335D01*
X115561465Y-76936588D01*
X115722412Y-77097535D01*
X115911665Y-77223991D01*
X116121953Y-77311095D01*
X116345193Y-77355500D01*
X116572807Y-77355500D01*
X116796047Y-77311095D01*
X117006335Y-77223991D01*
X117195588Y-77097535D01*
X117276053Y-77017070D01*
X117273960Y-77920837D01*
X117195588Y-77842465D01*
X117006335Y-77716009D01*
X116796047Y-77628905D01*
X116572807Y-77584500D01*
X116345193Y-77584500D01*
X116121953Y-77628905D01*
X115911665Y-77716009D01*
X115722412Y-77842465D01*
X115561465Y-78003412D01*
X115435009Y-78192665D01*
X115379500Y-78326676D01*
X115323991Y-78192665D01*
X115197535Y-78003412D01*
X115036588Y-77842465D01*
X114847335Y-77716009D01*
X114637047Y-77628905D01*
X114413807Y-77584500D01*
X114186193Y-77584500D01*
X113962953Y-77628905D01*
X113752665Y-77716009D01*
X113563412Y-77842465D01*
X113402465Y-78003412D01*
X113276009Y-78192665D01*
X113188905Y-78402953D01*
X113144500Y-78626193D01*
X113144500Y-78853807D01*
X113188905Y-79077047D01*
X113276009Y-79287335D01*
X113402465Y-79476588D01*
X113563412Y-79637535D01*
X113752665Y-79763991D01*
X113962953Y-79851095D01*
X114186193Y-79895500D01*
X114413807Y-79895500D01*
X114637047Y-79851095D01*
X114847335Y-79763991D01*
X115036588Y-79637535D01*
X115197535Y-79476588D01*
X115323991Y-79287335D01*
X115379500Y-79153324D01*
X115435009Y-79287335D01*
X115561465Y-79476588D01*
X115722412Y-79637535D01*
X115911665Y-79763991D01*
X116121953Y-79851095D01*
X116345193Y-79895500D01*
X116572807Y-79895500D01*
X116796047Y-79851095D01*
X117006335Y-79763991D01*
X117195588Y-79637535D01*
X117270159Y-79562964D01*
X117268094Y-80454971D01*
X117195588Y-80382465D01*
X117006335Y-80256009D01*
X116796047Y-80168905D01*
X116572807Y-80124500D01*
X116345193Y-80124500D01*
X116121953Y-80168905D01*
X115911665Y-80256009D01*
X115722412Y-80382465D01*
X115561465Y-80543412D01*
X115435009Y-80732665D01*
X115379500Y-80866676D01*
X115323991Y-80732665D01*
X115197535Y-80543412D01*
X115036588Y-80382465D01*
X114847335Y-80256009D01*
X114637047Y-80168905D01*
X114413807Y-80124500D01*
X114186193Y-80124500D01*
X113962953Y-80168905D01*
X113752665Y-80256009D01*
X113563412Y-80382465D01*
X113402465Y-80543412D01*
X113297731Y-80700156D01*
X113209275Y-80611700D01*
X112174900Y-80611700D01*
X112174900Y-81521075D01*
X112331525Y-81677700D01*
X112739400Y-81680731D01*
X112862215Y-81668635D01*
X112980311Y-81632811D01*
X113089149Y-81574636D01*
X113167654Y-81510209D01*
X113188905Y-81617047D01*
X113276009Y-81827335D01*
X113402465Y-82016588D01*
X113563412Y-82177535D01*
X113752665Y-82303991D01*
X113962953Y-82391095D01*
X114186193Y-82435500D01*
X114413807Y-82435500D01*
X114637047Y-82391095D01*
X114847335Y-82303991D01*
X115036588Y-82177535D01*
X115197535Y-82016588D01*
X115323991Y-81827335D01*
X115379500Y-81693324D01*
X115435009Y-81827335D01*
X115561465Y-82016588D01*
X115722412Y-82177535D01*
X115911665Y-82303991D01*
X116121953Y-82391095D01*
X116345193Y-82435500D01*
X116572807Y-82435500D01*
X116796047Y-82391095D01*
X117006335Y-82303991D01*
X117195588Y-82177535D01*
X117264266Y-82108857D01*
X117262228Y-82989105D01*
X117195588Y-82922465D01*
X117006335Y-82796009D01*
X116796047Y-82708905D01*
X116572807Y-82664500D01*
X116345193Y-82664500D01*
X116121953Y-82708905D01*
X115911665Y-82796009D01*
X115722412Y-82922465D01*
X115561465Y-83083412D01*
X115435009Y-83272665D01*
X115379500Y-83406676D01*
X115323991Y-83272665D01*
X115197535Y-83083412D01*
X115036588Y-82922465D01*
X114847335Y-82796009D01*
X114637047Y-82708905D01*
X114413807Y-82664500D01*
X114186193Y-82664500D01*
X113962953Y-82708905D01*
X113752665Y-82796009D01*
X113563412Y-82922465D01*
X113402465Y-83083412D01*
X113276009Y-83272665D01*
X113188905Y-83482953D01*
X113144500Y-83706193D01*
X113144500Y-83933807D01*
X113188905Y-84157047D01*
X113276009Y-84367335D01*
X113402465Y-84556588D01*
X113563412Y-84717535D01*
X113752665Y-84843991D01*
X113962953Y-84931095D01*
X114186193Y-84975500D01*
X114413807Y-84975500D01*
X114637047Y-84931095D01*
X114847335Y-84843991D01*
X115036588Y-84717535D01*
X115197535Y-84556588D01*
X115323991Y-84367335D01*
X115379500Y-84233324D01*
X115435009Y-84367335D01*
X115561465Y-84556588D01*
X115722412Y-84717535D01*
X115911665Y-84843991D01*
X116121953Y-84931095D01*
X116345193Y-84975500D01*
X116572807Y-84975500D01*
X116796047Y-84931095D01*
X117006335Y-84843991D01*
X117195588Y-84717535D01*
X117258373Y-84654750D01*
X117256362Y-85523239D01*
X117195588Y-85462465D01*
X117006335Y-85336009D01*
X116796047Y-85248905D01*
X116572807Y-85204500D01*
X116345193Y-85204500D01*
X116121953Y-85248905D01*
X115911665Y-85336009D01*
X115722412Y-85462465D01*
X115561465Y-85623412D01*
X115435009Y-85812665D01*
X115379500Y-85946676D01*
X115323991Y-85812665D01*
X115197535Y-85623412D01*
X115036588Y-85462465D01*
X114847335Y-85336009D01*
X114637047Y-85248905D01*
X114413807Y-85204500D01*
X114186193Y-85204500D01*
X113962953Y-85248905D01*
X113752665Y-85336009D01*
X113563412Y-85462465D01*
X113402465Y-85623412D01*
X113276009Y-85812665D01*
X113188905Y-86022953D01*
X113144500Y-86246193D01*
X113144500Y-86473807D01*
X113188905Y-86697047D01*
X113276009Y-86907335D01*
X113402465Y-87096588D01*
X113563412Y-87257535D01*
X113752665Y-87383991D01*
X113962953Y-87471095D01*
X114186193Y-87515500D01*
X114413807Y-87515500D01*
X114637047Y-87471095D01*
X114847335Y-87383991D01*
X115036588Y-87257535D01*
X115197535Y-87096588D01*
X115323991Y-86907335D01*
X115379500Y-86773324D01*
X115435009Y-86907335D01*
X115561465Y-87096588D01*
X115722412Y-87257535D01*
X115911665Y-87383991D01*
X116121953Y-87471095D01*
X116345193Y-87515500D01*
X116572807Y-87515500D01*
X116796047Y-87471095D01*
X117006335Y-87383991D01*
X117195588Y-87257535D01*
X117252479Y-87200644D01*
X117250496Y-88057373D01*
X117195588Y-88002465D01*
X117006335Y-87876009D01*
X116796047Y-87788905D01*
X116572807Y-87744500D01*
X116345193Y-87744500D01*
X116121953Y-87788905D01*
X115911665Y-87876009D01*
X115722412Y-88002465D01*
X115561465Y-88163412D01*
X115435009Y-88352665D01*
X115379500Y-88486676D01*
X115323991Y-88352665D01*
X115197535Y-88163412D01*
X115036588Y-88002465D01*
X114847335Y-87876009D01*
X114637047Y-87788905D01*
X114413807Y-87744500D01*
X114186193Y-87744500D01*
X113962953Y-87788905D01*
X113752665Y-87876009D01*
X113563412Y-88002465D01*
X113402465Y-88163412D01*
X113276009Y-88352665D01*
X113188905Y-88562953D01*
X113144500Y-88786193D01*
X113144500Y-89013807D01*
X113188905Y-89237047D01*
X113276009Y-89447335D01*
X113402465Y-89636588D01*
X113563412Y-89797535D01*
X113752665Y-89923991D01*
X113962953Y-90011095D01*
X114186193Y-90055500D01*
X114413807Y-90055500D01*
X114637047Y-90011095D01*
X114847335Y-89923991D01*
X115036588Y-89797535D01*
X115197535Y-89636588D01*
X115323991Y-89447335D01*
X115379500Y-89313324D01*
X115435009Y-89447335D01*
X115561465Y-89636588D01*
X115722412Y-89797535D01*
X115911665Y-89923991D01*
X116121953Y-90011095D01*
X116345193Y-90055500D01*
X116572807Y-90055500D01*
X116796047Y-90011095D01*
X117006335Y-89923991D01*
X117195588Y-89797535D01*
X117246586Y-89746537D01*
X117244630Y-90591507D01*
X117195588Y-90542465D01*
X117006335Y-90416009D01*
X116796047Y-90328905D01*
X116572807Y-90284500D01*
X116345193Y-90284500D01*
X116121953Y-90328905D01*
X115911665Y-90416009D01*
X115722412Y-90542465D01*
X115561465Y-90703412D01*
X115435009Y-90892665D01*
X115379500Y-91026676D01*
X115323991Y-90892665D01*
X115197535Y-90703412D01*
X115036588Y-90542465D01*
X114847335Y-90416009D01*
X114637047Y-90328905D01*
X114413807Y-90284500D01*
X114186193Y-90284500D01*
X113962953Y-90328905D01*
X113752665Y-90416009D01*
X113563412Y-90542465D01*
X113402465Y-90703412D01*
X113276009Y-90892665D01*
X113188905Y-91102953D01*
X113144500Y-91326193D01*
X113144500Y-91553807D01*
X113188905Y-91777047D01*
X113276009Y-91987335D01*
X113402465Y-92176588D01*
X113563412Y-92337535D01*
X113752665Y-92463991D01*
X113962953Y-92551095D01*
X114186193Y-92595500D01*
X114413807Y-92595500D01*
X114637047Y-92551095D01*
X114847335Y-92463991D01*
X115036588Y-92337535D01*
X115197535Y-92176588D01*
X115323991Y-91987335D01*
X115379500Y-91853324D01*
X115435009Y-91987335D01*
X115561465Y-92176588D01*
X115722412Y-92337535D01*
X115911665Y-92463991D01*
X116121953Y-92551095D01*
X116345193Y-92595500D01*
X116572807Y-92595500D01*
X116796047Y-92551095D01*
X117006335Y-92463991D01*
X117195588Y-92337535D01*
X117240693Y-92292430D01*
X117238764Y-93125641D01*
X117195588Y-93082465D01*
X117006335Y-92956009D01*
X116796047Y-92868905D01*
X116572807Y-92824500D01*
X116345193Y-92824500D01*
X116121953Y-92868905D01*
X115911665Y-92956009D01*
X115722412Y-93082465D01*
X115561465Y-93243412D01*
X115435009Y-93432665D01*
X115379500Y-93566676D01*
X115323991Y-93432665D01*
X115197535Y-93243412D01*
X115036588Y-93082465D01*
X114847335Y-92956009D01*
X114637047Y-92868905D01*
X114413807Y-92824500D01*
X114186193Y-92824500D01*
X113962953Y-92868905D01*
X113752665Y-92956009D01*
X113563412Y-93082465D01*
X113402465Y-93243412D01*
X113276009Y-93432665D01*
X113188905Y-93642953D01*
X113144500Y-93866193D01*
X113144500Y-94093807D01*
X113188905Y-94317047D01*
X113276009Y-94527335D01*
X113402465Y-94716588D01*
X113563412Y-94877535D01*
X113752665Y-95003991D01*
X113962953Y-95091095D01*
X114186193Y-95135500D01*
X114413807Y-95135500D01*
X114637047Y-95091095D01*
X114847335Y-95003991D01*
X115036588Y-94877535D01*
X115197535Y-94716588D01*
X115323991Y-94527335D01*
X115379500Y-94393324D01*
X115435009Y-94527335D01*
X115561465Y-94716588D01*
X115722412Y-94877535D01*
X115911665Y-95003991D01*
X116121953Y-95091095D01*
X116345193Y-95135500D01*
X116572807Y-95135500D01*
X116796047Y-95091095D01*
X117006335Y-95003991D01*
X117195588Y-94877535D01*
X117234799Y-94838324D01*
X117232898Y-95659775D01*
X117195588Y-95622465D01*
X117006335Y-95496009D01*
X116796047Y-95408905D01*
X116572807Y-95364500D01*
X116345193Y-95364500D01*
X116121953Y-95408905D01*
X115911665Y-95496009D01*
X115722412Y-95622465D01*
X115561465Y-95783412D01*
X115435009Y-95972665D01*
X115379500Y-96106676D01*
X115323991Y-95972665D01*
X115197535Y-95783412D01*
X115036588Y-95622465D01*
X114847335Y-95496009D01*
X114637047Y-95408905D01*
X114413807Y-95364500D01*
X114186193Y-95364500D01*
X113962953Y-95408905D01*
X113752665Y-95496009D01*
X113563412Y-95622465D01*
X113402465Y-95783412D01*
X113276009Y-95972665D01*
X113188905Y-96182953D01*
X113144500Y-96406193D01*
X113144500Y-96633807D01*
X113188905Y-96857047D01*
X113276009Y-97067335D01*
X113402465Y-97256588D01*
X113563412Y-97417535D01*
X113752665Y-97543991D01*
X113962953Y-97631095D01*
X114186193Y-97675500D01*
X114413807Y-97675500D01*
X114637047Y-97631095D01*
X114847335Y-97543991D01*
X115036588Y-97417535D01*
X115197535Y-97256588D01*
X115323991Y-97067335D01*
X115379500Y-96933324D01*
X115435009Y-97067335D01*
X115561465Y-97256588D01*
X115722412Y-97417535D01*
X115911665Y-97543991D01*
X116121953Y-97631095D01*
X116345193Y-97675500D01*
X116572807Y-97675500D01*
X116796047Y-97631095D01*
X117006335Y-97543991D01*
X117195588Y-97417535D01*
X117228906Y-97384217D01*
X117227032Y-98193909D01*
X117195588Y-98162465D01*
X117006335Y-98036009D01*
X116796047Y-97948905D01*
X116572807Y-97904500D01*
X116345193Y-97904500D01*
X116121953Y-97948905D01*
X115911665Y-98036009D01*
X115722412Y-98162465D01*
X115561465Y-98323412D01*
X115435009Y-98512665D01*
X115379500Y-98646676D01*
X115323991Y-98512665D01*
X115197535Y-98323412D01*
X115036588Y-98162465D01*
X114847335Y-98036009D01*
X114637047Y-97948905D01*
X114413807Y-97904500D01*
X114186193Y-97904500D01*
X113962953Y-97948905D01*
X113752665Y-98036009D01*
X113563412Y-98162465D01*
X113402465Y-98323412D01*
X113276009Y-98512665D01*
X113188905Y-98722953D01*
X113144500Y-98946193D01*
X113144500Y-99173807D01*
X113188905Y-99397047D01*
X113276009Y-99607335D01*
X113402465Y-99796588D01*
X113563412Y-99957535D01*
X113752665Y-100083991D01*
X113962953Y-100171095D01*
X114125865Y-100203500D01*
X111179132Y-100203500D01*
X111248134Y-100100231D01*
X111312623Y-99944540D01*
X111345500Y-99779259D01*
X111345500Y-99610741D01*
X111312623Y-99445460D01*
X111248134Y-99289769D01*
X111154510Y-99149651D01*
X111035349Y-99030490D01*
X110895231Y-98936866D01*
X110739540Y-98872377D01*
X110574259Y-98839500D01*
X110405741Y-98839500D01*
X110240460Y-98872377D01*
X110084769Y-98936866D01*
X109944651Y-99030490D01*
X109855000Y-99120141D01*
X109765349Y-99030490D01*
X109625231Y-98936866D01*
X109469540Y-98872377D01*
X109439610Y-98866424D01*
X107616486Y-97043300D01*
X110615798Y-97043300D01*
X110645234Y-97046199D01*
X110674670Y-97043300D01*
X110674678Y-97043300D01*
X110762756Y-97034625D01*
X110875762Y-97000345D01*
X110979910Y-96944677D01*
X111071195Y-96869761D01*
X111089968Y-96846886D01*
X112318513Y-95618342D01*
X112341382Y-95599574D01*
X112416298Y-95508289D01*
X112471966Y-95404141D01*
X112506246Y-95291135D01*
X112514921Y-95203057D01*
X112514921Y-95203056D01*
X112517821Y-95173613D01*
X112514921Y-95144169D01*
X112514921Y-91269651D01*
X113030301Y-90754271D01*
X113034759Y-90752425D01*
X113133014Y-90686773D01*
X113216573Y-90603214D01*
X113282225Y-90504959D01*
X113327447Y-90395784D01*
X113350500Y-90279885D01*
X113350500Y-90161715D01*
X113327447Y-90045816D01*
X113282225Y-89936641D01*
X113216573Y-89838386D01*
X113133014Y-89754827D01*
X113034759Y-89689175D01*
X112925584Y-89643953D01*
X112809685Y-89620900D01*
X112691515Y-89620900D01*
X112575616Y-89643953D01*
X112466441Y-89689175D01*
X112447591Y-89701770D01*
X112418625Y-89631841D01*
X112352973Y-89533586D01*
X112269414Y-89450027D01*
X112171159Y-89384375D01*
X112061984Y-89339153D01*
X111946085Y-89316100D01*
X111827915Y-89316100D01*
X111712016Y-89339153D01*
X111602841Y-89384375D01*
X111504586Y-89450027D01*
X111455338Y-89499275D01*
X111447847Y-89461616D01*
X111402625Y-89352441D01*
X111336973Y-89254186D01*
X111253414Y-89170627D01*
X111155159Y-89104975D01*
X111045984Y-89059753D01*
X110930085Y-89036700D01*
X110811915Y-89036700D01*
X110696016Y-89059753D01*
X110586841Y-89104975D01*
X110488586Y-89170627D01*
X110405027Y-89254186D01*
X110339375Y-89352441D01*
X110337528Y-89356900D01*
X110152790Y-89541638D01*
X110130848Y-89559645D01*
X110112842Y-89581586D01*
X110058993Y-89647201D01*
X110005600Y-89747092D01*
X109985836Y-89812247D01*
X109972722Y-89855479D01*
X109971726Y-89865592D01*
X109961619Y-89968199D01*
X109964402Y-89996452D01*
X109964401Y-90684180D01*
X108395400Y-90684180D01*
X108325710Y-90691044D01*
X108270100Y-90707913D01*
X108270100Y-89174887D01*
X108325710Y-89191756D01*
X108395400Y-89198620D01*
X110095400Y-89198620D01*
X110165090Y-89191756D01*
X110232102Y-89171428D01*
X110293861Y-89138418D01*
X110347993Y-89093993D01*
X110392418Y-89039861D01*
X110425428Y-88978102D01*
X110445756Y-88911090D01*
X110452620Y-88841400D01*
X110452620Y-87541400D01*
X110445756Y-87471710D01*
X110425428Y-87404698D01*
X110392418Y-87342939D01*
X110347993Y-87288807D01*
X110293861Y-87244382D01*
X110232102Y-87211372D01*
X110165090Y-87191044D01*
X110095400Y-87184180D01*
X109307969Y-87184180D01*
X109361974Y-87167798D01*
X109466954Y-87111685D01*
X109558970Y-87036170D01*
X109634485Y-86944154D01*
X109690598Y-86839174D01*
X109725152Y-86725264D01*
X109736820Y-86606801D01*
X109736820Y-85706799D01*
X109725152Y-85588336D01*
X109690598Y-85474426D01*
X109634485Y-85369446D01*
X109567502Y-85287826D01*
X109567502Y-85287477D01*
X109724125Y-85444100D01*
X109832000Y-85447131D01*
X109932501Y-85437233D01*
X109932501Y-85604044D01*
X109922380Y-85706799D01*
X109922380Y-86606801D01*
X109934048Y-86725264D01*
X109968602Y-86839174D01*
X110024715Y-86944154D01*
X110100230Y-87036170D01*
X110192246Y-87111685D01*
X110297226Y-87167798D01*
X110411136Y-87202352D01*
X110529599Y-87214020D01*
X111179601Y-87214020D01*
X111298064Y-87202352D01*
X111411974Y-87167798D01*
X111516954Y-87111685D01*
X111608970Y-87036170D01*
X111684485Y-86944154D01*
X111740598Y-86839174D01*
X111775152Y-86725264D01*
X111786820Y-86606801D01*
X111786820Y-85706799D01*
X111775152Y-85588336D01*
X111740598Y-85474426D01*
X111684485Y-85369446D01*
X111608970Y-85277430D01*
X111516954Y-85201915D01*
X111411974Y-85145802D01*
X111298064Y-85111248D01*
X111274581Y-85108935D01*
X111301025Y-85069359D01*
X111346247Y-84960184D01*
X111369300Y-84844285D01*
X111369300Y-84726115D01*
X111346247Y-84610216D01*
X111301025Y-84501041D01*
X111289220Y-84483374D01*
X111289220Y-83934905D01*
X111377146Y-83862746D01*
X111455436Y-83767349D01*
X111513611Y-83658511D01*
X111549435Y-83540415D01*
X111561531Y-83417600D01*
X111558500Y-83259725D01*
X111401875Y-83103100D01*
X110667500Y-83103100D01*
X110667500Y-83123100D01*
X110396500Y-83123100D01*
X110396500Y-83103100D01*
X110376500Y-83103100D01*
X110376500Y-82832100D01*
X110396500Y-82832100D01*
X110396500Y-82812100D01*
X110667500Y-82812100D01*
X110667500Y-82832100D01*
X111401875Y-82832100D01*
X111558500Y-82675475D01*
X111561531Y-82517600D01*
X111549435Y-82394785D01*
X111513611Y-82276689D01*
X111455436Y-82167851D01*
X111377146Y-82072454D01*
X111281749Y-81994164D01*
X111182863Y-81941308D01*
X111191500Y-81897885D01*
X111191500Y-81779715D01*
X111168447Y-81663816D01*
X111163812Y-81652627D01*
X111216585Y-81668635D01*
X111339400Y-81680731D01*
X111747275Y-81677700D01*
X111903900Y-81521075D01*
X111903900Y-80611700D01*
X110092100Y-80611700D01*
X110092100Y-80631700D01*
X109821100Y-80631700D01*
X109821100Y-80611700D01*
X108009300Y-80611700D01*
X108009300Y-81521075D01*
X108165925Y-81677700D01*
X108573800Y-81680731D01*
X108696615Y-81668635D01*
X108814711Y-81632811D01*
X108915200Y-81579099D01*
X109015689Y-81632811D01*
X109133785Y-81668635D01*
X109256600Y-81680731D01*
X109274604Y-81680597D01*
X109096153Y-81859049D01*
X109077092Y-81874692D01*
X109014672Y-81950750D01*
X108968290Y-82037526D01*
X108939728Y-82131682D01*
X108935422Y-82175400D01*
X108895298Y-82187572D01*
X108833539Y-82220582D01*
X108779407Y-82265007D01*
X108734982Y-82319139D01*
X108701972Y-82380898D01*
X108681644Y-82447910D01*
X108674780Y-82517600D01*
X108674780Y-82627797D01*
X108270100Y-83032478D01*
X108270100Y-82382496D01*
X108270500Y-82380485D01*
X108270500Y-82346783D01*
X108273000Y-82321400D01*
X108270500Y-82296017D01*
X108270500Y-82262315D01*
X108263925Y-82229258D01*
X108261425Y-82203878D01*
X108254023Y-82179477D01*
X108247447Y-82146416D01*
X108234547Y-82115272D01*
X108227145Y-82090872D01*
X108215125Y-82068384D01*
X108202225Y-82037241D01*
X108183499Y-82009215D01*
X108171477Y-81986724D01*
X108155298Y-81967010D01*
X108136573Y-81938986D01*
X108112740Y-81915153D01*
X108096561Y-81895439D01*
X108076847Y-81879260D01*
X108053014Y-81855427D01*
X108024990Y-81836702D01*
X108005276Y-81820523D01*
X107982785Y-81808501D01*
X107954759Y-81789775D01*
X107923616Y-81776875D01*
X107901128Y-81764855D01*
X107876728Y-81757453D01*
X107845584Y-81744553D01*
X107812523Y-81737977D01*
X107788122Y-81730575D01*
X107762742Y-81728075D01*
X107729685Y-81721500D01*
X107695983Y-81721500D01*
X107670600Y-81719000D01*
X107645217Y-81721500D01*
X107611515Y-81721500D01*
X107578458Y-81728075D01*
X107553078Y-81730575D01*
X107545910Y-81732749D01*
X107545910Y-81725173D01*
X107548410Y-81699790D01*
X107546260Y-81677963D01*
X107581675Y-81677700D01*
X107738300Y-81521075D01*
X107738300Y-80611700D01*
X107718300Y-80611700D01*
X107718300Y-80340700D01*
X107738300Y-80340700D01*
X107738300Y-80320700D01*
X108009300Y-80320700D01*
X108009300Y-80340700D01*
X109821100Y-80340700D01*
X109821100Y-80320700D01*
X110092100Y-80320700D01*
X110092100Y-80340700D01*
X111903900Y-80340700D01*
X111903900Y-80320700D01*
X112174900Y-80320700D01*
X112174900Y-80340700D01*
X113209275Y-80340700D01*
X113365900Y-80184075D01*
X113368931Y-79901200D01*
X113356835Y-79778385D01*
X113321011Y-79660289D01*
X113262836Y-79551451D01*
X113184546Y-79456054D01*
X113089149Y-79377764D01*
X112980311Y-79319589D01*
X112862215Y-79283765D01*
X112788543Y-79276509D01*
X112826754Y-79256085D01*
X112918770Y-79180570D01*
X112994285Y-79088554D01*
X113050398Y-78983574D01*
X113084952Y-78869664D01*
X113096620Y-78751201D01*
X113096620Y-78101199D01*
X113084952Y-77982736D01*
X113050398Y-77868826D01*
X112994285Y-77763846D01*
X112918770Y-77671830D01*
X112826754Y-77596315D01*
X112721774Y-77540202D01*
X112638900Y-77515063D01*
X112638900Y-77397844D01*
X112641800Y-77368400D01*
X112630225Y-77250878D01*
X112622069Y-77223991D01*
X112595945Y-77137872D01*
X112540277Y-77033724D01*
X112465361Y-76942439D01*
X112442492Y-76923671D01*
X111191720Y-75672900D01*
X111191720Y-74570000D01*
X111189777Y-74550277D01*
X111209500Y-74552220D01*
X112308903Y-74552220D01*
X112339441Y-74572625D01*
X112448616Y-74617847D01*
X112564515Y-74640900D01*
X112682685Y-74640900D01*
X112798584Y-74617847D01*
X112907759Y-74572625D01*
X113006014Y-74506973D01*
X113089573Y-74423414D01*
X113155225Y-74325159D01*
X113200447Y-74215984D01*
X113223500Y-74100085D01*
X113223500Y-74080567D01*
X113276009Y-74207335D01*
X113402465Y-74396588D01*
X113563412Y-74557535D01*
X113752665Y-74683991D01*
X113962953Y-74771095D01*
X114186193Y-74815500D01*
X114413807Y-74815500D01*
X114637047Y-74771095D01*
X114847335Y-74683991D01*
X115036588Y-74557535D01*
X115197535Y-74396588D01*
X115323991Y-74207335D01*
X115379500Y-74073324D01*
X115435009Y-74207335D01*
G37*
G04 #@! TD.AperFunction*
D27*
X110627911Y-94594468D02*
X110439494Y-94782886D01*
X110437786Y-94784027D01*
X110354227Y-94867586D01*
X110335495Y-94895620D01*
X110319324Y-94915325D01*
X110307308Y-94937805D01*
X110288575Y-94965841D01*
X110275671Y-94996993D01*
X110263656Y-95019472D01*
X110256257Y-95043864D01*
X110243353Y-95075016D01*
X110236776Y-95108081D01*
X110229375Y-95132479D01*
X110226876Y-95157855D01*
X110220300Y-95190915D01*
X110220300Y-95224625D01*
X110217801Y-95250000D01*
X110220300Y-95275375D01*
X110220300Y-95309085D01*
X110226876Y-95342145D01*
X110229375Y-95367521D01*
X110236776Y-95391919D01*
X110243353Y-95424984D01*
X110256257Y-95456136D01*
X110263656Y-95480528D01*
X110275671Y-95503007D01*
X110288575Y-95534159D01*
X110307308Y-95562195D01*
X110319324Y-95584675D01*
X110335496Y-95604381D01*
X110354227Y-95632414D01*
X110378063Y-95656250D01*
X110394239Y-95675961D01*
X110413950Y-95692137D01*
X110437786Y-95715973D01*
X110465819Y-95734704D01*
X110485525Y-95750876D01*
X110488661Y-95752552D01*
X110396914Y-95844300D01*
X107275239Y-95844300D01*
X107280143Y-95843325D01*
X107305521Y-95840825D01*
X107329920Y-95833424D01*
X107362984Y-95826847D01*
X107394131Y-95813946D01*
X107418527Y-95806545D01*
X107441012Y-95794527D01*
X107472159Y-95781625D01*
X107500189Y-95762896D01*
X107522675Y-95750877D01*
X107542386Y-95734701D01*
X107570414Y-95715973D01*
X107594248Y-95692139D01*
X107613961Y-95675961D01*
X107630140Y-95656247D01*
X107653973Y-95632414D01*
X107672698Y-95604390D01*
X107688877Y-95584676D01*
X107700899Y-95562185D01*
X107719625Y-95534159D01*
X107732525Y-95503016D01*
X107733123Y-95501897D01*
X107967511Y-95267510D01*
X108942147Y-95267510D01*
X108971583Y-95270409D01*
X109001019Y-95267510D01*
X109001027Y-95267510D01*
X109089105Y-95258835D01*
X109202111Y-95224555D01*
X109306259Y-95168887D01*
X109397544Y-95093971D01*
X109416318Y-95071096D01*
X110627912Y-93859502D01*
X110627911Y-94594468D01*
G04 #@! TA.AperFunction,Conductor*
D28*
G36*
X110627911Y-94594468D02*
G01*
X110439494Y-94782886D01*
X110437786Y-94784027D01*
X110354227Y-94867586D01*
X110335495Y-94895620D01*
X110319324Y-94915325D01*
X110307308Y-94937805D01*
X110288575Y-94965841D01*
X110275671Y-94996993D01*
X110263656Y-95019472D01*
X110256257Y-95043864D01*
X110243353Y-95075016D01*
X110236776Y-95108081D01*
X110229375Y-95132479D01*
X110226876Y-95157855D01*
X110220300Y-95190915D01*
X110220300Y-95224625D01*
X110217801Y-95250000D01*
X110220300Y-95275375D01*
X110220300Y-95309085D01*
X110226876Y-95342145D01*
X110229375Y-95367521D01*
X110236776Y-95391919D01*
X110243353Y-95424984D01*
X110256257Y-95456136D01*
X110263656Y-95480528D01*
X110275671Y-95503007D01*
X110288575Y-95534159D01*
X110307308Y-95562195D01*
X110319324Y-95584675D01*
X110335496Y-95604381D01*
X110354227Y-95632414D01*
X110378063Y-95656250D01*
X110394239Y-95675961D01*
X110413950Y-95692137D01*
X110437786Y-95715973D01*
X110465819Y-95734704D01*
X110485525Y-95750876D01*
X110488661Y-95752552D01*
X110396914Y-95844300D01*
X107275239Y-95844300D01*
X107280143Y-95843325D01*
X107305521Y-95840825D01*
X107329920Y-95833424D01*
X107362984Y-95826847D01*
X107394131Y-95813946D01*
X107418527Y-95806545D01*
X107441012Y-95794527D01*
X107472159Y-95781625D01*
X107500189Y-95762896D01*
X107522675Y-95750877D01*
X107542386Y-95734701D01*
X107570414Y-95715973D01*
X107594248Y-95692139D01*
X107613961Y-95675961D01*
X107630140Y-95656247D01*
X107653973Y-95632414D01*
X107672698Y-95604390D01*
X107688877Y-95584676D01*
X107700899Y-95562185D01*
X107719625Y-95534159D01*
X107732525Y-95503016D01*
X107733123Y-95501897D01*
X107967511Y-95267510D01*
X108942147Y-95267510D01*
X108971583Y-95270409D01*
X109001019Y-95267510D01*
X109001027Y-95267510D01*
X109089105Y-95258835D01*
X109202111Y-95224555D01*
X109306259Y-95168887D01*
X109397544Y-95093971D01*
X109416318Y-95071096D01*
X110627912Y-93859502D01*
X110627911Y-94594468D01*
G37*
G04 #@! TD.AperFunction*
D27*
X108258698Y-92671428D02*
X108325710Y-92691756D01*
X108395400Y-92698620D01*
X108645900Y-92698620D01*
X108645900Y-93172879D01*
X108438280Y-93380500D01*
X107644721Y-93380500D01*
X108073691Y-92951530D01*
X108096561Y-92932761D01*
X108171477Y-92841476D01*
X108227145Y-92737328D01*
X108248749Y-92666110D01*
X108258698Y-92671428D01*
G04 #@! TA.AperFunction,Conductor*
D28*
G36*
X108258698Y-92671428D02*
G01*
X108325710Y-92691756D01*
X108395400Y-92698620D01*
X108645900Y-92698620D01*
X108645900Y-93172879D01*
X108438280Y-93380500D01*
X107644721Y-93380500D01*
X108073691Y-92951530D01*
X108096561Y-92932761D01*
X108171477Y-92841476D01*
X108227145Y-92737328D01*
X108248749Y-92666110D01*
X108258698Y-92671428D01*
G37*
G04 #@! TD.AperFunction*
D27*
X109567500Y-84232100D02*
X109587500Y-84232100D01*
X109587500Y-84503100D01*
X109567500Y-84503100D01*
X109567500Y-84523100D01*
X109296500Y-84523100D01*
X109296500Y-84503100D01*
X109276500Y-84503100D01*
X109276500Y-84232100D01*
X109296500Y-84232100D01*
X109296500Y-84212100D01*
X109567500Y-84212100D01*
X109567500Y-84232100D01*
G04 #@! TA.AperFunction,Conductor*
D28*
G36*
X109567500Y-84232100D02*
G01*
X109587500Y-84232100D01*
X109587500Y-84503100D01*
X109567500Y-84503100D01*
X109567500Y-84523100D01*
X109296500Y-84523100D01*
X109296500Y-84503100D01*
X109276500Y-84503100D01*
X109276500Y-84232100D01*
X109296500Y-84232100D01*
X109296500Y-84212100D01*
X109567500Y-84212100D01*
X109567500Y-84232100D01*
G37*
G04 #@! TD.AperFunction*
D27*
X107779699Y-72427534D02*
X107776800Y-72456970D01*
X107779699Y-72486406D01*
X107779699Y-72486413D01*
X107788374Y-72574491D01*
X107822654Y-72687497D01*
X107878322Y-72791645D01*
X107953238Y-72882931D01*
X107976113Y-72901704D01*
X108360001Y-73285593D01*
X108360001Y-74035124D01*
X108295000Y-74100125D01*
X108295000Y-75234500D01*
X108315000Y-75234500D01*
X108315000Y-75505500D01*
X108295000Y-75505500D01*
X108295000Y-75525500D01*
X108024000Y-75525500D01*
X108024000Y-75505500D01*
X108004000Y-75505500D01*
X108004000Y-75234500D01*
X108024000Y-75234500D01*
X108024000Y-74100125D01*
X107867375Y-73943500D01*
X107756939Y-73953528D01*
X107639123Y-73990259D01*
X107530736Y-74049270D01*
X107435944Y-74128291D01*
X107367687Y-74212780D01*
X107351313Y-74212780D01*
X107283056Y-74128291D01*
X107188264Y-74049270D01*
X107079877Y-73990259D01*
X106962061Y-73953528D01*
X106851625Y-73943500D01*
X106695000Y-74100125D01*
X106695000Y-75234500D01*
X106715000Y-75234500D01*
X106715000Y-75505500D01*
X106695000Y-75505500D01*
X106695000Y-76639875D01*
X106761905Y-76706780D01*
X106768675Y-76775521D01*
X106790896Y-76848771D01*
X106802956Y-76888528D01*
X106858624Y-76992676D01*
X106933540Y-77083961D01*
X106956410Y-77102730D01*
X107302573Y-77448893D01*
X107343340Y-77489924D01*
X107358872Y-77500375D01*
X107305336Y-77505648D01*
X107191426Y-77540202D01*
X107086446Y-77596315D01*
X106994430Y-77671830D01*
X106918915Y-77763846D01*
X106862802Y-77868826D01*
X106838158Y-77950067D01*
X106812998Y-77867126D01*
X106756885Y-77762146D01*
X106681370Y-77670130D01*
X106589354Y-77594615D01*
X106484374Y-77538502D01*
X106370464Y-77503948D01*
X106252001Y-77492280D01*
X105601999Y-77492280D01*
X105483536Y-77503948D01*
X105369626Y-77538502D01*
X105264646Y-77594615D01*
X105172630Y-77670130D01*
X105097115Y-77762146D01*
X105041002Y-77867126D01*
X105006448Y-77981036D01*
X104994780Y-78099499D01*
X104994780Y-78999501D01*
X105006448Y-79117964D01*
X105041002Y-79231874D01*
X105097115Y-79336854D01*
X105172630Y-79428870D01*
X105264646Y-79504385D01*
X105369626Y-79560498D01*
X105483536Y-79595052D01*
X105505852Y-79597250D01*
X105483536Y-79599448D01*
X105369626Y-79634002D01*
X105264646Y-79690115D01*
X105172630Y-79765630D01*
X105097115Y-79857646D01*
X105041002Y-79962626D01*
X105006448Y-80076536D01*
X104994780Y-80194999D01*
X104994780Y-81095001D01*
X105006448Y-81213464D01*
X105041002Y-81327374D01*
X105097115Y-81432354D01*
X105172630Y-81524370D01*
X105264646Y-81599885D01*
X105369626Y-81655998D01*
X105483536Y-81690552D01*
X105505852Y-81692750D01*
X105483536Y-81694948D01*
X105369626Y-81729502D01*
X105264646Y-81785615D01*
X105172630Y-81861130D01*
X105097115Y-81953146D01*
X105041002Y-82058126D01*
X105006448Y-82172036D01*
X104994780Y-82290499D01*
X104994780Y-83141159D01*
X104809220Y-82955600D01*
X104809220Y-82290499D01*
X104797552Y-82172036D01*
X104762998Y-82058126D01*
X104706885Y-81953146D01*
X104631370Y-81861130D01*
X104539354Y-81785615D01*
X104434374Y-81729502D01*
X104320464Y-81694948D01*
X104298148Y-81692750D01*
X104320464Y-81690552D01*
X104434374Y-81655998D01*
X104539354Y-81599885D01*
X104631370Y-81524370D01*
X104706885Y-81432354D01*
X104762998Y-81327374D01*
X104797552Y-81213464D01*
X104809220Y-81095001D01*
X104809220Y-80194999D01*
X104797552Y-80076536D01*
X104762998Y-79962626D01*
X104706885Y-79857646D01*
X104631370Y-79765630D01*
X104539354Y-79690115D01*
X104434374Y-79634002D01*
X104320464Y-79599448D01*
X104298148Y-79597250D01*
X104320464Y-79595052D01*
X104434374Y-79560498D01*
X104539354Y-79504385D01*
X104631370Y-79428870D01*
X104706885Y-79336854D01*
X104762998Y-79231874D01*
X104797552Y-79117964D01*
X104809220Y-78999501D01*
X104809220Y-78099499D01*
X104797552Y-77981036D01*
X104762998Y-77867126D01*
X104706885Y-77762146D01*
X104631370Y-77670130D01*
X104539354Y-77594615D01*
X104434374Y-77538502D01*
X104320464Y-77503948D01*
X104202001Y-77492280D01*
X103551999Y-77492280D01*
X103433536Y-77503948D01*
X103319626Y-77538502D01*
X103214646Y-77594615D01*
X103122630Y-77670130D01*
X103088500Y-77711718D01*
X103088500Y-76575320D01*
X103694321Y-75969500D01*
X104327280Y-75969500D01*
X104327280Y-76170000D01*
X104334144Y-76239690D01*
X104354472Y-76306702D01*
X104387482Y-76368461D01*
X104431907Y-76422593D01*
X104486039Y-76467018D01*
X104547798Y-76500028D01*
X104614810Y-76520356D01*
X104684500Y-76527220D01*
X105234500Y-76527220D01*
X105304190Y-76520356D01*
X105359500Y-76503578D01*
X105414810Y-76520356D01*
X105484500Y-76527220D01*
X105767687Y-76527220D01*
X105835944Y-76611709D01*
X105930736Y-76690730D01*
X106039123Y-76749741D01*
X106156939Y-76786472D01*
X106267375Y-76796500D01*
X106424000Y-76639875D01*
X106424000Y-75505500D01*
X106404000Y-75505500D01*
X106404000Y-75234500D01*
X106424000Y-75234500D01*
X106424000Y-74100125D01*
X106359000Y-74035125D01*
X106359000Y-72542820D01*
X106933708Y-71968113D01*
X106935414Y-71966973D01*
X106959247Y-71943140D01*
X106978961Y-71926961D01*
X106995140Y-71907247D01*
X107018973Y-71883414D01*
X107037698Y-71855390D01*
X107053877Y-71835676D01*
X107065899Y-71813185D01*
X107084625Y-71785159D01*
X107097525Y-71754016D01*
X107109545Y-71731528D01*
X107116947Y-71707128D01*
X107129847Y-71675984D01*
X107136423Y-71642923D01*
X107143825Y-71618522D01*
X107146325Y-71593142D01*
X107152900Y-71560085D01*
X107152900Y-71526383D01*
X107155400Y-71501000D01*
X107152900Y-71475617D01*
X107152900Y-71441915D01*
X107146325Y-71408858D01*
X107143825Y-71383478D01*
X107136423Y-71359077D01*
X107129847Y-71326016D01*
X107116947Y-71294872D01*
X107109545Y-71270472D01*
X107097525Y-71247984D01*
X107084625Y-71216841D01*
X107065899Y-71188815D01*
X107053877Y-71166324D01*
X107037698Y-71146610D01*
X107018973Y-71118586D01*
X106995140Y-71094753D01*
X106978961Y-71075039D01*
X106959247Y-71058860D01*
X106935414Y-71035027D01*
X106907390Y-71016302D01*
X106887676Y-71000123D01*
X106865185Y-70988101D01*
X106837159Y-70969375D01*
X106806016Y-70956475D01*
X106783528Y-70944455D01*
X106759128Y-70937053D01*
X106727984Y-70924153D01*
X106694923Y-70917577D01*
X106670522Y-70910175D01*
X106645142Y-70907675D01*
X106612085Y-70901100D01*
X106578372Y-70901100D01*
X106552999Y-70898601D01*
X106527626Y-70901100D01*
X106493915Y-70901100D01*
X106460858Y-70907675D01*
X106435478Y-70910175D01*
X106411077Y-70917577D01*
X106378016Y-70924153D01*
X106346872Y-70937053D01*
X106322472Y-70944455D01*
X106299984Y-70956475D01*
X106268841Y-70969375D01*
X106240815Y-70988101D01*
X106218324Y-71000123D01*
X106198610Y-71016302D01*
X106170586Y-71035027D01*
X106146753Y-71058860D01*
X106127039Y-71075039D01*
X106110860Y-71094753D01*
X106087027Y-71118586D01*
X106085887Y-71120292D01*
X105356410Y-71849770D01*
X105333540Y-71868539D01*
X105258623Y-71959824D01*
X105202955Y-72063972D01*
X105168675Y-72176978D01*
X105160000Y-72265056D01*
X105160000Y-72265064D01*
X105157101Y-72294500D01*
X105160000Y-72323936D01*
X105160000Y-72413343D01*
X105160001Y-72413353D01*
X105160000Y-74212780D01*
X104684500Y-74212780D01*
X104664777Y-74214723D01*
X104666720Y-74195000D01*
X104666720Y-73645000D01*
X104659856Y-73575310D01*
X104643078Y-73520000D01*
X104659856Y-73464690D01*
X104666720Y-73395000D01*
X104666720Y-72845000D01*
X104659856Y-72775310D01*
X104643078Y-72720000D01*
X104659856Y-72664690D01*
X104666720Y-72595000D01*
X104666720Y-72045000D01*
X104659856Y-71975310D01*
X104643078Y-71920000D01*
X104659856Y-71864690D01*
X104666720Y-71795000D01*
X104666720Y-71792500D01*
X104671625Y-71785159D01*
X104716847Y-71675984D01*
X104739900Y-71560085D01*
X104739900Y-71441915D01*
X104716847Y-71326016D01*
X104714148Y-71319500D01*
X104768064Y-71319500D01*
X104797500Y-71322399D01*
X104826936Y-71319500D01*
X104826944Y-71319500D01*
X104915022Y-71310825D01*
X105028028Y-71276545D01*
X105132176Y-71220877D01*
X105223461Y-71145961D01*
X105242235Y-71123085D01*
X105432087Y-70933233D01*
X105446003Y-70921812D01*
X105479975Y-70955784D01*
X105578230Y-71021436D01*
X105687405Y-71066658D01*
X105803304Y-71089711D01*
X105921474Y-71089711D01*
X106037373Y-71066658D01*
X106146548Y-71021436D01*
X106244803Y-70955784D01*
X106328362Y-70872225D01*
X106394014Y-70773970D01*
X106439236Y-70664795D01*
X106450517Y-70608082D01*
X107779700Y-69278900D01*
X107779699Y-72427534D01*
G04 #@! TA.AperFunction,Conductor*
D28*
G36*
X107779699Y-72427534D02*
G01*
X107776800Y-72456970D01*
X107779699Y-72486406D01*
X107779699Y-72486413D01*
X107788374Y-72574491D01*
X107822654Y-72687497D01*
X107878322Y-72791645D01*
X107953238Y-72882931D01*
X107976113Y-72901704D01*
X108360001Y-73285593D01*
X108360001Y-74035124D01*
X108295000Y-74100125D01*
X108295000Y-75234500D01*
X108315000Y-75234500D01*
X108315000Y-75505500D01*
X108295000Y-75505500D01*
X108295000Y-75525500D01*
X108024000Y-75525500D01*
X108024000Y-75505500D01*
X108004000Y-75505500D01*
X108004000Y-75234500D01*
X108024000Y-75234500D01*
X108024000Y-74100125D01*
X107867375Y-73943500D01*
X107756939Y-73953528D01*
X107639123Y-73990259D01*
X107530736Y-74049270D01*
X107435944Y-74128291D01*
X107367687Y-74212780D01*
X107351313Y-74212780D01*
X107283056Y-74128291D01*
X107188264Y-74049270D01*
X107079877Y-73990259D01*
X106962061Y-73953528D01*
X106851625Y-73943500D01*
X106695000Y-74100125D01*
X106695000Y-75234500D01*
X106715000Y-75234500D01*
X106715000Y-75505500D01*
X106695000Y-75505500D01*
X106695000Y-76639875D01*
X106761905Y-76706780D01*
X106768675Y-76775521D01*
X106790896Y-76848771D01*
X106802956Y-76888528D01*
X106858624Y-76992676D01*
X106933540Y-77083961D01*
X106956410Y-77102730D01*
X107302573Y-77448893D01*
X107343340Y-77489924D01*
X107358872Y-77500375D01*
X107305336Y-77505648D01*
X107191426Y-77540202D01*
X107086446Y-77596315D01*
X106994430Y-77671830D01*
X106918915Y-77763846D01*
X106862802Y-77868826D01*
X106838158Y-77950067D01*
X106812998Y-77867126D01*
X106756885Y-77762146D01*
X106681370Y-77670130D01*
X106589354Y-77594615D01*
X106484374Y-77538502D01*
X106370464Y-77503948D01*
X106252001Y-77492280D01*
X105601999Y-77492280D01*
X105483536Y-77503948D01*
X105369626Y-77538502D01*
X105264646Y-77594615D01*
X105172630Y-77670130D01*
X105097115Y-77762146D01*
X105041002Y-77867126D01*
X105006448Y-77981036D01*
X104994780Y-78099499D01*
X104994780Y-78999501D01*
X105006448Y-79117964D01*
X105041002Y-79231874D01*
X105097115Y-79336854D01*
X105172630Y-79428870D01*
X105264646Y-79504385D01*
X105369626Y-79560498D01*
X105483536Y-79595052D01*
X105505852Y-79597250D01*
X105483536Y-79599448D01*
X105369626Y-79634002D01*
X105264646Y-79690115D01*
X105172630Y-79765630D01*
X105097115Y-79857646D01*
X105041002Y-79962626D01*
X105006448Y-80076536D01*
X104994780Y-80194999D01*
X104994780Y-81095001D01*
X105006448Y-81213464D01*
X105041002Y-81327374D01*
X105097115Y-81432354D01*
X105172630Y-81524370D01*
X105264646Y-81599885D01*
X105369626Y-81655998D01*
X105483536Y-81690552D01*
X105505852Y-81692750D01*
X105483536Y-81694948D01*
X105369626Y-81729502D01*
X105264646Y-81785615D01*
X105172630Y-81861130D01*
X105097115Y-81953146D01*
X105041002Y-82058126D01*
X105006448Y-82172036D01*
X104994780Y-82290499D01*
X104994780Y-83141159D01*
X104809220Y-82955600D01*
X104809220Y-82290499D01*
X104797552Y-82172036D01*
X104762998Y-82058126D01*
X104706885Y-81953146D01*
X104631370Y-81861130D01*
X104539354Y-81785615D01*
X104434374Y-81729502D01*
X104320464Y-81694948D01*
X104298148Y-81692750D01*
X104320464Y-81690552D01*
X104434374Y-81655998D01*
X104539354Y-81599885D01*
X104631370Y-81524370D01*
X104706885Y-81432354D01*
X104762998Y-81327374D01*
X104797552Y-81213464D01*
X104809220Y-81095001D01*
X104809220Y-80194999D01*
X104797552Y-80076536D01*
X104762998Y-79962626D01*
X104706885Y-79857646D01*
X104631370Y-79765630D01*
X104539354Y-79690115D01*
X104434374Y-79634002D01*
X104320464Y-79599448D01*
X104298148Y-79597250D01*
X104320464Y-79595052D01*
X104434374Y-79560498D01*
X104539354Y-79504385D01*
X104631370Y-79428870D01*
X104706885Y-79336854D01*
X104762998Y-79231874D01*
X104797552Y-79117964D01*
X104809220Y-78999501D01*
X104809220Y-78099499D01*
X104797552Y-77981036D01*
X104762998Y-77867126D01*
X104706885Y-77762146D01*
X104631370Y-77670130D01*
X104539354Y-77594615D01*
X104434374Y-77538502D01*
X104320464Y-77503948D01*
X104202001Y-77492280D01*
X103551999Y-77492280D01*
X103433536Y-77503948D01*
X103319626Y-77538502D01*
X103214646Y-77594615D01*
X103122630Y-77670130D01*
X103088500Y-77711718D01*
X103088500Y-76575320D01*
X103694321Y-75969500D01*
X104327280Y-75969500D01*
X104327280Y-76170000D01*
X104334144Y-76239690D01*
X104354472Y-76306702D01*
X104387482Y-76368461D01*
X104431907Y-76422593D01*
X104486039Y-76467018D01*
X104547798Y-76500028D01*
X104614810Y-76520356D01*
X104684500Y-76527220D01*
X105234500Y-76527220D01*
X105304190Y-76520356D01*
X105359500Y-76503578D01*
X105414810Y-76520356D01*
X105484500Y-76527220D01*
X105767687Y-76527220D01*
X105835944Y-76611709D01*
X105930736Y-76690730D01*
X106039123Y-76749741D01*
X106156939Y-76786472D01*
X106267375Y-76796500D01*
X106424000Y-76639875D01*
X106424000Y-75505500D01*
X106404000Y-75505500D01*
X106404000Y-75234500D01*
X106424000Y-75234500D01*
X106424000Y-74100125D01*
X106359000Y-74035125D01*
X106359000Y-72542820D01*
X106933708Y-71968113D01*
X106935414Y-71966973D01*
X106959247Y-71943140D01*
X106978961Y-71926961D01*
X106995140Y-71907247D01*
X107018973Y-71883414D01*
X107037698Y-71855390D01*
X107053877Y-71835676D01*
X107065899Y-71813185D01*
X107084625Y-71785159D01*
X107097525Y-71754016D01*
X107109545Y-71731528D01*
X107116947Y-71707128D01*
X107129847Y-71675984D01*
X107136423Y-71642923D01*
X107143825Y-71618522D01*
X107146325Y-71593142D01*
X107152900Y-71560085D01*
X107152900Y-71526383D01*
X107155400Y-71501000D01*
X107152900Y-71475617D01*
X107152900Y-71441915D01*
X107146325Y-71408858D01*
X107143825Y-71383478D01*
X107136423Y-71359077D01*
X107129847Y-71326016D01*
X107116947Y-71294872D01*
X107109545Y-71270472D01*
X107097525Y-71247984D01*
X107084625Y-71216841D01*
X107065899Y-71188815D01*
X107053877Y-71166324D01*
X107037698Y-71146610D01*
X107018973Y-71118586D01*
X106995140Y-71094753D01*
X106978961Y-71075039D01*
X106959247Y-71058860D01*
X106935414Y-71035027D01*
X106907390Y-71016302D01*
X106887676Y-71000123D01*
X106865185Y-70988101D01*
X106837159Y-70969375D01*
X106806016Y-70956475D01*
X106783528Y-70944455D01*
X106759128Y-70937053D01*
X106727984Y-70924153D01*
X106694923Y-70917577D01*
X106670522Y-70910175D01*
X106645142Y-70907675D01*
X106612085Y-70901100D01*
X106578372Y-70901100D01*
X106552999Y-70898601D01*
X106527626Y-70901100D01*
X106493915Y-70901100D01*
X106460858Y-70907675D01*
X106435478Y-70910175D01*
X106411077Y-70917577D01*
X106378016Y-70924153D01*
X106346872Y-70937053D01*
X106322472Y-70944455D01*
X106299984Y-70956475D01*
X106268841Y-70969375D01*
X106240815Y-70988101D01*
X106218324Y-71000123D01*
X106198610Y-71016302D01*
X106170586Y-71035027D01*
X106146753Y-71058860D01*
X106127039Y-71075039D01*
X106110860Y-71094753D01*
X106087027Y-71118586D01*
X106085887Y-71120292D01*
X105356410Y-71849770D01*
X105333540Y-71868539D01*
X105258623Y-71959824D01*
X105202955Y-72063972D01*
X105168675Y-72176978D01*
X105160000Y-72265056D01*
X105160000Y-72265064D01*
X105157101Y-72294500D01*
X105160000Y-72323936D01*
X105160000Y-72413343D01*
X105160001Y-72413353D01*
X105160000Y-74212780D01*
X104684500Y-74212780D01*
X104664777Y-74214723D01*
X104666720Y-74195000D01*
X104666720Y-73645000D01*
X104659856Y-73575310D01*
X104643078Y-73520000D01*
X104659856Y-73464690D01*
X104666720Y-73395000D01*
X104666720Y-72845000D01*
X104659856Y-72775310D01*
X104643078Y-72720000D01*
X104659856Y-72664690D01*
X104666720Y-72595000D01*
X104666720Y-72045000D01*
X104659856Y-71975310D01*
X104643078Y-71920000D01*
X104659856Y-71864690D01*
X104666720Y-71795000D01*
X104666720Y-71792500D01*
X104671625Y-71785159D01*
X104716847Y-71675984D01*
X104739900Y-71560085D01*
X104739900Y-71441915D01*
X104716847Y-71326016D01*
X104714148Y-71319500D01*
X104768064Y-71319500D01*
X104797500Y-71322399D01*
X104826936Y-71319500D01*
X104826944Y-71319500D01*
X104915022Y-71310825D01*
X105028028Y-71276545D01*
X105132176Y-71220877D01*
X105223461Y-71145961D01*
X105242235Y-71123085D01*
X105432087Y-70933233D01*
X105446003Y-70921812D01*
X105479975Y-70955784D01*
X105578230Y-71021436D01*
X105687405Y-71066658D01*
X105803304Y-71089711D01*
X105921474Y-71089711D01*
X106037373Y-71066658D01*
X106146548Y-71021436D01*
X106244803Y-70955784D01*
X106328362Y-70872225D01*
X106394014Y-70773970D01*
X106439236Y-70664795D01*
X106450517Y-70608082D01*
X107779700Y-69278900D01*
X107779699Y-72427534D01*
G37*
G04 #@! TD.AperFunction*
D27*
X100195009Y-79287335D02*
X100321465Y-79476588D01*
X100482412Y-79637535D01*
X100671665Y-79763991D01*
X100881953Y-79851095D01*
X101105193Y-79895500D01*
X101332807Y-79895500D01*
X101556047Y-79851095D01*
X101766335Y-79763991D01*
X101889500Y-79681694D01*
X101889500Y-79761679D01*
X101494514Y-80156665D01*
X101332807Y-80124500D01*
X101105193Y-80124500D01*
X100881953Y-80168905D01*
X100671665Y-80256009D01*
X100482412Y-80382465D01*
X100321465Y-80543412D01*
X100195009Y-80732665D01*
X100139500Y-80866676D01*
X100083991Y-80732665D01*
X99957535Y-80543412D01*
X99796588Y-80382465D01*
X99607335Y-80256009D01*
X99397047Y-80168905D01*
X99173807Y-80124500D01*
X98946193Y-80124500D01*
X98722953Y-80168905D01*
X98512665Y-80256009D01*
X98323412Y-80382465D01*
X98170500Y-80535377D01*
X98170500Y-79484623D01*
X98323412Y-79637535D01*
X98512665Y-79763991D01*
X98722953Y-79851095D01*
X98946193Y-79895500D01*
X99173807Y-79895500D01*
X99397047Y-79851095D01*
X99607335Y-79763991D01*
X99796588Y-79637535D01*
X99957535Y-79476588D01*
X100083991Y-79287335D01*
X100139500Y-79153324D01*
X100195009Y-79287335D01*
G04 #@! TA.AperFunction,Conductor*
D28*
G36*
X100195009Y-79287335D02*
G01*
X100321465Y-79476588D01*
X100482412Y-79637535D01*
X100671665Y-79763991D01*
X100881953Y-79851095D01*
X101105193Y-79895500D01*
X101332807Y-79895500D01*
X101556047Y-79851095D01*
X101766335Y-79763991D01*
X101889500Y-79681694D01*
X101889500Y-79761679D01*
X101494514Y-80156665D01*
X101332807Y-80124500D01*
X101105193Y-80124500D01*
X100881953Y-80168905D01*
X100671665Y-80256009D01*
X100482412Y-80382465D01*
X100321465Y-80543412D01*
X100195009Y-80732665D01*
X100139500Y-80866676D01*
X100083991Y-80732665D01*
X99957535Y-80543412D01*
X99796588Y-80382465D01*
X99607335Y-80256009D01*
X99397047Y-80168905D01*
X99173807Y-80124500D01*
X98946193Y-80124500D01*
X98722953Y-80168905D01*
X98512665Y-80256009D01*
X98323412Y-80382465D01*
X98170500Y-80535377D01*
X98170500Y-79484623D01*
X98323412Y-79637535D01*
X98512665Y-79763991D01*
X98722953Y-79851095D01*
X98946193Y-79895500D01*
X99173807Y-79895500D01*
X99397047Y-79851095D01*
X99607335Y-79763991D01*
X99796588Y-79637535D01*
X99957535Y-79476588D01*
X100083991Y-79287335D01*
X100139500Y-79153324D01*
X100195009Y-79287335D01*
G37*
G04 #@! TD.AperFunction*
D27*
X100195009Y-76747335D02*
X100321465Y-76936588D01*
X100482412Y-77097535D01*
X100671665Y-77223991D01*
X100881953Y-77311095D01*
X101105193Y-77355500D01*
X101332807Y-77355500D01*
X101556047Y-77311095D01*
X101766335Y-77223991D01*
X101889501Y-77141693D01*
X101889501Y-77798306D01*
X101766335Y-77716009D01*
X101556047Y-77628905D01*
X101332807Y-77584500D01*
X101105193Y-77584500D01*
X100881953Y-77628905D01*
X100671665Y-77716009D01*
X100482412Y-77842465D01*
X100321465Y-78003412D01*
X100195009Y-78192665D01*
X100139500Y-78326676D01*
X100083991Y-78192665D01*
X99957535Y-78003412D01*
X99796588Y-77842465D01*
X99607335Y-77716009D01*
X99397047Y-77628905D01*
X99173807Y-77584500D01*
X98946193Y-77584500D01*
X98722953Y-77628905D01*
X98512665Y-77716009D01*
X98323412Y-77842465D01*
X98170500Y-77995377D01*
X98170500Y-76944623D01*
X98323412Y-77097535D01*
X98512665Y-77223991D01*
X98722953Y-77311095D01*
X98946193Y-77355500D01*
X99173807Y-77355500D01*
X99397047Y-77311095D01*
X99607335Y-77223991D01*
X99796588Y-77097535D01*
X99957535Y-76936588D01*
X100083991Y-76747335D01*
X100139500Y-76613324D01*
X100195009Y-76747335D01*
G04 #@! TA.AperFunction,Conductor*
D28*
G36*
X100195009Y-76747335D02*
G01*
X100321465Y-76936588D01*
X100482412Y-77097535D01*
X100671665Y-77223991D01*
X100881953Y-77311095D01*
X101105193Y-77355500D01*
X101332807Y-77355500D01*
X101556047Y-77311095D01*
X101766335Y-77223991D01*
X101889501Y-77141693D01*
X101889501Y-77798306D01*
X101766335Y-77716009D01*
X101556047Y-77628905D01*
X101332807Y-77584500D01*
X101105193Y-77584500D01*
X100881953Y-77628905D01*
X100671665Y-77716009D01*
X100482412Y-77842465D01*
X100321465Y-78003412D01*
X100195009Y-78192665D01*
X100139500Y-78326676D01*
X100083991Y-78192665D01*
X99957535Y-78003412D01*
X99796588Y-77842465D01*
X99607335Y-77716009D01*
X99397047Y-77628905D01*
X99173807Y-77584500D01*
X98946193Y-77584500D01*
X98722953Y-77628905D01*
X98512665Y-77716009D01*
X98323412Y-77842465D01*
X98170500Y-77995377D01*
X98170500Y-76944623D01*
X98323412Y-77097535D01*
X98512665Y-77223991D01*
X98722953Y-77311095D01*
X98946193Y-77355500D01*
X99173807Y-77355500D01*
X99397047Y-77311095D01*
X99607335Y-77223991D01*
X99796588Y-77097535D01*
X99957535Y-76936588D01*
X100083991Y-76747335D01*
X100139500Y-76613324D01*
X100195009Y-76747335D01*
G37*
G04 #@! TD.AperFunction*
D27*
X100195009Y-74207335D02*
X100321465Y-74396588D01*
X100482412Y-74557535D01*
X100671665Y-74683991D01*
X100881953Y-74771095D01*
X101105193Y-74815500D01*
X101332807Y-74815500D01*
X101556047Y-74771095D01*
X101766335Y-74683991D01*
X101955588Y-74557535D01*
X101993623Y-74519500D01*
X102562456Y-74519500D01*
X102572798Y-74525028D01*
X102639810Y-74545356D01*
X102709500Y-74552220D01*
X104309500Y-74552220D01*
X104329223Y-74550277D01*
X104327280Y-74570000D01*
X104327280Y-74770500D01*
X103475433Y-74770500D01*
X103445999Y-74767601D01*
X103416565Y-74770500D01*
X103416556Y-74770500D01*
X103328478Y-74779175D01*
X103215472Y-74813455D01*
X103111324Y-74869123D01*
X103020039Y-74944039D01*
X103001270Y-74966909D01*
X102264233Y-75703947D01*
X102242991Y-75652665D01*
X102116535Y-75463412D01*
X101955588Y-75302465D01*
X101766335Y-75176009D01*
X101556047Y-75088905D01*
X101332807Y-75044500D01*
X101105193Y-75044500D01*
X100881953Y-75088905D01*
X100671665Y-75176009D01*
X100482412Y-75302465D01*
X100321465Y-75463412D01*
X100195009Y-75652665D01*
X100139500Y-75786676D01*
X100083991Y-75652665D01*
X99957535Y-75463412D01*
X99796588Y-75302465D01*
X99607335Y-75176009D01*
X99397047Y-75088905D01*
X99173807Y-75044500D01*
X98946193Y-75044500D01*
X98722953Y-75088905D01*
X98512665Y-75176009D01*
X98323412Y-75302465D01*
X98170500Y-75455377D01*
X98170500Y-74404623D01*
X98323412Y-74557535D01*
X98512665Y-74683991D01*
X98722953Y-74771095D01*
X98946193Y-74815500D01*
X99173807Y-74815500D01*
X99397047Y-74771095D01*
X99607335Y-74683991D01*
X99796588Y-74557535D01*
X99957535Y-74396588D01*
X100083991Y-74207335D01*
X100139500Y-74073324D01*
X100195009Y-74207335D01*
G04 #@! TA.AperFunction,Conductor*
D28*
G36*
X100195009Y-74207335D02*
G01*
X100321465Y-74396588D01*
X100482412Y-74557535D01*
X100671665Y-74683991D01*
X100881953Y-74771095D01*
X101105193Y-74815500D01*
X101332807Y-74815500D01*
X101556047Y-74771095D01*
X101766335Y-74683991D01*
X101955588Y-74557535D01*
X101993623Y-74519500D01*
X102562456Y-74519500D01*
X102572798Y-74525028D01*
X102639810Y-74545356D01*
X102709500Y-74552220D01*
X104309500Y-74552220D01*
X104329223Y-74550277D01*
X104327280Y-74570000D01*
X104327280Y-74770500D01*
X103475433Y-74770500D01*
X103445999Y-74767601D01*
X103416565Y-74770500D01*
X103416556Y-74770500D01*
X103328478Y-74779175D01*
X103215472Y-74813455D01*
X103111324Y-74869123D01*
X103020039Y-74944039D01*
X103001270Y-74966909D01*
X102264233Y-75703947D01*
X102242991Y-75652665D01*
X102116535Y-75463412D01*
X101955588Y-75302465D01*
X101766335Y-75176009D01*
X101556047Y-75088905D01*
X101332807Y-75044500D01*
X101105193Y-75044500D01*
X100881953Y-75088905D01*
X100671665Y-75176009D01*
X100482412Y-75302465D01*
X100321465Y-75463412D01*
X100195009Y-75652665D01*
X100139500Y-75786676D01*
X100083991Y-75652665D01*
X99957535Y-75463412D01*
X99796588Y-75302465D01*
X99607335Y-75176009D01*
X99397047Y-75088905D01*
X99173807Y-75044500D01*
X98946193Y-75044500D01*
X98722953Y-75088905D01*
X98512665Y-75176009D01*
X98323412Y-75302465D01*
X98170500Y-75455377D01*
X98170500Y-74404623D01*
X98323412Y-74557535D01*
X98512665Y-74683991D01*
X98722953Y-74771095D01*
X98946193Y-74815500D01*
X99173807Y-74815500D01*
X99397047Y-74771095D01*
X99607335Y-74683991D01*
X99796588Y-74557535D01*
X99957535Y-74396588D01*
X100083991Y-74207335D01*
X100139500Y-74073324D01*
X100195009Y-74207335D01*
G37*
G04 #@! TD.AperFunction*
D27*
X102352280Y-71795000D02*
X102359144Y-71864690D01*
X102375922Y-71920000D01*
X102359144Y-71975310D01*
X102352280Y-72045000D01*
X102352280Y-72595000D01*
X102359144Y-72664690D01*
X102375922Y-72720000D01*
X102359144Y-72775310D01*
X102352280Y-72845000D01*
X102352280Y-73320500D01*
X102329079Y-73320500D01*
X102242991Y-73112665D01*
X102116535Y-72923412D01*
X101955588Y-72762465D01*
X101766335Y-72636009D01*
X101556047Y-72548905D01*
X101332807Y-72504500D01*
X101105193Y-72504500D01*
X100881953Y-72548905D01*
X100671665Y-72636009D01*
X100482412Y-72762465D01*
X100321465Y-72923412D01*
X100195009Y-73112665D01*
X100139500Y-73246676D01*
X100083991Y-73112665D01*
X99957535Y-72923412D01*
X99796588Y-72762465D01*
X99607335Y-72636009D01*
X99397047Y-72548905D01*
X99173807Y-72504500D01*
X98946193Y-72504500D01*
X98722953Y-72548905D01*
X98512665Y-72636009D01*
X98323412Y-72762465D01*
X98170500Y-72915377D01*
X98170500Y-71864623D01*
X98323412Y-72017535D01*
X98512665Y-72143991D01*
X98722953Y-72231095D01*
X98946193Y-72275500D01*
X99173807Y-72275500D01*
X99397047Y-72231095D01*
X99607335Y-72143991D01*
X99796588Y-72017535D01*
X99957535Y-71856588D01*
X100083991Y-71667335D01*
X100139500Y-71533324D01*
X100195009Y-71667335D01*
X100321465Y-71856588D01*
X100482412Y-72017535D01*
X100671665Y-72143991D01*
X100881953Y-72231095D01*
X101105193Y-72275500D01*
X101332807Y-72275500D01*
X101556047Y-72231095D01*
X101766335Y-72143991D01*
X101955588Y-72017535D01*
X102116535Y-71856588D01*
X102242991Y-71667335D01*
X102330095Y-71457047D01*
X102352280Y-71345515D01*
X102352280Y-71795000D01*
G04 #@! TA.AperFunction,Conductor*
D28*
G36*
X102352280Y-71795000D02*
G01*
X102359144Y-71864690D01*
X102375922Y-71920000D01*
X102359144Y-71975310D01*
X102352280Y-72045000D01*
X102352280Y-72595000D01*
X102359144Y-72664690D01*
X102375922Y-72720000D01*
X102359144Y-72775310D01*
X102352280Y-72845000D01*
X102352280Y-73320500D01*
X102329079Y-73320500D01*
X102242991Y-73112665D01*
X102116535Y-72923412D01*
X101955588Y-72762465D01*
X101766335Y-72636009D01*
X101556047Y-72548905D01*
X101332807Y-72504500D01*
X101105193Y-72504500D01*
X100881953Y-72548905D01*
X100671665Y-72636009D01*
X100482412Y-72762465D01*
X100321465Y-72923412D01*
X100195009Y-73112665D01*
X100139500Y-73246676D01*
X100083991Y-73112665D01*
X99957535Y-72923412D01*
X99796588Y-72762465D01*
X99607335Y-72636009D01*
X99397047Y-72548905D01*
X99173807Y-72504500D01*
X98946193Y-72504500D01*
X98722953Y-72548905D01*
X98512665Y-72636009D01*
X98323412Y-72762465D01*
X98170500Y-72915377D01*
X98170500Y-71864623D01*
X98323412Y-72017535D01*
X98512665Y-72143991D01*
X98722953Y-72231095D01*
X98946193Y-72275500D01*
X99173807Y-72275500D01*
X99397047Y-72231095D01*
X99607335Y-72143991D01*
X99796588Y-72017535D01*
X99957535Y-71856588D01*
X100083991Y-71667335D01*
X100139500Y-71533324D01*
X100195009Y-71667335D01*
X100321465Y-71856588D01*
X100482412Y-72017535D01*
X100671665Y-72143991D01*
X100881953Y-72231095D01*
X101105193Y-72275500D01*
X101332807Y-72275500D01*
X101556047Y-72231095D01*
X101766335Y-72143991D01*
X101955588Y-72017535D01*
X102116535Y-71856588D01*
X102242991Y-71667335D01*
X102330095Y-71457047D01*
X102352280Y-71345515D01*
X102352280Y-71795000D01*
G37*
G04 #@! TD.AperFunction*
D27*
X102375922Y-68720000D02*
X102359144Y-68775310D01*
X102352280Y-68845000D01*
X102352280Y-69324171D01*
X102301478Y-69329175D01*
X102188472Y-69363455D01*
X102084324Y-69419123D01*
X101993039Y-69494039D01*
X101974270Y-69516909D01*
X101494514Y-69996665D01*
X101332807Y-69964500D01*
X101105193Y-69964500D01*
X100881953Y-70008905D01*
X100671665Y-70096009D01*
X100482412Y-70222465D01*
X100321465Y-70383412D01*
X100195009Y-70572665D01*
X100139500Y-70706676D01*
X100083991Y-70572665D01*
X99957535Y-70383412D01*
X99796588Y-70222465D01*
X99607335Y-70096009D01*
X99397047Y-70008905D01*
X99173807Y-69964500D01*
X98946193Y-69964500D01*
X98722953Y-70008905D01*
X98512665Y-70096009D01*
X98323412Y-70222465D01*
X98170500Y-70375377D01*
X98170500Y-69324623D01*
X98323412Y-69477535D01*
X98512665Y-69603991D01*
X98722953Y-69691095D01*
X98946193Y-69735500D01*
X99173807Y-69735500D01*
X99397047Y-69691095D01*
X99607335Y-69603991D01*
X99796588Y-69477535D01*
X99957535Y-69316588D01*
X100083991Y-69127335D01*
X100139500Y-68993324D01*
X100195009Y-69127335D01*
X100321465Y-69316588D01*
X100482412Y-69477535D01*
X100671665Y-69603991D01*
X100881953Y-69691095D01*
X101105193Y-69735500D01*
X101332807Y-69735500D01*
X101556047Y-69691095D01*
X101766335Y-69603991D01*
X101955588Y-69477535D01*
X102116535Y-69316588D01*
X102242991Y-69127335D01*
X102330095Y-68917047D01*
X102371917Y-68706795D01*
X102375922Y-68720000D01*
G04 #@! TA.AperFunction,Conductor*
D28*
G36*
X102375922Y-68720000D02*
G01*
X102359144Y-68775310D01*
X102352280Y-68845000D01*
X102352280Y-69324171D01*
X102301478Y-69329175D01*
X102188472Y-69363455D01*
X102084324Y-69419123D01*
X101993039Y-69494039D01*
X101974270Y-69516909D01*
X101494514Y-69996665D01*
X101332807Y-69964500D01*
X101105193Y-69964500D01*
X100881953Y-70008905D01*
X100671665Y-70096009D01*
X100482412Y-70222465D01*
X100321465Y-70383412D01*
X100195009Y-70572665D01*
X100139500Y-70706676D01*
X100083991Y-70572665D01*
X99957535Y-70383412D01*
X99796588Y-70222465D01*
X99607335Y-70096009D01*
X99397047Y-70008905D01*
X99173807Y-69964500D01*
X98946193Y-69964500D01*
X98722953Y-70008905D01*
X98512665Y-70096009D01*
X98323412Y-70222465D01*
X98170500Y-70375377D01*
X98170500Y-69324623D01*
X98323412Y-69477535D01*
X98512665Y-69603991D01*
X98722953Y-69691095D01*
X98946193Y-69735500D01*
X99173807Y-69735500D01*
X99397047Y-69691095D01*
X99607335Y-69603991D01*
X99796588Y-69477535D01*
X99957535Y-69316588D01*
X100083991Y-69127335D01*
X100139500Y-68993324D01*
X100195009Y-69127335D01*
X100321465Y-69316588D01*
X100482412Y-69477535D01*
X100671665Y-69603991D01*
X100881953Y-69691095D01*
X101105193Y-69735500D01*
X101332807Y-69735500D01*
X101556047Y-69691095D01*
X101766335Y-69603991D01*
X101955588Y-69477535D01*
X102116535Y-69316588D01*
X102242991Y-69127335D01*
X102330095Y-68917047D01*
X102371917Y-68706795D01*
X102375922Y-68720000D01*
G37*
G04 #@! TD.AperFunction*
D27*
X101662780Y-46140000D02*
X101662780Y-47840000D01*
X101669644Y-47909690D01*
X101689972Y-47976702D01*
X101722982Y-48038461D01*
X101767407Y-48092593D01*
X101821539Y-48137018D01*
X101883298Y-48170028D01*
X101950310Y-48190356D01*
X102020000Y-48197220D01*
X103720000Y-48197220D01*
X103789690Y-48190356D01*
X103856702Y-48170028D01*
X103918461Y-48137018D01*
X103972593Y-48092593D01*
X104017018Y-48038461D01*
X104050028Y-47976702D01*
X104070356Y-47909690D01*
X104077220Y-47840000D01*
X104077220Y-46140000D01*
X104073330Y-46100500D01*
X104594665Y-46100500D01*
X104473627Y-46221538D01*
X104341700Y-46418982D01*
X104250827Y-46638369D01*
X104204500Y-46871269D01*
X104204500Y-47108731D01*
X104250827Y-47341631D01*
X104341700Y-47561018D01*
X104473627Y-47758462D01*
X104641538Y-47926373D01*
X104838982Y-48058300D01*
X105058369Y-48149173D01*
X105291269Y-48195500D01*
X105528731Y-48195500D01*
X105761631Y-48149173D01*
X105981018Y-48058300D01*
X106178462Y-47926373D01*
X106346373Y-47758462D01*
X106478300Y-47561018D01*
X106569173Y-47341631D01*
X106615500Y-47108731D01*
X106615500Y-46871269D01*
X106569173Y-46638369D01*
X106478300Y-46418982D01*
X106346373Y-46221538D01*
X106225335Y-46100500D01*
X107134665Y-46100500D01*
X107013627Y-46221538D01*
X106881700Y-46418982D01*
X106790827Y-46638369D01*
X106744500Y-46871269D01*
X106744500Y-47108731D01*
X106790827Y-47341631D01*
X106881700Y-47561018D01*
X107013627Y-47758462D01*
X107181538Y-47926373D01*
X107378982Y-48058300D01*
X107598369Y-48149173D01*
X107831269Y-48195500D01*
X108068731Y-48195500D01*
X108301631Y-48149173D01*
X108521018Y-48058300D01*
X108718462Y-47926373D01*
X108886373Y-47758462D01*
X109018300Y-47561018D01*
X109109173Y-47341631D01*
X109155500Y-47108731D01*
X109155500Y-46871269D01*
X109109173Y-46638369D01*
X109018300Y-46418982D01*
X108886373Y-46221538D01*
X108765335Y-46100500D01*
X109674665Y-46100500D01*
X109553627Y-46221538D01*
X109421700Y-46418982D01*
X109330827Y-46638369D01*
X109284500Y-46871269D01*
X109284500Y-47108731D01*
X109330827Y-47341631D01*
X109421700Y-47561018D01*
X109553627Y-47758462D01*
X109721538Y-47926373D01*
X109918982Y-48058300D01*
X110138369Y-48149173D01*
X110371269Y-48195500D01*
X110608731Y-48195500D01*
X110841631Y-48149173D01*
X111061018Y-48058300D01*
X111258462Y-47926373D01*
X111426373Y-47758462D01*
X111558300Y-47561018D01*
X111649173Y-47341631D01*
X111695500Y-47108731D01*
X111695500Y-46871269D01*
X111649173Y-46638369D01*
X111558300Y-46418982D01*
X111426373Y-46221538D01*
X111305335Y-46100500D01*
X112214665Y-46100500D01*
X112093627Y-46221538D01*
X111961700Y-46418982D01*
X111870827Y-46638369D01*
X111824500Y-46871269D01*
X111824500Y-47108731D01*
X111870827Y-47341631D01*
X111961700Y-47561018D01*
X112093627Y-47758462D01*
X112261538Y-47926373D01*
X112458982Y-48058300D01*
X112678369Y-48149173D01*
X112911269Y-48195500D01*
X113148731Y-48195500D01*
X113381631Y-48149173D01*
X113601018Y-48058300D01*
X113798462Y-47926373D01*
X113966373Y-47758462D01*
X114098300Y-47561018D01*
X114189173Y-47341631D01*
X114235500Y-47108731D01*
X114235500Y-46871269D01*
X114189173Y-46638369D01*
X114098300Y-46418982D01*
X113966373Y-46221538D01*
X113845335Y-46100500D01*
X117347619Y-46100500D01*
X117338487Y-50045364D01*
X117195588Y-49902465D01*
X117006335Y-49776009D01*
X116796047Y-49688905D01*
X116572807Y-49644500D01*
X116345193Y-49644500D01*
X116121953Y-49688905D01*
X115911665Y-49776009D01*
X115722412Y-49902465D01*
X115561465Y-50063412D01*
X115435009Y-50252665D01*
X115379500Y-50386676D01*
X115323991Y-50252665D01*
X115197535Y-50063412D01*
X115036588Y-49902465D01*
X114847335Y-49776009D01*
X114637047Y-49688905D01*
X114413807Y-49644500D01*
X114186193Y-49644500D01*
X113962953Y-49688905D01*
X113752665Y-49776009D01*
X113563412Y-49902465D01*
X113402465Y-50063412D01*
X113276009Y-50252665D01*
X113188905Y-50462953D01*
X113144500Y-50686193D01*
X113144500Y-50913807D01*
X113188905Y-51137047D01*
X113276009Y-51347335D01*
X113402465Y-51536588D01*
X113563412Y-51697535D01*
X113752665Y-51823991D01*
X113962953Y-51911095D01*
X114186193Y-51955500D01*
X114413807Y-51955500D01*
X114637047Y-51911095D01*
X114847335Y-51823991D01*
X115036588Y-51697535D01*
X115197535Y-51536588D01*
X115323991Y-51347335D01*
X115379500Y-51213324D01*
X115435009Y-51347335D01*
X115561465Y-51536588D01*
X115722412Y-51697535D01*
X115911665Y-51823991D01*
X116121953Y-51911095D01*
X116345193Y-51955500D01*
X116572807Y-51955500D01*
X116796047Y-51911095D01*
X117006335Y-51823991D01*
X117195588Y-51697535D01*
X117334985Y-51558138D01*
X117332621Y-52579498D01*
X117195588Y-52442465D01*
X117006335Y-52316009D01*
X116796047Y-52228905D01*
X116572807Y-52184500D01*
X116345193Y-52184500D01*
X116121953Y-52228905D01*
X115911665Y-52316009D01*
X115722412Y-52442465D01*
X115561465Y-52603412D01*
X115435009Y-52792665D01*
X115379500Y-52926676D01*
X115323991Y-52792665D01*
X115197535Y-52603412D01*
X115036588Y-52442465D01*
X114847335Y-52316009D01*
X114637047Y-52228905D01*
X114413807Y-52184500D01*
X114186193Y-52184500D01*
X113962953Y-52228905D01*
X113752665Y-52316009D01*
X113563412Y-52442465D01*
X113402465Y-52603412D01*
X113276009Y-52792665D01*
X113188905Y-53002953D01*
X113144500Y-53226193D01*
X113144500Y-53453807D01*
X113188905Y-53677047D01*
X113276009Y-53887335D01*
X113402465Y-54076588D01*
X113563412Y-54237535D01*
X113752665Y-54363991D01*
X113962953Y-54451095D01*
X114186193Y-54495500D01*
X114413807Y-54495500D01*
X114637047Y-54451095D01*
X114847335Y-54363991D01*
X115036588Y-54237535D01*
X115197535Y-54076588D01*
X115323991Y-53887335D01*
X115379500Y-53753324D01*
X115435009Y-53887335D01*
X115561465Y-54076588D01*
X115722412Y-54237535D01*
X115911665Y-54363991D01*
X116121953Y-54451095D01*
X116345193Y-54495500D01*
X116572807Y-54495500D01*
X116796047Y-54451095D01*
X117006335Y-54363991D01*
X117195588Y-54237535D01*
X117329092Y-54104031D01*
X117326755Y-55113632D01*
X117195588Y-54982465D01*
X117006335Y-54856009D01*
X116796047Y-54768905D01*
X116572807Y-54724500D01*
X116345193Y-54724500D01*
X116121953Y-54768905D01*
X115911665Y-54856009D01*
X115722412Y-54982465D01*
X115561465Y-55143412D01*
X115435009Y-55332665D01*
X115379500Y-55466676D01*
X115323991Y-55332665D01*
X115197535Y-55143412D01*
X115036588Y-54982465D01*
X114847335Y-54856009D01*
X114637047Y-54768905D01*
X114413807Y-54724500D01*
X114186193Y-54724500D01*
X113962953Y-54768905D01*
X113752665Y-54856009D01*
X113563412Y-54982465D01*
X113402465Y-55143412D01*
X113276009Y-55332665D01*
X113188905Y-55542953D01*
X113144500Y-55766193D01*
X113144500Y-55993807D01*
X113188905Y-56217047D01*
X113276009Y-56427335D01*
X113402465Y-56616588D01*
X113563412Y-56777535D01*
X113752665Y-56903991D01*
X113962953Y-56991095D01*
X114186193Y-57035500D01*
X114413807Y-57035500D01*
X114637047Y-56991095D01*
X114847335Y-56903991D01*
X115036588Y-56777535D01*
X115197535Y-56616588D01*
X115323991Y-56427335D01*
X115379500Y-56293324D01*
X115435009Y-56427335D01*
X115561465Y-56616588D01*
X115722412Y-56777535D01*
X115911665Y-56903991D01*
X116121953Y-56991095D01*
X116345193Y-57035500D01*
X116572807Y-57035500D01*
X116796047Y-56991095D01*
X117006335Y-56903991D01*
X117195588Y-56777535D01*
X117323199Y-56649924D01*
X117320889Y-57647766D01*
X117195588Y-57522465D01*
X117006335Y-57396009D01*
X116796047Y-57308905D01*
X116572807Y-57264500D01*
X116345193Y-57264500D01*
X116121953Y-57308905D01*
X115911665Y-57396009D01*
X115722412Y-57522465D01*
X115561465Y-57683412D01*
X115435009Y-57872665D01*
X115379500Y-58006676D01*
X115323991Y-57872665D01*
X115197535Y-57683412D01*
X115036588Y-57522465D01*
X114847335Y-57396009D01*
X114637047Y-57308905D01*
X114413807Y-57264500D01*
X114186193Y-57264500D01*
X113962953Y-57308905D01*
X113752665Y-57396009D01*
X113563412Y-57522465D01*
X113402465Y-57683412D01*
X113276009Y-57872665D01*
X113188905Y-58082953D01*
X113144500Y-58306193D01*
X113144500Y-58533807D01*
X113188905Y-58757047D01*
X113276009Y-58967335D01*
X113402465Y-59156588D01*
X113563412Y-59317535D01*
X113752665Y-59443991D01*
X113962953Y-59531095D01*
X114186193Y-59575500D01*
X114413807Y-59575500D01*
X114637047Y-59531095D01*
X114847335Y-59443991D01*
X115036588Y-59317535D01*
X115197535Y-59156588D01*
X115323991Y-58967335D01*
X115379500Y-58833324D01*
X115435009Y-58967335D01*
X115561465Y-59156588D01*
X115722412Y-59317535D01*
X115911665Y-59443991D01*
X116121953Y-59531095D01*
X116345193Y-59575500D01*
X116572807Y-59575500D01*
X116796047Y-59531095D01*
X117006335Y-59443991D01*
X117195588Y-59317535D01*
X117317306Y-59195817D01*
X117315023Y-60181900D01*
X117195588Y-60062465D01*
X117006335Y-59936009D01*
X116796047Y-59848905D01*
X116572807Y-59804500D01*
X116345193Y-59804500D01*
X116121953Y-59848905D01*
X115911665Y-59936009D01*
X115722412Y-60062465D01*
X115561465Y-60223412D01*
X115435009Y-60412665D01*
X115379500Y-60546676D01*
X115323991Y-60412665D01*
X115197535Y-60223412D01*
X115036588Y-60062465D01*
X114847335Y-59936009D01*
X114637047Y-59848905D01*
X114413807Y-59804500D01*
X114186193Y-59804500D01*
X113962953Y-59848905D01*
X113752665Y-59936009D01*
X113563412Y-60062465D01*
X113402465Y-60223412D01*
X113276009Y-60412665D01*
X113188905Y-60622953D01*
X113144500Y-60846193D01*
X113144500Y-61073807D01*
X113188905Y-61297047D01*
X113276009Y-61507335D01*
X113402465Y-61696588D01*
X113563412Y-61857535D01*
X113752665Y-61983991D01*
X113962953Y-62071095D01*
X114186193Y-62115500D01*
X114413807Y-62115500D01*
X114637047Y-62071095D01*
X114847335Y-61983991D01*
X115036588Y-61857535D01*
X115197535Y-61696588D01*
X115323991Y-61507335D01*
X115379500Y-61373324D01*
X115435009Y-61507335D01*
X115561465Y-61696588D01*
X115722412Y-61857535D01*
X115911665Y-61983991D01*
X116121953Y-62071095D01*
X116345193Y-62115500D01*
X116572807Y-62115500D01*
X116796047Y-62071095D01*
X117006335Y-61983991D01*
X117195588Y-61857535D01*
X117311412Y-61741711D01*
X117309157Y-62716034D01*
X117195588Y-62602465D01*
X117006335Y-62476009D01*
X116796047Y-62388905D01*
X116572807Y-62344500D01*
X116345193Y-62344500D01*
X116121953Y-62388905D01*
X115911665Y-62476009D01*
X115722412Y-62602465D01*
X115561465Y-62763412D01*
X115435009Y-62952665D01*
X115379500Y-63086676D01*
X115323991Y-62952665D01*
X115197535Y-62763412D01*
X115036588Y-62602465D01*
X114847335Y-62476009D01*
X114637047Y-62388905D01*
X114413807Y-62344500D01*
X114186193Y-62344500D01*
X113962953Y-62388905D01*
X113752665Y-62476009D01*
X113563412Y-62602465D01*
X113402465Y-62763412D01*
X113276009Y-62952665D01*
X113188905Y-63162953D01*
X113150245Y-63357310D01*
X113106993Y-63304607D01*
X113052861Y-63260182D01*
X112991102Y-63227172D01*
X112924090Y-63206844D01*
X112854400Y-63199980D01*
X111954400Y-63199980D01*
X111884710Y-63206844D01*
X111817698Y-63227172D01*
X111755939Y-63260182D01*
X111701807Y-63304607D01*
X111657382Y-63358739D01*
X111624372Y-63420498D01*
X111604044Y-63487510D01*
X111597180Y-63557200D01*
X111597180Y-64357200D01*
X111604044Y-64426890D01*
X111624372Y-64493902D01*
X111657382Y-64555661D01*
X111701807Y-64609793D01*
X111755939Y-64654218D01*
X111817698Y-64687228D01*
X111884710Y-64707556D01*
X111954400Y-64714420D01*
X112126600Y-64714420D01*
X113176665Y-65764486D01*
X113144500Y-65926193D01*
X113144500Y-66153807D01*
X113188905Y-66377047D01*
X113276009Y-66587335D01*
X113402465Y-66776588D01*
X113563412Y-66937535D01*
X113752665Y-67063991D01*
X113962953Y-67151095D01*
X114186193Y-67195500D01*
X114413807Y-67195500D01*
X114637047Y-67151095D01*
X114847335Y-67063991D01*
X115036588Y-66937535D01*
X115197535Y-66776588D01*
X115323991Y-66587335D01*
X115379500Y-66453324D01*
X115435009Y-66587335D01*
X115561465Y-66776588D01*
X115722412Y-66937535D01*
X115911665Y-67063991D01*
X116121953Y-67151095D01*
X116345193Y-67195500D01*
X116572807Y-67195500D01*
X116796047Y-67151095D01*
X117006335Y-67063991D01*
X117195588Y-66937535D01*
X117299626Y-66833497D01*
X117297425Y-67784302D01*
X117195588Y-67682465D01*
X117006335Y-67556009D01*
X116796047Y-67468905D01*
X116572807Y-67424500D01*
X116345193Y-67424500D01*
X116121953Y-67468905D01*
X115911665Y-67556009D01*
X115722412Y-67682465D01*
X115561465Y-67843412D01*
X115435009Y-68032665D01*
X115379500Y-68166676D01*
X115323991Y-68032665D01*
X115197535Y-67843412D01*
X115036588Y-67682465D01*
X114847335Y-67556009D01*
X114637047Y-67468905D01*
X114413807Y-67424500D01*
X114186193Y-67424500D01*
X113962953Y-67468905D01*
X113752665Y-67556009D01*
X113563412Y-67682465D01*
X113402465Y-67843412D01*
X113276009Y-68032665D01*
X113188905Y-68242953D01*
X113166720Y-68354485D01*
X113166720Y-68045000D01*
X113159856Y-67975310D01*
X113139528Y-67908298D01*
X113106518Y-67846539D01*
X113062093Y-67792407D01*
X113007961Y-67747982D01*
X112946202Y-67714972D01*
X112879190Y-67694644D01*
X112809500Y-67687780D01*
X111209500Y-67687780D01*
X111189777Y-67689723D01*
X111191720Y-67670000D01*
X111191720Y-66070000D01*
X111184856Y-66000310D01*
X111164528Y-65933298D01*
X111131518Y-65871539D01*
X111130331Y-65870093D01*
X111204149Y-65830636D01*
X111299546Y-65752346D01*
X111377836Y-65656949D01*
X111436011Y-65548111D01*
X111471835Y-65430015D01*
X111483931Y-65307200D01*
X111480900Y-65199325D01*
X111324275Y-65042700D01*
X110539900Y-65042700D01*
X110539900Y-65062700D01*
X110268900Y-65062700D01*
X110268900Y-65042700D01*
X110248900Y-65042700D01*
X110248900Y-64771700D01*
X110268900Y-64771700D01*
X110268900Y-64037325D01*
X110539900Y-64037325D01*
X110539900Y-64771700D01*
X111324275Y-64771700D01*
X111480900Y-64615075D01*
X111483931Y-64507200D01*
X111471835Y-64384385D01*
X111436011Y-64266289D01*
X111377836Y-64157451D01*
X111299546Y-64062054D01*
X111204149Y-63983764D01*
X111095311Y-63925589D01*
X110977215Y-63889765D01*
X110854400Y-63877669D01*
X110696525Y-63880700D01*
X110539900Y-64037325D01*
X110268900Y-64037325D01*
X110112275Y-63880700D01*
X109954400Y-63877669D01*
X109831585Y-63889765D01*
X109713489Y-63925589D01*
X109604651Y-63983764D01*
X109594786Y-63991860D01*
X109576285Y-63957246D01*
X109500770Y-63865230D01*
X109408754Y-63789715D01*
X109303774Y-63733602D01*
X109197592Y-63701392D01*
X109286570Y-63628370D01*
X109362085Y-63536354D01*
X109418198Y-63431374D01*
X109452752Y-63317464D01*
X109464420Y-63199001D01*
X109464420Y-62729041D01*
X109597180Y-62861801D01*
X109597180Y-63407200D01*
X109604044Y-63476890D01*
X109624372Y-63543902D01*
X109657382Y-63605661D01*
X109701807Y-63659793D01*
X109755939Y-63704218D01*
X109817698Y-63737228D01*
X109884710Y-63757556D01*
X109954400Y-63764420D01*
X110854400Y-63764420D01*
X110924090Y-63757556D01*
X110991102Y-63737228D01*
X111052861Y-63704218D01*
X111106993Y-63659793D01*
X111151418Y-63605661D01*
X111184428Y-63543902D01*
X111204756Y-63476890D01*
X111211620Y-63407200D01*
X111211620Y-62607200D01*
X111204756Y-62537510D01*
X111184428Y-62470498D01*
X111151418Y-62408739D01*
X111106993Y-62354607D01*
X111052861Y-62310182D01*
X110991102Y-62277172D01*
X110924090Y-62256844D01*
X110854400Y-62249980D01*
X110681001Y-62249980D01*
X109464420Y-61033400D01*
X109464420Y-60498999D01*
X109452752Y-60380536D01*
X109418198Y-60266626D01*
X109362085Y-60161646D01*
X109286570Y-60069630D01*
X109194554Y-59994115D01*
X109089574Y-59938002D01*
X108975664Y-59903448D01*
X108857201Y-59891780D01*
X107957199Y-59891780D01*
X107838736Y-59903448D01*
X107724826Y-59938002D01*
X107619846Y-59994115D01*
X107527830Y-60069630D01*
X107452315Y-60161646D01*
X107396202Y-60266626D01*
X107361648Y-60380536D01*
X107349980Y-60498999D01*
X107349980Y-61149001D01*
X107361648Y-61267464D01*
X107396202Y-61381374D01*
X107452315Y-61486354D01*
X107527830Y-61578370D01*
X107619846Y-61653885D01*
X107724826Y-61709998D01*
X107838736Y-61744552D01*
X107957199Y-61756220D01*
X108491600Y-61756220D01*
X108677160Y-61941780D01*
X107957199Y-61941780D01*
X107838736Y-61953448D01*
X107724826Y-61988002D01*
X107619846Y-62044115D01*
X107527830Y-62119630D01*
X107452315Y-62211646D01*
X107396202Y-62316626D01*
X107378646Y-62374500D01*
X106976459Y-62374500D01*
X106951939Y-62372085D01*
X106927419Y-62374500D01*
X106927409Y-62374500D01*
X106854021Y-62381728D01*
X106759865Y-62410290D01*
X106673090Y-62456672D01*
X106597032Y-62519092D01*
X106591820Y-62525443D01*
X106591820Y-61227600D01*
X106584956Y-61157910D01*
X106564628Y-61090898D01*
X106531618Y-61029139D01*
X106487193Y-60975007D01*
X106433061Y-60930582D01*
X106371302Y-60897572D01*
X106304290Y-60877244D01*
X106234600Y-60870380D01*
X104534600Y-60870380D01*
X104464910Y-60877244D01*
X104397898Y-60897572D01*
X104336139Y-60930582D01*
X104282007Y-60975007D01*
X104237582Y-61029139D01*
X104204572Y-61090898D01*
X104190405Y-61137599D01*
X103750511Y-60697705D01*
X103750511Y-60063756D01*
X103802226Y-60091398D01*
X103916136Y-60125952D01*
X104034599Y-60137620D01*
X104684601Y-60137620D01*
X104803064Y-60125952D01*
X104916974Y-60091398D01*
X105021954Y-60035285D01*
X105113970Y-59959770D01*
X105189485Y-59867754D01*
X105245598Y-59762774D01*
X105280152Y-59648864D01*
X105291820Y-59530401D01*
X105291820Y-58630399D01*
X105477380Y-58630399D01*
X105477380Y-59530401D01*
X105489048Y-59648864D01*
X105523602Y-59762774D01*
X105579715Y-59867754D01*
X105655230Y-59959770D01*
X105747246Y-60035285D01*
X105852226Y-60091398D01*
X105966136Y-60125952D01*
X106084599Y-60137620D01*
X106734601Y-60137620D01*
X106853064Y-60125952D01*
X106966974Y-60091398D01*
X107071954Y-60035285D01*
X107163970Y-59959770D01*
X107239485Y-59867754D01*
X107295598Y-59762774D01*
X107330152Y-59648864D01*
X107341820Y-59530401D01*
X107341820Y-58630399D01*
X107330152Y-58511936D01*
X107295598Y-58398026D01*
X107239485Y-58293046D01*
X107163970Y-58201030D01*
X107071954Y-58125515D01*
X106966974Y-58069402D01*
X106853064Y-58034848D01*
X106734601Y-58023180D01*
X106084599Y-58023180D01*
X105966136Y-58034848D01*
X105852226Y-58069402D01*
X105747246Y-58125515D01*
X105655230Y-58201030D01*
X105579715Y-58293046D01*
X105523602Y-58398026D01*
X105489048Y-58511936D01*
X105477380Y-58630399D01*
X105291820Y-58630399D01*
X105280152Y-58511936D01*
X105245598Y-58398026D01*
X105189485Y-58293046D01*
X105113970Y-58201030D01*
X105021954Y-58125515D01*
X104959100Y-58091919D01*
X104959100Y-57508920D01*
X105228400Y-57239620D01*
X106437800Y-57239620D01*
X106507490Y-57232756D01*
X106574502Y-57212428D01*
X106636261Y-57179418D01*
X106690393Y-57134993D01*
X106734818Y-57080861D01*
X106767828Y-57019102D01*
X106788156Y-56952090D01*
X106795020Y-56882400D01*
X106795020Y-55182400D01*
X106788156Y-55112710D01*
X106767828Y-55045698D01*
X106734818Y-54983939D01*
X106690393Y-54929807D01*
X106636261Y-54885382D01*
X106574502Y-54852372D01*
X106507490Y-54832044D01*
X106437800Y-54825180D01*
X104737800Y-54825180D01*
X104668110Y-54832044D01*
X104601098Y-54852372D01*
X104539339Y-54885382D01*
X104485207Y-54929807D01*
X104440782Y-54983939D01*
X104407772Y-55045698D01*
X104387444Y-55112710D01*
X104380580Y-55182400D01*
X104380580Y-56391800D01*
X103956510Y-56815870D01*
X103933640Y-56834639D01*
X103858724Y-56925924D01*
X103808920Y-57019102D01*
X103803056Y-57030072D01*
X103768775Y-57143079D01*
X103757201Y-57260600D01*
X103760101Y-57290046D01*
X103760101Y-58091919D01*
X103697246Y-58125515D01*
X103605230Y-58201030D01*
X103529715Y-58293046D01*
X103473602Y-58398026D01*
X103439048Y-58511936D01*
X103427380Y-58630399D01*
X103427380Y-58807566D01*
X103063100Y-58443287D01*
X103063100Y-57154035D01*
X103065999Y-57124599D01*
X103063100Y-57095163D01*
X103063100Y-57095156D01*
X103054425Y-57007078D01*
X103020145Y-56894072D01*
X102964477Y-56789924D01*
X102889561Y-56698639D01*
X102866691Y-56679870D01*
X102342335Y-56155514D01*
X102374500Y-55993807D01*
X102374500Y-55766193D01*
X102330095Y-55542953D01*
X102242991Y-55332665D01*
X102116535Y-55143412D01*
X101955588Y-54982465D01*
X101766335Y-54856009D01*
X101556047Y-54768905D01*
X101332807Y-54724500D01*
X101105193Y-54724500D01*
X100881953Y-54768905D01*
X100671665Y-54856009D01*
X100482412Y-54982465D01*
X100321465Y-55143412D01*
X100195009Y-55332665D01*
X100139500Y-55466676D01*
X100083991Y-55332665D01*
X99957535Y-55143412D01*
X99796588Y-54982465D01*
X99607335Y-54856009D01*
X99397047Y-54768905D01*
X99173807Y-54724500D01*
X98946193Y-54724500D01*
X98722953Y-54768905D01*
X98512665Y-54856009D01*
X98323412Y-54982465D01*
X98170500Y-55135377D01*
X98170500Y-54084623D01*
X98323412Y-54237535D01*
X98512665Y-54363991D01*
X98722953Y-54451095D01*
X98946193Y-54495500D01*
X99173807Y-54495500D01*
X99397047Y-54451095D01*
X99607335Y-54363991D01*
X99796588Y-54237535D01*
X99957535Y-54076588D01*
X100083991Y-53887335D01*
X100139500Y-53753324D01*
X100195009Y-53887335D01*
X100321465Y-54076588D01*
X100482412Y-54237535D01*
X100671665Y-54363991D01*
X100881953Y-54451095D01*
X101105193Y-54495500D01*
X101332807Y-54495500D01*
X101556047Y-54451095D01*
X101766335Y-54363991D01*
X101955588Y-54237535D01*
X102116535Y-54076588D01*
X102242991Y-53887335D01*
X102330095Y-53677047D01*
X102374500Y-53453807D01*
X102374500Y-53226193D01*
X102330095Y-53002953D01*
X102242991Y-52792665D01*
X102116535Y-52603412D01*
X101955588Y-52442465D01*
X101766335Y-52316009D01*
X101556047Y-52228905D01*
X101544972Y-52226702D01*
X102019000Y-52229531D01*
X102141815Y-52217435D01*
X102259911Y-52181611D01*
X102368749Y-52123436D01*
X102464146Y-52045146D01*
X102542436Y-51949749D01*
X102600611Y-51840911D01*
X102636435Y-51722815D01*
X102648531Y-51600000D01*
X102645500Y-51092125D01*
X102488875Y-50935500D01*
X101354500Y-50935500D01*
X101354500Y-50955500D01*
X101083500Y-50955500D01*
X101083500Y-50935500D01*
X99195500Y-50935500D01*
X99195500Y-50955500D01*
X98924500Y-50955500D01*
X98924500Y-50935500D01*
X98904500Y-50935500D01*
X98904500Y-50664500D01*
X98924500Y-50664500D01*
X98924500Y-49530125D01*
X99195500Y-49530125D01*
X99195500Y-50664500D01*
X101083500Y-50664500D01*
X101083500Y-49530125D01*
X101354500Y-49530125D01*
X101354500Y-50664500D01*
X102488875Y-50664500D01*
X102645500Y-50507875D01*
X102648531Y-50000000D01*
X102636435Y-49877185D01*
X102600611Y-49759089D01*
X102542436Y-49650251D01*
X102464146Y-49554854D01*
X102368749Y-49476564D01*
X102259911Y-49418389D01*
X102141815Y-49382565D01*
X102019000Y-49370469D01*
X101511125Y-49373500D01*
X101354500Y-49530125D01*
X101083500Y-49530125D01*
X100926875Y-49373500D01*
X100419000Y-49370469D01*
X100296185Y-49382565D01*
X100178089Y-49418389D01*
X100139500Y-49439015D01*
X100100911Y-49418389D01*
X99982815Y-49382565D01*
X99860000Y-49370469D01*
X99352125Y-49373500D01*
X99195500Y-49530125D01*
X98924500Y-49530125D01*
X98767875Y-49373500D01*
X98260000Y-49370469D01*
X98170500Y-49379284D01*
X98170500Y-46100500D01*
X101666670Y-46100500D01*
X101662780Y-46140000D01*
G04 #@! TA.AperFunction,Conductor*
D28*
G36*
X101662780Y-46140000D02*
G01*
X101662780Y-47840000D01*
X101669644Y-47909690D01*
X101689972Y-47976702D01*
X101722982Y-48038461D01*
X101767407Y-48092593D01*
X101821539Y-48137018D01*
X101883298Y-48170028D01*
X101950310Y-48190356D01*
X102020000Y-48197220D01*
X103720000Y-48197220D01*
X103789690Y-48190356D01*
X103856702Y-48170028D01*
X103918461Y-48137018D01*
X103972593Y-48092593D01*
X104017018Y-48038461D01*
X104050028Y-47976702D01*
X104070356Y-47909690D01*
X104077220Y-47840000D01*
X104077220Y-46140000D01*
X104073330Y-46100500D01*
X104594665Y-46100500D01*
X104473627Y-46221538D01*
X104341700Y-46418982D01*
X104250827Y-46638369D01*
X104204500Y-46871269D01*
X104204500Y-47108731D01*
X104250827Y-47341631D01*
X104341700Y-47561018D01*
X104473627Y-47758462D01*
X104641538Y-47926373D01*
X104838982Y-48058300D01*
X105058369Y-48149173D01*
X105291269Y-48195500D01*
X105528731Y-48195500D01*
X105761631Y-48149173D01*
X105981018Y-48058300D01*
X106178462Y-47926373D01*
X106346373Y-47758462D01*
X106478300Y-47561018D01*
X106569173Y-47341631D01*
X106615500Y-47108731D01*
X106615500Y-46871269D01*
X106569173Y-46638369D01*
X106478300Y-46418982D01*
X106346373Y-46221538D01*
X106225335Y-46100500D01*
X107134665Y-46100500D01*
X107013627Y-46221538D01*
X106881700Y-46418982D01*
X106790827Y-46638369D01*
X106744500Y-46871269D01*
X106744500Y-47108731D01*
X106790827Y-47341631D01*
X106881700Y-47561018D01*
X107013627Y-47758462D01*
X107181538Y-47926373D01*
X107378982Y-48058300D01*
X107598369Y-48149173D01*
X107831269Y-48195500D01*
X108068731Y-48195500D01*
X108301631Y-48149173D01*
X108521018Y-48058300D01*
X108718462Y-47926373D01*
X108886373Y-47758462D01*
X109018300Y-47561018D01*
X109109173Y-47341631D01*
X109155500Y-47108731D01*
X109155500Y-46871269D01*
X109109173Y-46638369D01*
X109018300Y-46418982D01*
X108886373Y-46221538D01*
X108765335Y-46100500D01*
X109674665Y-46100500D01*
X109553627Y-46221538D01*
X109421700Y-46418982D01*
X109330827Y-46638369D01*
X109284500Y-46871269D01*
X109284500Y-47108731D01*
X109330827Y-47341631D01*
X109421700Y-47561018D01*
X109553627Y-47758462D01*
X109721538Y-47926373D01*
X109918982Y-48058300D01*
X110138369Y-48149173D01*
X110371269Y-48195500D01*
X110608731Y-48195500D01*
X110841631Y-48149173D01*
X111061018Y-48058300D01*
X111258462Y-47926373D01*
X111426373Y-47758462D01*
X111558300Y-47561018D01*
X111649173Y-47341631D01*
X111695500Y-47108731D01*
X111695500Y-46871269D01*
X111649173Y-46638369D01*
X111558300Y-46418982D01*
X111426373Y-46221538D01*
X111305335Y-46100500D01*
X112214665Y-46100500D01*
X112093627Y-46221538D01*
X111961700Y-46418982D01*
X111870827Y-46638369D01*
X111824500Y-46871269D01*
X111824500Y-47108731D01*
X111870827Y-47341631D01*
X111961700Y-47561018D01*
X112093627Y-47758462D01*
X112261538Y-47926373D01*
X112458982Y-48058300D01*
X112678369Y-48149173D01*
X112911269Y-48195500D01*
X113148731Y-48195500D01*
X113381631Y-48149173D01*
X113601018Y-48058300D01*
X113798462Y-47926373D01*
X113966373Y-47758462D01*
X114098300Y-47561018D01*
X114189173Y-47341631D01*
X114235500Y-47108731D01*
X114235500Y-46871269D01*
X114189173Y-46638369D01*
X114098300Y-46418982D01*
X113966373Y-46221538D01*
X113845335Y-46100500D01*
X117347619Y-46100500D01*
X117338487Y-50045364D01*
X117195588Y-49902465D01*
X117006335Y-49776009D01*
X116796047Y-49688905D01*
X116572807Y-49644500D01*
X116345193Y-49644500D01*
X116121953Y-49688905D01*
X115911665Y-49776009D01*
X115722412Y-49902465D01*
X115561465Y-50063412D01*
X115435009Y-50252665D01*
X115379500Y-50386676D01*
X115323991Y-50252665D01*
X115197535Y-50063412D01*
X115036588Y-49902465D01*
X114847335Y-49776009D01*
X114637047Y-49688905D01*
X114413807Y-49644500D01*
X114186193Y-49644500D01*
X113962953Y-49688905D01*
X113752665Y-49776009D01*
X113563412Y-49902465D01*
X113402465Y-50063412D01*
X113276009Y-50252665D01*
X113188905Y-50462953D01*
X113144500Y-50686193D01*
X113144500Y-50913807D01*
X113188905Y-51137047D01*
X113276009Y-51347335D01*
X113402465Y-51536588D01*
X113563412Y-51697535D01*
X113752665Y-51823991D01*
X113962953Y-51911095D01*
X114186193Y-51955500D01*
X114413807Y-51955500D01*
X114637047Y-51911095D01*
X114847335Y-51823991D01*
X115036588Y-51697535D01*
X115197535Y-51536588D01*
X115323991Y-51347335D01*
X115379500Y-51213324D01*
X115435009Y-51347335D01*
X115561465Y-51536588D01*
X115722412Y-51697535D01*
X115911665Y-51823991D01*
X116121953Y-51911095D01*
X116345193Y-51955500D01*
X116572807Y-51955500D01*
X116796047Y-51911095D01*
X117006335Y-51823991D01*
X117195588Y-51697535D01*
X117334985Y-51558138D01*
X117332621Y-52579498D01*
X117195588Y-52442465D01*
X117006335Y-52316009D01*
X116796047Y-52228905D01*
X116572807Y-52184500D01*
X116345193Y-52184500D01*
X116121953Y-52228905D01*
X115911665Y-52316009D01*
X115722412Y-52442465D01*
X115561465Y-52603412D01*
X115435009Y-52792665D01*
X115379500Y-52926676D01*
X115323991Y-52792665D01*
X115197535Y-52603412D01*
X115036588Y-52442465D01*
X114847335Y-52316009D01*
X114637047Y-52228905D01*
X114413807Y-52184500D01*
X114186193Y-52184500D01*
X113962953Y-52228905D01*
X113752665Y-52316009D01*
X113563412Y-52442465D01*
X113402465Y-52603412D01*
X113276009Y-52792665D01*
X113188905Y-53002953D01*
X113144500Y-53226193D01*
X113144500Y-53453807D01*
X113188905Y-53677047D01*
X113276009Y-53887335D01*
X113402465Y-54076588D01*
X113563412Y-54237535D01*
X113752665Y-54363991D01*
X113962953Y-54451095D01*
X114186193Y-54495500D01*
X114413807Y-54495500D01*
X114637047Y-54451095D01*
X114847335Y-54363991D01*
X115036588Y-54237535D01*
X115197535Y-54076588D01*
X115323991Y-53887335D01*
X115379500Y-53753324D01*
X115435009Y-53887335D01*
X115561465Y-54076588D01*
X115722412Y-54237535D01*
X115911665Y-54363991D01*
X116121953Y-54451095D01*
X116345193Y-54495500D01*
X116572807Y-54495500D01*
X116796047Y-54451095D01*
X117006335Y-54363991D01*
X117195588Y-54237535D01*
X117329092Y-54104031D01*
X117326755Y-55113632D01*
X117195588Y-54982465D01*
X117006335Y-54856009D01*
X116796047Y-54768905D01*
X116572807Y-54724500D01*
X116345193Y-54724500D01*
X116121953Y-54768905D01*
X115911665Y-54856009D01*
X115722412Y-54982465D01*
X115561465Y-55143412D01*
X115435009Y-55332665D01*
X115379500Y-55466676D01*
X115323991Y-55332665D01*
X115197535Y-55143412D01*
X115036588Y-54982465D01*
X114847335Y-54856009D01*
X114637047Y-54768905D01*
X114413807Y-54724500D01*
X114186193Y-54724500D01*
X113962953Y-54768905D01*
X113752665Y-54856009D01*
X113563412Y-54982465D01*
X113402465Y-55143412D01*
X113276009Y-55332665D01*
X113188905Y-55542953D01*
X113144500Y-55766193D01*
X113144500Y-55993807D01*
X113188905Y-56217047D01*
X113276009Y-56427335D01*
X113402465Y-56616588D01*
X113563412Y-56777535D01*
X113752665Y-56903991D01*
X113962953Y-56991095D01*
X114186193Y-57035500D01*
X114413807Y-57035500D01*
X114637047Y-56991095D01*
X114847335Y-56903991D01*
X115036588Y-56777535D01*
X115197535Y-56616588D01*
X115323991Y-56427335D01*
X115379500Y-56293324D01*
X115435009Y-56427335D01*
X115561465Y-56616588D01*
X115722412Y-56777535D01*
X115911665Y-56903991D01*
X116121953Y-56991095D01*
X116345193Y-57035500D01*
X116572807Y-57035500D01*
X116796047Y-56991095D01*
X117006335Y-56903991D01*
X117195588Y-56777535D01*
X117323199Y-56649924D01*
X117320889Y-57647766D01*
X117195588Y-57522465D01*
X117006335Y-57396009D01*
X116796047Y-57308905D01*
X116572807Y-57264500D01*
X116345193Y-57264500D01*
X116121953Y-57308905D01*
X115911665Y-57396009D01*
X115722412Y-57522465D01*
X115561465Y-57683412D01*
X115435009Y-57872665D01*
X115379500Y-58006676D01*
X115323991Y-57872665D01*
X115197535Y-57683412D01*
X115036588Y-57522465D01*
X114847335Y-57396009D01*
X114637047Y-57308905D01*
X114413807Y-57264500D01*
X114186193Y-57264500D01*
X113962953Y-57308905D01*
X113752665Y-57396009D01*
X113563412Y-57522465D01*
X113402465Y-57683412D01*
X113276009Y-57872665D01*
X113188905Y-58082953D01*
X113144500Y-58306193D01*
X113144500Y-58533807D01*
X113188905Y-58757047D01*
X113276009Y-58967335D01*
X113402465Y-59156588D01*
X113563412Y-59317535D01*
X113752665Y-59443991D01*
X113962953Y-59531095D01*
X114186193Y-59575500D01*
X114413807Y-59575500D01*
X114637047Y-59531095D01*
X114847335Y-59443991D01*
X115036588Y-59317535D01*
X115197535Y-59156588D01*
X115323991Y-58967335D01*
X115379500Y-58833324D01*
X115435009Y-58967335D01*
X115561465Y-59156588D01*
X115722412Y-59317535D01*
X115911665Y-59443991D01*
X116121953Y-59531095D01*
X116345193Y-59575500D01*
X116572807Y-59575500D01*
X116796047Y-59531095D01*
X117006335Y-59443991D01*
X117195588Y-59317535D01*
X117317306Y-59195817D01*
X117315023Y-60181900D01*
X117195588Y-60062465D01*
X117006335Y-59936009D01*
X116796047Y-59848905D01*
X116572807Y-59804500D01*
X116345193Y-59804500D01*
X116121953Y-59848905D01*
X115911665Y-59936009D01*
X115722412Y-60062465D01*
X115561465Y-60223412D01*
X115435009Y-60412665D01*
X115379500Y-60546676D01*
X115323991Y-60412665D01*
X115197535Y-60223412D01*
X115036588Y-60062465D01*
X114847335Y-59936009D01*
X114637047Y-59848905D01*
X114413807Y-59804500D01*
X114186193Y-59804500D01*
X113962953Y-59848905D01*
X113752665Y-59936009D01*
X113563412Y-60062465D01*
X113402465Y-60223412D01*
X113276009Y-60412665D01*
X113188905Y-60622953D01*
X113144500Y-60846193D01*
X113144500Y-61073807D01*
X113188905Y-61297047D01*
X113276009Y-61507335D01*
X113402465Y-61696588D01*
X113563412Y-61857535D01*
X113752665Y-61983991D01*
X113962953Y-62071095D01*
X114186193Y-62115500D01*
X114413807Y-62115500D01*
X114637047Y-62071095D01*
X114847335Y-61983991D01*
X115036588Y-61857535D01*
X115197535Y-61696588D01*
X115323991Y-61507335D01*
X115379500Y-61373324D01*
X115435009Y-61507335D01*
X115561465Y-61696588D01*
X115722412Y-61857535D01*
X115911665Y-61983991D01*
X116121953Y-62071095D01*
X116345193Y-62115500D01*
X116572807Y-62115500D01*
X116796047Y-62071095D01*
X117006335Y-61983991D01*
X117195588Y-61857535D01*
X117311412Y-61741711D01*
X117309157Y-62716034D01*
X117195588Y-62602465D01*
X117006335Y-62476009D01*
X116796047Y-62388905D01*
X116572807Y-62344500D01*
X116345193Y-62344500D01*
X116121953Y-62388905D01*
X115911665Y-62476009D01*
X115722412Y-62602465D01*
X115561465Y-62763412D01*
X115435009Y-62952665D01*
X115379500Y-63086676D01*
X115323991Y-62952665D01*
X115197535Y-62763412D01*
X115036588Y-62602465D01*
X114847335Y-62476009D01*
X114637047Y-62388905D01*
X114413807Y-62344500D01*
X114186193Y-62344500D01*
X113962953Y-62388905D01*
X113752665Y-62476009D01*
X113563412Y-62602465D01*
X113402465Y-62763412D01*
X113276009Y-62952665D01*
X113188905Y-63162953D01*
X113150245Y-63357310D01*
X113106993Y-63304607D01*
X113052861Y-63260182D01*
X112991102Y-63227172D01*
X112924090Y-63206844D01*
X112854400Y-63199980D01*
X111954400Y-63199980D01*
X111884710Y-63206844D01*
X111817698Y-63227172D01*
X111755939Y-63260182D01*
X111701807Y-63304607D01*
X111657382Y-63358739D01*
X111624372Y-63420498D01*
X111604044Y-63487510D01*
X111597180Y-63557200D01*
X111597180Y-64357200D01*
X111604044Y-64426890D01*
X111624372Y-64493902D01*
X111657382Y-64555661D01*
X111701807Y-64609793D01*
X111755939Y-64654218D01*
X111817698Y-64687228D01*
X111884710Y-64707556D01*
X111954400Y-64714420D01*
X112126600Y-64714420D01*
X113176665Y-65764486D01*
X113144500Y-65926193D01*
X113144500Y-66153807D01*
X113188905Y-66377047D01*
X113276009Y-66587335D01*
X113402465Y-66776588D01*
X113563412Y-66937535D01*
X113752665Y-67063991D01*
X113962953Y-67151095D01*
X114186193Y-67195500D01*
X114413807Y-67195500D01*
X114637047Y-67151095D01*
X114847335Y-67063991D01*
X115036588Y-66937535D01*
X115197535Y-66776588D01*
X115323991Y-66587335D01*
X115379500Y-66453324D01*
X115435009Y-66587335D01*
X115561465Y-66776588D01*
X115722412Y-66937535D01*
X115911665Y-67063991D01*
X116121953Y-67151095D01*
X116345193Y-67195500D01*
X116572807Y-67195500D01*
X116796047Y-67151095D01*
X117006335Y-67063991D01*
X117195588Y-66937535D01*
X117299626Y-66833497D01*
X117297425Y-67784302D01*
X117195588Y-67682465D01*
X117006335Y-67556009D01*
X116796047Y-67468905D01*
X116572807Y-67424500D01*
X116345193Y-67424500D01*
X116121953Y-67468905D01*
X115911665Y-67556009D01*
X115722412Y-67682465D01*
X115561465Y-67843412D01*
X115435009Y-68032665D01*
X115379500Y-68166676D01*
X115323991Y-68032665D01*
X115197535Y-67843412D01*
X115036588Y-67682465D01*
X114847335Y-67556009D01*
X114637047Y-67468905D01*
X114413807Y-67424500D01*
X114186193Y-67424500D01*
X113962953Y-67468905D01*
X113752665Y-67556009D01*
X113563412Y-67682465D01*
X113402465Y-67843412D01*
X113276009Y-68032665D01*
X113188905Y-68242953D01*
X113166720Y-68354485D01*
X113166720Y-68045000D01*
X113159856Y-67975310D01*
X113139528Y-67908298D01*
X113106518Y-67846539D01*
X113062093Y-67792407D01*
X113007961Y-67747982D01*
X112946202Y-67714972D01*
X112879190Y-67694644D01*
X112809500Y-67687780D01*
X111209500Y-67687780D01*
X111189777Y-67689723D01*
X111191720Y-67670000D01*
X111191720Y-66070000D01*
X111184856Y-66000310D01*
X111164528Y-65933298D01*
X111131518Y-65871539D01*
X111130331Y-65870093D01*
X111204149Y-65830636D01*
X111299546Y-65752346D01*
X111377836Y-65656949D01*
X111436011Y-65548111D01*
X111471835Y-65430015D01*
X111483931Y-65307200D01*
X111480900Y-65199325D01*
X111324275Y-65042700D01*
X110539900Y-65042700D01*
X110539900Y-65062700D01*
X110268900Y-65062700D01*
X110268900Y-65042700D01*
X110248900Y-65042700D01*
X110248900Y-64771700D01*
X110268900Y-64771700D01*
X110268900Y-64037325D01*
X110539900Y-64037325D01*
X110539900Y-64771700D01*
X111324275Y-64771700D01*
X111480900Y-64615075D01*
X111483931Y-64507200D01*
X111471835Y-64384385D01*
X111436011Y-64266289D01*
X111377836Y-64157451D01*
X111299546Y-64062054D01*
X111204149Y-63983764D01*
X111095311Y-63925589D01*
X110977215Y-63889765D01*
X110854400Y-63877669D01*
X110696525Y-63880700D01*
X110539900Y-64037325D01*
X110268900Y-64037325D01*
X110112275Y-63880700D01*
X109954400Y-63877669D01*
X109831585Y-63889765D01*
X109713489Y-63925589D01*
X109604651Y-63983764D01*
X109594786Y-63991860D01*
X109576285Y-63957246D01*
X109500770Y-63865230D01*
X109408754Y-63789715D01*
X109303774Y-63733602D01*
X109197592Y-63701392D01*
X109286570Y-63628370D01*
X109362085Y-63536354D01*
X109418198Y-63431374D01*
X109452752Y-63317464D01*
X109464420Y-63199001D01*
X109464420Y-62729041D01*
X109597180Y-62861801D01*
X109597180Y-63407200D01*
X109604044Y-63476890D01*
X109624372Y-63543902D01*
X109657382Y-63605661D01*
X109701807Y-63659793D01*
X109755939Y-63704218D01*
X109817698Y-63737228D01*
X109884710Y-63757556D01*
X109954400Y-63764420D01*
X110854400Y-63764420D01*
X110924090Y-63757556D01*
X110991102Y-63737228D01*
X111052861Y-63704218D01*
X111106993Y-63659793D01*
X111151418Y-63605661D01*
X111184428Y-63543902D01*
X111204756Y-63476890D01*
X111211620Y-63407200D01*
X111211620Y-62607200D01*
X111204756Y-62537510D01*
X111184428Y-62470498D01*
X111151418Y-62408739D01*
X111106993Y-62354607D01*
X111052861Y-62310182D01*
X110991102Y-62277172D01*
X110924090Y-62256844D01*
X110854400Y-62249980D01*
X110681001Y-62249980D01*
X109464420Y-61033400D01*
X109464420Y-60498999D01*
X109452752Y-60380536D01*
X109418198Y-60266626D01*
X109362085Y-60161646D01*
X109286570Y-60069630D01*
X109194554Y-59994115D01*
X109089574Y-59938002D01*
X108975664Y-59903448D01*
X108857201Y-59891780D01*
X107957199Y-59891780D01*
X107838736Y-59903448D01*
X107724826Y-59938002D01*
X107619846Y-59994115D01*
X107527830Y-60069630D01*
X107452315Y-60161646D01*
X107396202Y-60266626D01*
X107361648Y-60380536D01*
X107349980Y-60498999D01*
X107349980Y-61149001D01*
X107361648Y-61267464D01*
X107396202Y-61381374D01*
X107452315Y-61486354D01*
X107527830Y-61578370D01*
X107619846Y-61653885D01*
X107724826Y-61709998D01*
X107838736Y-61744552D01*
X107957199Y-61756220D01*
X108491600Y-61756220D01*
X108677160Y-61941780D01*
X107957199Y-61941780D01*
X107838736Y-61953448D01*
X107724826Y-61988002D01*
X107619846Y-62044115D01*
X107527830Y-62119630D01*
X107452315Y-62211646D01*
X107396202Y-62316626D01*
X107378646Y-62374500D01*
X106976459Y-62374500D01*
X106951939Y-62372085D01*
X106927419Y-62374500D01*
X106927409Y-62374500D01*
X106854021Y-62381728D01*
X106759865Y-62410290D01*
X106673090Y-62456672D01*
X106597032Y-62519092D01*
X106591820Y-62525443D01*
X106591820Y-61227600D01*
X106584956Y-61157910D01*
X106564628Y-61090898D01*
X106531618Y-61029139D01*
X106487193Y-60975007D01*
X106433061Y-60930582D01*
X106371302Y-60897572D01*
X106304290Y-60877244D01*
X106234600Y-60870380D01*
X104534600Y-60870380D01*
X104464910Y-60877244D01*
X104397898Y-60897572D01*
X104336139Y-60930582D01*
X104282007Y-60975007D01*
X104237582Y-61029139D01*
X104204572Y-61090898D01*
X104190405Y-61137599D01*
X103750511Y-60697705D01*
X103750511Y-60063756D01*
X103802226Y-60091398D01*
X103916136Y-60125952D01*
X104034599Y-60137620D01*
X104684601Y-60137620D01*
X104803064Y-60125952D01*
X104916974Y-60091398D01*
X105021954Y-60035285D01*
X105113970Y-59959770D01*
X105189485Y-59867754D01*
X105245598Y-59762774D01*
X105280152Y-59648864D01*
X105291820Y-59530401D01*
X105291820Y-58630399D01*
X105477380Y-58630399D01*
X105477380Y-59530401D01*
X105489048Y-59648864D01*
X105523602Y-59762774D01*
X105579715Y-59867754D01*
X105655230Y-59959770D01*
X105747246Y-60035285D01*
X105852226Y-60091398D01*
X105966136Y-60125952D01*
X106084599Y-60137620D01*
X106734601Y-60137620D01*
X106853064Y-60125952D01*
X106966974Y-60091398D01*
X107071954Y-60035285D01*
X107163970Y-59959770D01*
X107239485Y-59867754D01*
X107295598Y-59762774D01*
X107330152Y-59648864D01*
X107341820Y-59530401D01*
X107341820Y-58630399D01*
X107330152Y-58511936D01*
X107295598Y-58398026D01*
X107239485Y-58293046D01*
X107163970Y-58201030D01*
X107071954Y-58125515D01*
X106966974Y-58069402D01*
X106853064Y-58034848D01*
X106734601Y-58023180D01*
X106084599Y-58023180D01*
X105966136Y-58034848D01*
X105852226Y-58069402D01*
X105747246Y-58125515D01*
X105655230Y-58201030D01*
X105579715Y-58293046D01*
X105523602Y-58398026D01*
X105489048Y-58511936D01*
X105477380Y-58630399D01*
X105291820Y-58630399D01*
X105280152Y-58511936D01*
X105245598Y-58398026D01*
X105189485Y-58293046D01*
X105113970Y-58201030D01*
X105021954Y-58125515D01*
X104959100Y-58091919D01*
X104959100Y-57508920D01*
X105228400Y-57239620D01*
X106437800Y-57239620D01*
X106507490Y-57232756D01*
X106574502Y-57212428D01*
X106636261Y-57179418D01*
X106690393Y-57134993D01*
X106734818Y-57080861D01*
X106767828Y-57019102D01*
X106788156Y-56952090D01*
X106795020Y-56882400D01*
X106795020Y-55182400D01*
X106788156Y-55112710D01*
X106767828Y-55045698D01*
X106734818Y-54983939D01*
X106690393Y-54929807D01*
X106636261Y-54885382D01*
X106574502Y-54852372D01*
X106507490Y-54832044D01*
X106437800Y-54825180D01*
X104737800Y-54825180D01*
X104668110Y-54832044D01*
X104601098Y-54852372D01*
X104539339Y-54885382D01*
X104485207Y-54929807D01*
X104440782Y-54983939D01*
X104407772Y-55045698D01*
X104387444Y-55112710D01*
X104380580Y-55182400D01*
X104380580Y-56391800D01*
X103956510Y-56815870D01*
X103933640Y-56834639D01*
X103858724Y-56925924D01*
X103808920Y-57019102D01*
X103803056Y-57030072D01*
X103768775Y-57143079D01*
X103757201Y-57260600D01*
X103760101Y-57290046D01*
X103760101Y-58091919D01*
X103697246Y-58125515D01*
X103605230Y-58201030D01*
X103529715Y-58293046D01*
X103473602Y-58398026D01*
X103439048Y-58511936D01*
X103427380Y-58630399D01*
X103427380Y-58807566D01*
X103063100Y-58443287D01*
X103063100Y-57154035D01*
X103065999Y-57124599D01*
X103063100Y-57095163D01*
X103063100Y-57095156D01*
X103054425Y-57007078D01*
X103020145Y-56894072D01*
X102964477Y-56789924D01*
X102889561Y-56698639D01*
X102866691Y-56679870D01*
X102342335Y-56155514D01*
X102374500Y-55993807D01*
X102374500Y-55766193D01*
X102330095Y-55542953D01*
X102242991Y-55332665D01*
X102116535Y-55143412D01*
X101955588Y-54982465D01*
X101766335Y-54856009D01*
X101556047Y-54768905D01*
X101332807Y-54724500D01*
X101105193Y-54724500D01*
X100881953Y-54768905D01*
X100671665Y-54856009D01*
X100482412Y-54982465D01*
X100321465Y-55143412D01*
X100195009Y-55332665D01*
X100139500Y-55466676D01*
X100083991Y-55332665D01*
X99957535Y-55143412D01*
X99796588Y-54982465D01*
X99607335Y-54856009D01*
X99397047Y-54768905D01*
X99173807Y-54724500D01*
X98946193Y-54724500D01*
X98722953Y-54768905D01*
X98512665Y-54856009D01*
X98323412Y-54982465D01*
X98170500Y-55135377D01*
X98170500Y-54084623D01*
X98323412Y-54237535D01*
X98512665Y-54363991D01*
X98722953Y-54451095D01*
X98946193Y-54495500D01*
X99173807Y-54495500D01*
X99397047Y-54451095D01*
X99607335Y-54363991D01*
X99796588Y-54237535D01*
X99957535Y-54076588D01*
X100083991Y-53887335D01*
X100139500Y-53753324D01*
X100195009Y-53887335D01*
X100321465Y-54076588D01*
X100482412Y-54237535D01*
X100671665Y-54363991D01*
X100881953Y-54451095D01*
X101105193Y-54495500D01*
X101332807Y-54495500D01*
X101556047Y-54451095D01*
X101766335Y-54363991D01*
X101955588Y-54237535D01*
X102116535Y-54076588D01*
X102242991Y-53887335D01*
X102330095Y-53677047D01*
X102374500Y-53453807D01*
X102374500Y-53226193D01*
X102330095Y-53002953D01*
X102242991Y-52792665D01*
X102116535Y-52603412D01*
X101955588Y-52442465D01*
X101766335Y-52316009D01*
X101556047Y-52228905D01*
X101544972Y-52226702D01*
X102019000Y-52229531D01*
X102141815Y-52217435D01*
X102259911Y-52181611D01*
X102368749Y-52123436D01*
X102464146Y-52045146D01*
X102542436Y-51949749D01*
X102600611Y-51840911D01*
X102636435Y-51722815D01*
X102648531Y-51600000D01*
X102645500Y-51092125D01*
X102488875Y-50935500D01*
X101354500Y-50935500D01*
X101354500Y-50955500D01*
X101083500Y-50955500D01*
X101083500Y-50935500D01*
X99195500Y-50935500D01*
X99195500Y-50955500D01*
X98924500Y-50955500D01*
X98924500Y-50935500D01*
X98904500Y-50935500D01*
X98904500Y-50664500D01*
X98924500Y-50664500D01*
X98924500Y-49530125D01*
X99195500Y-49530125D01*
X99195500Y-50664500D01*
X101083500Y-50664500D01*
X101083500Y-49530125D01*
X101354500Y-49530125D01*
X101354500Y-50664500D01*
X102488875Y-50664500D01*
X102645500Y-50507875D01*
X102648531Y-50000000D01*
X102636435Y-49877185D01*
X102600611Y-49759089D01*
X102542436Y-49650251D01*
X102464146Y-49554854D01*
X102368749Y-49476564D01*
X102259911Y-49418389D01*
X102141815Y-49382565D01*
X102019000Y-49370469D01*
X101511125Y-49373500D01*
X101354500Y-49530125D01*
X101083500Y-49530125D01*
X100926875Y-49373500D01*
X100419000Y-49370469D01*
X100296185Y-49382565D01*
X100178089Y-49418389D01*
X100139500Y-49439015D01*
X100100911Y-49418389D01*
X99982815Y-49382565D01*
X99860000Y-49370469D01*
X99352125Y-49373500D01*
X99195500Y-49530125D01*
X98924500Y-49530125D01*
X98767875Y-49373500D01*
X98260000Y-49370469D01*
X98170500Y-49379284D01*
X98170500Y-46100500D01*
X101666670Y-46100500D01*
X101662780Y-46140000D01*
G37*
G04 #@! TD.AperFunction*
D27*
X107495000Y-66734500D02*
X107515000Y-66734500D01*
X107515000Y-67005500D01*
X107495000Y-67005500D01*
X107495000Y-67025500D01*
X107224000Y-67025500D01*
X107224000Y-67005500D01*
X107204000Y-67005500D01*
X107204000Y-66734500D01*
X107224000Y-66734500D01*
X107224000Y-66714500D01*
X107495000Y-66714500D01*
X107495000Y-66734500D01*
G04 #@! TA.AperFunction,Conductor*
D28*
G36*
X107495000Y-66734500D02*
G01*
X107515000Y-66734500D01*
X107515000Y-67005500D01*
X107495000Y-67005500D01*
X107495000Y-67025500D01*
X107224000Y-67025500D01*
X107224000Y-67005500D01*
X107204000Y-67005500D01*
X107204000Y-66734500D01*
X107224000Y-66734500D01*
X107224000Y-66714500D01*
X107495000Y-66714500D01*
X107495000Y-66734500D01*
G37*
G04 #@! TD.AperFunction*
D27*
X106831900Y-64609100D02*
X106851900Y-64609100D01*
X106851900Y-64880100D01*
X106831900Y-64880100D01*
X106831900Y-64900100D01*
X106560900Y-64900100D01*
X106560900Y-64880100D01*
X106540900Y-64880100D01*
X106540900Y-64609100D01*
X106560900Y-64609100D01*
X106560900Y-64589100D01*
X106831900Y-64589100D01*
X106831900Y-64609100D01*
G04 #@! TA.AperFunction,Conductor*
D28*
G36*
X106831900Y-64609100D02*
G01*
X106851900Y-64609100D01*
X106851900Y-64880100D01*
X106831900Y-64880100D01*
X106831900Y-64900100D01*
X106560900Y-64900100D01*
X106560900Y-64880100D01*
X106540900Y-64880100D01*
X106540900Y-64609100D01*
X106560900Y-64609100D01*
X106560900Y-64589100D01*
X106831900Y-64589100D01*
X106831900Y-64609100D01*
G37*
G04 #@! TD.AperFunction*
D27*
X100195009Y-61507335D02*
X100321465Y-61696588D01*
X100482412Y-61857535D01*
X100671665Y-61983991D01*
X100881953Y-62071095D01*
X101105193Y-62115500D01*
X101332807Y-62115500D01*
X101494514Y-62083335D01*
X101864100Y-62452921D01*
X101864100Y-62541334D01*
X101766335Y-62476009D01*
X101556047Y-62388905D01*
X101332807Y-62344500D01*
X101105193Y-62344500D01*
X100881953Y-62388905D01*
X100671665Y-62476009D01*
X100482412Y-62602465D01*
X100321465Y-62763412D01*
X100195009Y-62952665D01*
X100139500Y-63086676D01*
X100083991Y-62952665D01*
X99957535Y-62763412D01*
X99796588Y-62602465D01*
X99607335Y-62476009D01*
X99397047Y-62388905D01*
X99173807Y-62344500D01*
X98946193Y-62344500D01*
X98722953Y-62388905D01*
X98512665Y-62476009D01*
X98323412Y-62602465D01*
X98170500Y-62755377D01*
X98170500Y-61704623D01*
X98323412Y-61857535D01*
X98512665Y-61983991D01*
X98722953Y-62071095D01*
X98946193Y-62115500D01*
X99173807Y-62115500D01*
X99397047Y-62071095D01*
X99607335Y-61983991D01*
X99796588Y-61857535D01*
X99957535Y-61696588D01*
X100083991Y-61507335D01*
X100139500Y-61373324D01*
X100195009Y-61507335D01*
G04 #@! TA.AperFunction,Conductor*
D28*
G36*
X100195009Y-61507335D02*
G01*
X100321465Y-61696588D01*
X100482412Y-61857535D01*
X100671665Y-61983991D01*
X100881953Y-62071095D01*
X101105193Y-62115500D01*
X101332807Y-62115500D01*
X101494514Y-62083335D01*
X101864100Y-62452921D01*
X101864100Y-62541334D01*
X101766335Y-62476009D01*
X101556047Y-62388905D01*
X101332807Y-62344500D01*
X101105193Y-62344500D01*
X100881953Y-62388905D01*
X100671665Y-62476009D01*
X100482412Y-62602465D01*
X100321465Y-62763412D01*
X100195009Y-62952665D01*
X100139500Y-63086676D01*
X100083991Y-62952665D01*
X99957535Y-62763412D01*
X99796588Y-62602465D01*
X99607335Y-62476009D01*
X99397047Y-62388905D01*
X99173807Y-62344500D01*
X98946193Y-62344500D01*
X98722953Y-62388905D01*
X98512665Y-62476009D01*
X98323412Y-62602465D01*
X98170500Y-62755377D01*
X98170500Y-61704623D01*
X98323412Y-61857535D01*
X98512665Y-61983991D01*
X98722953Y-62071095D01*
X98946193Y-62115500D01*
X99173807Y-62115500D01*
X99397047Y-62071095D01*
X99607335Y-61983991D01*
X99796588Y-61857535D01*
X99957535Y-61696588D01*
X100083991Y-61507335D01*
X100139500Y-61373324D01*
X100195009Y-61507335D01*
G37*
G04 #@! TD.AperFunction*
D27*
X100195009Y-58967335D02*
X100321465Y-59156588D01*
X100482412Y-59317535D01*
X100671665Y-59443991D01*
X100881953Y-59531095D01*
X101105193Y-59575500D01*
X101332807Y-59575500D01*
X101494514Y-59543335D01*
X101863501Y-59912322D01*
X101863501Y-60000934D01*
X101766335Y-59936009D01*
X101556047Y-59848905D01*
X101332807Y-59804500D01*
X101105193Y-59804500D01*
X100881953Y-59848905D01*
X100671665Y-59936009D01*
X100482412Y-60062465D01*
X100321465Y-60223412D01*
X100195009Y-60412665D01*
X100139500Y-60546676D01*
X100083991Y-60412665D01*
X99957535Y-60223412D01*
X99796588Y-60062465D01*
X99607335Y-59936009D01*
X99397047Y-59848905D01*
X99173807Y-59804500D01*
X98946193Y-59804500D01*
X98722953Y-59848905D01*
X98512665Y-59936009D01*
X98323412Y-60062465D01*
X98170500Y-60215377D01*
X98170500Y-59164623D01*
X98323412Y-59317535D01*
X98512665Y-59443991D01*
X98722953Y-59531095D01*
X98946193Y-59575500D01*
X99173807Y-59575500D01*
X99397047Y-59531095D01*
X99607335Y-59443991D01*
X99796588Y-59317535D01*
X99957535Y-59156588D01*
X100083991Y-58967335D01*
X100139500Y-58833324D01*
X100195009Y-58967335D01*
G04 #@! TA.AperFunction,Conductor*
D28*
G36*
X100195009Y-58967335D02*
G01*
X100321465Y-59156588D01*
X100482412Y-59317535D01*
X100671665Y-59443991D01*
X100881953Y-59531095D01*
X101105193Y-59575500D01*
X101332807Y-59575500D01*
X101494514Y-59543335D01*
X101863501Y-59912322D01*
X101863501Y-60000934D01*
X101766335Y-59936009D01*
X101556047Y-59848905D01*
X101332807Y-59804500D01*
X101105193Y-59804500D01*
X100881953Y-59848905D01*
X100671665Y-59936009D01*
X100482412Y-60062465D01*
X100321465Y-60223412D01*
X100195009Y-60412665D01*
X100139500Y-60546676D01*
X100083991Y-60412665D01*
X99957535Y-60223412D01*
X99796588Y-60062465D01*
X99607335Y-59936009D01*
X99397047Y-59848905D01*
X99173807Y-59804500D01*
X98946193Y-59804500D01*
X98722953Y-59848905D01*
X98512665Y-59936009D01*
X98323412Y-60062465D01*
X98170500Y-60215377D01*
X98170500Y-59164623D01*
X98323412Y-59317535D01*
X98512665Y-59443991D01*
X98722953Y-59531095D01*
X98946193Y-59575500D01*
X99173807Y-59575500D01*
X99397047Y-59531095D01*
X99607335Y-59443991D01*
X99796588Y-59317535D01*
X99957535Y-59156588D01*
X100083991Y-58967335D01*
X100139500Y-58833324D01*
X100195009Y-58967335D01*
G37*
G04 #@! TD.AperFunction*
D27*
X100195009Y-56427335D02*
X100321465Y-56616588D01*
X100482412Y-56777535D01*
X100671665Y-56903991D01*
X100881953Y-56991095D01*
X101105193Y-57035500D01*
X101332807Y-57035500D01*
X101494514Y-57003335D01*
X101864101Y-57372922D01*
X101864101Y-57461335D01*
X101766335Y-57396009D01*
X101556047Y-57308905D01*
X101332807Y-57264500D01*
X101105193Y-57264500D01*
X100881953Y-57308905D01*
X100671665Y-57396009D01*
X100482412Y-57522465D01*
X100321465Y-57683412D01*
X100195009Y-57872665D01*
X100139500Y-58006676D01*
X100083991Y-57872665D01*
X99957535Y-57683412D01*
X99796588Y-57522465D01*
X99607335Y-57396009D01*
X99397047Y-57308905D01*
X99173807Y-57264500D01*
X98946193Y-57264500D01*
X98722953Y-57308905D01*
X98512665Y-57396009D01*
X98323412Y-57522465D01*
X98170500Y-57675377D01*
X98170500Y-56624623D01*
X98323412Y-56777535D01*
X98512665Y-56903991D01*
X98722953Y-56991095D01*
X98946193Y-57035500D01*
X99173807Y-57035500D01*
X99397047Y-56991095D01*
X99607335Y-56903991D01*
X99796588Y-56777535D01*
X99957535Y-56616588D01*
X100083991Y-56427335D01*
X100139500Y-56293324D01*
X100195009Y-56427335D01*
G04 #@! TA.AperFunction,Conductor*
D28*
G36*
X100195009Y-56427335D02*
G01*
X100321465Y-56616588D01*
X100482412Y-56777535D01*
X100671665Y-56903991D01*
X100881953Y-56991095D01*
X101105193Y-57035500D01*
X101332807Y-57035500D01*
X101494514Y-57003335D01*
X101864101Y-57372922D01*
X101864101Y-57461335D01*
X101766335Y-57396009D01*
X101556047Y-57308905D01*
X101332807Y-57264500D01*
X101105193Y-57264500D01*
X100881953Y-57308905D01*
X100671665Y-57396009D01*
X100482412Y-57522465D01*
X100321465Y-57683412D01*
X100195009Y-57872665D01*
X100139500Y-58006676D01*
X100083991Y-57872665D01*
X99957535Y-57683412D01*
X99796588Y-57522465D01*
X99607335Y-57396009D01*
X99397047Y-57308905D01*
X99173807Y-57264500D01*
X98946193Y-57264500D01*
X98722953Y-57308905D01*
X98512665Y-57396009D01*
X98323412Y-57522465D01*
X98170500Y-57675377D01*
X98170500Y-56624623D01*
X98323412Y-56777535D01*
X98512665Y-56903991D01*
X98722953Y-56991095D01*
X98946193Y-57035500D01*
X99173807Y-57035500D01*
X99397047Y-56991095D01*
X99607335Y-56903991D01*
X99796588Y-56777535D01*
X99957535Y-56616588D01*
X100083991Y-56427335D01*
X100139500Y-56293324D01*
X100195009Y-56427335D01*
G37*
G04 #@! TD.AperFunction*
M02*
