G04 #@! TF.GenerationSoftware,KiCad,Pcbnew,(5.1.9)-1*
G04 #@! TF.CreationDate,2021-06-10T15:02:55-04:00*
G04 #@! TF.ProjectId,6526KernalSwitcherB,36353236-4b65-4726-9e61-6c5377697463,rev?*
G04 #@! TF.SameCoordinates,Original*
G04 #@! TF.FileFunction,Soldermask,Bot*
G04 #@! TF.FilePolarity,Negative*
%FSLAX46Y46*%
G04 Gerber Fmt 4.6, Leading zero omitted, Abs format (unit mm)*
G04 Created by KiCad (PCBNEW (5.1.9)-1) date 2021-06-10 15:02:55*
%MOMM*%
%LPD*%
G01*
G04 APERTURE LIST*
%ADD10R,1.000000X1.000000*%
%ADD11O,1.000000X1.000000*%
%ADD12R,2.400000X0.740000*%
%ADD13R,1.700000X1.700000*%
%ADD14O,1.700000X1.700000*%
%ADD15O,1.600000X1.600000*%
%ADD16R,1.600000X1.600000*%
G04 APERTURE END LIST*
D10*
X105410000Y-99695000D03*
D11*
X106680000Y-99695000D03*
X107950000Y-99695000D03*
X109220000Y-99695000D03*
X110490000Y-99695000D03*
D12*
X106000000Y-96520000D03*
X109900000Y-96520000D03*
X106000000Y-95250000D03*
X109900000Y-95250000D03*
X106000000Y-93980000D03*
X109900000Y-93980000D03*
D13*
X102870000Y-46990000D03*
D14*
X105410000Y-46990000D03*
X107950000Y-46990000D03*
X110490000Y-46990000D03*
X113030000Y-46990000D03*
D13*
X105587800Y-56032400D03*
X105384600Y-62077600D03*
D15*
X116459000Y-50800000D03*
X101219000Y-99060000D03*
X116459000Y-53340000D03*
X101219000Y-96520000D03*
X116459000Y-55880000D03*
X101219000Y-93980000D03*
X116459000Y-58420000D03*
X101219000Y-91440000D03*
X116459000Y-60960000D03*
X101219000Y-88900000D03*
X116459000Y-63500000D03*
X101219000Y-86360000D03*
X116459000Y-66040000D03*
X101219000Y-83820000D03*
X116459000Y-68580000D03*
X101219000Y-81280000D03*
X116459000Y-71120000D03*
X101219000Y-78740000D03*
X116459000Y-73660000D03*
X101219000Y-76200000D03*
X116459000Y-76200000D03*
X101219000Y-73660000D03*
X116459000Y-78740000D03*
X101219000Y-71120000D03*
X116459000Y-81280000D03*
X101219000Y-68580000D03*
X116459000Y-83820000D03*
X101219000Y-66040000D03*
X116459000Y-86360000D03*
X101219000Y-63500000D03*
X116459000Y-88900000D03*
X101219000Y-60960000D03*
X116459000Y-91440000D03*
X101219000Y-58420000D03*
X116459000Y-93980000D03*
X101219000Y-55880000D03*
X116459000Y-96520000D03*
X101219000Y-53340000D03*
X116459000Y-99060000D03*
D16*
X101219000Y-50800000D03*
X99060000Y-50800000D03*
D15*
X114300000Y-99060000D03*
X99060000Y-53340000D03*
X114300000Y-96520000D03*
X99060000Y-55880000D03*
X114300000Y-93980000D03*
X99060000Y-58420000D03*
X114300000Y-91440000D03*
X99060000Y-60960000D03*
X114300000Y-88900000D03*
X99060000Y-63500000D03*
X114300000Y-86360000D03*
X99060000Y-66040000D03*
X114300000Y-83820000D03*
X99060000Y-68580000D03*
X114300000Y-81280000D03*
X99060000Y-71120000D03*
X114300000Y-78740000D03*
X99060000Y-73660000D03*
X114300000Y-76200000D03*
X99060000Y-76200000D03*
X114300000Y-73660000D03*
X99060000Y-78740000D03*
X114300000Y-71120000D03*
X99060000Y-81280000D03*
X114300000Y-68580000D03*
X99060000Y-83820000D03*
X114300000Y-66040000D03*
X99060000Y-86360000D03*
X114300000Y-63500000D03*
X99060000Y-88900000D03*
X114300000Y-60960000D03*
X99060000Y-91440000D03*
X114300000Y-58420000D03*
X99060000Y-93980000D03*
X114300000Y-55880000D03*
X99060000Y-96520000D03*
X114300000Y-53340000D03*
X99060000Y-99060000D03*
X114300000Y-50800000D03*
M02*
