G04 #@! TF.GenerationSoftware,KiCad,Pcbnew,(5.1.9)-1*
G04 #@! TF.CreationDate,2021-06-10T15:02:54-04:00*
G04 #@! TF.ProjectId,6526KernalSwitcherB,36353236-4b65-4726-9e61-6c5377697463,rev?*
G04 #@! TF.SameCoordinates,Original*
G04 #@! TF.FileFunction,Legend,Top*
G04 #@! TF.FilePolarity,Positive*
%FSLAX46Y46*%
G04 Gerber Fmt 4.6, Leading zero omitted, Abs format (unit mm)*
G04 Created by KiCad (PCBNEW (5.1.9)-1) date 2021-06-10 15:02:54*
%MOMM*%
%LPD*%
G01*
G04 APERTURE LIST*
%ADD10C,0.250000*%
%ADD11C,0.120000*%
%ADD12C,0.150000*%
G04 APERTURE END LIST*
D10*
X102378571Y-49061666D02*
X103092857Y-49061666D01*
X102235714Y-49347380D02*
X102735714Y-48347380D01*
X103235714Y-49347380D01*
X105378571Y-48823571D02*
X105592857Y-48871190D01*
X105664285Y-48918809D01*
X105735714Y-49014047D01*
X105735714Y-49156904D01*
X105664285Y-49252142D01*
X105592857Y-49299761D01*
X105450000Y-49347380D01*
X104878571Y-49347380D01*
X104878571Y-48347380D01*
X105378571Y-48347380D01*
X105521428Y-48395000D01*
X105592857Y-48442619D01*
X105664285Y-48537857D01*
X105664285Y-48633095D01*
X105592857Y-48728333D01*
X105521428Y-48775952D01*
X105378571Y-48823571D01*
X104878571Y-48823571D01*
X108378571Y-49252142D02*
X108307142Y-49299761D01*
X108092857Y-49347380D01*
X107950000Y-49347380D01*
X107735714Y-49299761D01*
X107592857Y-49204523D01*
X107521428Y-49109285D01*
X107450000Y-48918809D01*
X107450000Y-48775952D01*
X107521428Y-48585476D01*
X107592857Y-48490238D01*
X107735714Y-48395000D01*
X107950000Y-48347380D01*
X108092857Y-48347380D01*
X108307142Y-48395000D01*
X108378571Y-48442619D01*
X110164285Y-49347380D02*
X110164285Y-48347380D01*
X110521428Y-48347380D01*
X110735714Y-48395000D01*
X110878571Y-48490238D01*
X110950000Y-48585476D01*
X111021428Y-48775952D01*
X111021428Y-48918809D01*
X110950000Y-49109285D01*
X110878571Y-49204523D01*
X110735714Y-49299761D01*
X110521428Y-49347380D01*
X110164285Y-49347380D01*
X112807142Y-48823571D02*
X113307142Y-48823571D01*
X113521428Y-49347380D02*
X112807142Y-49347380D01*
X112807142Y-48347380D01*
X113521428Y-48347380D01*
D11*
X105163252Y-87628800D02*
X104640748Y-87628800D01*
X105163252Y-86208800D02*
X104640748Y-86208800D01*
X105163252Y-84126000D02*
X104640748Y-84126000D01*
X105163252Y-85546000D02*
X104640748Y-85546000D01*
X110666600Y-79189948D02*
X110666600Y-79712452D01*
X109246600Y-79189948D02*
X109246600Y-79712452D01*
X107163800Y-79189948D02*
X107163800Y-79712452D01*
X108583800Y-79189948D02*
X108583800Y-79712452D01*
X104640748Y-82030500D02*
X105163252Y-82030500D01*
X104640748Y-83450500D02*
X105163252Y-83450500D01*
X111329400Y-79189948D02*
X111329400Y-79712452D01*
X112749400Y-79189948D02*
X112749400Y-79712452D01*
X107982652Y-65454600D02*
X107460148Y-65454600D01*
X107982652Y-64034600D02*
X107460148Y-64034600D01*
X110245400Y-91691400D02*
X110245400Y-87391400D01*
X110245400Y-87391400D02*
X108245400Y-87391400D01*
X108245400Y-87391400D02*
X108245400Y-91691400D01*
X111185000Y-100805000D02*
X111185000Y-100002530D01*
X111185000Y-99387470D02*
X111185000Y-98585000D01*
X106170000Y-100805000D02*
X111185000Y-100805000D01*
X106170000Y-98585000D02*
X111185000Y-98585000D01*
X106170000Y-100805000D02*
X106170000Y-100258471D01*
X106170000Y-99131529D02*
X106170000Y-98585000D01*
X105410000Y-100805000D02*
X104650000Y-100805000D01*
X104650000Y-100805000D02*
X104650000Y-99695000D01*
X114360000Y-48320000D02*
X114360000Y-45660000D01*
X104140000Y-48320000D02*
X114360000Y-48320000D01*
X104140000Y-45660000D02*
X114360000Y-45660000D01*
X104140000Y-48320000D02*
X104140000Y-45660000D01*
X102870000Y-48320000D02*
X101540000Y-48320000D01*
X101540000Y-48320000D02*
X101540000Y-46990000D01*
X104257800Y-54702400D02*
X105587800Y-54702400D01*
X104257800Y-56032400D02*
X104257800Y-54702400D01*
X104257800Y-57302400D02*
X106917800Y-57302400D01*
X106917800Y-57302400D02*
X106917800Y-57362400D01*
X104257800Y-57302400D02*
X104257800Y-57362400D01*
X104257800Y-57362400D02*
X106917800Y-57362400D01*
X104054600Y-63407600D02*
X106714600Y-63407600D01*
X104054600Y-63347600D02*
X104054600Y-63407600D01*
X106714600Y-63347600D02*
X106714600Y-63407600D01*
X104054600Y-63347600D02*
X106714600Y-63347600D01*
X104054600Y-62077600D02*
X104054600Y-60747600D01*
X104054600Y-60747600D02*
X105384600Y-60747600D01*
X112164400Y-65537200D02*
X112164400Y-64607200D01*
X112164400Y-62377200D02*
X112164400Y-63307200D01*
X112164400Y-62377200D02*
X110004400Y-62377200D01*
X112164400Y-65537200D02*
X110704400Y-65537200D01*
X105163252Y-91794400D02*
X104640748Y-91794400D01*
X105163252Y-90374400D02*
X104640748Y-90374400D01*
X110090852Y-86866800D02*
X109568348Y-86866800D01*
X110090852Y-85446800D02*
X109568348Y-85446800D01*
X104640748Y-79259500D02*
X105163252Y-79259500D01*
X104640748Y-77839500D02*
X105163252Y-77839500D01*
X104640748Y-79935000D02*
X105163252Y-79935000D01*
X104640748Y-81355000D02*
X105163252Y-81355000D01*
X105163252Y-89711600D02*
X104640748Y-89711600D01*
X105163252Y-88291600D02*
X104640748Y-88291600D01*
X105123348Y-59790400D02*
X105645852Y-59790400D01*
X105123348Y-58370400D02*
X105645852Y-58370400D01*
X107697200Y-61587748D02*
X107697200Y-62110252D01*
X109117200Y-61587748D02*
X109117200Y-62110252D01*
D12*
X104134500Y-74745000D02*
X104359500Y-74745000D01*
X104134500Y-67495000D02*
X104459500Y-67495000D01*
X111384500Y-67495000D02*
X111059500Y-67495000D01*
X111384500Y-74745000D02*
X111059500Y-74745000D01*
X104134500Y-74745000D02*
X104134500Y-74420000D01*
X111384500Y-74745000D02*
X111384500Y-74420000D01*
X111384500Y-67495000D02*
X111384500Y-67820000D01*
X104134500Y-67495000D02*
X104134500Y-67820000D01*
X104359500Y-74745000D02*
X104359500Y-76170000D01*
D11*
X115299000Y-49470000D02*
X109839000Y-49470000D01*
X115299000Y-100390000D02*
X115299000Y-49470000D01*
X102379000Y-100390000D02*
X115299000Y-100390000D01*
X102379000Y-49470000D02*
X102379000Y-100390000D01*
X107839000Y-49470000D02*
X102379000Y-49470000D01*
X109839000Y-49470000D02*
G75*
G02*
X107839000Y-49470000I-1000000J0D01*
G01*
X105680000Y-49470000D02*
X100220000Y-49470000D01*
X100220000Y-49470000D02*
X100220000Y-100390000D01*
X100220000Y-100390000D02*
X113140000Y-100390000D01*
X113140000Y-100390000D02*
X113140000Y-49470000D01*
X113140000Y-49470000D02*
X107680000Y-49470000D01*
X107680000Y-49470000D02*
G75*
G02*
X105680000Y-49470000I-1000000J0D01*
G01*
X111132000Y-82317600D02*
X108832000Y-82317600D01*
X108832000Y-82317600D02*
X108832000Y-85017600D01*
D12*
X101161880Y-71881904D02*
X101971404Y-71881904D01*
X102066642Y-71834285D01*
X102114261Y-71786666D01*
X102161880Y-71691428D01*
X102161880Y-71500952D01*
X102114261Y-71405714D01*
X102066642Y-71358095D01*
X101971404Y-71310476D01*
X101161880Y-71310476D01*
X102161880Y-70310476D02*
X102161880Y-70881904D01*
X102161880Y-70596190D02*
X101161880Y-70596190D01*
X101304738Y-70691428D01*
X101399976Y-70786666D01*
X101447595Y-70881904D01*
M02*
