M48
; DRILL file {KiCad (5.1.9)-1} date 06/10/21 15:02:56
; FORMAT={-:-/ absolute / inch / decimal}
; #@! TF.CreationDate,2021-06-10T15:02:56-04:00
; #@! TF.GenerationSoftware,Kicad,Pcbnew,(5.1.9)-1
; #@! TF.FileFunction,Plated,1,2,PTH
FMAT,2
INCH
T1C0.0157
T2C0.0256
T3C0.0315
T4C0.0394
%
G90
G05
T1
X3.94Y-2.15
X3.94Y-2.25
X3.94Y-2.35
X3.94Y-2.45
X3.94Y-2.75
X3.94Y-2.85
X3.94Y-2.95
X3.94Y-3.05
X3.94Y-3.15
X3.94Y-3.25
X3.94Y-3.45
X3.945Y-3.35
X4.035Y-3.24
X4.04Y-2.95
X4.0745Y-3.0965
X4.078Y-3.807
X4.079Y-3.573
X4.08Y-2.879
X4.085Y-3.431
X4.0896Y-3.34
X4.09Y-2.847
X4.096Y-2.721
X4.1Y-2.815
X4.1Y-3.24
X4.101Y-3.159
X4.105Y-1.935
X4.135Y-2.696
X4.136Y-3.7
X4.153Y-2.541
X4.159Y-3.191
X4.167Y-2.724
X4.1678Y-2.7752
X4.17Y-3.381
X4.17Y-3.592
X4.182Y-3.109
X4.182Y-3.241
X4.195Y-1.94
X4.195Y-2.815
X4.2Y-2.31
X4.209Y-2.536
X4.2105Y-3.2165
X4.22Y-3.7
X4.22Y-3.75
X4.22Y-3.797
X4.2265Y-2.9075
X4.239Y-3.241
X4.247Y-3.1684
X4.25Y-3.765
X4.257Y-3.041
X4.2595Y-3.6655
X4.28Y-3.479
X4.294Y-2.737
X4.3Y-1.945
X4.314Y-3.334
X4.328Y-2.574
X4.345Y-2.802
X4.345Y-2.834
X4.345Y-3.099
X4.352Y-3.276
X4.354Y-3.222
X4.356Y-2.909
X4.361Y-3.338
X4.363Y-3.75
X4.365Y-3.529
X4.369Y-3.128
X4.3737Y-2.7843
X4.393Y-2.816
X4.405Y-1.955
X4.405Y-3.54
X4.412Y-2.848
X4.431Y-2.879
X4.434Y-2.915
X4.439Y-3.552
X4.445Y-2.965
X4.54Y-2.15
X4.54Y-2.25
X4.54Y-2.35
X4.54Y-2.45
X4.54Y-2.65
X4.54Y-2.95
X4.54Y-3.05
X4.54Y-3.15
X4.54Y-3.25
X4.54Y-3.35
X4.54Y-3.45
X4.545Y-2.05
X4.55Y-1.895
T2
X4.15Y-3.925
X4.2Y-3.925
X4.25Y-3.925
X4.3Y-3.925
X4.35Y-3.925
T3
X3.9Y-2.0
X3.9Y-2.1
X3.9Y-2.2
X3.9Y-2.3
X3.9Y-2.4
X3.9Y-2.5
X3.9Y-2.6
X3.9Y-2.7
X3.9Y-2.8
X3.9Y-2.9
X3.9Y-3.0
X3.9Y-3.1
X3.9Y-3.2
X3.9Y-3.3
X3.9Y-3.4
X3.9Y-3.5
X3.9Y-3.6
X3.9Y-3.7
X3.9Y-3.8
X3.9Y-3.9
X3.985Y-2.0
X3.985Y-2.1
X3.985Y-2.2
X3.985Y-2.3
X3.985Y-2.4
X3.985Y-2.5
X3.985Y-2.6
X3.985Y-2.7
X3.985Y-2.8
X3.985Y-2.9
X3.985Y-3.0
X3.985Y-3.1
X3.985Y-3.2
X3.985Y-3.3
X3.985Y-3.4
X3.985Y-3.5
X3.985Y-3.6
X3.985Y-3.7
X3.985Y-3.8
X3.985Y-3.9
X4.5Y-2.0
X4.5Y-2.1
X4.5Y-2.2
X4.5Y-2.3
X4.5Y-2.4
X4.5Y-2.5
X4.5Y-2.6
X4.5Y-2.7
X4.5Y-2.8
X4.5Y-2.9
X4.5Y-3.0
X4.5Y-3.1
X4.5Y-3.2
X4.5Y-3.3
X4.5Y-3.4
X4.5Y-3.5
X4.5Y-3.6
X4.5Y-3.7
X4.5Y-3.8
X4.5Y-3.9
X4.585Y-2.0
X4.585Y-2.1
X4.585Y-2.2
X4.585Y-2.3
X4.585Y-2.4
X4.585Y-2.5
X4.585Y-2.6
X4.585Y-2.7
X4.585Y-2.8
X4.585Y-2.9
X4.585Y-3.0
X4.585Y-3.1
X4.585Y-3.2
X4.585Y-3.3
X4.585Y-3.4
X4.585Y-3.5
X4.585Y-3.6
X4.585Y-3.7
X4.585Y-3.8
X4.585Y-3.9
T4
X4.05Y-1.85
X4.149Y-2.444
X4.15Y-1.85
X4.157Y-2.206
X4.25Y-1.85
X4.35Y-1.85
X4.45Y-1.85
T0
M30
