%FSLAX45Y45*%
G04 Gerber Fmt 4.5, Leading zero omitted, Abs format (unit mm)*
G04 Created by KiCad (PCBNEW (5.1.9)-1) date 2021-06-10 15:02:57*
%MOMM*%
%LPD*%
G01*
G04 APERTURE LIST*
%TA.AperFunction,Profile*%
%ADD10C,0.050000*%
%TD*%
%ADD11C,0.200000*%
%ADD12C,0.300000*%
G04 APERTURE END LIST*
D10*
X9779000Y-10058400D02*
X9779000Y-4572000D01*
X11760200Y-10058400D02*
X9779000Y-10058400D01*
X11772900Y-4572000D02*
X11760200Y-10058400D01*
X9779000Y-4572000D02*
X11772900Y-4572000D01*
D11*
X9987600Y-5441000D02*
X10027600Y-5481000D01*
X10027600Y-5441000D02*
X9987600Y-5481000D01*
X9987600Y-5695000D02*
X10027600Y-5735000D01*
X10027600Y-5695000D02*
X9987600Y-5735000D01*
X9987600Y-5949000D02*
X10027600Y-5989000D01*
X10027600Y-5949000D02*
X9987600Y-5989000D01*
X9987600Y-6203000D02*
X10027600Y-6243000D01*
X10027600Y-6203000D02*
X9987600Y-6243000D01*
X9987600Y-6965000D02*
X10027600Y-7005000D01*
X10027600Y-6965000D02*
X9987600Y-7005000D01*
X9987600Y-7219000D02*
X10027600Y-7259000D01*
X10027600Y-7219000D02*
X9987600Y-7259000D01*
X9987600Y-7473000D02*
X10027600Y-7513000D01*
X10027600Y-7473000D02*
X9987600Y-7513000D01*
X9987600Y-7727000D02*
X10027600Y-7767000D01*
X10027600Y-7727000D02*
X9987600Y-7767000D01*
X9987600Y-7981000D02*
X10027600Y-8021000D01*
X10027600Y-7981000D02*
X9987600Y-8021000D01*
X9987600Y-8235000D02*
X10027600Y-8275000D01*
X10027600Y-8235000D02*
X9987600Y-8275000D01*
X9987600Y-8743000D02*
X10027600Y-8783000D01*
X10027600Y-8743000D02*
X9987600Y-8783000D01*
X10000300Y-8489000D02*
X10040300Y-8529000D01*
X10040300Y-8489000D02*
X10000300Y-8529000D01*
X10228900Y-8209600D02*
X10268900Y-8249600D01*
X10268900Y-8209600D02*
X10228900Y-8249600D01*
X10241600Y-7473000D02*
X10281600Y-7513000D01*
X10281600Y-7473000D02*
X10241600Y-7513000D01*
X10329230Y-7845110D02*
X10369230Y-7885110D01*
X10369230Y-7845110D02*
X10329230Y-7885110D01*
X10338120Y-9649780D02*
X10378120Y-9689780D01*
X10378120Y-9649780D02*
X10338120Y-9689780D01*
X10340660Y-9055420D02*
X10380660Y-9095420D01*
X10380660Y-9055420D02*
X10340660Y-9095420D01*
X10343200Y-7292660D02*
X10383200Y-7332660D01*
X10383200Y-7292660D02*
X10343200Y-7332660D01*
X10355900Y-8694740D02*
X10395900Y-8734740D01*
X10395900Y-8694740D02*
X10355900Y-8734740D01*
X10367700Y-8463600D02*
X10407700Y-8503600D01*
X10407700Y-8463600D02*
X10367700Y-8503600D01*
X10368600Y-7211380D02*
X10408600Y-7251380D01*
X10408600Y-7211380D02*
X10368600Y-7251380D01*
X10383840Y-6891340D02*
X10423840Y-6931340D01*
X10423840Y-6891340D02*
X10383840Y-6931340D01*
X10394000Y-7130100D02*
X10434000Y-7170100D01*
X10434000Y-7130100D02*
X10394000Y-7170100D01*
X10394000Y-8209600D02*
X10434000Y-8249600D01*
X10434000Y-8209600D02*
X10394000Y-8249600D01*
X10396540Y-8003860D02*
X10436540Y-8043860D01*
X10436540Y-8003860D02*
X10396540Y-8043860D01*
X10406700Y-4894900D02*
X10446700Y-4934900D01*
X10446700Y-4894900D02*
X10406700Y-4934900D01*
X10482900Y-6827840D02*
X10522900Y-6867840D01*
X10522900Y-6827840D02*
X10482900Y-6867840D01*
X10485440Y-9378000D02*
X10525440Y-9418000D01*
X10525440Y-9378000D02*
X10485440Y-9418000D01*
X10528620Y-6434140D02*
X10568620Y-6474140D01*
X10568620Y-6434140D02*
X10528620Y-6474140D01*
X10543860Y-8085140D02*
X10583860Y-8125140D01*
X10583860Y-8085140D02*
X10543860Y-8125140D01*
X10564180Y-6898960D02*
X10604180Y-6938960D01*
X10604180Y-6898960D02*
X10564180Y-6938960D01*
X10566239Y-7028981D02*
X10606239Y-7068981D01*
X10606239Y-7028981D02*
X10566239Y-7068981D01*
X10571800Y-8567740D02*
X10611800Y-8607740D01*
X10611800Y-8567740D02*
X10571800Y-8607740D01*
X10571800Y-9103680D02*
X10611800Y-9143680D01*
X10611800Y-9103680D02*
X10571800Y-9143680D01*
X10602280Y-7876860D02*
X10642280Y-7916860D01*
X10642280Y-7876860D02*
X10602280Y-7916860D01*
X10602280Y-8212140D02*
X10642280Y-8252140D01*
X10642280Y-8212140D02*
X10602280Y-8252140D01*
X10635300Y-4907600D02*
X10675300Y-4947600D01*
X10675300Y-4907600D02*
X10635300Y-4947600D01*
X10635300Y-7130100D02*
X10675300Y-7170100D01*
X10675300Y-7130100D02*
X10635300Y-7170100D01*
X10648000Y-5847400D02*
X10688000Y-5887400D01*
X10688000Y-5847400D02*
X10648000Y-5887400D01*
X10670860Y-6421440D02*
X10710860Y-6461440D01*
X10710860Y-6421440D02*
X10670860Y-6461440D01*
X10674601Y-8149979D02*
X10714601Y-8189979D01*
X10714601Y-8149979D02*
X10674601Y-8189979D01*
X10698800Y-9378000D02*
X10738800Y-9418000D01*
X10738800Y-9378000D02*
X10698800Y-9418000D01*
X10698800Y-9505000D02*
X10738800Y-9545000D01*
X10738800Y-9505000D02*
X10698800Y-9545000D01*
X10698800Y-9624380D02*
X10738800Y-9664380D01*
X10738800Y-9624380D02*
X10698800Y-9664380D01*
X10715310Y-7365050D02*
X10755310Y-7405050D01*
X10755310Y-7365050D02*
X10715310Y-7405050D01*
X10747060Y-8212140D02*
X10787060Y-8252140D01*
X10787060Y-8212140D02*
X10747060Y-8252140D01*
X10767380Y-8027620D02*
X10807380Y-8067620D01*
X10807380Y-8027620D02*
X10767380Y-8067620D01*
X10775000Y-9543100D02*
X10815000Y-9583100D01*
X10815000Y-9543100D02*
X10775000Y-9583100D01*
X10792780Y-7704140D02*
X10832780Y-7744140D01*
X10832780Y-7704140D02*
X10792780Y-7744140D01*
X10799250Y-9290250D02*
X10839250Y-9330250D01*
X10839250Y-9290250D02*
X10799250Y-9330250D01*
X10851200Y-8816660D02*
X10891200Y-8856660D01*
X10891200Y-8816660D02*
X10851200Y-8856660D01*
X10886760Y-6931980D02*
X10926760Y-6971980D01*
X10926760Y-6931980D02*
X10886760Y-6971980D01*
X10902000Y-4920300D02*
X10942000Y-4960300D01*
X10942000Y-4920300D02*
X10902000Y-4960300D01*
X10937560Y-8448360D02*
X10977560Y-8488360D01*
X10977560Y-8448360D02*
X10937560Y-8488360D01*
X10973120Y-6517960D02*
X11013120Y-6557960D01*
X11013120Y-6517960D02*
X10973120Y-6557960D01*
X11016300Y-7097080D02*
X11056300Y-7137080D01*
X11056300Y-7097080D02*
X11016300Y-7137080D01*
X11016300Y-7178360D02*
X11056300Y-7218360D01*
X11056300Y-7178360D02*
X11016300Y-7218360D01*
X11016300Y-7851460D02*
X11056300Y-7891460D01*
X11056300Y-7851460D02*
X11016300Y-7891460D01*
X11034080Y-8301040D02*
X11074080Y-8341040D01*
X11074080Y-8301040D02*
X11034080Y-8341040D01*
X11039160Y-8163880D02*
X11079160Y-8203880D01*
X11079160Y-8163880D02*
X11039160Y-8203880D01*
X11044240Y-7368860D02*
X11084240Y-7408860D01*
X11084240Y-7368860D02*
X11044240Y-7408860D01*
X11056940Y-8458520D02*
X11096940Y-8498520D01*
X11096940Y-8458520D02*
X11056940Y-8498520D01*
X11062020Y-9505000D02*
X11102020Y-9545000D01*
X11102020Y-9505000D02*
X11062020Y-9545000D01*
X11067100Y-8943660D02*
X11107100Y-8983660D01*
X11107100Y-8943660D02*
X11067100Y-8983660D01*
X11077260Y-7925120D02*
X11117260Y-7965120D01*
X11117260Y-7925120D02*
X11077260Y-7965120D01*
X11089320Y-7052000D02*
X11129320Y-7092000D01*
X11129320Y-7052000D02*
X11089320Y-7092000D01*
X11138220Y-7132640D02*
X11178220Y-7172640D01*
X11178220Y-7132640D02*
X11138220Y-7172640D01*
X11168700Y-4945700D02*
X11208700Y-4985700D01*
X11208700Y-4945700D02*
X11168700Y-4985700D01*
X11168700Y-8971600D02*
X11208700Y-9011600D01*
X11208700Y-8971600D02*
X11168700Y-9011600D01*
X11186480Y-7213920D02*
X11226480Y-7253920D01*
X11226480Y-7213920D02*
X11186480Y-7253920D01*
X11234740Y-7292660D02*
X11274740Y-7332660D01*
X11274740Y-7292660D02*
X11234740Y-7332660D01*
X11242360Y-7384100D02*
X11282360Y-7424100D01*
X11282360Y-7384100D02*
X11242360Y-7424100D01*
X11255060Y-9002080D02*
X11295060Y-9042080D01*
X11295060Y-9002080D02*
X11255060Y-9042080D01*
X11270300Y-7511100D02*
X11310300Y-7551100D01*
X11310300Y-7511100D02*
X11270300Y-7551100D01*
X11511600Y-5441000D02*
X11551600Y-5481000D01*
X11551600Y-5441000D02*
X11511600Y-5481000D01*
X11511600Y-5695000D02*
X11551600Y-5735000D01*
X11551600Y-5695000D02*
X11511600Y-5735000D01*
X11511600Y-5949000D02*
X11551600Y-5989000D01*
X11551600Y-5949000D02*
X11511600Y-5989000D01*
X11511600Y-6203000D02*
X11551600Y-6243000D01*
X11551600Y-6203000D02*
X11511600Y-6243000D01*
X11511600Y-6711000D02*
X11551600Y-6751000D01*
X11551600Y-6711000D02*
X11511600Y-6751000D01*
X11511600Y-7473000D02*
X11551600Y-7513000D01*
X11551600Y-7473000D02*
X11511600Y-7513000D01*
X11511600Y-7727000D02*
X11551600Y-7767000D01*
X11551600Y-7727000D02*
X11511600Y-7767000D01*
X11511600Y-7981000D02*
X11551600Y-8021000D01*
X11551600Y-7981000D02*
X11511600Y-8021000D01*
X11511600Y-8235000D02*
X11551600Y-8275000D01*
X11551600Y-8235000D02*
X11511600Y-8275000D01*
X11511600Y-8489000D02*
X11551600Y-8529000D01*
X11551600Y-8489000D02*
X11511600Y-8529000D01*
X11511600Y-8743000D02*
X11551600Y-8783000D01*
X11551600Y-8743000D02*
X11511600Y-8783000D01*
X11524300Y-5187000D02*
X11564300Y-5227000D01*
X11564300Y-5187000D02*
X11524300Y-5227000D01*
X11537000Y-4793300D02*
X11577000Y-4833300D01*
X11577000Y-4793300D02*
X11537000Y-4833300D01*
X10573500Y-9969500D02*
G75*
G03*
X10573500Y-9969500I-32500J0D01*
G01*
X10700500Y-9969500D02*
G75*
G03*
X10700500Y-9969500I-32500J0D01*
G01*
X10827500Y-9969500D02*
G75*
G03*
X10827500Y-9969500I-32500J0D01*
G01*
X10954500Y-9969500D02*
G75*
G03*
X10954500Y-9969500I-32500J0D01*
G01*
X11081500Y-9969500D02*
G75*
G03*
X11081500Y-9969500I-32500J0D01*
G01*
X9906000Y-5040000D02*
X9906000Y-5120000D01*
X9866000Y-5080000D02*
X9946000Y-5080000D01*
X9906000Y-5294000D02*
X9906000Y-5374000D01*
X9866000Y-5334000D02*
X9946000Y-5334000D01*
X9906000Y-5548000D02*
X9906000Y-5628000D01*
X9866000Y-5588000D02*
X9946000Y-5588000D01*
X9906000Y-5802000D02*
X9906000Y-5882000D01*
X9866000Y-5842000D02*
X9946000Y-5842000D01*
X9906000Y-6056000D02*
X9906000Y-6136000D01*
X9866000Y-6096000D02*
X9946000Y-6096000D01*
X9906000Y-6310000D02*
X9906000Y-6390000D01*
X9866000Y-6350000D02*
X9946000Y-6350000D01*
X9906000Y-6564000D02*
X9906000Y-6644000D01*
X9866000Y-6604000D02*
X9946000Y-6604000D01*
X9906000Y-6818000D02*
X9906000Y-6898000D01*
X9866000Y-6858000D02*
X9946000Y-6858000D01*
X9906000Y-7072000D02*
X9906000Y-7152000D01*
X9866000Y-7112000D02*
X9946000Y-7112000D01*
X9906000Y-7326000D02*
X9906000Y-7406000D01*
X9866000Y-7366000D02*
X9946000Y-7366000D01*
X9906000Y-7580000D02*
X9906000Y-7660000D01*
X9866000Y-7620000D02*
X9946000Y-7620000D01*
X9906000Y-7834000D02*
X9906000Y-7914000D01*
X9866000Y-7874000D02*
X9946000Y-7874000D01*
X9906000Y-8088000D02*
X9906000Y-8168000D01*
X9866000Y-8128000D02*
X9946000Y-8128000D01*
X9906000Y-8342000D02*
X9906000Y-8422000D01*
X9866000Y-8382000D02*
X9946000Y-8382000D01*
X9906000Y-8596000D02*
X9906000Y-8676000D01*
X9866000Y-8636000D02*
X9946000Y-8636000D01*
X9906000Y-8850000D02*
X9906000Y-8930000D01*
X9866000Y-8890000D02*
X9946000Y-8890000D01*
X9906000Y-9104000D02*
X9906000Y-9184000D01*
X9866000Y-9144000D02*
X9946000Y-9144000D01*
X9906000Y-9358000D02*
X9906000Y-9438000D01*
X9866000Y-9398000D02*
X9946000Y-9398000D01*
X9906000Y-9612000D02*
X9906000Y-9692000D01*
X9866000Y-9652000D02*
X9946000Y-9652000D01*
X9906000Y-9866000D02*
X9906000Y-9946000D01*
X9866000Y-9906000D02*
X9946000Y-9906000D01*
X10121900Y-5040000D02*
X10121900Y-5120000D01*
X10081900Y-5080000D02*
X10161900Y-5080000D01*
X10121900Y-5294000D02*
X10121900Y-5374000D01*
X10081900Y-5334000D02*
X10161900Y-5334000D01*
X10121900Y-5548000D02*
X10121900Y-5628000D01*
X10081900Y-5588000D02*
X10161900Y-5588000D01*
X10121900Y-5802000D02*
X10121900Y-5882000D01*
X10081900Y-5842000D02*
X10161900Y-5842000D01*
X10121900Y-6056000D02*
X10121900Y-6136000D01*
X10081900Y-6096000D02*
X10161900Y-6096000D01*
X10121900Y-6310000D02*
X10121900Y-6390000D01*
X10081900Y-6350000D02*
X10161900Y-6350000D01*
X10121900Y-6564000D02*
X10121900Y-6644000D01*
X10081900Y-6604000D02*
X10161900Y-6604000D01*
X10121900Y-6818000D02*
X10121900Y-6898000D01*
X10081900Y-6858000D02*
X10161900Y-6858000D01*
X10121900Y-7072000D02*
X10121900Y-7152000D01*
X10081900Y-7112000D02*
X10161900Y-7112000D01*
X10121900Y-7326000D02*
X10121900Y-7406000D01*
X10081900Y-7366000D02*
X10161900Y-7366000D01*
X10121900Y-7580000D02*
X10121900Y-7660000D01*
X10081900Y-7620000D02*
X10161900Y-7620000D01*
X10121900Y-7834000D02*
X10121900Y-7914000D01*
X10081900Y-7874000D02*
X10161900Y-7874000D01*
X10121900Y-8088000D02*
X10121900Y-8168000D01*
X10081900Y-8128000D02*
X10161900Y-8128000D01*
X10121900Y-8342000D02*
X10121900Y-8422000D01*
X10081900Y-8382000D02*
X10161900Y-8382000D01*
X10121900Y-8596000D02*
X10121900Y-8676000D01*
X10081900Y-8636000D02*
X10161900Y-8636000D01*
X10121900Y-8850000D02*
X10121900Y-8930000D01*
X10081900Y-8890000D02*
X10161900Y-8890000D01*
X10121900Y-9104000D02*
X10121900Y-9184000D01*
X10081900Y-9144000D02*
X10161900Y-9144000D01*
X10121900Y-9358000D02*
X10121900Y-9438000D01*
X10081900Y-9398000D02*
X10161900Y-9398000D01*
X10121900Y-9612000D02*
X10121900Y-9692000D01*
X10081900Y-9652000D02*
X10161900Y-9652000D01*
X10121900Y-9866000D02*
X10121900Y-9946000D01*
X10081900Y-9906000D02*
X10161900Y-9906000D01*
X11430000Y-5040000D02*
X11430000Y-5120000D01*
X11390000Y-5080000D02*
X11470000Y-5080000D01*
X11430000Y-5294000D02*
X11430000Y-5374000D01*
X11390000Y-5334000D02*
X11470000Y-5334000D01*
X11430000Y-5548000D02*
X11430000Y-5628000D01*
X11390000Y-5588000D02*
X11470000Y-5588000D01*
X11430000Y-5802000D02*
X11430000Y-5882000D01*
X11390000Y-5842000D02*
X11470000Y-5842000D01*
X11430000Y-6056000D02*
X11430000Y-6136000D01*
X11390000Y-6096000D02*
X11470000Y-6096000D01*
X11430000Y-6310000D02*
X11430000Y-6390000D01*
X11390000Y-6350000D02*
X11470000Y-6350000D01*
X11430000Y-6564000D02*
X11430000Y-6644000D01*
X11390000Y-6604000D02*
X11470000Y-6604000D01*
X11430000Y-6818000D02*
X11430000Y-6898000D01*
X11390000Y-6858000D02*
X11470000Y-6858000D01*
X11430000Y-7072000D02*
X11430000Y-7152000D01*
X11390000Y-7112000D02*
X11470000Y-7112000D01*
X11430000Y-7326000D02*
X11430000Y-7406000D01*
X11390000Y-7366000D02*
X11470000Y-7366000D01*
X11430000Y-7580000D02*
X11430000Y-7660000D01*
X11390000Y-7620000D02*
X11470000Y-7620000D01*
X11430000Y-7834000D02*
X11430000Y-7914000D01*
X11390000Y-7874000D02*
X11470000Y-7874000D01*
X11430000Y-8088000D02*
X11430000Y-8168000D01*
X11390000Y-8128000D02*
X11470000Y-8128000D01*
X11430000Y-8342000D02*
X11430000Y-8422000D01*
X11390000Y-8382000D02*
X11470000Y-8382000D01*
X11430000Y-8596000D02*
X11430000Y-8676000D01*
X11390000Y-8636000D02*
X11470000Y-8636000D01*
X11430000Y-8850000D02*
X11430000Y-8930000D01*
X11390000Y-8890000D02*
X11470000Y-8890000D01*
X11430000Y-9104000D02*
X11430000Y-9184000D01*
X11390000Y-9144000D02*
X11470000Y-9144000D01*
X11430000Y-9358000D02*
X11430000Y-9438000D01*
X11390000Y-9398000D02*
X11470000Y-9398000D01*
X11430000Y-9612000D02*
X11430000Y-9692000D01*
X11390000Y-9652000D02*
X11470000Y-9652000D01*
X11430000Y-9866000D02*
X11430000Y-9946000D01*
X11390000Y-9906000D02*
X11470000Y-9906000D01*
X11645900Y-5040000D02*
X11645900Y-5120000D01*
X11605900Y-5080000D02*
X11685900Y-5080000D01*
X11645900Y-5294000D02*
X11645900Y-5374000D01*
X11605900Y-5334000D02*
X11685900Y-5334000D01*
X11645900Y-5548000D02*
X11645900Y-5628000D01*
X11605900Y-5588000D02*
X11685900Y-5588000D01*
X11645900Y-5802000D02*
X11645900Y-5882000D01*
X11605900Y-5842000D02*
X11685900Y-5842000D01*
X11645900Y-6056000D02*
X11645900Y-6136000D01*
X11605900Y-6096000D02*
X11685900Y-6096000D01*
X11645900Y-6310000D02*
X11645900Y-6390000D01*
X11605900Y-6350000D02*
X11685900Y-6350000D01*
X11645900Y-6564000D02*
X11645900Y-6644000D01*
X11605900Y-6604000D02*
X11685900Y-6604000D01*
X11645900Y-6818000D02*
X11645900Y-6898000D01*
X11605900Y-6858000D02*
X11685900Y-6858000D01*
X11645900Y-7072000D02*
X11645900Y-7152000D01*
X11605900Y-7112000D02*
X11685900Y-7112000D01*
X11645900Y-7326000D02*
X11645900Y-7406000D01*
X11605900Y-7366000D02*
X11685900Y-7366000D01*
X11645900Y-7580000D02*
X11645900Y-7660000D01*
X11605900Y-7620000D02*
X11685900Y-7620000D01*
X11645900Y-7834000D02*
X11645900Y-7914000D01*
X11605900Y-7874000D02*
X11685900Y-7874000D01*
X11645900Y-8088000D02*
X11645900Y-8168000D01*
X11605900Y-8128000D02*
X11685900Y-8128000D01*
X11645900Y-8342000D02*
X11645900Y-8422000D01*
X11605900Y-8382000D02*
X11685900Y-8382000D01*
X11645900Y-8596000D02*
X11645900Y-8676000D01*
X11605900Y-8636000D02*
X11685900Y-8636000D01*
X11645900Y-8850000D02*
X11645900Y-8930000D01*
X11605900Y-8890000D02*
X11685900Y-8890000D01*
X11645900Y-9104000D02*
X11645900Y-9184000D01*
X11605900Y-9144000D02*
X11685900Y-9144000D01*
X11645900Y-9358000D02*
X11645900Y-9438000D01*
X11605900Y-9398000D02*
X11685900Y-9398000D01*
X11645900Y-9612000D02*
X11645900Y-9692000D01*
X11605900Y-9652000D02*
X11685900Y-9652000D01*
X11645900Y-9866000D02*
X11645900Y-9946000D01*
X11605900Y-9906000D02*
X11685900Y-9906000D01*
X10322356Y-4734356D02*
X10322356Y-4663644D01*
X10251644Y-4663644D01*
X10251644Y-4734356D01*
X10322356Y-4734356D01*
X10573816Y-6243116D02*
X10573816Y-6172404D01*
X10503104Y-6172404D01*
X10503104Y-6243116D01*
X10573816Y-6243116D01*
X10576356Y-4734356D02*
X10576356Y-4663644D01*
X10505644Y-4663644D01*
X10505644Y-4734356D01*
X10576356Y-4734356D01*
X10594136Y-5638596D02*
X10594136Y-5567884D01*
X10523424Y-5567884D01*
X10523424Y-5638596D01*
X10594136Y-5638596D01*
X10830356Y-4734356D02*
X10830356Y-4663644D01*
X10759644Y-4663644D01*
X10759644Y-4734356D01*
X10830356Y-4734356D01*
X11084356Y-4734356D02*
X11084356Y-4663644D01*
X11013644Y-4663644D01*
X11013644Y-4734356D01*
X11084356Y-4734356D01*
X11338356Y-4734356D02*
X11338356Y-4663644D01*
X11267644Y-4663644D01*
X11267644Y-4734356D01*
X11338356Y-4734356D01*
D12*
X10062928Y-10526614D02*
X10062928Y-10226614D01*
X10134357Y-10226614D01*
X10177214Y-10240900D01*
X10205786Y-10269472D01*
X10220071Y-10298043D01*
X10234357Y-10355186D01*
X10234357Y-10398043D01*
X10220071Y-10455186D01*
X10205786Y-10483757D01*
X10177214Y-10512329D01*
X10134357Y-10526614D01*
X10062928Y-10526614D01*
X10362928Y-10526614D02*
X10362928Y-10326614D01*
X10362928Y-10383757D02*
X10377214Y-10355186D01*
X10391500Y-10340900D01*
X10420071Y-10326614D01*
X10448643Y-10326614D01*
X10548643Y-10526614D02*
X10548643Y-10326614D01*
X10548643Y-10226614D02*
X10534357Y-10240900D01*
X10548643Y-10255186D01*
X10562928Y-10240900D01*
X10548643Y-10226614D01*
X10548643Y-10255186D01*
X10734357Y-10526614D02*
X10705786Y-10512329D01*
X10691500Y-10483757D01*
X10691500Y-10226614D01*
X10891500Y-10526614D02*
X10862928Y-10512329D01*
X10848643Y-10483757D01*
X10848643Y-10226614D01*
X11234357Y-10526614D02*
X11234357Y-10226614D01*
X11334357Y-10440900D01*
X11434357Y-10226614D01*
X11434357Y-10526614D01*
X11705786Y-10526614D02*
X11705786Y-10369472D01*
X11691500Y-10340900D01*
X11662928Y-10326614D01*
X11605786Y-10326614D01*
X11577214Y-10340900D01*
X11705786Y-10512329D02*
X11677214Y-10526614D01*
X11605786Y-10526614D01*
X11577214Y-10512329D01*
X11562928Y-10483757D01*
X11562928Y-10455186D01*
X11577214Y-10426614D01*
X11605786Y-10412329D01*
X11677214Y-10412329D01*
X11705786Y-10398043D01*
X11848643Y-10326614D02*
X11848643Y-10626614D01*
X11848643Y-10340900D02*
X11877214Y-10326614D01*
X11934357Y-10326614D01*
X11962928Y-10340900D01*
X11977214Y-10355186D01*
X11991500Y-10383757D01*
X11991500Y-10469472D01*
X11977214Y-10498043D01*
X11962928Y-10512329D01*
X11934357Y-10526614D01*
X11877214Y-10526614D01*
X11848643Y-10512329D01*
X12120071Y-10498043D02*
X12134357Y-10512329D01*
X12120071Y-10526614D01*
X12105786Y-10512329D01*
X12120071Y-10498043D01*
X12120071Y-10526614D01*
X12120071Y-10340900D02*
X12134357Y-10355186D01*
X12120071Y-10369472D01*
X12105786Y-10355186D01*
X12120071Y-10340900D01*
X12120071Y-10369472D01*
X9736500Y-11000900D02*
X9776500Y-11040900D01*
X9776500Y-11000900D02*
X9736500Y-11040900D01*
X10120071Y-10856614D02*
X10148643Y-10856614D01*
X10177214Y-10870900D01*
X10191500Y-10885186D01*
X10205786Y-10913757D01*
X10220071Y-10970900D01*
X10220071Y-11042329D01*
X10205786Y-11099472D01*
X10191500Y-11128043D01*
X10177214Y-11142329D01*
X10148643Y-11156614D01*
X10120071Y-11156614D01*
X10091500Y-11142329D01*
X10077214Y-11128043D01*
X10062928Y-11099472D01*
X10048643Y-11042329D01*
X10048643Y-10970900D01*
X10062928Y-10913757D01*
X10077214Y-10885186D01*
X10091500Y-10870900D01*
X10120071Y-10856614D01*
X10348643Y-11128043D02*
X10362928Y-11142329D01*
X10348643Y-11156614D01*
X10334357Y-11142329D01*
X10348643Y-11128043D01*
X10348643Y-11156614D01*
X10620071Y-10956614D02*
X10620071Y-11156614D01*
X10548643Y-10842329D02*
X10477214Y-11056614D01*
X10662928Y-11056614D01*
X10834357Y-10856614D02*
X10862928Y-10856614D01*
X10891500Y-10870900D01*
X10905786Y-10885186D01*
X10920071Y-10913757D01*
X10934357Y-10970900D01*
X10934357Y-11042329D01*
X10920071Y-11099472D01*
X10905786Y-11128043D01*
X10891500Y-11142329D01*
X10862928Y-11156614D01*
X10834357Y-11156614D01*
X10805786Y-11142329D01*
X10791500Y-11128043D01*
X10777214Y-11099472D01*
X10762928Y-11042329D01*
X10762928Y-10970900D01*
X10777214Y-10913757D01*
X10791500Y-10885186D01*
X10805786Y-10870900D01*
X10834357Y-10856614D01*
X11062928Y-11156614D02*
X11062928Y-10956614D01*
X11062928Y-10985186D02*
X11077214Y-10970900D01*
X11105786Y-10956614D01*
X11148643Y-10956614D01*
X11177214Y-10970900D01*
X11191500Y-10999472D01*
X11191500Y-11156614D01*
X11191500Y-10999472D02*
X11205786Y-10970900D01*
X11234357Y-10956614D01*
X11277214Y-10956614D01*
X11305786Y-10970900D01*
X11320071Y-10999472D01*
X11320071Y-11156614D01*
X11462928Y-11156614D02*
X11462928Y-10956614D01*
X11462928Y-10985186D02*
X11477214Y-10970900D01*
X11505786Y-10956614D01*
X11548643Y-10956614D01*
X11577214Y-10970900D01*
X11591500Y-10999472D01*
X11591500Y-11156614D01*
X11591500Y-10999472D02*
X11605786Y-10970900D01*
X11634357Y-10956614D01*
X11677214Y-10956614D01*
X11705786Y-10970900D01*
X11720071Y-10999472D01*
X11720071Y-11156614D01*
X12305786Y-10842329D02*
X12048643Y-11228043D01*
X12691500Y-10856614D02*
X12720071Y-10856614D01*
X12748643Y-10870900D01*
X12762928Y-10885186D01*
X12777214Y-10913757D01*
X12791500Y-10970900D01*
X12791500Y-11042329D01*
X12777214Y-11099472D01*
X12762928Y-11128043D01*
X12748643Y-11142329D01*
X12720071Y-11156614D01*
X12691500Y-11156614D01*
X12662928Y-11142329D01*
X12648643Y-11128043D01*
X12634357Y-11099472D01*
X12620071Y-11042329D01*
X12620071Y-10970900D01*
X12634357Y-10913757D01*
X12648643Y-10885186D01*
X12662928Y-10870900D01*
X12691500Y-10856614D01*
X12920071Y-11128043D02*
X12934357Y-11142329D01*
X12920071Y-11156614D01*
X12905786Y-11142329D01*
X12920071Y-11128043D01*
X12920071Y-11156614D01*
X13120071Y-10856614D02*
X13148643Y-10856614D01*
X13177214Y-10870900D01*
X13191500Y-10885186D01*
X13205786Y-10913757D01*
X13220071Y-10970900D01*
X13220071Y-11042329D01*
X13205786Y-11099472D01*
X13191500Y-11128043D01*
X13177214Y-11142329D01*
X13148643Y-11156614D01*
X13120071Y-11156614D01*
X13091500Y-11142329D01*
X13077214Y-11128043D01*
X13062928Y-11099472D01*
X13048643Y-11042329D01*
X13048643Y-10970900D01*
X13062928Y-10913757D01*
X13077214Y-10885186D01*
X13091500Y-10870900D01*
X13120071Y-10856614D01*
X13505786Y-11156614D02*
X13334357Y-11156614D01*
X13420071Y-11156614D02*
X13420071Y-10856614D01*
X13391500Y-10899472D01*
X13362928Y-10928043D01*
X13334357Y-10942329D01*
X13762928Y-10856614D02*
X13705786Y-10856614D01*
X13677214Y-10870900D01*
X13662928Y-10885186D01*
X13634357Y-10928043D01*
X13620071Y-10985186D01*
X13620071Y-11099472D01*
X13634357Y-11128043D01*
X13648643Y-11142329D01*
X13677214Y-11156614D01*
X13734357Y-11156614D01*
X13762928Y-11142329D01*
X13777214Y-11128043D01*
X13791500Y-11099472D01*
X13791500Y-11028043D01*
X13777214Y-10999472D01*
X13762928Y-10985186D01*
X13734357Y-10970900D01*
X13677214Y-10970900D01*
X13648643Y-10985186D01*
X13634357Y-10999472D01*
X13620071Y-11028043D01*
X13905786Y-10856614D02*
X13905786Y-10913757D01*
X14020071Y-10856614D02*
X14020071Y-10913757D01*
X14462928Y-11270900D02*
X14448643Y-11256614D01*
X14420071Y-11213757D01*
X14405786Y-11185186D01*
X14391500Y-11142329D01*
X14377214Y-11070900D01*
X14377214Y-11013757D01*
X14391500Y-10942329D01*
X14405786Y-10899472D01*
X14420071Y-10870900D01*
X14448643Y-10828043D01*
X14462928Y-10813757D01*
X14620071Y-10985186D02*
X14591500Y-10970900D01*
X14577214Y-10956614D01*
X14562928Y-10928043D01*
X14562928Y-10913757D01*
X14577214Y-10885186D01*
X14591500Y-10870900D01*
X14620071Y-10856614D01*
X14677214Y-10856614D01*
X14705786Y-10870900D01*
X14720071Y-10885186D01*
X14734357Y-10913757D01*
X14734357Y-10928043D01*
X14720071Y-10956614D01*
X14705786Y-10970900D01*
X14677214Y-10985186D01*
X14620071Y-10985186D01*
X14591500Y-10999472D01*
X14577214Y-11013757D01*
X14562928Y-11042329D01*
X14562928Y-11099472D01*
X14577214Y-11128043D01*
X14591500Y-11142329D01*
X14620071Y-11156614D01*
X14677214Y-11156614D01*
X14705786Y-11142329D01*
X14720071Y-11128043D01*
X14734357Y-11099472D01*
X14734357Y-11042329D01*
X14720071Y-11013757D01*
X14705786Y-10999472D01*
X14677214Y-10985186D01*
X14834357Y-10856614D02*
X15034357Y-10856614D01*
X14905786Y-11156614D01*
X15377214Y-11156614D02*
X15377214Y-10856614D01*
X15505786Y-11156614D02*
X15505786Y-10999472D01*
X15491500Y-10970900D01*
X15462928Y-10956614D01*
X15420071Y-10956614D01*
X15391500Y-10970900D01*
X15377214Y-10985186D01*
X15691500Y-11156614D02*
X15662928Y-11142329D01*
X15648643Y-11128043D01*
X15634357Y-11099472D01*
X15634357Y-11013757D01*
X15648643Y-10985186D01*
X15662928Y-10970900D01*
X15691500Y-10956614D01*
X15734357Y-10956614D01*
X15762928Y-10970900D01*
X15777214Y-10985186D01*
X15791500Y-11013757D01*
X15791500Y-11099472D01*
X15777214Y-11128043D01*
X15762928Y-11142329D01*
X15734357Y-11156614D01*
X15691500Y-11156614D01*
X15962928Y-11156614D02*
X15934357Y-11142329D01*
X15920071Y-11113757D01*
X15920071Y-10856614D01*
X16191500Y-11142329D02*
X16162928Y-11156614D01*
X16105786Y-11156614D01*
X16077214Y-11142329D01*
X16062928Y-11113757D01*
X16062928Y-10999472D01*
X16077214Y-10970900D01*
X16105786Y-10956614D01*
X16162928Y-10956614D01*
X16191500Y-10970900D01*
X16205786Y-10999472D01*
X16205786Y-11028043D01*
X16062928Y-11056614D01*
X16320071Y-11142329D02*
X16348643Y-11156614D01*
X16405786Y-11156614D01*
X16434357Y-11142329D01*
X16448643Y-11113757D01*
X16448643Y-11099472D01*
X16434357Y-11070900D01*
X16405786Y-11056614D01*
X16362928Y-11056614D01*
X16334357Y-11042329D01*
X16320071Y-11013757D01*
X16320071Y-10999472D01*
X16334357Y-10970900D01*
X16362928Y-10956614D01*
X16405786Y-10956614D01*
X16434357Y-10970900D01*
X16548643Y-11270900D02*
X16562928Y-11256614D01*
X16591500Y-11213757D01*
X16605786Y-11185186D01*
X16620071Y-11142329D01*
X16634357Y-11070900D01*
X16634357Y-11013757D01*
X16620071Y-10942329D01*
X16605786Y-10899472D01*
X16591500Y-10870900D01*
X16562928Y-10828043D01*
X16548643Y-10813757D01*
X9776500Y-11416900D02*
G75*
G03*
X9776500Y-11416900I-32500J0D01*
G01*
X10120071Y-11252614D02*
X10148643Y-11252614D01*
X10177214Y-11266900D01*
X10191500Y-11281186D01*
X10205786Y-11309757D01*
X10220071Y-11366900D01*
X10220071Y-11438329D01*
X10205786Y-11495471D01*
X10191500Y-11524043D01*
X10177214Y-11538329D01*
X10148643Y-11552614D01*
X10120071Y-11552614D01*
X10091500Y-11538329D01*
X10077214Y-11524043D01*
X10062928Y-11495471D01*
X10048643Y-11438329D01*
X10048643Y-11366900D01*
X10062928Y-11309757D01*
X10077214Y-11281186D01*
X10091500Y-11266900D01*
X10120071Y-11252614D01*
X10348643Y-11524043D02*
X10362928Y-11538329D01*
X10348643Y-11552614D01*
X10334357Y-11538329D01*
X10348643Y-11524043D01*
X10348643Y-11552614D01*
X10620071Y-11252614D02*
X10562928Y-11252614D01*
X10534357Y-11266900D01*
X10520071Y-11281186D01*
X10491500Y-11324043D01*
X10477214Y-11381186D01*
X10477214Y-11495471D01*
X10491500Y-11524043D01*
X10505786Y-11538329D01*
X10534357Y-11552614D01*
X10591500Y-11552614D01*
X10620071Y-11538329D01*
X10634357Y-11524043D01*
X10648643Y-11495471D01*
X10648643Y-11424043D01*
X10634357Y-11395471D01*
X10620071Y-11381186D01*
X10591500Y-11366900D01*
X10534357Y-11366900D01*
X10505786Y-11381186D01*
X10491500Y-11395471D01*
X10477214Y-11424043D01*
X10920071Y-11252614D02*
X10777214Y-11252614D01*
X10762928Y-11395471D01*
X10777214Y-11381186D01*
X10805786Y-11366900D01*
X10877214Y-11366900D01*
X10905786Y-11381186D01*
X10920071Y-11395471D01*
X10934357Y-11424043D01*
X10934357Y-11495471D01*
X10920071Y-11524043D01*
X10905786Y-11538329D01*
X10877214Y-11552614D01*
X10805786Y-11552614D01*
X10777214Y-11538329D01*
X10762928Y-11524043D01*
X11062928Y-11552614D02*
X11062928Y-11352614D01*
X11062928Y-11381186D02*
X11077214Y-11366900D01*
X11105786Y-11352614D01*
X11148643Y-11352614D01*
X11177214Y-11366900D01*
X11191500Y-11395471D01*
X11191500Y-11552614D01*
X11191500Y-11395471D02*
X11205786Y-11366900D01*
X11234357Y-11352614D01*
X11277214Y-11352614D01*
X11305786Y-11366900D01*
X11320071Y-11395471D01*
X11320071Y-11552614D01*
X11462928Y-11552614D02*
X11462928Y-11352614D01*
X11462928Y-11381186D02*
X11477214Y-11366900D01*
X11505786Y-11352614D01*
X11548643Y-11352614D01*
X11577214Y-11366900D01*
X11591500Y-11395471D01*
X11591500Y-11552614D01*
X11591500Y-11395471D02*
X11605786Y-11366900D01*
X11634357Y-11352614D01*
X11677214Y-11352614D01*
X11705786Y-11366900D01*
X11720071Y-11395471D01*
X11720071Y-11552614D01*
X12305786Y-11238329D02*
X12048643Y-11624043D01*
X12691500Y-11252614D02*
X12720071Y-11252614D01*
X12748643Y-11266900D01*
X12762928Y-11281186D01*
X12777214Y-11309757D01*
X12791500Y-11366900D01*
X12791500Y-11438329D01*
X12777214Y-11495471D01*
X12762928Y-11524043D01*
X12748643Y-11538329D01*
X12720071Y-11552614D01*
X12691500Y-11552614D01*
X12662928Y-11538329D01*
X12648643Y-11524043D01*
X12634357Y-11495471D01*
X12620071Y-11438329D01*
X12620071Y-11366900D01*
X12634357Y-11309757D01*
X12648643Y-11281186D01*
X12662928Y-11266900D01*
X12691500Y-11252614D01*
X12920071Y-11524043D02*
X12934357Y-11538329D01*
X12920071Y-11552614D01*
X12905786Y-11538329D01*
X12920071Y-11524043D01*
X12920071Y-11552614D01*
X13120071Y-11252614D02*
X13148643Y-11252614D01*
X13177214Y-11266900D01*
X13191500Y-11281186D01*
X13205786Y-11309757D01*
X13220071Y-11366900D01*
X13220071Y-11438329D01*
X13205786Y-11495471D01*
X13191500Y-11524043D01*
X13177214Y-11538329D01*
X13148643Y-11552614D01*
X13120071Y-11552614D01*
X13091500Y-11538329D01*
X13077214Y-11524043D01*
X13062928Y-11495471D01*
X13048643Y-11438329D01*
X13048643Y-11366900D01*
X13062928Y-11309757D01*
X13077214Y-11281186D01*
X13091500Y-11266900D01*
X13120071Y-11252614D01*
X13334357Y-11281186D02*
X13348643Y-11266900D01*
X13377214Y-11252614D01*
X13448643Y-11252614D01*
X13477214Y-11266900D01*
X13491500Y-11281186D01*
X13505786Y-11309757D01*
X13505786Y-11338329D01*
X13491500Y-11381186D01*
X13320071Y-11552614D01*
X13505786Y-11552614D01*
X13762928Y-11252614D02*
X13705786Y-11252614D01*
X13677214Y-11266900D01*
X13662928Y-11281186D01*
X13634357Y-11324043D01*
X13620071Y-11381186D01*
X13620071Y-11495471D01*
X13634357Y-11524043D01*
X13648643Y-11538329D01*
X13677214Y-11552614D01*
X13734357Y-11552614D01*
X13762928Y-11538329D01*
X13777214Y-11524043D01*
X13791500Y-11495471D01*
X13791500Y-11424043D01*
X13777214Y-11395471D01*
X13762928Y-11381186D01*
X13734357Y-11366900D01*
X13677214Y-11366900D01*
X13648643Y-11381186D01*
X13634357Y-11395471D01*
X13620071Y-11424043D01*
X13905786Y-11252614D02*
X13905786Y-11309757D01*
X14020071Y-11252614D02*
X14020071Y-11309757D01*
X14462928Y-11666900D02*
X14448643Y-11652614D01*
X14420071Y-11609757D01*
X14405786Y-11581186D01*
X14391500Y-11538329D01*
X14377214Y-11466900D01*
X14377214Y-11409757D01*
X14391500Y-11338329D01*
X14405786Y-11295471D01*
X14420071Y-11266900D01*
X14448643Y-11224043D01*
X14462928Y-11209757D01*
X14720071Y-11252614D02*
X14577214Y-11252614D01*
X14562928Y-11395471D01*
X14577214Y-11381186D01*
X14605786Y-11366900D01*
X14677214Y-11366900D01*
X14705786Y-11381186D01*
X14720071Y-11395471D01*
X14734357Y-11424043D01*
X14734357Y-11495471D01*
X14720071Y-11524043D01*
X14705786Y-11538329D01*
X14677214Y-11552614D01*
X14605786Y-11552614D01*
X14577214Y-11538329D01*
X14562928Y-11524043D01*
X15091500Y-11552614D02*
X15091500Y-11252614D01*
X15220071Y-11552614D02*
X15220071Y-11395471D01*
X15205786Y-11366900D01*
X15177214Y-11352614D01*
X15134357Y-11352614D01*
X15105786Y-11366900D01*
X15091500Y-11381186D01*
X15405786Y-11552614D02*
X15377214Y-11538329D01*
X15362928Y-11524043D01*
X15348643Y-11495471D01*
X15348643Y-11409757D01*
X15362928Y-11381186D01*
X15377214Y-11366900D01*
X15405786Y-11352614D01*
X15448643Y-11352614D01*
X15477214Y-11366900D01*
X15491500Y-11381186D01*
X15505786Y-11409757D01*
X15505786Y-11495471D01*
X15491500Y-11524043D01*
X15477214Y-11538329D01*
X15448643Y-11552614D01*
X15405786Y-11552614D01*
X15677214Y-11552614D02*
X15648643Y-11538329D01*
X15634357Y-11509757D01*
X15634357Y-11252614D01*
X15905786Y-11538329D02*
X15877214Y-11552614D01*
X15820071Y-11552614D01*
X15791500Y-11538329D01*
X15777214Y-11509757D01*
X15777214Y-11395471D01*
X15791500Y-11366900D01*
X15820071Y-11352614D01*
X15877214Y-11352614D01*
X15905786Y-11366900D01*
X15920071Y-11395471D01*
X15920071Y-11424043D01*
X15777214Y-11452614D01*
X16034357Y-11538329D02*
X16062928Y-11552614D01*
X16120071Y-11552614D01*
X16148643Y-11538329D01*
X16162928Y-11509757D01*
X16162928Y-11495471D01*
X16148643Y-11466900D01*
X16120071Y-11452614D01*
X16077214Y-11452614D01*
X16048643Y-11438329D01*
X16034357Y-11409757D01*
X16034357Y-11395471D01*
X16048643Y-11366900D01*
X16077214Y-11352614D01*
X16120071Y-11352614D01*
X16148643Y-11366900D01*
X16262928Y-11666900D02*
X16277214Y-11652614D01*
X16305786Y-11609757D01*
X16320071Y-11581186D01*
X16334357Y-11538329D01*
X16348643Y-11466900D01*
X16348643Y-11409757D01*
X16334357Y-11338329D01*
X16320071Y-11295471D01*
X16305786Y-11266900D01*
X16277214Y-11224043D01*
X16262928Y-11209757D01*
X9736500Y-11772900D02*
X9736500Y-11852900D01*
X9696500Y-11812900D02*
X9776500Y-11812900D01*
X10120071Y-11648614D02*
X10148643Y-11648614D01*
X10177214Y-11662900D01*
X10191500Y-11677186D01*
X10205786Y-11705757D01*
X10220071Y-11762900D01*
X10220071Y-11834329D01*
X10205786Y-11891471D01*
X10191500Y-11920043D01*
X10177214Y-11934329D01*
X10148643Y-11948614D01*
X10120071Y-11948614D01*
X10091500Y-11934329D01*
X10077214Y-11920043D01*
X10062928Y-11891471D01*
X10048643Y-11834329D01*
X10048643Y-11762900D01*
X10062928Y-11705757D01*
X10077214Y-11677186D01*
X10091500Y-11662900D01*
X10120071Y-11648614D01*
X10348643Y-11920043D02*
X10362928Y-11934329D01*
X10348643Y-11948614D01*
X10334357Y-11934329D01*
X10348643Y-11920043D01*
X10348643Y-11948614D01*
X10534357Y-11777186D02*
X10505786Y-11762900D01*
X10491500Y-11748614D01*
X10477214Y-11720043D01*
X10477214Y-11705757D01*
X10491500Y-11677186D01*
X10505786Y-11662900D01*
X10534357Y-11648614D01*
X10591500Y-11648614D01*
X10620071Y-11662900D01*
X10634357Y-11677186D01*
X10648643Y-11705757D01*
X10648643Y-11720043D01*
X10634357Y-11748614D01*
X10620071Y-11762900D01*
X10591500Y-11777186D01*
X10534357Y-11777186D01*
X10505786Y-11791471D01*
X10491500Y-11805757D01*
X10477214Y-11834329D01*
X10477214Y-11891471D01*
X10491500Y-11920043D01*
X10505786Y-11934329D01*
X10534357Y-11948614D01*
X10591500Y-11948614D01*
X10620071Y-11934329D01*
X10634357Y-11920043D01*
X10648643Y-11891471D01*
X10648643Y-11834329D01*
X10634357Y-11805757D01*
X10620071Y-11791471D01*
X10591500Y-11777186D01*
X10834357Y-11648614D02*
X10862928Y-11648614D01*
X10891500Y-11662900D01*
X10905786Y-11677186D01*
X10920071Y-11705757D01*
X10934357Y-11762900D01*
X10934357Y-11834329D01*
X10920071Y-11891471D01*
X10905786Y-11920043D01*
X10891500Y-11934329D01*
X10862928Y-11948614D01*
X10834357Y-11948614D01*
X10805786Y-11934329D01*
X10791500Y-11920043D01*
X10777214Y-11891471D01*
X10762928Y-11834329D01*
X10762928Y-11762900D01*
X10777214Y-11705757D01*
X10791500Y-11677186D01*
X10805786Y-11662900D01*
X10834357Y-11648614D01*
X11062928Y-11948614D02*
X11062928Y-11748614D01*
X11062928Y-11777186D02*
X11077214Y-11762900D01*
X11105786Y-11748614D01*
X11148643Y-11748614D01*
X11177214Y-11762900D01*
X11191500Y-11791471D01*
X11191500Y-11948614D01*
X11191500Y-11791471D02*
X11205786Y-11762900D01*
X11234357Y-11748614D01*
X11277214Y-11748614D01*
X11305786Y-11762900D01*
X11320071Y-11791471D01*
X11320071Y-11948614D01*
X11462928Y-11948614D02*
X11462928Y-11748614D01*
X11462928Y-11777186D02*
X11477214Y-11762900D01*
X11505786Y-11748614D01*
X11548643Y-11748614D01*
X11577214Y-11762900D01*
X11591500Y-11791471D01*
X11591500Y-11948614D01*
X11591500Y-11791471D02*
X11605786Y-11762900D01*
X11634357Y-11748614D01*
X11677214Y-11748614D01*
X11705786Y-11762900D01*
X11720071Y-11791471D01*
X11720071Y-11948614D01*
X12305786Y-11634329D02*
X12048643Y-12020043D01*
X12691500Y-11648614D02*
X12720071Y-11648614D01*
X12748643Y-11662900D01*
X12762928Y-11677186D01*
X12777214Y-11705757D01*
X12791500Y-11762900D01*
X12791500Y-11834329D01*
X12777214Y-11891471D01*
X12762928Y-11920043D01*
X12748643Y-11934329D01*
X12720071Y-11948614D01*
X12691500Y-11948614D01*
X12662928Y-11934329D01*
X12648643Y-11920043D01*
X12634357Y-11891471D01*
X12620071Y-11834329D01*
X12620071Y-11762900D01*
X12634357Y-11705757D01*
X12648643Y-11677186D01*
X12662928Y-11662900D01*
X12691500Y-11648614D01*
X12920071Y-11920043D02*
X12934357Y-11934329D01*
X12920071Y-11948614D01*
X12905786Y-11934329D01*
X12920071Y-11920043D01*
X12920071Y-11948614D01*
X13120071Y-11648614D02*
X13148643Y-11648614D01*
X13177214Y-11662900D01*
X13191500Y-11677186D01*
X13205786Y-11705757D01*
X13220071Y-11762900D01*
X13220071Y-11834329D01*
X13205786Y-11891471D01*
X13191500Y-11920043D01*
X13177214Y-11934329D01*
X13148643Y-11948614D01*
X13120071Y-11948614D01*
X13091500Y-11934329D01*
X13077214Y-11920043D01*
X13062928Y-11891471D01*
X13048643Y-11834329D01*
X13048643Y-11762900D01*
X13062928Y-11705757D01*
X13077214Y-11677186D01*
X13091500Y-11662900D01*
X13120071Y-11648614D01*
X13320071Y-11648614D02*
X13505786Y-11648614D01*
X13405786Y-11762900D01*
X13448643Y-11762900D01*
X13477214Y-11777186D01*
X13491500Y-11791471D01*
X13505786Y-11820043D01*
X13505786Y-11891471D01*
X13491500Y-11920043D01*
X13477214Y-11934329D01*
X13448643Y-11948614D01*
X13362928Y-11948614D01*
X13334357Y-11934329D01*
X13320071Y-11920043D01*
X13791500Y-11948614D02*
X13620071Y-11948614D01*
X13705786Y-11948614D02*
X13705786Y-11648614D01*
X13677214Y-11691471D01*
X13648643Y-11720043D01*
X13620071Y-11734329D01*
X13905786Y-11648614D02*
X13905786Y-11705757D01*
X14020071Y-11648614D02*
X14020071Y-11705757D01*
X14462928Y-12062900D02*
X14448643Y-12048614D01*
X14420071Y-12005757D01*
X14405786Y-11977186D01*
X14391500Y-11934329D01*
X14377214Y-11862900D01*
X14377214Y-11805757D01*
X14391500Y-11734329D01*
X14405786Y-11691471D01*
X14420071Y-11662900D01*
X14448643Y-11620043D01*
X14462928Y-11605757D01*
X14620071Y-11777186D02*
X14591500Y-11762900D01*
X14577214Y-11748614D01*
X14562928Y-11720043D01*
X14562928Y-11705757D01*
X14577214Y-11677186D01*
X14591500Y-11662900D01*
X14620071Y-11648614D01*
X14677214Y-11648614D01*
X14705786Y-11662900D01*
X14720071Y-11677186D01*
X14734357Y-11705757D01*
X14734357Y-11720043D01*
X14720071Y-11748614D01*
X14705786Y-11762900D01*
X14677214Y-11777186D01*
X14620071Y-11777186D01*
X14591500Y-11791471D01*
X14577214Y-11805757D01*
X14562928Y-11834329D01*
X14562928Y-11891471D01*
X14577214Y-11920043D01*
X14591500Y-11934329D01*
X14620071Y-11948614D01*
X14677214Y-11948614D01*
X14705786Y-11934329D01*
X14720071Y-11920043D01*
X14734357Y-11891471D01*
X14734357Y-11834329D01*
X14720071Y-11805757D01*
X14705786Y-11791471D01*
X14677214Y-11777186D01*
X14920071Y-11648614D02*
X14948643Y-11648614D01*
X14977214Y-11662900D01*
X14991500Y-11677186D01*
X15005786Y-11705757D01*
X15020071Y-11762900D01*
X15020071Y-11834329D01*
X15005786Y-11891471D01*
X14991500Y-11920043D01*
X14977214Y-11934329D01*
X14948643Y-11948614D01*
X14920071Y-11948614D01*
X14891500Y-11934329D01*
X14877214Y-11920043D01*
X14862928Y-11891471D01*
X14848643Y-11834329D01*
X14848643Y-11762900D01*
X14862928Y-11705757D01*
X14877214Y-11677186D01*
X14891500Y-11662900D01*
X14920071Y-11648614D01*
X15377214Y-11948614D02*
X15377214Y-11648614D01*
X15505786Y-11948614D02*
X15505786Y-11791471D01*
X15491500Y-11762900D01*
X15462928Y-11748614D01*
X15420071Y-11748614D01*
X15391500Y-11762900D01*
X15377214Y-11777186D01*
X15691500Y-11948614D02*
X15662928Y-11934329D01*
X15648643Y-11920043D01*
X15634357Y-11891471D01*
X15634357Y-11805757D01*
X15648643Y-11777186D01*
X15662928Y-11762900D01*
X15691500Y-11748614D01*
X15734357Y-11748614D01*
X15762928Y-11762900D01*
X15777214Y-11777186D01*
X15791500Y-11805757D01*
X15791500Y-11891471D01*
X15777214Y-11920043D01*
X15762928Y-11934329D01*
X15734357Y-11948614D01*
X15691500Y-11948614D01*
X15962928Y-11948614D02*
X15934357Y-11934329D01*
X15920071Y-11905757D01*
X15920071Y-11648614D01*
X16191500Y-11934329D02*
X16162928Y-11948614D01*
X16105786Y-11948614D01*
X16077214Y-11934329D01*
X16062928Y-11905757D01*
X16062928Y-11791471D01*
X16077214Y-11762900D01*
X16105786Y-11748614D01*
X16162928Y-11748614D01*
X16191500Y-11762900D01*
X16205786Y-11791471D01*
X16205786Y-11820043D01*
X16062928Y-11848614D01*
X16320071Y-11934329D02*
X16348643Y-11948614D01*
X16405786Y-11948614D01*
X16434357Y-11934329D01*
X16448643Y-11905757D01*
X16448643Y-11891471D01*
X16434357Y-11862900D01*
X16405786Y-11848614D01*
X16362928Y-11848614D01*
X16334357Y-11834329D01*
X16320071Y-11805757D01*
X16320071Y-11791471D01*
X16334357Y-11762900D01*
X16362928Y-11748614D01*
X16405786Y-11748614D01*
X16434357Y-11762900D01*
X16548643Y-12062900D02*
X16562928Y-12048614D01*
X16591500Y-12005757D01*
X16605786Y-11977186D01*
X16620071Y-11934329D01*
X16634357Y-11862900D01*
X16634357Y-11805757D01*
X16620071Y-11734329D01*
X16605786Y-11691471D01*
X16591500Y-11662900D01*
X16562928Y-11620043D01*
X16548643Y-11605757D01*
X9761856Y-12244256D02*
X9761856Y-12173544D01*
X9691144Y-12173544D01*
X9691144Y-12244256D01*
X9761856Y-12244256D01*
X10220071Y-12344614D02*
X10048643Y-12344614D01*
X10134357Y-12344614D02*
X10134357Y-12044614D01*
X10105786Y-12087471D01*
X10077214Y-12116043D01*
X10048643Y-12130329D01*
X10348643Y-12316043D02*
X10362928Y-12330329D01*
X10348643Y-12344614D01*
X10334357Y-12330329D01*
X10348643Y-12316043D01*
X10348643Y-12344614D01*
X10548643Y-12044614D02*
X10577214Y-12044614D01*
X10605786Y-12058900D01*
X10620071Y-12073186D01*
X10634357Y-12101757D01*
X10648643Y-12158900D01*
X10648643Y-12230329D01*
X10634357Y-12287471D01*
X10620071Y-12316043D01*
X10605786Y-12330329D01*
X10577214Y-12344614D01*
X10548643Y-12344614D01*
X10520071Y-12330329D01*
X10505786Y-12316043D01*
X10491500Y-12287471D01*
X10477214Y-12230329D01*
X10477214Y-12158900D01*
X10491500Y-12101757D01*
X10505786Y-12073186D01*
X10520071Y-12058900D01*
X10548643Y-12044614D01*
X10834357Y-12044614D02*
X10862928Y-12044614D01*
X10891500Y-12058900D01*
X10905786Y-12073186D01*
X10920071Y-12101757D01*
X10934357Y-12158900D01*
X10934357Y-12230329D01*
X10920071Y-12287471D01*
X10905786Y-12316043D01*
X10891500Y-12330329D01*
X10862928Y-12344614D01*
X10834357Y-12344614D01*
X10805786Y-12330329D01*
X10791500Y-12316043D01*
X10777214Y-12287471D01*
X10762928Y-12230329D01*
X10762928Y-12158900D01*
X10777214Y-12101757D01*
X10791500Y-12073186D01*
X10805786Y-12058900D01*
X10834357Y-12044614D01*
X11062928Y-12344614D02*
X11062928Y-12144614D01*
X11062928Y-12173186D02*
X11077214Y-12158900D01*
X11105786Y-12144614D01*
X11148643Y-12144614D01*
X11177214Y-12158900D01*
X11191500Y-12187471D01*
X11191500Y-12344614D01*
X11191500Y-12187471D02*
X11205786Y-12158900D01*
X11234357Y-12144614D01*
X11277214Y-12144614D01*
X11305786Y-12158900D01*
X11320071Y-12187471D01*
X11320071Y-12344614D01*
X11462928Y-12344614D02*
X11462928Y-12144614D01*
X11462928Y-12173186D02*
X11477214Y-12158900D01*
X11505786Y-12144614D01*
X11548643Y-12144614D01*
X11577214Y-12158900D01*
X11591500Y-12187471D01*
X11591500Y-12344614D01*
X11591500Y-12187471D02*
X11605786Y-12158900D01*
X11634357Y-12144614D01*
X11677214Y-12144614D01*
X11705786Y-12158900D01*
X11720071Y-12187471D01*
X11720071Y-12344614D01*
X12305786Y-12030329D02*
X12048643Y-12416043D01*
X12691500Y-12044614D02*
X12720071Y-12044614D01*
X12748643Y-12058900D01*
X12762928Y-12073186D01*
X12777214Y-12101757D01*
X12791500Y-12158900D01*
X12791500Y-12230329D01*
X12777214Y-12287471D01*
X12762928Y-12316043D01*
X12748643Y-12330329D01*
X12720071Y-12344614D01*
X12691500Y-12344614D01*
X12662928Y-12330329D01*
X12648643Y-12316043D01*
X12634357Y-12287471D01*
X12620071Y-12230329D01*
X12620071Y-12158900D01*
X12634357Y-12101757D01*
X12648643Y-12073186D01*
X12662928Y-12058900D01*
X12691500Y-12044614D01*
X12920071Y-12316043D02*
X12934357Y-12330329D01*
X12920071Y-12344614D01*
X12905786Y-12330329D01*
X12920071Y-12316043D01*
X12920071Y-12344614D01*
X13120071Y-12044614D02*
X13148643Y-12044614D01*
X13177214Y-12058900D01*
X13191500Y-12073186D01*
X13205786Y-12101757D01*
X13220071Y-12158900D01*
X13220071Y-12230329D01*
X13205786Y-12287471D01*
X13191500Y-12316043D01*
X13177214Y-12330329D01*
X13148643Y-12344614D01*
X13120071Y-12344614D01*
X13091500Y-12330329D01*
X13077214Y-12316043D01*
X13062928Y-12287471D01*
X13048643Y-12230329D01*
X13048643Y-12158900D01*
X13062928Y-12101757D01*
X13077214Y-12073186D01*
X13091500Y-12058900D01*
X13120071Y-12044614D01*
X13320071Y-12044614D02*
X13505786Y-12044614D01*
X13405786Y-12158900D01*
X13448643Y-12158900D01*
X13477214Y-12173186D01*
X13491500Y-12187471D01*
X13505786Y-12216043D01*
X13505786Y-12287471D01*
X13491500Y-12316043D01*
X13477214Y-12330329D01*
X13448643Y-12344614D01*
X13362928Y-12344614D01*
X13334357Y-12330329D01*
X13320071Y-12316043D01*
X13648643Y-12344614D02*
X13705786Y-12344614D01*
X13734357Y-12330329D01*
X13748643Y-12316043D01*
X13777214Y-12273186D01*
X13791500Y-12216043D01*
X13791500Y-12101757D01*
X13777214Y-12073186D01*
X13762928Y-12058900D01*
X13734357Y-12044614D01*
X13677214Y-12044614D01*
X13648643Y-12058900D01*
X13634357Y-12073186D01*
X13620071Y-12101757D01*
X13620071Y-12173186D01*
X13634357Y-12201757D01*
X13648643Y-12216043D01*
X13677214Y-12230329D01*
X13734357Y-12230329D01*
X13762928Y-12216043D01*
X13777214Y-12201757D01*
X13791500Y-12173186D01*
X13905786Y-12044614D02*
X13905786Y-12101757D01*
X14020071Y-12044614D02*
X14020071Y-12101757D01*
X14462928Y-12458900D02*
X14448643Y-12444614D01*
X14420071Y-12401757D01*
X14405786Y-12373186D01*
X14391500Y-12330329D01*
X14377214Y-12258900D01*
X14377214Y-12201757D01*
X14391500Y-12130329D01*
X14405786Y-12087471D01*
X14420071Y-12058900D01*
X14448643Y-12016043D01*
X14462928Y-12001757D01*
X14548643Y-12044614D02*
X14748643Y-12044614D01*
X14620071Y-12344614D01*
X15091500Y-12344614D02*
X15091500Y-12044614D01*
X15220071Y-12344614D02*
X15220071Y-12187471D01*
X15205786Y-12158900D01*
X15177214Y-12144614D01*
X15134357Y-12144614D01*
X15105786Y-12158900D01*
X15091500Y-12173186D01*
X15405786Y-12344614D02*
X15377214Y-12330329D01*
X15362928Y-12316043D01*
X15348643Y-12287471D01*
X15348643Y-12201757D01*
X15362928Y-12173186D01*
X15377214Y-12158900D01*
X15405786Y-12144614D01*
X15448643Y-12144614D01*
X15477214Y-12158900D01*
X15491500Y-12173186D01*
X15505786Y-12201757D01*
X15505786Y-12287471D01*
X15491500Y-12316043D01*
X15477214Y-12330329D01*
X15448643Y-12344614D01*
X15405786Y-12344614D01*
X15677214Y-12344614D02*
X15648643Y-12330329D01*
X15634357Y-12301757D01*
X15634357Y-12044614D01*
X15905786Y-12330329D02*
X15877214Y-12344614D01*
X15820071Y-12344614D01*
X15791500Y-12330329D01*
X15777214Y-12301757D01*
X15777214Y-12187471D01*
X15791500Y-12158900D01*
X15820071Y-12144614D01*
X15877214Y-12144614D01*
X15905786Y-12158900D01*
X15920071Y-12187471D01*
X15920071Y-12216043D01*
X15777214Y-12244614D01*
X16034357Y-12330329D02*
X16062928Y-12344614D01*
X16120071Y-12344614D01*
X16148643Y-12330329D01*
X16162928Y-12301757D01*
X16162928Y-12287471D01*
X16148643Y-12258900D01*
X16120071Y-12244614D01*
X16077214Y-12244614D01*
X16048643Y-12230329D01*
X16034357Y-12201757D01*
X16034357Y-12187471D01*
X16048643Y-12158900D01*
X16077214Y-12144614D01*
X16120071Y-12144614D01*
X16148643Y-12158900D01*
X16262928Y-12458900D02*
X16277214Y-12444614D01*
X16305786Y-12401757D01*
X16320071Y-12373186D01*
X16334357Y-12330329D01*
X16348643Y-12258900D01*
X16348643Y-12201757D01*
X16334357Y-12130329D01*
X16320071Y-12087471D01*
X16305786Y-12058900D01*
X16277214Y-12016043D01*
X16262928Y-12001757D01*
M02*
