G04 #@! TF.GenerationSoftware,KiCad,Pcbnew,(5.1.10)-1*
G04 #@! TF.CreationDate,2021-10-18T11:35:42-04:00*
G04 #@! TF.ProjectId,6526KernalSwitcher,36353236-4b65-4726-9e61-6c5377697463,rev?*
G04 #@! TF.SameCoordinates,Original*
G04 #@! TF.FileFunction,Legend,Top*
G04 #@! TF.FilePolarity,Positive*
%FSLAX46Y46*%
G04 Gerber Fmt 4.6, Leading zero omitted, Abs format (unit mm)*
G04 Created by KiCad (PCBNEW (5.1.10)-1) date 2021-10-18 11:35:42*
%MOMM*%
%LPD*%
G01*
G04 APERTURE LIST*
%ADD10C,0.150000*%
%ADD11C,0.120000*%
G04 APERTURE END LIST*
D10*
X110648904Y-48299666D02*
X111125095Y-48299666D01*
X110553666Y-48585380D02*
X110887000Y-47585380D01*
X111220333Y-48585380D01*
X111887000Y-48061571D02*
X112029857Y-48109190D01*
X112077476Y-48156809D01*
X112125095Y-48252047D01*
X112125095Y-48394904D01*
X112077476Y-48490142D01*
X112029857Y-48537761D01*
X111934619Y-48585380D01*
X111553666Y-48585380D01*
X111553666Y-47585380D01*
X111887000Y-47585380D01*
X111982238Y-47633000D01*
X112029857Y-47680619D01*
X112077476Y-47775857D01*
X112077476Y-47871095D01*
X112029857Y-47966333D01*
X111982238Y-48013952D01*
X111887000Y-48061571D01*
X111553666Y-48061571D01*
X113125095Y-48490142D02*
X113077476Y-48537761D01*
X112934619Y-48585380D01*
X112839380Y-48585380D01*
X112696523Y-48537761D01*
X112601285Y-48442523D01*
X112553666Y-48347285D01*
X112506047Y-48156809D01*
X112506047Y-48013952D01*
X112553666Y-47823476D01*
X112601285Y-47728238D01*
X112696523Y-47633000D01*
X112839380Y-47585380D01*
X112934619Y-47585380D01*
X113077476Y-47633000D01*
X113125095Y-47680619D01*
X106418142Y-48712380D02*
X105941952Y-48712380D01*
X105941952Y-47712380D01*
X106751476Y-48188571D02*
X107084809Y-48188571D01*
X107227666Y-48712380D02*
X106751476Y-48712380D01*
X106751476Y-47712380D01*
X107227666Y-47712380D01*
X107656238Y-48712380D02*
X107656238Y-47712380D01*
X107894333Y-47712380D01*
X108037190Y-47760000D01*
X108132428Y-47855238D01*
X108180047Y-47950476D01*
X108227666Y-48140952D01*
X108227666Y-48283809D01*
X108180047Y-48474285D01*
X108132428Y-48569523D01*
X108037190Y-48664761D01*
X107894333Y-48712380D01*
X107656238Y-48712380D01*
X102901809Y-47345000D02*
X103854190Y-47345000D01*
X103044666Y-47712380D02*
X103711333Y-48712380D01*
X103711333Y-47712380D02*
X103044666Y-48712380D01*
X99195000Y-47345000D02*
X100195000Y-47345000D01*
X100004523Y-48712380D02*
X99671190Y-48236190D01*
X99433095Y-48712380D02*
X99433095Y-47712380D01*
X99814047Y-47712380D01*
X99909285Y-47760000D01*
X99956904Y-47807619D01*
X100004523Y-47902857D01*
X100004523Y-48045714D01*
X99956904Y-48140952D01*
X99909285Y-48188571D01*
X99814047Y-48236190D01*
X99433095Y-48236190D01*
X101471428Y-101742142D02*
X101042857Y-101742142D01*
X101000000Y-102170714D01*
X101042857Y-102127857D01*
X101128571Y-102085000D01*
X101342857Y-102085000D01*
X101428571Y-102127857D01*
X101471428Y-102170714D01*
X101514285Y-102256428D01*
X101514285Y-102470714D01*
X101471428Y-102556428D01*
X101428571Y-102599285D01*
X101342857Y-102642142D01*
X101128571Y-102642142D01*
X101042857Y-102599285D01*
X101000000Y-102556428D01*
X101814285Y-102042142D02*
X102028571Y-102642142D01*
X102242857Y-102042142D01*
X103690000Y-101392000D02*
X104590000Y-101392000D01*
X104418571Y-102642142D02*
X104118571Y-102213571D01*
X103904285Y-102642142D02*
X103904285Y-101742142D01*
X104247142Y-101742142D01*
X104332857Y-101785000D01*
X104375714Y-101827857D01*
X104418571Y-101913571D01*
X104418571Y-102042142D01*
X104375714Y-102127857D01*
X104332857Y-102170714D01*
X104247142Y-102213571D01*
X103904285Y-102213571D01*
X106058571Y-101742142D02*
X106572857Y-101742142D01*
X106315714Y-102642142D02*
X106315714Y-101742142D01*
X106787142Y-102642142D02*
X107258571Y-102042142D01*
X106787142Y-102042142D02*
X107258571Y-102642142D01*
X109007285Y-102642142D02*
X108707285Y-102213571D01*
X108493000Y-102642142D02*
X108493000Y-101742142D01*
X108835857Y-101742142D01*
X108921571Y-101785000D01*
X108964428Y-101827857D01*
X109007285Y-101913571D01*
X109007285Y-102042142D01*
X108964428Y-102127857D01*
X108921571Y-102170714D01*
X108835857Y-102213571D01*
X108493000Y-102213571D01*
X109307285Y-102642142D02*
X109778714Y-102042142D01*
X109307285Y-102042142D02*
X109778714Y-102642142D01*
D11*
X108220000Y-49470000D02*
X102760000Y-49470000D01*
X102760000Y-49470000D02*
X102760000Y-100390000D01*
X102760000Y-100390000D02*
X115680000Y-100390000D01*
X115680000Y-100390000D02*
X115680000Y-49470000D01*
X115680000Y-49470000D02*
X110220000Y-49470000D01*
X110220000Y-49470000D02*
G75*
G02*
X108220000Y-49470000I-1000000J0D01*
G01*
X113140000Y-49470000D02*
X107680000Y-49470000D01*
X113140000Y-100390000D02*
X113140000Y-49470000D01*
X100220000Y-100390000D02*
X113140000Y-100390000D01*
X100220000Y-49470000D02*
X100220000Y-100390000D01*
X105680000Y-49470000D02*
X100220000Y-49470000D01*
X107680000Y-49470000D02*
G75*
G02*
X105680000Y-49470000I-1000000J0D01*
G01*
X106560252Y-55932000D02*
X106037748Y-55932000D01*
X106560252Y-57352000D02*
X106037748Y-57352000D01*
X110751252Y-53542000D02*
X110228748Y-53542000D01*
X110751252Y-52122000D02*
X110228748Y-52122000D01*
X110751252Y-54027000D02*
X110228748Y-54027000D01*
X110751252Y-55447000D02*
X110228748Y-55447000D01*
X110751252Y-57352000D02*
X110228748Y-57352000D01*
X110751252Y-55932000D02*
X110228748Y-55932000D01*
X102048000Y-44390000D02*
X103378000Y-44390000D01*
X102048000Y-45720000D02*
X102048000Y-44390000D01*
X102048000Y-46990000D02*
X104708000Y-46990000D01*
X104708000Y-46990000D02*
X104708000Y-47050000D01*
X102048000Y-46990000D02*
X102048000Y-47050000D01*
X102048000Y-47050000D02*
X104708000Y-47050000D01*
X113090000Y-102810000D02*
X113090000Y-104140000D01*
X111760000Y-102810000D02*
X113090000Y-102810000D01*
X110490000Y-102810000D02*
X110490000Y-105470000D01*
X110490000Y-105470000D02*
X100270000Y-105470000D01*
X110490000Y-102810000D02*
X100270000Y-102810000D01*
X100270000Y-102810000D02*
X100270000Y-105470000D01*
X109668000Y-47050000D02*
X109668000Y-45720000D01*
X110998000Y-47050000D02*
X109668000Y-47050000D01*
X112268000Y-47050000D02*
X112268000Y-44390000D01*
X112268000Y-44390000D02*
X117408000Y-44390000D01*
X112268000Y-47050000D02*
X117408000Y-47050000D01*
X117408000Y-47050000D02*
X117408000Y-44390000D01*
X105731000Y-47050000D02*
X108391000Y-47050000D01*
X105731000Y-46990000D02*
X105731000Y-47050000D01*
X108391000Y-46990000D02*
X108391000Y-47050000D01*
X105731000Y-46990000D02*
X108391000Y-46990000D01*
X105731000Y-45720000D02*
X105731000Y-44390000D01*
X105731000Y-44390000D02*
X107061000Y-44390000D01*
X98365000Y-44390000D02*
X99695000Y-44390000D01*
X98365000Y-45720000D02*
X98365000Y-44390000D01*
X98365000Y-46990000D02*
X101025000Y-46990000D01*
X101025000Y-46990000D02*
X101025000Y-47050000D01*
X98365000Y-46990000D02*
X98365000Y-47050000D01*
X98365000Y-47050000D02*
X101025000Y-47050000D01*
X112139000Y-80193000D02*
X110679000Y-80193000D01*
X112139000Y-77033000D02*
X109979000Y-77033000D01*
X112139000Y-77033000D02*
X112139000Y-77963000D01*
X112139000Y-80193000D02*
X112139000Y-79263000D01*
X106046748Y-52122000D02*
X106569252Y-52122000D01*
X106046748Y-53542000D02*
X106569252Y-53542000D01*
X106037748Y-55447000D02*
X106560252Y-55447000D01*
X106037748Y-54027000D02*
X106560252Y-54027000D01*
X110483000Y-69516000D02*
X110483000Y-72216000D01*
X112783000Y-69516000D02*
X110483000Y-69516000D01*
X106560252Y-91111000D02*
X106037748Y-91111000D01*
X106560252Y-92531000D02*
X106037748Y-92531000D01*
X111835000Y-94988748D02*
X111835000Y-95511252D01*
X110415000Y-94988748D02*
X110415000Y-95511252D01*
X109611000Y-93615000D02*
X105311000Y-93615000D01*
X109611000Y-95615000D02*
X109611000Y-93615000D01*
X105311000Y-95615000D02*
X109611000Y-95615000D01*
D10*
X104550000Y-67125000D02*
X104550000Y-68550000D01*
X104325000Y-59875000D02*
X104325000Y-60200000D01*
X111575000Y-59875000D02*
X111575000Y-60200000D01*
X111575000Y-67125000D02*
X111575000Y-66800000D01*
X104325000Y-67125000D02*
X104325000Y-66800000D01*
X111575000Y-67125000D02*
X111250000Y-67125000D01*
X111575000Y-59875000D02*
X111250000Y-59875000D01*
X104325000Y-59875000D02*
X104650000Y-59875000D01*
X104325000Y-67125000D02*
X104550000Y-67125000D01*
X106823190Y-50633380D02*
X106823190Y-51442904D01*
X106870809Y-51538142D01*
X106918428Y-51585761D01*
X107013666Y-51633380D01*
X107204142Y-51633380D01*
X107299380Y-51585761D01*
X107347000Y-51538142D01*
X107394619Y-51442904D01*
X107394619Y-50633380D01*
X108442238Y-51538142D02*
X108394619Y-51585761D01*
X108251761Y-51633380D01*
X108156523Y-51633380D01*
X108013666Y-51585761D01*
X107918428Y-51490523D01*
X107870809Y-51395285D01*
X107823190Y-51204809D01*
X107823190Y-51061952D01*
X107870809Y-50871476D01*
X107918428Y-50776238D01*
X108013666Y-50681000D01*
X108156523Y-50633380D01*
X108251761Y-50633380D01*
X108394619Y-50681000D01*
X108442238Y-50728619D01*
X108870809Y-51633380D02*
X108870809Y-50633380D01*
X108870809Y-51109571D02*
X109442238Y-51109571D01*
X109442238Y-51633380D02*
X109442238Y-50633380D01*
X109918428Y-51633380D02*
X109918428Y-50633380D01*
X110394619Y-51633380D02*
X110394619Y-50633380D01*
X110775571Y-50633380D01*
X110870809Y-50681000D01*
X110918428Y-50728619D01*
X110966047Y-50823857D01*
X110966047Y-50966714D01*
X110918428Y-51061952D01*
X110870809Y-51109571D01*
X110775571Y-51157190D01*
X110394619Y-51157190D01*
X111918428Y-51633380D02*
X111347000Y-51633380D01*
X111632714Y-51633380D02*
X111632714Y-50633380D01*
X111537476Y-50776238D01*
X111442238Y-50871476D01*
X111347000Y-50919095D01*
X106132333Y-56999142D02*
X106084714Y-57046761D01*
X105941857Y-57094380D01*
X105846619Y-57094380D01*
X105703761Y-57046761D01*
X105608523Y-56951523D01*
X105560904Y-56856285D01*
X105513285Y-56665809D01*
X105513285Y-56522952D01*
X105560904Y-56332476D01*
X105608523Y-56237238D01*
X105703761Y-56142000D01*
X105846619Y-56094380D01*
X105941857Y-56094380D01*
X106084714Y-56142000D01*
X106132333Y-56189619D01*
X107084714Y-57094380D02*
X106513285Y-57094380D01*
X106799000Y-57094380D02*
X106799000Y-56094380D01*
X106703761Y-56237238D01*
X106608523Y-56332476D01*
X106513285Y-56380095D01*
X110323333Y-54839142D02*
X110275714Y-54886761D01*
X110132857Y-54934380D01*
X110037619Y-54934380D01*
X109894761Y-54886761D01*
X109799523Y-54791523D01*
X109751904Y-54696285D01*
X109704285Y-54505809D01*
X109704285Y-54362952D01*
X109751904Y-54172476D01*
X109799523Y-54077238D01*
X109894761Y-53982000D01*
X110037619Y-53934380D01*
X110132857Y-53934380D01*
X110275714Y-53982000D01*
X110323333Y-54029619D01*
X110704285Y-54029619D02*
X110751904Y-53982000D01*
X110847142Y-53934380D01*
X111085238Y-53934380D01*
X111180476Y-53982000D01*
X111228095Y-54029619D01*
X111275714Y-54124857D01*
X111275714Y-54220095D01*
X111228095Y-54362952D01*
X110656666Y-54934380D01*
X111275714Y-54934380D01*
X110323333Y-56744142D02*
X110275714Y-56791761D01*
X110132857Y-56839380D01*
X110037619Y-56839380D01*
X109894761Y-56791761D01*
X109799523Y-56696523D01*
X109751904Y-56601285D01*
X109704285Y-56410809D01*
X109704285Y-56267952D01*
X109751904Y-56077476D01*
X109799523Y-55982238D01*
X109894761Y-55887000D01*
X110037619Y-55839380D01*
X110132857Y-55839380D01*
X110275714Y-55887000D01*
X110323333Y-55934619D01*
X110656666Y-55839380D02*
X111275714Y-55839380D01*
X110942380Y-56220333D01*
X111085238Y-56220333D01*
X111180476Y-56267952D01*
X111228095Y-56315571D01*
X111275714Y-56410809D01*
X111275714Y-56648904D01*
X111228095Y-56744142D01*
X111180476Y-56791761D01*
X111085238Y-56839380D01*
X110799523Y-56839380D01*
X110704285Y-56791761D01*
X110656666Y-56744142D01*
X110323333Y-58649142D02*
X110275714Y-58696761D01*
X110132857Y-58744380D01*
X110037619Y-58744380D01*
X109894761Y-58696761D01*
X109799523Y-58601523D01*
X109751904Y-58506285D01*
X109704285Y-58315809D01*
X109704285Y-58172952D01*
X109751904Y-57982476D01*
X109799523Y-57887238D01*
X109894761Y-57792000D01*
X110037619Y-57744380D01*
X110132857Y-57744380D01*
X110275714Y-57792000D01*
X110323333Y-57839619D01*
X111180476Y-57744380D02*
X110990000Y-57744380D01*
X110894761Y-57792000D01*
X110847142Y-57839619D01*
X110751904Y-57982476D01*
X110704285Y-58172952D01*
X110704285Y-58553904D01*
X110751904Y-58649142D01*
X110799523Y-58696761D01*
X110894761Y-58744380D01*
X111085238Y-58744380D01*
X111180476Y-58696761D01*
X111228095Y-58649142D01*
X111275714Y-58553904D01*
X111275714Y-58315809D01*
X111228095Y-58220571D01*
X111180476Y-58172952D01*
X111085238Y-58125333D01*
X110894761Y-58125333D01*
X110799523Y-58172952D01*
X110751904Y-58220571D01*
X110704285Y-58315809D01*
X103078000Y-45100142D02*
X103078000Y-45743000D01*
X103035142Y-45871571D01*
X102949428Y-45957285D01*
X102820857Y-46000142D01*
X102735142Y-46000142D01*
X103978000Y-46000142D02*
X103463714Y-46000142D01*
X103720857Y-46000142D02*
X103720857Y-45100142D01*
X103635142Y-45228714D01*
X103549428Y-45314428D01*
X103463714Y-45357285D01*
X113498380Y-104346333D02*
X114212666Y-104346333D01*
X114355523Y-104393952D01*
X114450761Y-104489190D01*
X114498380Y-104632047D01*
X114498380Y-104727285D01*
X113498380Y-103965380D02*
X113498380Y-103346333D01*
X113879333Y-103679666D01*
X113879333Y-103536809D01*
X113926952Y-103441571D01*
X113974571Y-103393952D01*
X114069809Y-103346333D01*
X114307904Y-103346333D01*
X114403142Y-103393952D01*
X114450761Y-103441571D01*
X114498380Y-103536809D01*
X114498380Y-103822523D01*
X114450761Y-103917761D01*
X114403142Y-103965380D01*
X99718761Y-105227190D02*
X99766380Y-105084333D01*
X99766380Y-104846238D01*
X99718761Y-104751000D01*
X99671142Y-104703380D01*
X99575904Y-104655761D01*
X99480666Y-104655761D01*
X99385428Y-104703380D01*
X99337809Y-104751000D01*
X99290190Y-104846238D01*
X99242571Y-105036714D01*
X99194952Y-105131952D01*
X99147333Y-105179571D01*
X99052095Y-105227190D01*
X98956857Y-105227190D01*
X98861619Y-105179571D01*
X98814000Y-105131952D01*
X98766380Y-105036714D01*
X98766380Y-104798619D01*
X98814000Y-104655761D01*
X99718761Y-103846238D02*
X99766380Y-103941476D01*
X99766380Y-104131952D01*
X99718761Y-104227190D01*
X99623523Y-104274809D01*
X99242571Y-104274809D01*
X99147333Y-104227190D01*
X99099714Y-104131952D01*
X99099714Y-103941476D01*
X99147333Y-103846238D01*
X99242571Y-103798619D01*
X99337809Y-103798619D01*
X99433047Y-104274809D01*
X99766380Y-103370047D02*
X99099714Y-103370047D01*
X99290190Y-103370047D02*
X99194952Y-103322428D01*
X99147333Y-103274809D01*
X99099714Y-103179571D01*
X99099714Y-103084333D01*
X99766380Y-102751000D02*
X99099714Y-102751000D01*
X98766380Y-102751000D02*
X98814000Y-102798619D01*
X98861619Y-102751000D01*
X98814000Y-102703380D01*
X98766380Y-102751000D01*
X98861619Y-102751000D01*
X99766380Y-101846238D02*
X99242571Y-101846238D01*
X99147333Y-101893857D01*
X99099714Y-101989095D01*
X99099714Y-102179571D01*
X99147333Y-102274809D01*
X99718761Y-101846238D02*
X99766380Y-101941476D01*
X99766380Y-102179571D01*
X99718761Y-102274809D01*
X99623523Y-102322428D01*
X99528285Y-102322428D01*
X99433047Y-102274809D01*
X99385428Y-102179571D01*
X99385428Y-101941476D01*
X99337809Y-101846238D01*
X99766380Y-101227190D02*
X99718761Y-101322428D01*
X99623523Y-101370047D01*
X98766380Y-101370047D01*
X115778000Y-45227142D02*
X115778000Y-45870000D01*
X115735142Y-45998571D01*
X115649428Y-46084285D01*
X115520857Y-46127142D01*
X115435142Y-46127142D01*
X116592285Y-45527142D02*
X116592285Y-46127142D01*
X116378000Y-45184285D02*
X116163714Y-45827142D01*
X116720857Y-45827142D01*
X106761000Y-45100142D02*
X106761000Y-45743000D01*
X106718142Y-45871571D01*
X106632428Y-45957285D01*
X106503857Y-46000142D01*
X106418142Y-46000142D01*
X107618142Y-45100142D02*
X107189571Y-45100142D01*
X107146714Y-45528714D01*
X107189571Y-45485857D01*
X107275285Y-45443000D01*
X107489571Y-45443000D01*
X107575285Y-45485857D01*
X107618142Y-45528714D01*
X107661000Y-45614428D01*
X107661000Y-45828714D01*
X107618142Y-45914428D01*
X107575285Y-45957285D01*
X107489571Y-46000142D01*
X107275285Y-46000142D01*
X107189571Y-45957285D01*
X107146714Y-45914428D01*
X99395000Y-45227142D02*
X99395000Y-45870000D01*
X99352142Y-45998571D01*
X99266428Y-46084285D01*
X99137857Y-46127142D01*
X99052142Y-46127142D01*
X100209285Y-45227142D02*
X100037857Y-45227142D01*
X99952142Y-45270000D01*
X99909285Y-45312857D01*
X99823571Y-45441428D01*
X99780714Y-45612857D01*
X99780714Y-45955714D01*
X99823571Y-46041428D01*
X99866428Y-46084285D01*
X99952142Y-46127142D01*
X100123571Y-46127142D01*
X100209285Y-46084285D01*
X100252142Y-46041428D01*
X100295000Y-45955714D01*
X100295000Y-45741428D01*
X100252142Y-45655714D01*
X100209285Y-45612857D01*
X100123571Y-45570000D01*
X99952142Y-45570000D01*
X99866428Y-45612857D01*
X99823571Y-45655714D01*
X99780714Y-45741428D01*
X111283761Y-76660619D02*
X111188523Y-76613000D01*
X111093285Y-76517761D01*
X110950428Y-76374904D01*
X110855190Y-76327285D01*
X110759952Y-76327285D01*
X110807571Y-76565380D02*
X110712333Y-76517761D01*
X110617095Y-76422523D01*
X110569476Y-76232047D01*
X110569476Y-75898714D01*
X110617095Y-75708238D01*
X110712333Y-75613000D01*
X110807571Y-75565380D01*
X110998047Y-75565380D01*
X111093285Y-75613000D01*
X111188523Y-75708238D01*
X111236142Y-75898714D01*
X111236142Y-76232047D01*
X111188523Y-76422523D01*
X111093285Y-76517761D01*
X110998047Y-76565380D01*
X110807571Y-76565380D01*
X112188523Y-76565380D02*
X111617095Y-76565380D01*
X111902809Y-76565380D02*
X111902809Y-75565380D01*
X111807571Y-75708238D01*
X111712333Y-75803476D01*
X111617095Y-75851095D01*
X106132333Y-53284380D02*
X105799000Y-52808190D01*
X105560904Y-53284380D02*
X105560904Y-52284380D01*
X105941857Y-52284380D01*
X106037095Y-52332000D01*
X106084714Y-52379619D01*
X106132333Y-52474857D01*
X106132333Y-52617714D01*
X106084714Y-52712952D01*
X106037095Y-52760571D01*
X105941857Y-52808190D01*
X105560904Y-52808190D01*
X106703761Y-52712952D02*
X106608523Y-52665333D01*
X106560904Y-52617714D01*
X106513285Y-52522476D01*
X106513285Y-52474857D01*
X106560904Y-52379619D01*
X106608523Y-52332000D01*
X106703761Y-52284380D01*
X106894238Y-52284380D01*
X106989476Y-52332000D01*
X107037095Y-52379619D01*
X107084714Y-52474857D01*
X107084714Y-52522476D01*
X107037095Y-52617714D01*
X106989476Y-52665333D01*
X106894238Y-52712952D01*
X106703761Y-52712952D01*
X106608523Y-52760571D01*
X106560904Y-52808190D01*
X106513285Y-52903428D01*
X106513285Y-53093904D01*
X106560904Y-53189142D01*
X106608523Y-53236761D01*
X106703761Y-53284380D01*
X106894238Y-53284380D01*
X106989476Y-53236761D01*
X107037095Y-53189142D01*
X107084714Y-53093904D01*
X107084714Y-52903428D01*
X107037095Y-52808190D01*
X106989476Y-52760571D01*
X106894238Y-52712952D01*
X106132333Y-55316380D02*
X105799000Y-54840190D01*
X105560904Y-55316380D02*
X105560904Y-54316380D01*
X105941857Y-54316380D01*
X106037095Y-54364000D01*
X106084714Y-54411619D01*
X106132333Y-54506857D01*
X106132333Y-54649714D01*
X106084714Y-54744952D01*
X106037095Y-54792571D01*
X105941857Y-54840190D01*
X105560904Y-54840190D01*
X106608523Y-55316380D02*
X106799000Y-55316380D01*
X106894238Y-55268761D01*
X106941857Y-55221142D01*
X107037095Y-55078285D01*
X107084714Y-54887809D01*
X107084714Y-54506857D01*
X107037095Y-54411619D01*
X106989476Y-54364000D01*
X106894238Y-54316380D01*
X106703761Y-54316380D01*
X106608523Y-54364000D01*
X106560904Y-54411619D01*
X106513285Y-54506857D01*
X106513285Y-54744952D01*
X106560904Y-54840190D01*
X106608523Y-54887809D01*
X106703761Y-54935428D01*
X106894238Y-54935428D01*
X106989476Y-54887809D01*
X107037095Y-54840190D01*
X107084714Y-54744952D01*
X110950476Y-72477380D02*
X111617142Y-73477380D01*
X111617142Y-72477380D02*
X110950476Y-73477380D01*
X112521904Y-73477380D02*
X111950476Y-73477380D01*
X112236190Y-73477380D02*
X112236190Y-72477380D01*
X112140952Y-72620238D01*
X112045714Y-72715476D01*
X111950476Y-72763095D01*
X106132333Y-92273380D02*
X105799000Y-91797190D01*
X105560904Y-92273380D02*
X105560904Y-91273380D01*
X105941857Y-91273380D01*
X106037095Y-91321000D01*
X106084714Y-91368619D01*
X106132333Y-91463857D01*
X106132333Y-91606714D01*
X106084714Y-91701952D01*
X106037095Y-91749571D01*
X105941857Y-91797190D01*
X105560904Y-91797190D01*
X107084714Y-92273380D02*
X106513285Y-92273380D01*
X106799000Y-92273380D02*
X106799000Y-91273380D01*
X106703761Y-91416238D01*
X106608523Y-91511476D01*
X106513285Y-91559095D01*
X111577380Y-95416666D02*
X111101190Y-95750000D01*
X111577380Y-95988095D02*
X110577380Y-95988095D01*
X110577380Y-95607142D01*
X110625000Y-95511904D01*
X110672619Y-95464285D01*
X110767857Y-95416666D01*
X110910714Y-95416666D01*
X111005952Y-95464285D01*
X111053571Y-95511904D01*
X111101190Y-95607142D01*
X111101190Y-95988095D01*
X110577380Y-94511904D02*
X110577380Y-94988095D01*
X111053571Y-95035714D01*
X111005952Y-94988095D01*
X110958333Y-94892857D01*
X110958333Y-94654761D01*
X111005952Y-94559523D01*
X111053571Y-94511904D01*
X111148809Y-94464285D01*
X111386904Y-94464285D01*
X111482142Y-94511904D01*
X111529761Y-94559523D01*
X111577380Y-94654761D01*
X111577380Y-94892857D01*
X111529761Y-94988095D01*
X111482142Y-95035714D01*
X106322904Y-97067380D02*
X106322904Y-96067380D01*
X106561000Y-96067380D01*
X106703857Y-96115000D01*
X106799095Y-96210238D01*
X106846714Y-96305476D01*
X106894333Y-96495952D01*
X106894333Y-96638809D01*
X106846714Y-96829285D01*
X106799095Y-96924523D01*
X106703857Y-97019761D01*
X106561000Y-97067380D01*
X106322904Y-97067380D01*
X107846714Y-97067380D02*
X107275285Y-97067380D01*
X107561000Y-97067380D02*
X107561000Y-96067380D01*
X107465761Y-96210238D01*
X107370523Y-96305476D01*
X107275285Y-96353095D01*
X101352380Y-64261904D02*
X102161904Y-64261904D01*
X102257142Y-64214285D01*
X102304761Y-64166666D01*
X102352380Y-64071428D01*
X102352380Y-63880952D01*
X102304761Y-63785714D01*
X102257142Y-63738095D01*
X102161904Y-63690476D01*
X101352380Y-63690476D01*
X102352380Y-62690476D02*
X102352380Y-63261904D01*
X102352380Y-62976190D02*
X101352380Y-62976190D01*
X101495238Y-63071428D01*
X101590476Y-63166666D01*
X101638095Y-63261904D01*
M02*
