G04 #@! TF.GenerationSoftware,KiCad,Pcbnew,(5.1.10)-1*
G04 #@! TF.CreationDate,2021-10-18T11:35:42-04:00*
G04 #@! TF.ProjectId,6526KernalSwitcher,36353236-4b65-4726-9e61-6c5377697463,rev?*
G04 #@! TF.SameCoordinates,Original*
G04 #@! TF.FileFunction,Soldermask,Bot*
G04 #@! TF.FilePolarity,Negative*
%FSLAX46Y46*%
G04 Gerber Fmt 4.6, Leading zero omitted, Abs format (unit mm)*
G04 Created by KiCad (PCBNEW (5.1.10)-1) date 2021-10-18 11:35:42*
%MOMM*%
%LPD*%
G01*
G04 APERTURE LIST*
%ADD10C,0.300000*%
%ADD11O,1.600000X1.600000*%
%ADD12R,1.600000X1.600000*%
%ADD13R,1.700000X1.700000*%
%ADD14O,1.700000X1.700000*%
%ADD15C,0.100000*%
%ADD16R,1.500000X2.500000*%
G04 APERTURE END LIST*
D10*
X110776857Y-97487285D02*
X110705428Y-97273000D01*
X110705428Y-96915857D01*
X110776857Y-96773000D01*
X110848285Y-96701571D01*
X110991142Y-96630142D01*
X111134000Y-96630142D01*
X111276857Y-96701571D01*
X111348285Y-96773000D01*
X111419714Y-96915857D01*
X111491142Y-97201571D01*
X111562571Y-97344428D01*
X111634000Y-97415857D01*
X111776857Y-97487285D01*
X111919714Y-97487285D01*
X112062571Y-97415857D01*
X112134000Y-97344428D01*
X112205428Y-97201571D01*
X112205428Y-96844428D01*
X112134000Y-96630142D01*
X111705428Y-96130142D02*
X110705428Y-95773000D01*
X111705428Y-95415857D01*
X110776857Y-94273000D02*
X110705428Y-94415857D01*
X110705428Y-94701571D01*
X110776857Y-94844428D01*
X110919714Y-94915857D01*
X111491142Y-94915857D01*
X111634000Y-94844428D01*
X111705428Y-94701571D01*
X111705428Y-94415857D01*
X111634000Y-94273000D01*
X111491142Y-94201571D01*
X111348285Y-94201571D01*
X111205428Y-94915857D01*
X111705428Y-93558714D02*
X110705428Y-93558714D01*
X111562571Y-93558714D02*
X111634000Y-93487285D01*
X111705428Y-93344428D01*
X111705428Y-93130142D01*
X111634000Y-92987285D01*
X111491142Y-92915857D01*
X110705428Y-92915857D01*
X110705428Y-91058714D02*
X112205428Y-91058714D01*
X112205428Y-90487285D01*
X112134000Y-90344428D01*
X112062571Y-90273000D01*
X111919714Y-90201571D01*
X111705428Y-90201571D01*
X111562571Y-90273000D01*
X111491142Y-90344428D01*
X111419714Y-90487285D01*
X111419714Y-91058714D01*
X110776857Y-88987285D02*
X110705428Y-89130142D01*
X110705428Y-89415857D01*
X110776857Y-89558714D01*
X110919714Y-89630142D01*
X111491142Y-89630142D01*
X111634000Y-89558714D01*
X111705428Y-89415857D01*
X111705428Y-89130142D01*
X111634000Y-88987285D01*
X111491142Y-88915857D01*
X111348285Y-88915857D01*
X111205428Y-89630142D01*
X111705428Y-88487285D02*
X111705428Y-87915857D01*
X112205428Y-88273000D02*
X110919714Y-88273000D01*
X110776857Y-88201571D01*
X110705428Y-88058714D01*
X110705428Y-87915857D01*
X110776857Y-86844428D02*
X110705428Y-86987285D01*
X110705428Y-87273000D01*
X110776857Y-87415857D01*
X110919714Y-87487285D01*
X111491142Y-87487285D01*
X111634000Y-87415857D01*
X111705428Y-87273000D01*
X111705428Y-86987285D01*
X111634000Y-86844428D01*
X111491142Y-86773000D01*
X111348285Y-86773000D01*
X111205428Y-87487285D01*
X110705428Y-86130142D02*
X111705428Y-86130142D01*
X111419714Y-86130142D02*
X111562571Y-86058714D01*
X111634000Y-85987285D01*
X111705428Y-85844428D01*
X111705428Y-85701571D01*
X110776857Y-85273000D02*
X110705428Y-85130142D01*
X110705428Y-84844428D01*
X110776857Y-84701571D01*
X110919714Y-84630142D01*
X110991142Y-84630142D01*
X111134000Y-84701571D01*
X111205428Y-84844428D01*
X111205428Y-85058714D01*
X111276857Y-85201571D01*
X111419714Y-85273000D01*
X111491142Y-85273000D01*
X111634000Y-85201571D01*
X111705428Y-85058714D01*
X111705428Y-84844428D01*
X111634000Y-84701571D01*
X110776857Y-83415857D02*
X110705428Y-83558714D01*
X110705428Y-83844428D01*
X110776857Y-83987285D01*
X110919714Y-84058714D01*
X111491142Y-84058714D01*
X111634000Y-83987285D01*
X111705428Y-83844428D01*
X111705428Y-83558714D01*
X111634000Y-83415857D01*
X111491142Y-83344428D01*
X111348285Y-83344428D01*
X111205428Y-84058714D01*
X111705428Y-82701571D02*
X110705428Y-82701571D01*
X111562571Y-82701571D02*
X111634000Y-82630142D01*
X111705428Y-82487285D01*
X111705428Y-82273000D01*
X111634000Y-82130142D01*
X111491142Y-82058714D01*
X110705428Y-82058714D01*
X112205428Y-81273000D02*
X111919714Y-81415857D01*
X110776857Y-80701571D02*
X110705428Y-80558714D01*
X110705428Y-80273000D01*
X110776857Y-80130142D01*
X110919714Y-80058714D01*
X110991142Y-80058714D01*
X111134000Y-80130142D01*
X111205428Y-80273000D01*
X111205428Y-80487285D01*
X111276857Y-80630142D01*
X111419714Y-80701571D01*
X111491142Y-80701571D01*
X111634000Y-80630142D01*
X111705428Y-80487285D01*
X111705428Y-80273000D01*
X111634000Y-80130142D01*
X108155428Y-97308714D02*
X109655428Y-97308714D01*
X108155428Y-96451571D02*
X109012571Y-97094428D01*
X109655428Y-96451571D02*
X108798285Y-97308714D01*
X108226857Y-95237285D02*
X108155428Y-95380142D01*
X108155428Y-95665857D01*
X108226857Y-95808714D01*
X108369714Y-95880142D01*
X108941142Y-95880142D01*
X109084000Y-95808714D01*
X109155428Y-95665857D01*
X109155428Y-95380142D01*
X109084000Y-95237285D01*
X108941142Y-95165857D01*
X108798285Y-95165857D01*
X108655428Y-95880142D01*
X108155428Y-94523000D02*
X109155428Y-94523000D01*
X108869714Y-94523000D02*
X109012571Y-94451571D01*
X109084000Y-94380142D01*
X109155428Y-94237285D01*
X109155428Y-94094428D01*
X109155428Y-93594428D02*
X108155428Y-93594428D01*
X109012571Y-93594428D02*
X109084000Y-93523000D01*
X109155428Y-93380142D01*
X109155428Y-93165857D01*
X109084000Y-93023000D01*
X108941142Y-92951571D01*
X108155428Y-92951571D01*
X108155428Y-91594428D02*
X108941142Y-91594428D01*
X109084000Y-91665857D01*
X109155428Y-91808714D01*
X109155428Y-92094428D01*
X109084000Y-92237285D01*
X108226857Y-91594428D02*
X108155428Y-91737285D01*
X108155428Y-92094428D01*
X108226857Y-92237285D01*
X108369714Y-92308714D01*
X108512571Y-92308714D01*
X108655428Y-92237285D01*
X108726857Y-92094428D01*
X108726857Y-91737285D01*
X108798285Y-91594428D01*
X108155428Y-90665857D02*
X108226857Y-90808714D01*
X108369714Y-90880142D01*
X109655428Y-90880142D01*
X108226857Y-89023000D02*
X108155428Y-88808714D01*
X108155428Y-88451571D01*
X108226857Y-88308714D01*
X108298285Y-88237285D01*
X108441142Y-88165857D01*
X108584000Y-88165857D01*
X108726857Y-88237285D01*
X108798285Y-88308714D01*
X108869714Y-88451571D01*
X108941142Y-88737285D01*
X109012571Y-88880142D01*
X109084000Y-88951571D01*
X109226857Y-89023000D01*
X109369714Y-89023000D01*
X109512571Y-88951571D01*
X109584000Y-88880142D01*
X109655428Y-88737285D01*
X109655428Y-88380142D01*
X109584000Y-88165857D01*
X109155428Y-87665857D02*
X108155428Y-87380142D01*
X108869714Y-87094428D01*
X108155428Y-86808714D01*
X109155428Y-86523000D01*
X108155428Y-85951571D02*
X109155428Y-85951571D01*
X109655428Y-85951571D02*
X109584000Y-86023000D01*
X109512571Y-85951571D01*
X109584000Y-85880142D01*
X109655428Y-85951571D01*
X109512571Y-85951571D01*
X109155428Y-85451571D02*
X109155428Y-84880142D01*
X109655428Y-85237285D02*
X108369714Y-85237285D01*
X108226857Y-85165857D01*
X108155428Y-85023000D01*
X108155428Y-84880142D01*
X108226857Y-83737285D02*
X108155428Y-83880142D01*
X108155428Y-84165857D01*
X108226857Y-84308714D01*
X108298285Y-84380142D01*
X108441142Y-84451571D01*
X108869714Y-84451571D01*
X109012571Y-84380142D01*
X109084000Y-84308714D01*
X109155428Y-84165857D01*
X109155428Y-83880142D01*
X109084000Y-83737285D01*
X108155428Y-83094428D02*
X109655428Y-83094428D01*
X108155428Y-82451571D02*
X108941142Y-82451571D01*
X109084000Y-82523000D01*
X109155428Y-82665857D01*
X109155428Y-82880142D01*
X109084000Y-83023000D01*
X109012571Y-83094428D01*
X108226857Y-81165857D02*
X108155428Y-81308714D01*
X108155428Y-81594428D01*
X108226857Y-81737285D01*
X108369714Y-81808714D01*
X108941142Y-81808714D01*
X109084000Y-81737285D01*
X109155428Y-81594428D01*
X109155428Y-81308714D01*
X109084000Y-81165857D01*
X108941142Y-81094428D01*
X108798285Y-81094428D01*
X108655428Y-81808714D01*
X108155428Y-80451571D02*
X109155428Y-80451571D01*
X108869714Y-80451571D02*
X109012571Y-80380142D01*
X109084000Y-80308714D01*
X109155428Y-80165857D01*
X109155428Y-80023000D01*
D11*
X116840000Y-50800000D03*
X101600000Y-99060000D03*
X116840000Y-53340000D03*
X101600000Y-96520000D03*
X116840000Y-55880000D03*
X101600000Y-93980000D03*
X116840000Y-58420000D03*
X101600000Y-91440000D03*
X116840000Y-60960000D03*
X101600000Y-88900000D03*
X116840000Y-63500000D03*
X101600000Y-86360000D03*
X116840000Y-66040000D03*
X101600000Y-83820000D03*
X116840000Y-68580000D03*
X101600000Y-81280000D03*
X116840000Y-71120000D03*
X101600000Y-78740000D03*
X116840000Y-73660000D03*
X101600000Y-76200000D03*
X116840000Y-76200000D03*
X101600000Y-73660000D03*
X116840000Y-78740000D03*
X101600000Y-71120000D03*
X116840000Y-81280000D03*
X101600000Y-68580000D03*
X116840000Y-83820000D03*
X101600000Y-66040000D03*
X116840000Y-86360000D03*
X101600000Y-63500000D03*
X116840000Y-88900000D03*
X101600000Y-60960000D03*
X116840000Y-91440000D03*
X101600000Y-58420000D03*
X116840000Y-93980000D03*
X101600000Y-55880000D03*
X116840000Y-96520000D03*
X101600000Y-53340000D03*
X116840000Y-99060000D03*
D12*
X101600000Y-50800000D03*
X99060000Y-50800000D03*
D11*
X114300000Y-99060000D03*
X99060000Y-53340000D03*
X114300000Y-96520000D03*
X99060000Y-55880000D03*
X114300000Y-93980000D03*
X99060000Y-58420000D03*
X114300000Y-91440000D03*
X99060000Y-60960000D03*
X114300000Y-88900000D03*
X99060000Y-63500000D03*
X114300000Y-86360000D03*
X99060000Y-66040000D03*
X114300000Y-83820000D03*
X99060000Y-68580000D03*
X114300000Y-81280000D03*
X99060000Y-71120000D03*
X114300000Y-78740000D03*
X99060000Y-73660000D03*
X114300000Y-76200000D03*
X99060000Y-76200000D03*
X114300000Y-73660000D03*
X99060000Y-78740000D03*
X114300000Y-71120000D03*
X99060000Y-81280000D03*
X114300000Y-68580000D03*
X99060000Y-83820000D03*
X114300000Y-66040000D03*
X99060000Y-86360000D03*
X114300000Y-63500000D03*
X99060000Y-88900000D03*
X114300000Y-60960000D03*
X99060000Y-91440000D03*
X114300000Y-58420000D03*
X99060000Y-93980000D03*
X114300000Y-55880000D03*
X99060000Y-96520000D03*
X114300000Y-53340000D03*
X99060000Y-99060000D03*
X114300000Y-50800000D03*
G36*
G01*
X110420999Y-71570000D02*
X111321001Y-71570000D01*
G75*
G02*
X111571000Y-71819999I0J-249999D01*
G01*
X111571000Y-72470001D01*
G75*
G02*
X111321001Y-72720000I-249999J0D01*
G01*
X110420999Y-72720000D01*
G75*
G02*
X110171000Y-72470001I0J249999D01*
G01*
X110171000Y-71819999D01*
G75*
G02*
X110420999Y-71570000I249999J0D01*
G01*
G37*
G36*
G01*
X110420999Y-69520000D02*
X111321001Y-69520000D01*
G75*
G02*
X111571000Y-69769999I0J-249999D01*
G01*
X111571000Y-70420001D01*
G75*
G02*
X111321001Y-70670000I-249999J0D01*
G01*
X110420999Y-70670000D01*
G75*
G02*
X110171000Y-70420001I0J249999D01*
G01*
X110171000Y-69769999D01*
G75*
G02*
X110420999Y-69520000I249999J0D01*
G01*
G37*
G36*
G01*
X108788000Y-73717999D02*
X108788000Y-74618001D01*
G75*
G02*
X108538001Y-74868000I-249999J0D01*
G01*
X107887999Y-74868000D01*
G75*
G02*
X107638000Y-74618001I0J249999D01*
G01*
X107638000Y-73717999D01*
G75*
G02*
X107887999Y-73468000I249999J0D01*
G01*
X108538001Y-73468000D01*
G75*
G02*
X108788000Y-73717999I0J-249999D01*
G01*
G37*
G36*
G01*
X106738000Y-73717999D02*
X106738000Y-74618001D01*
G75*
G02*
X106488001Y-74868000I-249999J0D01*
G01*
X105837999Y-74868000D01*
G75*
G02*
X105588000Y-74618001I0J249999D01*
G01*
X105588000Y-73717999D01*
G75*
G02*
X105837999Y-73468000I249999J0D01*
G01*
X106488001Y-73468000D01*
G75*
G02*
X106738000Y-73717999I0J-249999D01*
G01*
G37*
D13*
X103378000Y-45720000D03*
X111760000Y-104140000D03*
D14*
X109220000Y-104140000D03*
X106680000Y-104140000D03*
X104140000Y-104140000D03*
X101600000Y-104140000D03*
D13*
X110998000Y-45720000D03*
D14*
X113538000Y-45720000D03*
X116078000Y-45720000D03*
D13*
X107061000Y-45720000D03*
X99695000Y-45720000D03*
D15*
G36*
X106642000Y-63615000D02*
G01*
X106142000Y-63615000D01*
X106142000Y-63614398D01*
X106117466Y-63614398D01*
X106068635Y-63609588D01*
X106020510Y-63600016D01*
X105973555Y-63585772D01*
X105928222Y-63566995D01*
X105884949Y-63543864D01*
X105844150Y-63516604D01*
X105806221Y-63485476D01*
X105771524Y-63450779D01*
X105740396Y-63412850D01*
X105713136Y-63372051D01*
X105690005Y-63328778D01*
X105671228Y-63283445D01*
X105656984Y-63236490D01*
X105647412Y-63188365D01*
X105642602Y-63139534D01*
X105642602Y-63115000D01*
X105642000Y-63115000D01*
X105642000Y-62615000D01*
X105642602Y-62615000D01*
X105642602Y-62590466D01*
X105647412Y-62541635D01*
X105656984Y-62493510D01*
X105671228Y-62446555D01*
X105690005Y-62401222D01*
X105713136Y-62357949D01*
X105740396Y-62317150D01*
X105771524Y-62279221D01*
X105806221Y-62244524D01*
X105844150Y-62213396D01*
X105884949Y-62186136D01*
X105928222Y-62163005D01*
X105973555Y-62144228D01*
X106020510Y-62129984D01*
X106068635Y-62120412D01*
X106117466Y-62115602D01*
X106142000Y-62115602D01*
X106142000Y-62115000D01*
X106642000Y-62115000D01*
X106642000Y-63615000D01*
G37*
G36*
X107442000Y-62115602D02*
G01*
X107466534Y-62115602D01*
X107515365Y-62120412D01*
X107563490Y-62129984D01*
X107610445Y-62144228D01*
X107655778Y-62163005D01*
X107699051Y-62186136D01*
X107739850Y-62213396D01*
X107777779Y-62244524D01*
X107812476Y-62279221D01*
X107843604Y-62317150D01*
X107870864Y-62357949D01*
X107893995Y-62401222D01*
X107912772Y-62446555D01*
X107927016Y-62493510D01*
X107936588Y-62541635D01*
X107941398Y-62590466D01*
X107941398Y-62615000D01*
X107942000Y-62615000D01*
X107942000Y-63115000D01*
X107941398Y-63115000D01*
X107941398Y-63139534D01*
X107936588Y-63188365D01*
X107927016Y-63236490D01*
X107912772Y-63283445D01*
X107893995Y-63328778D01*
X107870864Y-63372051D01*
X107843604Y-63412850D01*
X107812476Y-63450779D01*
X107777779Y-63485476D01*
X107739850Y-63516604D01*
X107699051Y-63543864D01*
X107655778Y-63566995D01*
X107610445Y-63585772D01*
X107563490Y-63600016D01*
X107515365Y-63609588D01*
X107466534Y-63614398D01*
X107442000Y-63614398D01*
X107442000Y-63615000D01*
X106942000Y-63615000D01*
X106942000Y-62115000D01*
X107442000Y-62115000D01*
X107442000Y-62115602D01*
G37*
G36*
G01*
X111575000Y-76777001D02*
X111575000Y-75876999D01*
G75*
G02*
X111824999Y-75627000I249999J0D01*
G01*
X112475001Y-75627000D01*
G75*
G02*
X112725000Y-75876999I0J-249999D01*
G01*
X112725000Y-76777001D01*
G75*
G02*
X112475001Y-77027000I-249999J0D01*
G01*
X111824999Y-77027000D01*
G75*
G02*
X111575000Y-76777001I0J249999D01*
G01*
G37*
G36*
G01*
X109525000Y-76777001D02*
X109525000Y-75876999D01*
G75*
G02*
X109774999Y-75627000I249999J0D01*
G01*
X110425001Y-75627000D01*
G75*
G02*
X110675000Y-75876999I0J-249999D01*
G01*
X110675000Y-76777001D01*
G75*
G02*
X110425001Y-77027000I-249999J0D01*
G01*
X109774999Y-77027000D01*
G75*
G02*
X109525000Y-76777001I0J249999D01*
G01*
G37*
G36*
G01*
X111575000Y-74618001D02*
X111575000Y-73717999D01*
G75*
G02*
X111824999Y-73468000I249999J0D01*
G01*
X112475001Y-73468000D01*
G75*
G02*
X112725000Y-73717999I0J-249999D01*
G01*
X112725000Y-74618001D01*
G75*
G02*
X112475001Y-74868000I-249999J0D01*
G01*
X111824999Y-74868000D01*
G75*
G02*
X111575000Y-74618001I0J249999D01*
G01*
G37*
G36*
G01*
X109525000Y-74618001D02*
X109525000Y-73717999D01*
G75*
G02*
X109774999Y-73468000I249999J0D01*
G01*
X110425001Y-73468000D01*
G75*
G02*
X110675000Y-73717999I0J-249999D01*
G01*
X110675000Y-74618001D01*
G75*
G02*
X110425001Y-74868000I-249999J0D01*
G01*
X109774999Y-74868000D01*
G75*
G02*
X109525000Y-74618001I0J249999D01*
G01*
G37*
G36*
G01*
X110185000Y-60128999D02*
X110185000Y-61029001D01*
G75*
G02*
X109935001Y-61279000I-249999J0D01*
G01*
X109284999Y-61279000D01*
G75*
G02*
X109035000Y-61029001I0J249999D01*
G01*
X109035000Y-60128999D01*
G75*
G02*
X109284999Y-59879000I249999J0D01*
G01*
X109935001Y-59879000D01*
G75*
G02*
X110185000Y-60128999I0J-249999D01*
G01*
G37*
G36*
G01*
X108135000Y-60128999D02*
X108135000Y-61029001D01*
G75*
G02*
X107885001Y-61279000I-249999J0D01*
G01*
X107234999Y-61279000D01*
G75*
G02*
X106985000Y-61029001I0J249999D01*
G01*
X106985000Y-60128999D01*
G75*
G02*
X107234999Y-59879000I249999J0D01*
G01*
X107885001Y-59879000D01*
G75*
G02*
X108135000Y-60128999I0J-249999D01*
G01*
G37*
G36*
G01*
X108788000Y-75876999D02*
X108788000Y-76777001D01*
G75*
G02*
X108538001Y-77027000I-249999J0D01*
G01*
X107887999Y-77027000D01*
G75*
G02*
X107638000Y-76777001I0J249999D01*
G01*
X107638000Y-75876999D01*
G75*
G02*
X107887999Y-75627000I249999J0D01*
G01*
X108538001Y-75627000D01*
G75*
G02*
X108788000Y-75876999I0J-249999D01*
G01*
G37*
G36*
G01*
X106738000Y-75876999D02*
X106738000Y-76777001D01*
G75*
G02*
X106488001Y-77027000I-249999J0D01*
G01*
X105837999Y-77027000D01*
G75*
G02*
X105588000Y-76777001I0J249999D01*
G01*
X105588000Y-75876999D01*
G75*
G02*
X105837999Y-75627000I249999J0D01*
G01*
X106488001Y-75627000D01*
G75*
G02*
X106738000Y-75876999I0J-249999D01*
G01*
G37*
G36*
G01*
X103435999Y-98857000D02*
X104336001Y-98857000D01*
G75*
G02*
X104586000Y-99106999I0J-249999D01*
G01*
X104586000Y-99757001D01*
G75*
G02*
X104336001Y-100007000I-249999J0D01*
G01*
X103435999Y-100007000D01*
G75*
G02*
X103186000Y-99757001I0J249999D01*
G01*
X103186000Y-99106999D01*
G75*
G02*
X103435999Y-98857000I249999J0D01*
G01*
G37*
G36*
G01*
X103435999Y-100907000D02*
X104336001Y-100907000D01*
G75*
G02*
X104586000Y-101156999I0J-249999D01*
G01*
X104586000Y-101807001D01*
G75*
G02*
X104336001Y-102057000I-249999J0D01*
G01*
X103435999Y-102057000D01*
G75*
G02*
X103186000Y-101807001I0J249999D01*
G01*
X103186000Y-101156999D01*
G75*
G02*
X103435999Y-100907000I249999J0D01*
G01*
G37*
G36*
G01*
X107753999Y-100907000D02*
X108654001Y-100907000D01*
G75*
G02*
X108904000Y-101156999I0J-249999D01*
G01*
X108904000Y-101807001D01*
G75*
G02*
X108654001Y-102057000I-249999J0D01*
G01*
X107753999Y-102057000D01*
G75*
G02*
X107504000Y-101807001I0J249999D01*
G01*
X107504000Y-101156999D01*
G75*
G02*
X107753999Y-100907000I249999J0D01*
G01*
G37*
G36*
G01*
X107753999Y-98857000D02*
X108654001Y-98857000D01*
G75*
G02*
X108904000Y-99106999I0J-249999D01*
G01*
X108904000Y-99757001D01*
G75*
G02*
X108654001Y-100007000I-249999J0D01*
G01*
X107753999Y-100007000D01*
G75*
G02*
X107504000Y-99757001I0J249999D01*
G01*
X107504000Y-99106999D01*
G75*
G02*
X107753999Y-98857000I249999J0D01*
G01*
G37*
G36*
G01*
X105594999Y-98857000D02*
X106495001Y-98857000D01*
G75*
G02*
X106745000Y-99106999I0J-249999D01*
G01*
X106745000Y-99757001D01*
G75*
G02*
X106495001Y-100007000I-249999J0D01*
G01*
X105594999Y-100007000D01*
G75*
G02*
X105345000Y-99757001I0J249999D01*
G01*
X105345000Y-99106999D01*
G75*
G02*
X105594999Y-98857000I249999J0D01*
G01*
G37*
G36*
G01*
X105594999Y-100907000D02*
X106495001Y-100907000D01*
G75*
G02*
X106745000Y-101156999I0J-249999D01*
G01*
X106745000Y-101807001D01*
G75*
G02*
X106495001Y-102057000I-249999J0D01*
G01*
X105594999Y-102057000D01*
G75*
G02*
X105345000Y-101807001I0J249999D01*
G01*
X105345000Y-101156999D01*
G75*
G02*
X105594999Y-100907000I249999J0D01*
G01*
G37*
D16*
X111760000Y-49657000D03*
X106934000Y-49657000D03*
X109347000Y-49657000D03*
M02*
