G04 #@! TF.GenerationSoftware,KiCad,Pcbnew,(5.1.10)-1*
G04 #@! TF.CreationDate,2021-10-18T11:35:42-04:00*
G04 #@! TF.ProjectId,6526KernalSwitcher,36353236-4b65-4726-9e61-6c5377697463,rev?*
G04 #@! TF.SameCoordinates,Original*
G04 #@! TF.FileFunction,Legend,Bot*
G04 #@! TF.FilePolarity,Positive*
%FSLAX46Y46*%
G04 Gerber Fmt 4.6, Leading zero omitted, Abs format (unit mm)*
G04 Created by KiCad (PCBNEW (5.1.10)-1) date 2021-10-18 11:35:42*
%MOMM*%
%LPD*%
G01*
G04 APERTURE LIST*
%ADD10C,0.120000*%
%ADD11C,0.150000*%
G04 APERTURE END LIST*
D10*
X110161000Y-70858748D02*
X110161000Y-71381252D01*
X111581000Y-70858748D02*
X111581000Y-71381252D01*
X107449252Y-74878000D02*
X106926748Y-74878000D01*
X107449252Y-73458000D02*
X106926748Y-73458000D01*
X106092000Y-63865000D02*
X107492000Y-63865000D01*
X108192000Y-63165000D02*
X108192000Y-62565000D01*
X107492000Y-61865000D02*
X106092000Y-61865000D01*
X105392000Y-62565000D02*
X105392000Y-63165000D01*
X107492000Y-63865000D02*
G75*
G03*
X108192000Y-63165000I0J700000D01*
G01*
X108192000Y-62565000D02*
G75*
G03*
X107492000Y-61865000I-700000J0D01*
G01*
X106092000Y-61865000D02*
G75*
G03*
X105392000Y-62565000I0J-700000D01*
G01*
X105392000Y-63165000D02*
G75*
G03*
X106092000Y-63865000I700000J0D01*
G01*
X110863748Y-77037000D02*
X111386252Y-77037000D01*
X110863748Y-75617000D02*
X111386252Y-75617000D01*
X110863748Y-74878000D02*
X111386252Y-74878000D01*
X110863748Y-73458000D02*
X111386252Y-73458000D01*
X108846252Y-61289000D02*
X108323748Y-61289000D01*
X108846252Y-59869000D02*
X108323748Y-59869000D01*
X107449252Y-77037000D02*
X106926748Y-77037000D01*
X107449252Y-75617000D02*
X106926748Y-75617000D01*
X104596000Y-100195748D02*
X104596000Y-100718252D01*
X103176000Y-100195748D02*
X103176000Y-100718252D01*
X107494000Y-100195748D02*
X107494000Y-100718252D01*
X108914000Y-100195748D02*
X108914000Y-100718252D01*
X106755000Y-100195748D02*
X106755000Y-100718252D01*
X105335000Y-100195748D02*
X105335000Y-100718252D01*
X110572000Y-51241000D02*
X112948000Y-51241000D01*
X110572000Y-48073000D02*
X110572000Y-51241000D01*
X112948000Y-48073000D02*
X110572000Y-48073000D01*
X112948000Y-51241000D02*
X112948000Y-48073000D01*
X108122000Y-51241000D02*
X108122000Y-48073000D01*
X108122000Y-48073000D02*
X105746000Y-48073000D01*
X105746000Y-48073000D02*
X105746000Y-51241000D01*
X105746000Y-51241000D02*
X108122000Y-51241000D01*
X108159000Y-51241000D02*
X110535000Y-51241000D01*
X108159000Y-48073000D02*
X108159000Y-51241000D01*
X110535000Y-48073000D02*
X108159000Y-48073000D01*
X110535000Y-51241000D02*
X110535000Y-48073000D01*
D11*
X109578142Y-70953333D02*
X109625761Y-70905714D01*
X109673380Y-70762857D01*
X109673380Y-70667619D01*
X109625761Y-70524761D01*
X109530523Y-70429523D01*
X109435285Y-70381904D01*
X109244809Y-70334285D01*
X109101952Y-70334285D01*
X108911476Y-70381904D01*
X108816238Y-70429523D01*
X108721000Y-70524761D01*
X108673380Y-70667619D01*
X108673380Y-70762857D01*
X108721000Y-70905714D01*
X108768619Y-70953333D01*
X109006714Y-71810476D02*
X109673380Y-71810476D01*
X108625761Y-71572380D02*
X109340047Y-71334285D01*
X109340047Y-71953333D01*
X107354666Y-74525142D02*
X107402285Y-74572761D01*
X107545142Y-74620380D01*
X107640380Y-74620380D01*
X107783238Y-74572761D01*
X107878476Y-74477523D01*
X107926095Y-74382285D01*
X107973714Y-74191809D01*
X107973714Y-74048952D01*
X107926095Y-73858476D01*
X107878476Y-73763238D01*
X107783238Y-73668000D01*
X107640380Y-73620380D01*
X107545142Y-73620380D01*
X107402285Y-73668000D01*
X107354666Y-73715619D01*
X106449904Y-73620380D02*
X106926095Y-73620380D01*
X106973714Y-74096571D01*
X106926095Y-74048952D01*
X106830857Y-74001333D01*
X106592761Y-74001333D01*
X106497523Y-74048952D01*
X106449904Y-74096571D01*
X106402285Y-74191809D01*
X106402285Y-74429904D01*
X106449904Y-74525142D01*
X106497523Y-74572761D01*
X106592761Y-74620380D01*
X106830857Y-74620380D01*
X106926095Y-74572761D01*
X106973714Y-74525142D01*
X107625333Y-64117380D02*
X107625333Y-64831666D01*
X107672952Y-64974523D01*
X107768190Y-65069761D01*
X107911047Y-65117380D01*
X108006285Y-65117380D01*
X107149142Y-65117380D02*
X107149142Y-64117380D01*
X106768190Y-64117380D01*
X106672952Y-64165000D01*
X106625333Y-64212619D01*
X106577714Y-64307857D01*
X106577714Y-64450714D01*
X106625333Y-64545952D01*
X106672952Y-64593571D01*
X106768190Y-64641190D01*
X107149142Y-64641190D01*
X105625333Y-65117380D02*
X106196761Y-65117380D01*
X105911047Y-65117380D02*
X105911047Y-64117380D01*
X106006285Y-64260238D01*
X106101523Y-64355476D01*
X106196761Y-64403095D01*
X111291666Y-76779380D02*
X111625000Y-76303190D01*
X111863095Y-76779380D02*
X111863095Y-75779380D01*
X111482142Y-75779380D01*
X111386904Y-75827000D01*
X111339285Y-75874619D01*
X111291666Y-75969857D01*
X111291666Y-76112714D01*
X111339285Y-76207952D01*
X111386904Y-76255571D01*
X111482142Y-76303190D01*
X111863095Y-76303190D01*
X110910714Y-75874619D02*
X110863095Y-75827000D01*
X110767857Y-75779380D01*
X110529761Y-75779380D01*
X110434523Y-75827000D01*
X110386904Y-75874619D01*
X110339285Y-75969857D01*
X110339285Y-76065095D01*
X110386904Y-76207952D01*
X110958333Y-76779380D01*
X110339285Y-76779380D01*
X111291666Y-74620380D02*
X111625000Y-74144190D01*
X111863095Y-74620380D02*
X111863095Y-73620380D01*
X111482142Y-73620380D01*
X111386904Y-73668000D01*
X111339285Y-73715619D01*
X111291666Y-73810857D01*
X111291666Y-73953714D01*
X111339285Y-74048952D01*
X111386904Y-74096571D01*
X111482142Y-74144190D01*
X111863095Y-74144190D01*
X110958333Y-73620380D02*
X110339285Y-73620380D01*
X110672619Y-74001333D01*
X110529761Y-74001333D01*
X110434523Y-74048952D01*
X110386904Y-74096571D01*
X110339285Y-74191809D01*
X110339285Y-74429904D01*
X110386904Y-74525142D01*
X110434523Y-74572761D01*
X110529761Y-74620380D01*
X110815476Y-74620380D01*
X110910714Y-74572761D01*
X110958333Y-74525142D01*
X108751666Y-59381380D02*
X109085000Y-58905190D01*
X109323095Y-59381380D02*
X109323095Y-58381380D01*
X108942142Y-58381380D01*
X108846904Y-58429000D01*
X108799285Y-58476619D01*
X108751666Y-58571857D01*
X108751666Y-58714714D01*
X108799285Y-58809952D01*
X108846904Y-58857571D01*
X108942142Y-58905190D01*
X109323095Y-58905190D01*
X107894523Y-58714714D02*
X107894523Y-59381380D01*
X108132619Y-58333761D02*
X108370714Y-59048047D01*
X107751666Y-59048047D01*
X107830857Y-76779380D02*
X108164190Y-76303190D01*
X108402285Y-76779380D02*
X108402285Y-75779380D01*
X108021333Y-75779380D01*
X107926095Y-75827000D01*
X107878476Y-75874619D01*
X107830857Y-75969857D01*
X107830857Y-76112714D01*
X107878476Y-76207952D01*
X107926095Y-76255571D01*
X108021333Y-76303190D01*
X108402285Y-76303190D01*
X106878476Y-76779380D02*
X107449904Y-76779380D01*
X107164190Y-76779380D02*
X107164190Y-75779380D01*
X107259428Y-75922238D01*
X107354666Y-76017476D01*
X107449904Y-76065095D01*
X106259428Y-75779380D02*
X106164190Y-75779380D01*
X106068952Y-75827000D01*
X106021333Y-75874619D01*
X105973714Y-75969857D01*
X105926095Y-76160333D01*
X105926095Y-76398428D01*
X105973714Y-76588904D01*
X106021333Y-76684142D01*
X106068952Y-76731761D01*
X106164190Y-76779380D01*
X106259428Y-76779380D01*
X106354666Y-76731761D01*
X106402285Y-76684142D01*
X106449904Y-76588904D01*
X106497523Y-76398428D01*
X106497523Y-76160333D01*
X106449904Y-75969857D01*
X106402285Y-75874619D01*
X106354666Y-75827000D01*
X106259428Y-75779380D01*
X102593142Y-100290333D02*
X102640761Y-100242714D01*
X102688380Y-100099857D01*
X102688380Y-100004619D01*
X102640761Y-99861761D01*
X102545523Y-99766523D01*
X102450285Y-99718904D01*
X102259809Y-99671285D01*
X102116952Y-99671285D01*
X101926476Y-99718904D01*
X101831238Y-99766523D01*
X101736000Y-99861761D01*
X101688380Y-100004619D01*
X101688380Y-100099857D01*
X101736000Y-100242714D01*
X101783619Y-100290333D01*
X101688380Y-100623666D02*
X101688380Y-101290333D01*
X102688380Y-100861761D01*
X107006380Y-100290333D02*
X106530190Y-99957000D01*
X107006380Y-99718904D02*
X106006380Y-99718904D01*
X106006380Y-100099857D01*
X106054000Y-100195095D01*
X106101619Y-100242714D01*
X106196857Y-100290333D01*
X106339714Y-100290333D01*
X106434952Y-100242714D01*
X106482571Y-100195095D01*
X106530190Y-100099857D01*
X106530190Y-99718904D01*
X106006380Y-101147476D02*
X106006380Y-100957000D01*
X106054000Y-100861761D01*
X106101619Y-100814142D01*
X106244476Y-100718904D01*
X106434952Y-100671285D01*
X106815904Y-100671285D01*
X106911142Y-100718904D01*
X106958761Y-100766523D01*
X107006380Y-100861761D01*
X107006380Y-101052238D01*
X106958761Y-101147476D01*
X106911142Y-101195095D01*
X106815904Y-101242714D01*
X106577809Y-101242714D01*
X106482571Y-101195095D01*
X106434952Y-101147476D01*
X106387333Y-101052238D01*
X106387333Y-100861761D01*
X106434952Y-100766523D01*
X106482571Y-100718904D01*
X106577809Y-100671285D01*
X104847380Y-100290333D02*
X104371190Y-99957000D01*
X104847380Y-99718904D02*
X103847380Y-99718904D01*
X103847380Y-100099857D01*
X103895000Y-100195095D01*
X103942619Y-100242714D01*
X104037857Y-100290333D01*
X104180714Y-100290333D01*
X104275952Y-100242714D01*
X104323571Y-100195095D01*
X104371190Y-100099857D01*
X104371190Y-99718904D01*
X103847380Y-100623666D02*
X103847380Y-101290333D01*
X104847380Y-100861761D01*
X111234379Y-49277667D02*
X111948665Y-49277667D01*
X112091522Y-49230048D01*
X112186760Y-49134810D01*
X112234379Y-48991953D01*
X112234379Y-48896715D01*
X111234379Y-49658620D02*
X111234379Y-50325286D01*
X112234379Y-49896715D01*
X106347379Y-49277667D02*
X107061665Y-49277667D01*
X107204522Y-49230048D01*
X107299760Y-49134810D01*
X107347379Y-48991953D01*
X107347379Y-48896715D01*
X106775951Y-49896715D02*
X106728332Y-49801477D01*
X106680713Y-49753858D01*
X106585475Y-49706239D01*
X106537856Y-49706239D01*
X106442618Y-49753858D01*
X106394999Y-49801477D01*
X106347379Y-49896715D01*
X106347379Y-50087191D01*
X106394999Y-50182429D01*
X106442618Y-50230048D01*
X106537856Y-50277667D01*
X106585475Y-50277667D01*
X106680713Y-50230048D01*
X106728332Y-50182429D01*
X106775951Y-50087191D01*
X106775951Y-49896715D01*
X106823570Y-49801477D01*
X106871189Y-49753858D01*
X106966427Y-49706239D01*
X107156903Y-49706239D01*
X107252141Y-49753858D01*
X107299760Y-49801477D01*
X107347379Y-49896715D01*
X107347379Y-50087191D01*
X107299760Y-50182429D01*
X107252141Y-50230048D01*
X107156903Y-50277667D01*
X106966427Y-50277667D01*
X106871189Y-50230048D01*
X106823570Y-50182429D01*
X106775951Y-50087191D01*
X108821379Y-49366667D02*
X109535665Y-49366667D01*
X109678522Y-49319048D01*
X109773760Y-49223810D01*
X109821379Y-49080953D01*
X109821379Y-48985715D01*
X109821379Y-49890477D02*
X109821379Y-50080953D01*
X109773760Y-50176191D01*
X109726141Y-50223810D01*
X109583284Y-50319048D01*
X109392808Y-50366667D01*
X109011856Y-50366667D01*
X108916618Y-50319048D01*
X108868999Y-50271429D01*
X108821379Y-50176191D01*
X108821379Y-49985715D01*
X108868999Y-49890477D01*
X108916618Y-49842858D01*
X109011856Y-49795239D01*
X109249951Y-49795239D01*
X109345189Y-49842858D01*
X109392808Y-49890477D01*
X109440427Y-49985715D01*
X109440427Y-50176191D01*
X109392808Y-50271429D01*
X109345189Y-50319048D01*
X109249951Y-50366667D01*
M02*
