M48
; DRILL file {KiCad (5.1.10)-1} date 10/18/21 11:35:53
; FORMAT={-:-/ absolute / inch / decimal}
; #@! TF.CreationDate,2021-10-18T11:35:53-04:00
; #@! TF.GenerationSoftware,Kicad,Pcbnew,(5.1.10)-1
; #@! TF.FileFunction,Plated,1,2,PTH
FMAT,2
INCH
T1C0.0118
T2C0.0157
T3C0.0315
T4C0.0394
%
G90
G05
T1
X4.0Y-1.82
X4.025Y-2.649
X4.055Y-2.42
X4.065Y-2.455
X4.065Y-3.82
X4.0676Y-2.6476
X4.07Y-3.755
X4.075Y-2.58
X4.0841Y-2.6809
X4.095Y-2.485
X4.095Y-2.55
X4.1Y-3.73
X4.115Y-2.715
X4.145Y-2.61
X4.145Y-2.7261
X4.17Y-2.645
X4.215Y-2.1
X4.235Y-2.475
X4.24Y-2.165
X4.27Y-3.005
X4.29Y-2.48
X4.295Y-1.815
X4.305Y-2.55
X4.305Y-2.78
X4.31Y-2.115
X4.31Y-2.19
X4.33Y-2.365
X4.33Y-3.005
X4.34Y-3.13
X4.35Y-2.59
X4.35Y-2.74
X4.35Y-2.94
X4.36Y-2.325
X4.36Y-2.48
X4.365Y-2.45
X4.365Y-2.69
X4.38Y-2.845
X4.39Y-2.42
X4.395Y-2.285
X4.4Y-2.9
X4.415Y-2.345
X4.415Y-2.725
X4.425Y-1.865
X4.43Y-3.005
X4.43Y-3.095
X4.445Y-2.58
X4.445Y-2.61
X4.445Y-2.83
X4.46Y-2.955
X4.52Y-2.85
X4.57Y-2.55
X4.61Y-1.885
T2
X3.91Y-3.97
X4.145Y-2.23
X4.23Y-2.61
X4.52Y-1.895
T3
X3.9Y-2.0
X3.9Y-2.1
X3.9Y-2.2
X3.9Y-2.3
X3.9Y-2.4
X3.9Y-2.5
X3.9Y-2.6
X3.9Y-2.7
X3.9Y-2.8
X3.9Y-2.9
X3.9Y-3.0
X3.9Y-3.1
X3.9Y-3.2
X3.9Y-3.3
X3.9Y-3.4
X3.9Y-3.5
X3.9Y-3.6
X3.9Y-3.7
X3.9Y-3.8
X3.9Y-3.9
X4.0Y-2.0
X4.0Y-2.1
X4.0Y-2.2
X4.0Y-2.3
X4.0Y-2.4
X4.0Y-2.5
X4.0Y-2.6
X4.0Y-2.7
X4.0Y-2.8
X4.0Y-2.9
X4.0Y-3.0
X4.0Y-3.1
X4.0Y-3.2
X4.0Y-3.3
X4.0Y-3.4
X4.0Y-3.5
X4.0Y-3.6
X4.0Y-3.7
X4.0Y-3.8
X4.0Y-3.9
X4.5Y-2.0
X4.5Y-2.1
X4.5Y-2.2
X4.5Y-2.3
X4.5Y-2.4
X4.5Y-2.5
X4.5Y-2.6
X4.5Y-2.7
X4.5Y-2.8
X4.5Y-2.9
X4.5Y-3.0
X4.5Y-3.1
X4.5Y-3.2
X4.5Y-3.3
X4.5Y-3.4
X4.5Y-3.5
X4.5Y-3.6
X4.5Y-3.7
X4.5Y-3.8
X4.5Y-3.9
X4.6Y-2.0
X4.6Y-2.1
X4.6Y-2.2
X4.6Y-2.3
X4.6Y-2.4
X4.6Y-2.5
X4.6Y-2.6
X4.6Y-2.7
X4.6Y-2.8
X4.6Y-2.9
X4.6Y-3.0
X4.6Y-3.1
X4.6Y-3.2
X4.6Y-3.3
X4.6Y-3.4
X4.6Y-3.5
X4.6Y-3.6
X4.6Y-3.7
X4.6Y-3.8
X4.6Y-3.9
T4
X3.925Y-1.8
X4.0Y-4.1
X4.07Y-1.8
X4.1Y-4.1
X4.2Y-4.1
X4.215Y-1.8
X4.3Y-4.1
X4.37Y-1.8
X4.4Y-4.1
X4.47Y-1.8
X4.57Y-1.8
T0
M30
